M48
;Layer_Color=9474304
;FILE_FORMAT=2:5
INCH,LZ
;TYPE=PLATED
T01F00S00C0.01181
T02F00S00C0.01968
T03F00S00C0.02000
T05F00S00C0.03543
T06F00S00C0.03937
T07F00S00C0.04724
T08F00S00C0.12500
;TYPE=NON_PLATED
T09F00S00C0.02756
%
T01
X0145177Y-005187
X0145039Y-0037771
X0139449Y-0039173
X0145079Y-0028051
X0159941Y-0022343
X0163051Y-0035531
X0182096Y-0029304
Y-0025761
X0185738
Y-0029304
X0191535Y-0038976
X0176083Y-0015748
X0143701Y0003937
X0143602Y0013189
X0155709Y0016831
X0123819Y0011319
X0117815Y0016535
X0136713Y0031594
X014813Y0027362
X0170965Y0032283
X01844Y0042175
X0182087Y0044488
X0200098Y004124
X0203405
X0196161Y0110335
X0190157Y0110433
X0172933Y0112205
X0160925Y0090453
X011939Y0074803
X0101772Y0071063
X0106358Y0060492
X0102903Y0057037
X010935Y0050591
X0113189Y0053661
X0122736Y0052953
X0100098Y0040846
X0093405Y0167815
X0193405
X0090453Y0110531
X0024213Y0201969
X0265551Y0201772
T02
X0203445Y0066339
X0203426Y0070834
X0196161Y0083957
X019626Y0088878
T03
X0036567Y-003189
X0034599Y-0025
X0036567Y-001811
X0043457Y-0016142
X0050347Y-001811
X0052315Y-0025
X0050347Y-003189
X0043457Y-0034843
X0239417Y-003189
X0237448Y-0025
X0239417Y-001811
X0246307Y-0016142
Y-0034843
X0253197Y-003189
X0255165Y-0025
X0253197Y-001811
T05
X024813Y0054035
X025813
X026813
X027813
X023813
T06
X0101476Y0194606
Y0224606
X0188287
Y0194606
T07
X0039075Y0186319
X0052854
X0070472
X0084252
Y0213878
X0070472
X0052854
X0039075
X0205512
X0219291
X023691
Y0186319
X0219291
X0205512
X0250689
Y0213878
T08
X0043457Y-0025
X0246307
T09
X0133504Y-0050689
X015626
M30
