G04*
G04 #@! TF.GenerationSoftware,Altium Limited,Altium Designer,24.4.1 (13)*
G04*
G04 Layer_Color=8388736*
%FSLAX25Y25*%
%MOIN*%
G70*
G04*
G04 #@! TF.SameCoordinates,2E14B590-8174-4A00-8B69-7048C21475D6*
G04*
G04*
G04 #@! TF.FilePolarity,Negative*
G04*
G01*
G75*
%ADD14C,0.00200*%
G04:AMPARAMS|DCode=30|XSize=47mil|YSize=12mil|CornerRadius=0mil|HoleSize=0mil|Usage=FLASHONLY|Rotation=45.000|XOffset=0mil|YOffset=0mil|HoleType=Round|Shape=Rectangle|*
%AMROTATEDRECTD30*
4,1,4,-0.01237,-0.02086,-0.02086,-0.01237,0.01237,0.02086,0.02086,0.01237,-0.01237,-0.02086,0.0*
%
%ADD30ROTATEDRECTD30*%

G04:AMPARAMS|DCode=31|XSize=47mil|YSize=12mil|CornerRadius=0mil|HoleSize=0mil|Usage=FLASHONLY|Rotation=135.000|XOffset=0mil|YOffset=0mil|HoleType=Round|Shape=Rectangle|*
%AMROTATEDRECTD31*
4,1,4,0.02086,-0.01237,0.01237,-0.02086,-0.02086,0.01237,-0.01237,0.02086,0.02086,-0.01237,0.0*
%
%ADD31ROTATEDRECTD31*%

%ADD36R,0.04400X0.02800*%
%ADD37R,0.09500X0.12600*%
%ADD38R,0.03162X0.06509*%
%ADD39R,0.01981X0.06509*%
G04:AMPARAMS|DCode=40|XSize=75.32mil|YSize=56.42mil|CornerRadius=10.05mil|HoleSize=0mil|Usage=FLASHONLY|Rotation=180.000|XOffset=0mil|YOffset=0mil|HoleType=Round|Shape=RoundedRectangle|*
%AMROUNDEDRECTD40*
21,1,0.07532,0.03632,0,0,180.0*
21,1,0.05522,0.05642,0,0,180.0*
1,1,0.02011,-0.02761,0.01816*
1,1,0.02011,0.02761,0.01816*
1,1,0.02011,0.02761,-0.01816*
1,1,0.02011,-0.02761,-0.01816*
%
%ADD40ROUNDEDRECTD40*%
%ADD41R,0.03950X0.03950*%
%ADD42R,0.04343X0.03162*%
G04:AMPARAMS|DCode=43|XSize=55.64mil|YSize=31.23mil|CornerRadius=6.9mil|HoleSize=0mil|Usage=FLASHONLY|Rotation=270.000|XOffset=0mil|YOffset=0mil|HoleType=Round|Shape=RoundedRectangle|*
%AMROUNDEDRECTD43*
21,1,0.05564,0.01742,0,0,270.0*
21,1,0.04183,0.03123,0,0,270.0*
1,1,0.01381,-0.00871,-0.02092*
1,1,0.01381,-0.00871,0.02092*
1,1,0.01381,0.00871,0.02092*
1,1,0.01381,0.00871,-0.02092*
%
%ADD43ROUNDEDRECTD43*%
G04:AMPARAMS|DCode=44|XSize=31.62mil|YSize=43.43mil|CornerRadius=0mil|HoleSize=0mil|Usage=FLASHONLY|Rotation=135.000|XOffset=0mil|YOffset=0mil|HoleType=Round|Shape=Rectangle|*
%AMROTATEDRECTD44*
4,1,4,0.02654,0.00418,-0.00418,-0.02654,-0.02654,-0.00418,0.00418,0.02654,0.02654,0.00418,0.0*
%
%ADD44ROTATEDRECTD44*%

%ADD45P,0.05586X4X180.0*%
%ADD46P,0.05586X4X90.0*%
G04:AMPARAMS|DCode=47|XSize=31.62mil|YSize=43.43mil|CornerRadius=0mil|HoleSize=0mil|Usage=FLASHONLY|Rotation=45.000|XOffset=0mil|YOffset=0mil|HoleType=Round|Shape=Rectangle|*
%AMROTATEDRECTD47*
4,1,4,0.00418,-0.02654,-0.02654,0.00418,-0.00418,0.02654,0.02654,-0.00418,0.00418,-0.02654,0.0*
%
%ADD47ROTATEDRECTD47*%

%ADD48O,0.03556X0.10642*%
%ADD49R,0.03800X0.03800*%
%ADD50R,0.03162X0.04343*%
G04:AMPARAMS|DCode=51|XSize=67.06mil|YSize=114.3mil|CornerRadius=0mil|HoleSize=0mil|Usage=FLASHONLY|Rotation=135.000|XOffset=0mil|YOffset=0mil|HoleType=Round|Shape=Rectangle|*
%AMROTATEDRECTD51*
4,1,4,0.06412,0.01670,-0.01670,-0.06412,-0.06412,-0.01670,0.01670,0.06412,0.06412,0.01670,0.0*
%
%ADD51ROTATEDRECTD51*%

%ADD52C,0.25800*%
%ADD53C,0.07887*%
%ADD54R,0.07887X0.07887*%
G04:AMPARAMS|DCode=55|XSize=70.87mil|YSize=70.87mil|CornerRadius=0mil|HoleSize=0mil|Usage=FLASHONLY|Rotation=0.000|XOffset=0mil|YOffset=0mil|HoleType=Round|Shape=Octagon|*
%AMOCTAGOND55*
4,1,8,0.03543,-0.01772,0.03543,0.01772,0.01772,0.03543,-0.01772,0.03543,-0.03543,0.01772,-0.03543,-0.01772,-0.01772,-0.03543,0.01772,-0.03543,0.03543,-0.01772,0.0*
%
%ADD55OCTAGOND55*%

%ADD56O,0.04934X0.09068*%
%ADD57C,0.03556*%
%ADD58R,0.06706X0.06706*%
%ADD59C,0.06706*%
D14*
X57733Y159687D02*
Y161487D01*
Y139087D02*
Y140687D01*
Y127887D02*
Y129287D01*
Y117687D02*
Y119287D01*
Y103287D02*
Y104887D01*
Y93087D02*
Y94887D01*
X57533Y158887D02*
Y162487D01*
Y153087D02*
Y154487D01*
Y146687D02*
Y147887D01*
Y138287D02*
Y141687D01*
Y131887D02*
Y133087D01*
Y127287D02*
Y129887D01*
Y121687D02*
Y122887D01*
Y116887D02*
Y120287D01*
Y111087D02*
Y112287D01*
Y102487D02*
Y105887D01*
Y92287D02*
Y95887D01*
X57333Y158287D02*
Y162887D01*
Y153087D02*
Y154487D01*
Y146687D02*
Y147887D01*
Y137887D02*
Y142087D01*
Y131887D02*
Y133087D01*
Y126887D02*
Y129887D01*
Y121687D02*
Y122887D01*
Y116487D02*
Y120687D01*
Y111087D02*
Y112287D01*
Y102087D02*
Y106287D01*
Y91687D02*
Y96287D01*
X57133Y158087D02*
Y163287D01*
Y153087D02*
Y154487D01*
Y146687D02*
Y147887D01*
Y137487D02*
Y142487D01*
Y131887D02*
Y133087D01*
Y126687D02*
Y129687D01*
Y121687D02*
Y122887D01*
Y116287D02*
Y121087D01*
Y111087D02*
Y112287D01*
Y101687D02*
Y106687D01*
Y91487D02*
Y96687D01*
X56933Y157687D02*
Y163487D01*
Y153087D02*
Y154487D01*
Y146687D02*
Y147887D01*
Y137287D02*
Y142687D01*
Y131887D02*
Y133087D01*
Y126687D02*
Y129687D01*
Y121687D02*
Y122887D01*
Y116087D02*
Y121287D01*
Y111087D02*
Y112287D01*
Y101487D02*
Y106887D01*
Y91087D02*
Y96887D01*
X56733Y157487D02*
Y163687D01*
Y153087D02*
Y154487D01*
Y146687D02*
Y147887D01*
Y137087D02*
Y142887D01*
Y131887D02*
Y133087D01*
Y126487D02*
Y129687D01*
Y121687D02*
Y122887D01*
Y115887D02*
Y121487D01*
Y111087D02*
Y112287D01*
Y101087D02*
Y107087D01*
Y90887D02*
Y97087D01*
X56533Y161487D02*
Y163887D01*
Y157287D02*
Y159687D01*
Y153087D02*
Y154487D01*
Y146687D02*
Y147887D01*
Y140687D02*
Y143087D01*
Y136687D02*
Y139287D01*
Y131887D02*
Y133087D01*
Y129487D02*
Y129687D01*
Y126487D02*
Y128287D01*
Y119487D02*
Y122887D01*
Y115687D02*
Y118087D01*
Y111087D02*
Y112287D01*
Y104887D02*
Y107287D01*
Y100887D02*
Y103487D01*
Y94887D02*
Y97287D01*
Y90687D02*
Y93087D01*
X56333Y162087D02*
Y164087D01*
Y157087D02*
Y159087D01*
Y153087D02*
Y154487D01*
Y146687D02*
Y147887D01*
Y141287D02*
Y143287D01*
Y136687D02*
Y138687D01*
Y131887D02*
Y133087D01*
Y126287D02*
Y127887D01*
Y120087D02*
Y122887D01*
Y115687D02*
Y117487D01*
Y111087D02*
Y112287D01*
Y105487D02*
Y107487D01*
Y100887D02*
Y102887D01*
Y95487D02*
Y97487D01*
Y90487D02*
Y92487D01*
X56133Y162487D02*
Y164287D01*
Y157087D02*
Y158887D01*
Y153087D02*
Y154487D01*
Y146687D02*
Y147887D01*
Y141687D02*
Y143487D01*
Y136487D02*
Y138287D01*
Y131887D02*
Y133087D01*
Y126287D02*
Y127687D01*
Y120487D02*
Y122887D01*
Y115487D02*
Y117287D01*
Y111087D02*
Y112287D01*
Y105887D02*
Y107687D01*
Y100687D02*
Y102487D01*
Y95887D02*
Y97687D01*
Y90487D02*
Y92287D01*
X55933Y162687D02*
Y164287D01*
Y156887D02*
Y158487D01*
Y153087D02*
Y154487D01*
Y146687D02*
Y147887D01*
Y141887D02*
Y143687D01*
Y136287D02*
Y138087D01*
Y131887D02*
Y133087D01*
Y126287D02*
Y127687D01*
Y120687D02*
Y122887D01*
Y115487D02*
Y117087D01*
Y111087D02*
Y112287D01*
Y106087D02*
Y107887D01*
Y100487D02*
Y102287D01*
Y96087D02*
Y97687D01*
Y90287D02*
Y91887D01*
X55733Y162887D02*
Y164287D01*
Y156887D02*
Y158287D01*
Y153087D02*
Y154487D01*
Y146687D02*
Y147887D01*
Y142087D02*
Y143887D01*
Y136087D02*
Y137887D01*
Y131887D02*
Y133087D01*
Y126287D02*
Y127687D01*
Y120887D02*
Y122887D01*
Y115287D02*
Y116887D01*
Y111087D02*
Y112287D01*
Y106287D02*
Y108087D01*
Y100287D02*
Y102087D01*
Y96287D02*
Y97687D01*
Y90287D02*
Y91687D01*
X55533Y163087D02*
Y164487D01*
Y156687D02*
Y158287D01*
Y153087D02*
Y154487D01*
Y146687D02*
Y147887D01*
Y142287D02*
Y143887D01*
Y136087D02*
Y137687D01*
Y131887D02*
Y133087D01*
Y126287D02*
Y127487D01*
Y121087D02*
Y122887D01*
Y115287D02*
Y116687D01*
Y111087D02*
Y112287D01*
Y106487D02*
Y108087D01*
Y100287D02*
Y101887D01*
Y96487D02*
Y97887D01*
Y90087D02*
Y91687D01*
X55333Y163087D02*
Y164487D01*
Y156687D02*
Y158087D01*
Y153087D02*
Y154487D01*
Y146687D02*
Y147887D01*
Y142487D02*
Y144087D01*
Y135887D02*
Y137487D01*
Y131887D02*
Y133087D01*
Y126287D02*
Y127487D01*
Y121287D02*
Y122887D01*
Y115287D02*
Y116687D01*
Y111087D02*
Y112287D01*
Y106687D02*
Y108287D01*
Y100087D02*
Y101687D01*
Y96487D02*
Y97887D01*
Y90087D02*
Y91487D01*
X55133Y163087D02*
Y164487D01*
Y156687D02*
Y158087D01*
Y153087D02*
Y154487D01*
Y146687D02*
Y147887D01*
Y142487D02*
Y144087D01*
Y135887D02*
Y137287D01*
Y131887D02*
Y133087D01*
Y126287D02*
Y127487D01*
Y121287D02*
Y122887D01*
Y115087D02*
Y116687D01*
Y111087D02*
Y112287D01*
Y106687D02*
Y108287D01*
Y100087D02*
Y101487D01*
Y96487D02*
Y97887D01*
Y90087D02*
Y91487D01*
X54933Y163087D02*
Y164487D01*
Y156687D02*
Y158087D01*
Y153087D02*
Y154487D01*
Y146687D02*
Y147887D01*
Y142687D02*
Y144087D01*
Y135687D02*
Y137287D01*
Y131887D02*
Y133087D01*
Y126287D02*
Y127487D01*
Y121487D02*
Y122887D01*
Y115087D02*
Y116487D01*
Y111087D02*
Y112287D01*
Y106887D02*
Y108287D01*
Y99887D02*
Y101487D01*
Y96487D02*
Y97887D01*
Y90087D02*
Y91487D01*
X54733Y163087D02*
Y164487D01*
Y156687D02*
Y157887D01*
Y153087D02*
Y154487D01*
Y146687D02*
Y147887D01*
Y142887D02*
Y144287D01*
Y135687D02*
Y137087D01*
Y131887D02*
Y133087D01*
Y126287D02*
Y127487D01*
Y121487D02*
Y122887D01*
Y115087D02*
Y116487D01*
Y111087D02*
Y112287D01*
Y107087D02*
Y108487D01*
Y99887D02*
Y101287D01*
Y96487D02*
Y97887D01*
Y90087D02*
Y91287D01*
X54533Y163087D02*
Y164487D01*
Y153087D02*
Y154487D01*
Y146687D02*
Y147887D01*
Y142887D02*
Y144287D01*
Y135687D02*
Y137087D01*
Y131887D02*
Y133087D01*
Y126287D02*
Y127487D01*
Y121687D02*
Y122887D01*
Y115087D02*
Y116487D01*
Y111087D02*
Y112287D01*
Y107087D02*
Y108487D01*
Y99887D02*
Y101287D01*
Y96487D02*
Y97887D01*
X54333Y163087D02*
Y164487D01*
Y153087D02*
Y154487D01*
Y146687D02*
Y147887D01*
Y142887D02*
Y144287D01*
Y135487D02*
Y137087D01*
Y131887D02*
Y133087D01*
Y126287D02*
Y127487D01*
Y121687D02*
Y122887D01*
Y115087D02*
Y116487D01*
Y111087D02*
Y112287D01*
Y107087D02*
Y108487D01*
Y99687D02*
Y101087D01*
Y96487D02*
Y97887D01*
X54133Y162887D02*
Y164487D01*
Y153087D02*
Y154487D01*
Y146687D02*
Y147887D01*
Y143087D02*
Y144487D01*
Y135487D02*
Y136887D01*
Y131887D02*
Y133087D01*
Y126287D02*
Y127487D01*
Y121687D02*
Y122887D01*
Y115087D02*
Y116487D01*
Y111087D02*
Y112287D01*
Y107287D02*
Y108687D01*
Y99687D02*
Y101087D01*
Y96287D02*
Y97887D01*
X53933Y162687D02*
Y164287D01*
Y153087D02*
Y154487D01*
Y146687D02*
Y147887D01*
Y143087D02*
Y144487D01*
Y135487D02*
Y136887D01*
Y131887D02*
Y133087D01*
Y126287D02*
Y127487D01*
Y121687D02*
Y122887D01*
Y115087D02*
Y116487D01*
Y111087D02*
Y112287D01*
Y107287D02*
Y108687D01*
Y99687D02*
Y101087D01*
Y96087D02*
Y97687D01*
X53733Y162487D02*
Y164287D01*
Y153087D02*
Y154487D01*
Y146687D02*
Y147887D01*
Y143087D02*
Y144487D01*
Y135487D02*
Y136887D01*
Y131887D02*
Y133087D01*
Y126287D02*
Y127487D01*
Y121687D02*
Y122887D01*
Y115087D02*
Y116487D01*
Y111087D02*
Y112287D01*
Y107287D02*
Y108687D01*
Y99687D02*
Y101087D01*
Y95887D02*
Y97687D01*
X53533Y162287D02*
Y164087D01*
Y153087D02*
Y154487D01*
Y146687D02*
Y147887D01*
Y143087D02*
Y144487D01*
Y135487D02*
Y136687D01*
Y131887D02*
Y133087D01*
Y126287D02*
Y127487D01*
Y121687D02*
Y122887D01*
Y115087D02*
Y116487D01*
Y111087D02*
Y112287D01*
Y107287D02*
Y108687D01*
Y99687D02*
Y100887D01*
Y95687D02*
Y97487D01*
X53333Y161887D02*
Y164087D01*
Y153087D02*
Y154487D01*
Y146687D02*
Y147887D01*
Y143287D02*
Y144487D01*
Y135487D02*
Y136687D01*
Y131887D02*
Y133087D01*
Y126287D02*
Y127487D01*
Y121687D02*
Y122887D01*
Y115087D02*
Y116487D01*
Y111087D02*
Y112287D01*
Y107487D02*
Y108687D01*
Y99687D02*
Y100887D01*
Y95287D02*
Y97487D01*
X53133Y161287D02*
Y163887D01*
Y153087D02*
Y154487D01*
Y146687D02*
Y147887D01*
Y143287D02*
Y144487D01*
Y135487D02*
Y136687D01*
Y131887D02*
Y133087D01*
Y126287D02*
Y127487D01*
Y121687D02*
Y122887D01*
Y115087D02*
Y116487D01*
Y111087D02*
Y112287D01*
Y107487D02*
Y108687D01*
Y99687D02*
Y100887D01*
Y94687D02*
Y97287D01*
X52933Y160487D02*
Y163687D01*
Y153087D02*
Y154487D01*
Y146687D02*
Y147887D01*
Y143287D02*
Y144487D01*
Y135287D02*
Y136687D01*
Y131887D02*
Y133087D01*
Y126287D02*
Y127487D01*
Y121687D02*
Y122887D01*
Y115087D02*
Y116487D01*
Y111087D02*
Y112287D01*
Y107487D02*
Y108687D01*
Y99487D02*
Y100887D01*
Y93887D02*
Y97087D01*
X52733Y159687D02*
Y163487D01*
Y153087D02*
Y154487D01*
Y146687D02*
Y147887D01*
Y143287D02*
Y144487D01*
Y135287D02*
Y136687D01*
Y131887D02*
Y133087D01*
Y126287D02*
Y127487D01*
Y121687D02*
Y122887D01*
Y115087D02*
Y116487D01*
Y111087D02*
Y112287D01*
Y107487D02*
Y108687D01*
Y99487D02*
Y100887D01*
Y93087D02*
Y96887D01*
X52533Y159087D02*
Y163087D01*
Y153087D02*
Y154487D01*
Y146687D02*
Y147887D01*
Y143287D02*
Y144487D01*
Y135287D02*
Y136687D01*
Y131887D02*
Y133087D01*
Y126287D02*
Y127487D01*
Y121687D02*
Y122887D01*
Y115087D02*
Y116487D01*
Y111087D02*
Y112287D01*
Y107487D02*
Y108687D01*
Y99487D02*
Y100887D01*
Y92487D02*
Y96487D01*
X52333Y158487D02*
Y162687D01*
Y153087D02*
Y154487D01*
Y146687D02*
Y147887D01*
Y143287D02*
Y144487D01*
Y135287D02*
Y136687D01*
Y131887D02*
Y133087D01*
Y126287D02*
Y127487D01*
Y121687D02*
Y122887D01*
Y115087D02*
Y116487D01*
Y111087D02*
Y112287D01*
Y107487D02*
Y108687D01*
Y99487D02*
Y100887D01*
Y91887D02*
Y96087D01*
X52133Y158087D02*
Y162087D01*
Y153087D02*
Y154487D01*
Y146687D02*
Y147887D01*
Y143287D02*
Y144487D01*
Y135287D02*
Y136687D01*
Y131887D02*
Y133087D01*
Y126287D02*
Y127487D01*
Y121687D02*
Y122887D01*
Y115087D02*
Y116487D01*
Y111087D02*
Y112287D01*
Y107487D02*
Y108687D01*
Y99487D02*
Y100887D01*
Y91487D02*
Y95487D01*
X51933Y157887D02*
Y161487D01*
Y153087D02*
Y154487D01*
Y146687D02*
Y147887D01*
Y143287D02*
Y144487D01*
Y135287D02*
Y136687D01*
Y131887D02*
Y133087D01*
Y126287D02*
Y127487D01*
Y121687D02*
Y122887D01*
Y115087D02*
Y116487D01*
Y111087D02*
Y112287D01*
Y107487D02*
Y108687D01*
Y99487D02*
Y100887D01*
Y91287D02*
Y94887D01*
X51733Y157687D02*
Y160687D01*
Y153087D02*
Y154487D01*
Y146687D02*
Y147887D01*
Y143287D02*
Y144487D01*
Y135487D02*
Y136687D01*
Y131887D02*
Y133087D01*
Y126287D02*
Y127487D01*
Y121687D02*
Y122887D01*
Y115087D02*
Y116487D01*
Y111087D02*
Y112287D01*
Y107487D02*
Y108687D01*
Y99687D02*
Y100887D01*
Y91087D02*
Y94087D01*
X51533Y157487D02*
Y159887D01*
Y153087D02*
Y154487D01*
Y146687D02*
Y147887D01*
Y143287D02*
Y144487D01*
Y135487D02*
Y136687D01*
Y131887D02*
Y133087D01*
Y126287D02*
Y127487D01*
Y121687D02*
Y122887D01*
Y115087D02*
Y116487D01*
Y111087D02*
Y112287D01*
Y107487D02*
Y108687D01*
Y99687D02*
Y100887D01*
Y90887D02*
Y93287D01*
X51333Y157287D02*
Y159487D01*
Y153087D02*
Y154487D01*
Y146687D02*
Y147887D01*
Y143087D02*
Y144487D01*
Y135487D02*
Y136887D01*
Y131887D02*
Y133087D01*
Y126287D02*
Y127487D01*
Y121687D02*
Y122887D01*
Y115087D02*
Y116487D01*
Y111087D02*
Y112287D01*
Y107287D02*
Y108687D01*
Y99687D02*
Y101087D01*
Y90687D02*
Y92887D01*
X51133Y157087D02*
Y159087D01*
Y153087D02*
Y154487D01*
Y146687D02*
Y147887D01*
Y143087D02*
Y144487D01*
Y135487D02*
Y136887D01*
Y131887D02*
Y133087D01*
Y126287D02*
Y127487D01*
Y121687D02*
Y122887D01*
Y115087D02*
Y116487D01*
Y111087D02*
Y112287D01*
Y107287D02*
Y108687D01*
Y99687D02*
Y101087D01*
Y90487D02*
Y92487D01*
X50933Y157087D02*
Y158687D01*
Y153087D02*
Y154487D01*
Y146687D02*
Y147887D01*
Y143087D02*
Y144487D01*
Y135487D02*
Y136887D01*
Y131887D02*
Y133087D01*
Y126287D02*
Y127487D01*
Y121687D02*
Y122887D01*
Y115087D02*
Y116487D01*
Y111087D02*
Y112287D01*
Y107287D02*
Y108687D01*
Y99687D02*
Y101087D01*
Y90487D02*
Y92087D01*
X50733Y157087D02*
Y158487D01*
Y153087D02*
Y154487D01*
Y146687D02*
Y147887D01*
Y143087D02*
Y144487D01*
Y135487D02*
Y136887D01*
Y131887D02*
Y133087D01*
Y126287D02*
Y127487D01*
Y121687D02*
Y122887D01*
Y115087D02*
Y116487D01*
Y111087D02*
Y112287D01*
Y107287D02*
Y108687D01*
Y99687D02*
Y101087D01*
Y90487D02*
Y91887D01*
X50533Y157087D02*
Y158487D01*
Y153087D02*
Y154487D01*
Y146687D02*
Y148087D01*
Y142887D02*
Y144287D01*
Y135687D02*
Y137087D01*
Y131887D02*
Y133087D01*
Y126287D02*
Y127487D01*
Y121687D02*
Y122887D01*
Y115087D02*
Y116487D01*
Y111087D02*
Y112287D01*
Y107087D02*
Y108487D01*
Y99687D02*
Y101287D01*
Y90487D02*
Y91887D01*
X50333Y163087D02*
Y164487D01*
Y156887D02*
Y158287D01*
Y153087D02*
Y154487D01*
Y146687D02*
Y148087D01*
Y142887D02*
Y144287D01*
Y135687D02*
Y137087D01*
Y131887D02*
Y133087D01*
Y126287D02*
Y127487D01*
Y121687D02*
Y122887D01*
Y115087D02*
Y116487D01*
Y111087D02*
Y112287D01*
Y107087D02*
Y108487D01*
Y99887D02*
Y101287D01*
Y96487D02*
Y97887D01*
Y90287D02*
Y91687D01*
X50133Y163087D02*
Y164487D01*
Y156887D02*
Y158287D01*
Y153087D02*
Y154487D01*
Y146687D02*
Y148287D01*
Y142687D02*
Y144287D01*
Y135687D02*
Y137287D01*
Y131887D02*
Y133087D01*
Y126287D02*
Y127487D01*
Y121687D02*
Y122887D01*
Y115087D02*
Y116487D01*
Y111087D02*
Y112287D01*
Y106887D02*
Y108487D01*
Y99887D02*
Y101487D01*
Y96487D02*
Y97887D01*
Y90287D02*
Y91687D01*
X49933Y163087D02*
Y164487D01*
Y156887D02*
Y158287D01*
Y153087D02*
Y154487D01*
Y146687D02*
Y148287D01*
Y142687D02*
Y144087D01*
Y135887D02*
Y137287D01*
Y131887D02*
Y133087D01*
Y126287D02*
Y127487D01*
Y121687D02*
Y122887D01*
Y115087D02*
Y116487D01*
Y111087D02*
Y112287D01*
Y106887D02*
Y108287D01*
Y100087D02*
Y101487D01*
Y96487D02*
Y97887D01*
Y90287D02*
Y91687D01*
X49733Y163087D02*
Y164487D01*
Y156887D02*
Y158287D01*
Y152887D02*
Y154287D01*
Y146687D02*
Y148487D01*
Y142487D02*
Y144087D01*
Y135887D02*
Y137487D01*
Y131887D02*
Y133087D01*
Y126287D02*
Y127487D01*
Y121687D02*
Y122887D01*
Y115087D02*
Y116487D01*
Y111087D02*
Y112287D01*
Y106687D02*
Y108287D01*
Y100087D02*
Y101687D01*
Y96487D02*
Y97887D01*
Y90287D02*
Y91687D01*
X49533Y162887D02*
Y164287D01*
Y156887D02*
Y158287D01*
Y152887D02*
Y154287D01*
Y146687D02*
Y148687D01*
Y142287D02*
Y143887D01*
Y135887D02*
Y137487D01*
Y131887D02*
Y133087D01*
Y126287D02*
Y127487D01*
Y121687D02*
Y122887D01*
Y115087D02*
Y116487D01*
Y111087D02*
Y112287D01*
Y106487D02*
Y108087D01*
Y100087D02*
Y101687D01*
Y96287D02*
Y97687D01*
Y90287D02*
Y91687D01*
X49333Y162887D02*
Y164287D01*
Y157087D02*
Y158487D01*
Y152887D02*
Y154287D01*
Y146687D02*
Y148687D01*
Y142287D02*
Y143887D01*
Y136087D02*
Y137687D01*
Y131887D02*
Y133087D01*
Y126287D02*
Y127487D01*
Y121687D02*
Y122887D01*
Y115087D02*
Y116487D01*
Y111087D02*
Y112287D01*
Y106487D02*
Y108087D01*
Y100287D02*
Y101887D01*
Y96287D02*
Y97687D01*
Y90487D02*
Y91887D01*
X49133Y162687D02*
Y164287D01*
Y157087D02*
Y158487D01*
Y152687D02*
Y154287D01*
Y146687D02*
Y148887D01*
Y142087D02*
Y143687D01*
Y136287D02*
Y137887D01*
Y131887D02*
Y133087D01*
Y126287D02*
Y127487D01*
Y121687D02*
Y122887D01*
Y115087D02*
Y116487D01*
Y111087D02*
Y112287D01*
Y106287D02*
Y107887D01*
Y100487D02*
Y102087D01*
Y96087D02*
Y97687D01*
Y90487D02*
Y91887D01*
X48933Y162487D02*
Y164087D01*
Y157087D02*
Y158687D01*
Y152487D02*
Y154087D01*
Y146687D02*
Y149087D01*
Y141887D02*
Y143687D01*
Y136287D02*
Y138087D01*
Y131887D02*
Y133087D01*
Y126287D02*
Y127487D01*
Y121687D02*
Y122887D01*
Y115087D02*
Y116487D01*
Y111087D02*
Y112287D01*
Y106087D02*
Y107887D01*
Y100487D02*
Y102287D01*
Y95887D02*
Y97487D01*
Y90487D02*
Y92087D01*
X48733Y162087D02*
Y164087D01*
Y157287D02*
Y159087D01*
Y152287D02*
Y154087D01*
Y146687D02*
Y149487D01*
Y141487D02*
Y143487D01*
Y136487D02*
Y138487D01*
Y131887D02*
Y133087D01*
Y126287D02*
Y127487D01*
Y121687D02*
Y122887D01*
Y115087D02*
Y116487D01*
Y111087D02*
Y112287D01*
Y105687D02*
Y107687D01*
Y100687D02*
Y102687D01*
Y95487D02*
Y97487D01*
Y90687D02*
Y92487D01*
X48533Y161887D02*
Y163887D01*
Y157287D02*
Y159287D01*
Y152087D02*
Y154087D01*
Y148087D02*
Y149887D01*
Y146687D02*
Y147887D01*
Y141087D02*
Y143287D01*
Y136687D02*
Y138887D01*
Y131887D02*
Y133087D01*
Y126287D02*
Y127487D01*
Y121687D02*
Y122887D01*
Y115087D02*
Y116487D01*
Y111087D02*
Y112287D01*
Y105287D02*
Y107487D01*
Y100887D02*
Y103087D01*
Y95287D02*
Y97287D01*
Y90687D02*
Y92687D01*
X48333Y161087D02*
Y163687D01*
Y157487D02*
Y160087D01*
Y151287D02*
Y153887D01*
Y148287D02*
Y150487D01*
Y146687D02*
Y147887D01*
Y140487D02*
Y143087D01*
Y136887D02*
Y139487D01*
Y131887D02*
Y133087D01*
Y124287D02*
Y129687D01*
Y121687D02*
Y122887D01*
Y115087D02*
Y116487D01*
Y111087D02*
Y112287D01*
Y104687D02*
Y107287D01*
Y101087D02*
Y103687D01*
Y94487D02*
Y97087D01*
Y90887D02*
Y93487D01*
X48133Y157687D02*
Y163687D01*
Y148487D02*
Y153687D01*
Y146687D02*
Y147887D01*
Y137087D02*
Y142887D01*
Y131887D02*
Y133087D01*
Y124287D02*
Y129687D01*
Y121687D02*
Y122887D01*
Y115087D02*
Y116487D01*
Y111087D02*
Y112287D01*
Y101287D02*
Y107087D01*
Y91087D02*
Y97087D01*
X47933Y157887D02*
Y163287D01*
Y148687D02*
Y153487D01*
Y146687D02*
Y147887D01*
Y137287D02*
Y142687D01*
Y131887D02*
Y133087D01*
Y124287D02*
Y129687D01*
Y121687D02*
Y122887D01*
Y115087D02*
Y116487D01*
Y111087D02*
Y112287D01*
Y101487D02*
Y106887D01*
Y91287D02*
Y96687D01*
X47733Y158287D02*
Y163087D01*
Y149087D02*
Y153287D01*
Y146687D02*
Y147887D01*
Y137687D02*
Y142287D01*
Y131887D02*
Y133087D01*
Y124287D02*
Y129687D01*
Y121687D02*
Y122887D01*
Y115087D02*
Y116487D01*
Y111087D02*
Y112287D01*
Y101887D02*
Y106487D01*
Y91687D02*
Y96487D01*
X47533Y158487D02*
Y162687D01*
Y149287D02*
Y153087D01*
Y146687D02*
Y147887D01*
Y138087D02*
Y141887D01*
Y131887D02*
Y133087D01*
Y124287D02*
Y129687D01*
Y121687D02*
Y122887D01*
Y115087D02*
Y116487D01*
Y111087D02*
Y112287D01*
Y102287D02*
Y106087D01*
Y91887D02*
Y96087D01*
X47333Y159087D02*
Y162087D01*
Y149887D02*
Y152487D01*
Y146687D02*
Y147887D01*
Y138487D02*
Y141487D01*
Y131887D02*
Y133087D01*
Y124287D02*
Y129687D01*
Y121687D02*
Y122887D01*
Y115087D02*
Y116487D01*
Y111087D02*
Y112287D01*
Y102687D02*
Y105687D01*
Y92487D02*
Y95487D01*
X47133Y126287D02*
Y127487D01*
Y111087D02*
Y112287D01*
X46933Y126287D02*
Y127487D01*
Y111087D02*
Y112287D01*
X46733Y126287D02*
Y127487D01*
Y111087D02*
Y112287D01*
X46533Y126287D02*
Y127487D01*
Y111087D02*
Y112287D01*
X46333Y126287D02*
Y127487D01*
Y111087D02*
Y112287D01*
X46133Y126287D02*
Y127487D01*
Y111087D02*
Y112287D01*
X45933Y126287D02*
Y127487D01*
Y111087D02*
Y112287D01*
X45733Y126287D02*
Y127487D01*
Y111087D02*
Y112287D01*
X45533Y126287D02*
Y127487D01*
Y111087D02*
Y112287D01*
X45333Y132287D02*
Y132887D01*
Y126287D02*
Y127487D01*
Y111087D02*
Y112287D01*
X45133Y131887D02*
Y133287D01*
Y126287D02*
Y127487D01*
Y111087D02*
Y112287D01*
X44933Y131687D02*
Y133287D01*
Y126287D02*
Y127487D01*
Y111087D02*
Y112287D01*
X44733Y131687D02*
Y133287D01*
Y111087D02*
Y112287D01*
X44533Y131687D02*
Y133487D01*
Y111087D02*
Y112287D01*
X44333Y131687D02*
Y133487D01*
Y111087D02*
Y112287D01*
X44133Y131687D02*
Y133287D01*
Y111087D02*
Y112287D01*
X43933Y131887D02*
Y133287D01*
Y111087D02*
Y112287D01*
X43733Y132087D02*
Y132887D01*
Y111087D02*
Y112287D01*
X43533Y111087D02*
Y112287D01*
X43333Y111087D02*
Y112287D01*
X43133Y111087D02*
Y112287D01*
X41533Y161487D02*
Y164287D01*
Y143887D02*
Y146487D01*
Y119687D02*
Y122287D01*
Y102487D02*
Y105087D01*
X41333Y160887D02*
Y164887D01*
Y152687D02*
Y153887D01*
Y148687D02*
Y150087D01*
Y143487D02*
Y147087D01*
Y136287D02*
Y137687D01*
Y130087D02*
Y131287D01*
Y124087D02*
Y125287D01*
Y119287D02*
Y122887D01*
Y111287D02*
Y112487D01*
Y107287D02*
Y108687D01*
Y102087D02*
Y105687D01*
Y97087D02*
Y98287D01*
Y90487D02*
Y91887D01*
X41133Y160487D02*
Y165287D01*
Y152687D02*
Y153887D01*
Y148687D02*
Y150087D01*
Y143087D02*
Y147487D01*
Y136287D02*
Y137687D01*
Y129887D02*
Y131287D01*
Y124087D02*
Y125287D01*
Y118887D02*
Y123287D01*
Y111287D02*
Y112487D01*
Y107287D02*
Y108687D01*
Y101687D02*
Y106087D01*
Y97087D02*
Y98287D01*
Y90487D02*
Y91887D01*
X40933Y160287D02*
Y165487D01*
Y152687D02*
Y153887D01*
Y148687D02*
Y150087D01*
Y142887D02*
Y147887D01*
Y136287D02*
Y137687D01*
Y129887D02*
Y131487D01*
Y124087D02*
Y125287D01*
Y118687D02*
Y123487D01*
Y111287D02*
Y112487D01*
Y107287D02*
Y108687D01*
Y101487D02*
Y106487D01*
Y97087D02*
Y98287D01*
Y90487D02*
Y91887D01*
X40733Y159887D02*
Y165687D01*
Y152687D02*
Y153887D01*
Y148687D02*
Y150087D01*
Y142687D02*
Y148087D01*
Y136087D02*
Y137687D01*
Y129887D02*
Y131487D01*
Y124087D02*
Y125287D01*
Y118487D02*
Y123687D01*
Y111287D02*
Y112487D01*
Y107287D02*
Y108687D01*
Y101287D02*
Y106687D01*
Y97087D02*
Y98287D01*
Y90487D02*
Y91887D01*
X40533Y163087D02*
Y165887D01*
Y159687D02*
Y162687D01*
Y152687D02*
Y153887D01*
Y148487D02*
Y149887D01*
Y142487D02*
Y148287D01*
Y136087D02*
Y137887D01*
Y129887D02*
Y131487D01*
Y124087D02*
Y125287D01*
Y118287D02*
Y123887D01*
Y111287D02*
Y112487D01*
Y107087D02*
Y108487D01*
Y101087D02*
Y106887D01*
Y97087D02*
Y98287D01*
Y90487D02*
Y91887D01*
X40333Y164087D02*
Y166087D01*
Y159487D02*
Y161687D01*
Y152687D02*
Y153887D01*
Y146487D02*
Y149887D01*
Y142287D02*
Y144487D01*
Y136087D02*
Y137887D01*
Y129687D02*
Y131687D01*
Y122287D02*
Y125287D01*
Y118087D02*
Y120287D01*
Y111287D02*
Y112487D01*
Y105087D02*
Y108487D01*
Y100887D02*
Y103087D01*
Y97087D02*
Y98287D01*
Y90487D02*
Y91887D01*
X40133Y164487D02*
Y166287D01*
Y159287D02*
Y161287D01*
Y152687D02*
Y153887D01*
Y146887D02*
Y149887D01*
Y142087D02*
Y144087D01*
Y135887D02*
Y137887D01*
Y129687D02*
Y131687D01*
Y122687D02*
Y125287D01*
Y117887D02*
Y119887D01*
Y111287D02*
Y112487D01*
Y105487D02*
Y108487D01*
Y100687D02*
Y102687D01*
Y97087D02*
Y98287D01*
Y90487D02*
Y91887D01*
X39933Y164887D02*
Y166487D01*
Y159287D02*
Y161087D01*
Y152687D02*
Y153887D01*
Y147287D02*
Y149887D01*
Y142087D02*
Y143887D01*
Y135887D02*
Y138087D01*
Y129687D02*
Y131687D01*
Y123087D02*
Y125287D01*
Y117887D02*
Y119487D01*
Y111287D02*
Y112487D01*
Y105887D02*
Y108487D01*
Y100687D02*
Y102487D01*
Y97087D02*
Y98287D01*
Y90487D02*
Y91887D01*
X39733Y165087D02*
Y166487D01*
Y159087D02*
Y160887D01*
Y152687D02*
Y153887D01*
Y147487D02*
Y149887D01*
Y142087D02*
Y143687D01*
Y135887D02*
Y138087D01*
Y129487D02*
Y131887D01*
Y123287D02*
Y125287D01*
Y117687D02*
Y119287D01*
Y111287D02*
Y112487D01*
Y106087D02*
Y108487D01*
Y100687D02*
Y102287D01*
Y97087D02*
Y98287D01*
Y90487D02*
Y91887D01*
X39533Y165287D02*
Y166287D01*
Y158887D02*
Y160687D01*
Y152687D02*
Y153887D01*
Y147887D02*
Y149887D01*
Y141887D02*
Y143487D01*
Y135687D02*
Y138087D01*
Y129487D02*
Y131887D01*
Y123487D02*
Y125287D01*
Y117687D02*
Y119087D01*
Y111287D02*
Y112487D01*
Y106487D02*
Y108487D01*
Y100487D02*
Y102087D01*
Y97087D02*
Y98287D01*
Y90487D02*
Y91887D01*
X39333Y165487D02*
Y166087D01*
Y158887D02*
Y160487D01*
Y152687D02*
Y153887D01*
Y148087D02*
Y149887D01*
Y141887D02*
Y143287D01*
Y135687D02*
Y138087D01*
Y129487D02*
Y131887D01*
Y123687D02*
Y125287D01*
Y117487D02*
Y119087D01*
Y111287D02*
Y112487D01*
Y106687D02*
Y108487D01*
Y100487D02*
Y101887D01*
Y97087D02*
Y98287D01*
Y90487D02*
Y91887D01*
X39133Y158687D02*
Y160287D01*
Y152687D02*
Y153887D01*
Y148087D02*
Y149887D01*
Y141887D02*
Y143287D01*
Y137087D02*
Y138287D01*
Y135687D02*
Y136887D01*
Y129487D02*
Y132087D01*
Y123687D02*
Y125287D01*
Y117487D02*
Y118887D01*
Y111287D02*
Y112487D01*
Y106687D02*
Y108487D01*
Y100487D02*
Y101887D01*
Y97087D02*
Y98287D01*
Y90487D02*
Y91887D01*
X38933Y158687D02*
Y160087D01*
Y152687D02*
Y153887D01*
Y148287D02*
Y149887D01*
Y141887D02*
Y143287D01*
Y137087D02*
Y138287D01*
Y135487D02*
Y136887D01*
Y130887D02*
Y132087D01*
Y129287D02*
Y130687D01*
Y123887D02*
Y125287D01*
Y117287D02*
Y118887D01*
Y111287D02*
Y112487D01*
Y106887D02*
Y108487D01*
Y100487D02*
Y101887D01*
Y97087D02*
Y98287D01*
Y90487D02*
Y91887D01*
X38733Y158487D02*
Y160087D01*
Y152687D02*
Y153887D01*
Y148487D02*
Y149887D01*
Y141887D02*
Y143287D01*
Y137087D02*
Y138287D01*
Y135487D02*
Y136687D01*
Y130887D02*
Y132087D01*
Y129287D02*
Y130487D01*
Y123887D02*
Y125287D01*
Y117287D02*
Y118687D01*
Y111287D02*
Y112487D01*
Y107087D02*
Y108487D01*
Y100487D02*
Y101887D01*
Y97087D02*
Y98287D01*
Y90487D02*
Y91887D01*
X38533Y158487D02*
Y159887D01*
Y152687D02*
Y153887D01*
Y148487D02*
Y149887D01*
Y141887D02*
Y143287D01*
Y137087D02*
Y138487D01*
Y135487D02*
Y136687D01*
Y130887D02*
Y132087D01*
Y129287D02*
Y130487D01*
Y124087D02*
Y125287D01*
Y117287D02*
Y118687D01*
Y111287D02*
Y112487D01*
Y107087D02*
Y108487D01*
Y100487D02*
Y101887D01*
Y97087D02*
Y98287D01*
Y90487D02*
Y91887D01*
X38333Y158487D02*
Y159887D01*
Y152687D02*
Y153887D01*
Y148487D02*
Y149887D01*
Y141887D02*
Y143287D01*
Y137287D02*
Y138487D01*
Y135287D02*
Y136687D01*
Y131087D02*
Y132287D01*
Y129087D02*
Y130487D01*
Y124087D02*
Y125287D01*
Y117087D02*
Y118487D01*
Y111287D02*
Y112487D01*
Y107087D02*
Y108487D01*
Y100487D02*
Y101887D01*
Y97087D02*
Y98287D01*
Y90487D02*
Y91887D01*
X38133Y158287D02*
Y159687D01*
Y152687D02*
Y153887D01*
Y148487D02*
Y149887D01*
Y141887D02*
Y143287D01*
Y137287D02*
Y138487D01*
Y135287D02*
Y136487D01*
Y131087D02*
Y132287D01*
Y129087D02*
Y130487D01*
Y124087D02*
Y125287D01*
Y117087D02*
Y118487D01*
Y111287D02*
Y112487D01*
Y107087D02*
Y108487D01*
Y100487D02*
Y101887D01*
Y97087D02*
Y98287D01*
Y90487D02*
Y91887D01*
X37933Y158287D02*
Y159687D01*
Y152687D02*
Y153887D01*
Y148487D02*
Y149887D01*
Y141887D02*
Y143287D01*
Y137287D02*
Y138687D01*
Y135287D02*
Y136487D01*
Y131087D02*
Y132287D01*
Y129087D02*
Y130287D01*
Y124087D02*
Y125287D01*
Y117087D02*
Y118487D01*
Y111287D02*
Y112487D01*
Y107087D02*
Y108487D01*
Y100487D02*
Y101887D01*
Y97087D02*
Y98287D01*
Y90487D02*
Y91887D01*
X37733Y158287D02*
Y159687D01*
Y152687D02*
Y153887D01*
Y148487D02*
Y149887D01*
Y142087D02*
Y143487D01*
Y137487D02*
Y138687D01*
Y135087D02*
Y136487D01*
Y131287D02*
Y132487D01*
Y129087D02*
Y130287D01*
Y124087D02*
Y125287D01*
Y117087D02*
Y118487D01*
Y111287D02*
Y112487D01*
Y107087D02*
Y108487D01*
Y100687D02*
Y102087D01*
Y97087D02*
Y98287D01*
Y90487D02*
Y91887D01*
X37533Y158287D02*
Y159687D01*
Y152687D02*
Y153887D01*
Y148487D02*
Y149887D01*
Y142087D02*
Y143687D01*
Y137487D02*
Y138687D01*
Y135087D02*
Y136287D01*
Y131287D02*
Y132487D01*
Y128887D02*
Y130287D01*
Y124087D02*
Y125287D01*
Y117087D02*
Y118487D01*
Y111287D02*
Y112487D01*
Y107087D02*
Y108487D01*
Y100687D02*
Y102287D01*
Y97087D02*
Y98287D01*
Y90487D02*
Y91887D01*
X37333Y158287D02*
Y159487D01*
Y152687D02*
Y153887D01*
Y148487D02*
Y149887D01*
Y142087D02*
Y143887D01*
Y137487D02*
Y138687D01*
Y135087D02*
Y136287D01*
Y131287D02*
Y132487D01*
Y128887D02*
Y130087D01*
Y124087D02*
Y125287D01*
Y117087D02*
Y118287D01*
Y111287D02*
Y112487D01*
Y107087D02*
Y108487D01*
Y100687D02*
Y102487D01*
Y97087D02*
Y98287D01*
Y90487D02*
Y91887D01*
X37133Y158287D02*
Y159487D01*
Y152687D02*
Y153887D01*
Y148487D02*
Y149887D01*
Y142287D02*
Y144087D01*
Y137487D02*
Y138887D01*
Y134887D02*
Y136287D01*
Y131487D02*
Y132687D01*
Y128887D02*
Y130087D01*
Y124087D02*
Y125287D01*
Y117087D02*
Y118287D01*
Y111287D02*
Y112487D01*
Y107087D02*
Y108487D01*
Y100887D02*
Y102687D01*
Y97087D02*
Y98287D01*
Y90487D02*
Y91887D01*
X36933Y158287D02*
Y159487D01*
Y152687D02*
Y153887D01*
Y148487D02*
Y149887D01*
Y142487D02*
Y144487D01*
Y137687D02*
Y138887D01*
Y134887D02*
Y136087D01*
Y131487D02*
Y132687D01*
Y128687D02*
Y130087D01*
Y124087D02*
Y125287D01*
Y117087D02*
Y118287D01*
Y111287D02*
Y112487D01*
Y107087D02*
Y108487D01*
Y101087D02*
Y103087D01*
Y97087D02*
Y98287D01*
Y90487D02*
Y91887D01*
X36733Y158287D02*
Y159487D01*
Y152687D02*
Y153887D01*
Y148487D02*
Y149887D01*
Y142687D02*
Y145087D01*
Y137687D02*
Y138887D01*
Y134887D02*
Y136087D01*
Y131487D02*
Y132687D01*
Y128687D02*
Y130087D01*
Y124087D02*
Y125287D01*
Y117087D02*
Y118287D01*
Y111287D02*
Y112487D01*
Y107087D02*
Y108487D01*
Y101287D02*
Y103687D01*
Y97087D02*
Y98287D01*
Y90487D02*
Y91887D01*
X36533Y158287D02*
Y166687D01*
Y152687D02*
Y153887D01*
Y148487D02*
Y149887D01*
Y142887D02*
Y146087D01*
Y137687D02*
Y139087D01*
Y134887D02*
Y136087D01*
Y131487D02*
Y132887D01*
Y128687D02*
Y129887D01*
Y124087D02*
Y125287D01*
Y117087D02*
Y118287D01*
Y111287D02*
Y112487D01*
Y107087D02*
Y108487D01*
Y101487D02*
Y104687D01*
Y97087D02*
Y98287D01*
Y90487D02*
Y91887D01*
X36333Y158287D02*
Y166687D01*
Y152687D02*
Y153887D01*
Y143087D02*
Y149887D01*
Y137687D02*
Y139087D01*
Y134687D02*
Y136087D01*
Y131687D02*
Y132887D01*
Y128487D02*
Y129887D01*
Y124087D02*
Y125287D01*
Y117087D02*
Y118287D01*
Y111287D02*
Y112487D01*
Y101687D02*
Y108487D01*
Y97087D02*
Y98287D01*
Y90487D02*
Y91887D01*
X36133Y158287D02*
Y166687D01*
Y152687D02*
Y153887D01*
Y143287D02*
Y149887D01*
Y137887D02*
Y139087D01*
Y134687D02*
Y135887D01*
Y131687D02*
Y132887D01*
Y128487D02*
Y129887D01*
Y124087D02*
Y125287D01*
Y117087D02*
Y118287D01*
Y111287D02*
Y112487D01*
Y101887D02*
Y108487D01*
Y97087D02*
Y98287D01*
Y90487D02*
Y91887D01*
X35933Y158287D02*
Y166687D01*
Y152687D02*
Y153887D01*
Y143687D02*
Y149887D01*
Y137887D02*
Y139087D01*
Y134687D02*
Y135887D01*
Y131687D02*
Y133087D01*
Y128487D02*
Y129887D01*
Y124087D02*
Y125287D01*
Y117087D02*
Y118287D01*
Y111287D02*
Y112487D01*
Y102287D02*
Y108487D01*
Y97087D02*
Y98287D01*
Y90487D02*
Y91887D01*
X35733Y158287D02*
Y166687D01*
Y152687D02*
Y153887D01*
Y144287D02*
Y149887D01*
Y137887D02*
Y139287D01*
Y134487D02*
Y135887D01*
Y131887D02*
Y133087D01*
Y128487D02*
Y129687D01*
Y124087D02*
Y125287D01*
Y117087D02*
Y118287D01*
Y111287D02*
Y112487D01*
Y102887D02*
Y108487D01*
Y97087D02*
Y98287D01*
Y90487D02*
Y91887D01*
X35533Y158287D02*
Y166687D01*
Y152687D02*
Y153887D01*
Y145287D02*
Y149887D01*
Y137887D02*
Y139287D01*
Y134487D02*
Y135687D01*
Y131887D02*
Y133087D01*
Y128287D02*
Y129687D01*
Y124087D02*
Y125287D01*
Y117087D02*
Y118287D01*
Y111287D02*
Y112487D01*
Y103887D02*
Y108487D01*
Y97087D02*
Y98287D01*
Y90487D02*
Y91887D01*
X35333Y165487D02*
Y166687D01*
Y158287D02*
Y159687D01*
Y152687D02*
Y153887D01*
Y148487D02*
Y149887D01*
Y138087D02*
Y139287D01*
Y134487D02*
Y135687D01*
Y131887D02*
Y133287D01*
Y128287D02*
Y129687D01*
Y124087D02*
Y125287D01*
Y117087D02*
Y118487D01*
Y111287D02*
Y112487D01*
Y107087D02*
Y108487D01*
Y97087D02*
Y98287D01*
Y90487D02*
Y91887D01*
X35133Y165287D02*
Y166687D01*
Y158287D02*
Y159687D01*
Y152687D02*
Y153887D01*
Y148487D02*
Y149887D01*
Y138087D02*
Y139487D01*
Y134287D02*
Y135687D01*
Y132087D02*
Y133287D01*
Y128287D02*
Y129487D01*
Y124087D02*
Y125287D01*
Y117087D02*
Y118487D01*
Y111287D02*
Y112487D01*
Y107087D02*
Y108487D01*
Y97087D02*
Y98287D01*
Y90487D02*
Y91887D01*
X34933Y165287D02*
Y166687D01*
Y158287D02*
Y159687D01*
Y152687D02*
Y153887D01*
Y148487D02*
Y149887D01*
Y138087D02*
Y139487D01*
Y134287D02*
Y135487D01*
Y132087D02*
Y133287D01*
Y128087D02*
Y129487D01*
Y124087D02*
Y125287D01*
Y117087D02*
Y118487D01*
Y111287D02*
Y112487D01*
Y107087D02*
Y108487D01*
Y97087D02*
Y98287D01*
Y90487D02*
Y91887D01*
X34733Y165287D02*
Y166687D01*
Y158287D02*
Y159687D01*
Y152687D02*
Y153887D01*
Y148487D02*
Y149887D01*
Y138287D02*
Y139487D01*
Y134287D02*
Y135487D01*
Y132087D02*
Y133487D01*
Y128087D02*
Y129487D01*
Y124087D02*
Y125287D01*
Y117087D02*
Y118487D01*
Y111287D02*
Y112487D01*
Y107087D02*
Y108487D01*
Y97087D02*
Y98287D01*
Y90487D02*
Y91887D01*
X34533Y165287D02*
Y166687D01*
Y158487D02*
Y159887D01*
Y152687D02*
Y153887D01*
Y148487D02*
Y149887D01*
Y138287D02*
Y139487D01*
Y134087D02*
Y135487D01*
Y132287D02*
Y133487D01*
Y128087D02*
Y129487D01*
Y124087D02*
Y125287D01*
Y117087D02*
Y118487D01*
Y111287D02*
Y112487D01*
Y107087D02*
Y108487D01*
Y97087D02*
Y98287D01*
Y90487D02*
Y91887D01*
X34333Y165287D02*
Y166487D01*
Y158487D02*
Y159887D01*
Y152687D02*
Y154087D01*
Y148487D02*
Y149887D01*
Y138287D02*
Y139687D01*
Y134087D02*
Y135287D01*
Y132287D02*
Y133487D01*
Y128087D02*
Y129287D01*
Y124087D02*
Y125287D01*
Y117087D02*
Y118687D01*
Y111287D02*
Y112687D01*
Y107087D02*
Y108487D01*
Y97087D02*
Y98287D01*
Y90487D02*
Y91887D01*
X34133Y165087D02*
Y166487D01*
Y158487D02*
Y159887D01*
Y152687D02*
Y154087D01*
Y148487D02*
Y149887D01*
Y142087D02*
Y143487D01*
Y138287D02*
Y139687D01*
Y134087D02*
Y135287D01*
Y132287D02*
Y133487D01*
Y127887D02*
Y129287D01*
Y123887D02*
Y125287D01*
Y117287D02*
Y118687D01*
Y111287D02*
Y112687D01*
Y107087D02*
Y108487D01*
Y100687D02*
Y102087D01*
Y96887D02*
Y98287D01*
Y90487D02*
Y92087D01*
X33933Y165087D02*
Y166487D01*
Y158687D02*
Y160087D01*
Y152687D02*
Y154087D01*
Y148487D02*
Y149887D01*
Y142087D02*
Y143487D01*
Y138487D02*
Y139687D01*
Y133887D02*
Y135287D01*
Y132487D02*
Y133687D01*
Y127887D02*
Y129287D01*
Y123887D02*
Y125287D01*
Y117287D02*
Y118687D01*
Y111287D02*
Y112687D01*
Y107087D02*
Y108487D01*
Y100687D02*
Y102087D01*
Y96887D02*
Y98287D01*
Y90487D02*
Y92087D01*
X33733Y165087D02*
Y166487D01*
Y158687D02*
Y160087D01*
Y152687D02*
Y154287D01*
Y148487D02*
Y149887D01*
Y142087D02*
Y143487D01*
Y138487D02*
Y139887D01*
Y133887D02*
Y135087D01*
Y132487D02*
Y133687D01*
Y127887D02*
Y129287D01*
Y123687D02*
Y125287D01*
Y117287D02*
Y118887D01*
Y111287D02*
Y112887D01*
Y107087D02*
Y108487D01*
Y100687D02*
Y102087D01*
Y96887D02*
Y98287D01*
Y90487D02*
Y92287D01*
X33533Y164887D02*
Y166287D01*
Y158887D02*
Y160287D01*
Y152687D02*
Y154287D01*
Y148287D02*
Y149687D01*
Y142087D02*
Y143487D01*
Y138487D02*
Y139887D01*
Y133887D02*
Y135087D01*
Y132487D02*
Y133687D01*
Y127687D02*
Y129087D01*
Y123687D02*
Y125287D01*
Y117487D02*
Y118887D01*
Y111287D02*
Y112887D01*
Y106887D02*
Y108287D01*
Y100687D02*
Y102087D01*
Y96887D02*
Y98287D01*
Y90487D02*
Y92487D01*
X33333Y164687D02*
Y166287D01*
Y158887D02*
Y160487D01*
Y152687D02*
Y154487D01*
Y148287D02*
Y149687D01*
Y142287D02*
Y143687D01*
Y138487D02*
Y139887D01*
Y132687D02*
Y135087D01*
Y127687D02*
Y129087D01*
Y123487D02*
Y125287D01*
Y117487D02*
Y119087D01*
Y111287D02*
Y113087D01*
Y106887D02*
Y108287D01*
Y100887D02*
Y102287D01*
Y96687D02*
Y98087D01*
Y90487D02*
Y92487D01*
X33133Y164687D02*
Y166287D01*
Y159087D02*
Y160687D01*
Y152687D02*
Y154687D01*
Y148087D02*
Y149687D01*
Y142287D02*
Y143887D01*
Y138687D02*
Y140087D01*
Y132687D02*
Y135087D01*
Y127687D02*
Y129087D01*
Y123287D02*
Y125287D01*
Y117687D02*
Y119287D01*
Y111287D02*
Y113287D01*
Y106687D02*
Y108287D01*
Y100887D02*
Y102487D01*
Y96687D02*
Y98087D01*
Y90487D02*
Y92687D01*
X32933Y164487D02*
Y166087D01*
Y159087D02*
Y160887D01*
Y152687D02*
Y154887D01*
Y148087D02*
Y149487D01*
Y142287D02*
Y144087D01*
Y138687D02*
Y140087D01*
Y132687D02*
Y134887D01*
Y127687D02*
Y128887D01*
Y123087D02*
Y125287D01*
Y117687D02*
Y119487D01*
Y111287D02*
Y113487D01*
Y106687D02*
Y108087D01*
Y100887D02*
Y102687D01*
Y96487D02*
Y98087D01*
Y90487D02*
Y92887D01*
X32733Y164287D02*
Y165887D01*
Y159287D02*
Y161087D01*
Y152687D02*
Y155087D01*
Y147687D02*
Y149487D01*
Y142487D02*
Y144287D01*
Y138687D02*
Y140087D01*
Y132687D02*
Y134887D01*
Y127487D02*
Y128887D01*
Y122887D02*
Y125287D01*
Y117887D02*
Y119687D01*
Y111287D02*
Y113687D01*
Y106287D02*
Y108087D01*
Y101087D02*
Y102887D01*
Y96287D02*
Y98087D01*
Y90487D02*
Y93287D01*
X32533Y163887D02*
Y165887D01*
Y159487D02*
Y161287D01*
Y152687D02*
Y155487D01*
Y147487D02*
Y149287D01*
Y142687D02*
Y144487D01*
Y138687D02*
Y140087D01*
Y132887D02*
Y134887D01*
Y127487D02*
Y128887D01*
Y122487D02*
Y125287D01*
Y117887D02*
Y119887D01*
Y111287D02*
Y114087D01*
Y106087D02*
Y107887D01*
Y101287D02*
Y103087D01*
Y96087D02*
Y97887D01*
Y90487D02*
Y93487D01*
X32333Y163487D02*
Y165687D01*
Y159687D02*
Y161887D01*
Y156887D02*
Y157487D01*
Y154087D02*
Y156287D01*
Y152687D02*
Y153887D01*
Y147087D02*
Y149287D01*
Y142887D02*
Y145087D01*
Y138887D02*
Y140287D01*
Y132887D02*
Y134687D01*
Y127487D02*
Y128887D01*
Y124087D02*
Y125287D01*
Y122087D02*
Y123887D01*
Y118087D02*
Y120487D01*
Y115487D02*
Y116087D01*
Y112687D02*
Y114887D01*
Y111287D02*
Y112487D01*
Y105687D02*
Y107887D01*
Y101487D02*
Y103687D01*
Y95487D02*
Y97887D01*
Y92087D02*
Y94087D01*
Y90487D02*
Y91887D01*
X32133Y159887D02*
Y165487D01*
Y154087D02*
Y157487D01*
Y152687D02*
Y153887D01*
Y143087D02*
Y149087D01*
Y138887D02*
Y140287D01*
Y132887D02*
Y134687D01*
Y127287D02*
Y128687D01*
Y124087D02*
Y125287D01*
Y118287D02*
Y123687D01*
Y112687D02*
Y116087D01*
Y111287D02*
Y112487D01*
Y101687D02*
Y107687D01*
Y92287D02*
Y97687D01*
Y90487D02*
Y91887D01*
X31933Y160087D02*
Y165287D01*
Y154287D02*
Y157487D01*
Y152687D02*
Y153887D01*
Y143287D02*
Y148887D01*
Y138887D02*
Y140287D01*
Y133087D02*
Y134687D01*
Y127287D02*
Y128687D01*
Y124087D02*
Y125287D01*
Y118487D02*
Y123487D01*
Y112887D02*
Y116087D01*
Y111287D02*
Y112487D01*
Y101887D02*
Y107487D01*
Y92487D02*
Y97487D01*
Y90487D02*
Y91887D01*
X31733Y160287D02*
Y165087D01*
Y154487D02*
Y157487D01*
Y152687D02*
Y153887D01*
Y143487D02*
Y148687D01*
Y139087D02*
Y140487D01*
Y133087D02*
Y134487D01*
Y127287D02*
Y128687D01*
Y124087D02*
Y125287D01*
Y118687D02*
Y123287D01*
Y113087D02*
Y116087D01*
Y111287D02*
Y112487D01*
Y102087D02*
Y107287D01*
Y92687D02*
Y97287D01*
Y90487D02*
Y91887D01*
X31533Y160687D02*
Y164687D01*
Y154887D02*
Y157487D01*
Y152687D02*
Y153887D01*
Y143887D02*
Y148287D01*
Y139087D02*
Y140487D01*
Y133087D02*
Y134487D01*
Y127287D02*
Y128687D01*
Y124087D02*
Y125287D01*
Y119087D02*
Y123087D01*
Y113487D02*
Y116087D01*
Y111287D02*
Y112487D01*
Y102487D02*
Y106887D01*
Y93087D02*
Y97087D01*
Y90487D02*
Y91887D01*
X31333Y161087D02*
Y164287D01*
Y155087D02*
Y157487D01*
Y152687D02*
Y153887D01*
Y144287D02*
Y147887D01*
Y139087D02*
Y140487D01*
Y133287D02*
Y134487D01*
Y127087D02*
Y128487D01*
Y124087D02*
Y125287D01*
Y119487D02*
Y122687D01*
Y113687D02*
Y116087D01*
Y111287D02*
Y112487D01*
Y102887D02*
Y106487D01*
Y93487D02*
Y96687D01*
Y90487D02*
Y91887D01*
X31133Y161687D02*
Y163687D01*
Y155687D02*
Y157487D01*
Y145087D02*
Y147087D01*
Y124087D02*
Y125287D01*
Y120087D02*
Y121887D01*
Y114287D02*
Y116087D01*
Y103687D02*
Y105687D01*
Y94087D02*
Y96087D01*
Y90487D02*
Y91887D01*
X30933Y124087D02*
Y125287D01*
Y90487D02*
Y91887D01*
X30733Y124087D02*
Y125287D01*
Y90487D02*
Y91887D01*
X30533Y124087D02*
Y125287D01*
Y90487D02*
Y91887D01*
X30333Y124087D02*
Y125287D01*
Y90487D02*
Y91887D01*
X30133Y124087D02*
Y125287D01*
Y90487D02*
Y91887D01*
X29933Y124087D02*
Y125287D01*
Y90487D02*
Y91887D01*
X29733Y124087D02*
Y125287D01*
Y90487D02*
Y91887D01*
X29533Y124087D02*
Y125287D01*
Y90487D02*
Y91887D01*
X29333Y124087D02*
Y125287D01*
Y90487D02*
Y91887D01*
X29133Y124087D02*
Y125287D01*
Y90487D02*
Y91887D01*
X28933Y124087D02*
Y125287D01*
Y90487D02*
Y91887D01*
X28733Y124087D02*
Y125287D01*
Y90487D02*
Y91887D01*
X28533Y124087D02*
Y125287D01*
Y90487D02*
Y91887D01*
X28333Y124087D02*
Y125287D01*
Y90487D02*
Y91887D01*
X28133Y124087D02*
Y125287D01*
Y90487D02*
Y91887D01*
X27933Y124087D02*
Y125287D01*
Y90487D02*
Y91887D01*
X27733Y124087D02*
Y125287D01*
Y90487D02*
Y91887D01*
X27533Y124087D02*
Y125287D01*
Y90487D02*
Y91887D01*
X27333Y124087D02*
Y125287D01*
Y90487D02*
Y91887D01*
X27133Y124087D02*
Y125287D01*
Y90487D02*
Y91887D01*
X23933Y151687D02*
Y153087D01*
Y142287D02*
Y143487D01*
Y131087D02*
Y132287D01*
Y121287D02*
Y122687D01*
Y111087D02*
Y112287D01*
Y100087D02*
Y101487D01*
X23733Y150687D02*
Y154087D01*
Y141287D02*
Y144287D01*
Y134887D02*
Y136287D01*
Y130287D02*
Y132887D01*
Y120487D02*
Y123487D01*
Y110287D02*
Y113287D01*
Y107487D02*
Y108687D01*
Y99087D02*
Y102287D01*
Y90487D02*
Y91887D01*
X23533Y150087D02*
Y154687D01*
Y140887D02*
Y144887D01*
Y134887D02*
Y136287D01*
Y130087D02*
Y132887D01*
Y119887D02*
Y124087D01*
Y109687D02*
Y113687D01*
Y107487D02*
Y108687D01*
Y98687D02*
Y102887D01*
Y90487D02*
Y91887D01*
X23333Y149687D02*
Y155087D01*
Y140487D02*
Y145287D01*
Y134887D02*
Y136287D01*
Y129887D02*
Y132887D01*
Y119487D02*
Y124487D01*
Y109487D02*
Y113887D01*
Y107487D02*
Y108687D01*
Y98287D02*
Y103087D01*
Y90487D02*
Y91887D01*
X23133Y149487D02*
Y155287D01*
Y140287D02*
Y145487D01*
Y134887D02*
Y136287D01*
Y129687D02*
Y132887D01*
Y119287D02*
Y124687D01*
Y109087D02*
Y114287D01*
Y107487D02*
Y108687D01*
Y98087D02*
Y103487D01*
Y90487D02*
Y91887D01*
X22933Y149287D02*
Y155487D01*
Y139887D02*
Y145687D01*
Y134887D02*
Y136287D01*
Y129487D02*
Y132887D01*
Y119087D02*
Y124887D01*
Y108887D02*
Y114487D01*
Y107487D02*
Y108687D01*
Y97687D02*
Y103687D01*
Y90487D02*
Y91887D01*
X22733Y153287D02*
Y155687D01*
Y149087D02*
Y151687D01*
Y143687D02*
Y145887D01*
Y139687D02*
Y142087D01*
Y134887D02*
Y136287D01*
Y132287D02*
Y132887D01*
Y129487D02*
Y131487D01*
Y122687D02*
Y125087D01*
Y118887D02*
Y121287D01*
Y112087D02*
Y114487D01*
Y107487D02*
Y110887D01*
Y101487D02*
Y103887D01*
Y97487D02*
Y100087D01*
Y90487D02*
Y91887D01*
X22533Y153887D02*
Y155887D01*
Y148887D02*
Y150887D01*
Y144087D02*
Y146087D01*
Y139687D02*
Y141687D01*
Y134887D02*
Y136287D01*
Y129487D02*
Y131087D01*
Y123287D02*
Y125287D01*
Y118687D02*
Y120687D01*
Y112687D02*
Y114687D01*
Y107487D02*
Y110287D01*
Y102087D02*
Y104087D01*
Y97287D02*
Y99487D01*
Y90487D02*
Y91887D01*
X22333Y154087D02*
Y155887D01*
Y148687D02*
Y150687D01*
Y144487D02*
Y146287D01*
Y139487D02*
Y141287D01*
Y134887D02*
Y136287D01*
Y129287D02*
Y130887D01*
Y123687D02*
Y125487D01*
Y118487D02*
Y120287D01*
Y113087D02*
Y114887D01*
Y107487D02*
Y109887D01*
Y102287D02*
Y104287D01*
Y97287D02*
Y99087D01*
Y90487D02*
Y91887D01*
X22133Y154487D02*
Y156087D01*
Y148687D02*
Y150287D01*
Y144687D02*
Y146487D01*
Y139287D02*
Y141087D01*
Y134887D02*
Y136287D01*
Y129287D02*
Y130687D01*
Y123887D02*
Y125687D01*
Y118287D02*
Y120087D01*
Y113287D02*
Y115087D01*
Y107487D02*
Y109687D01*
Y102687D02*
Y104487D01*
Y97087D02*
Y98887D01*
Y90487D02*
Y91887D01*
X21933Y154687D02*
Y156087D01*
Y148487D02*
Y150087D01*
Y144887D02*
Y146487D01*
Y139287D02*
Y140887D01*
Y134887D02*
Y136287D01*
Y129287D02*
Y130687D01*
Y124087D02*
Y125887D01*
Y118087D02*
Y119887D01*
Y113487D02*
Y115087D01*
Y107487D02*
Y109487D01*
Y102887D02*
Y104487D01*
Y96887D02*
Y98687D01*
Y90487D02*
Y91887D01*
X21733Y154687D02*
Y156087D01*
Y148487D02*
Y150087D01*
Y145087D02*
Y146687D01*
Y139087D02*
Y140687D01*
Y134887D02*
Y136287D01*
Y129287D02*
Y130687D01*
Y124287D02*
Y125887D01*
Y118087D02*
Y119687D01*
Y113687D02*
Y115287D01*
Y107487D02*
Y109287D01*
Y103087D02*
Y104687D01*
Y96887D02*
Y98487D01*
Y90487D02*
Y91887D01*
X21533Y154887D02*
Y156287D01*
Y148487D02*
Y149887D01*
Y145287D02*
Y146687D01*
Y139087D02*
Y140487D01*
Y134887D02*
Y136287D01*
Y129287D02*
Y130687D01*
Y124487D02*
Y126087D01*
Y117887D02*
Y119487D01*
Y113687D02*
Y115287D01*
Y107487D02*
Y109087D01*
Y103287D02*
Y104687D01*
Y96687D02*
Y98287D01*
Y90487D02*
Y91887D01*
X21333Y154887D02*
Y156287D01*
Y148487D02*
Y149887D01*
Y145287D02*
Y146687D01*
Y138887D02*
Y140287D01*
Y134887D02*
Y136287D01*
Y129287D02*
Y130687D01*
Y124487D02*
Y126087D01*
Y117887D02*
Y119487D01*
Y113887D02*
Y115287D01*
Y107487D02*
Y108887D01*
Y103287D02*
Y104887D01*
Y96687D02*
Y98087D01*
Y90487D02*
Y91887D01*
X21133Y154887D02*
Y156287D01*
Y148287D02*
Y149687D01*
Y145487D02*
Y146887D01*
Y138887D02*
Y140287D01*
Y134887D02*
Y136287D01*
Y129287D02*
Y130687D01*
Y124687D02*
Y126087D01*
Y117687D02*
Y119287D01*
Y113887D02*
Y115487D01*
Y107487D02*
Y108887D01*
Y103487D02*
Y104887D01*
Y96487D02*
Y98087D01*
Y90487D02*
Y91887D01*
X20933Y154887D02*
Y156287D01*
Y148287D02*
Y149687D01*
Y145487D02*
Y146887D01*
Y138687D02*
Y140087D01*
Y134887D02*
Y136287D01*
Y129287D02*
Y130687D01*
Y124887D02*
Y126287D01*
Y117687D02*
Y119087D01*
Y114087D02*
Y115487D01*
Y107487D02*
Y108687D01*
Y103487D02*
Y105087D01*
Y96487D02*
Y97887D01*
Y90487D02*
Y91887D01*
X20733Y154887D02*
Y156287D01*
Y145487D02*
Y146887D01*
Y138687D02*
Y140087D01*
Y134887D02*
Y136287D01*
Y129287D02*
Y130687D01*
Y124887D02*
Y126287D01*
Y117687D02*
Y119087D01*
Y114087D02*
Y115487D01*
Y107487D02*
Y108687D01*
Y103687D02*
Y105087D01*
Y96487D02*
Y97887D01*
Y90487D02*
Y91887D01*
X20533Y154687D02*
Y156287D01*
Y145487D02*
Y146887D01*
Y138687D02*
Y140087D01*
Y134887D02*
Y136287D01*
Y129287D02*
Y130687D01*
Y124887D02*
Y126287D01*
Y117487D02*
Y119087D01*
Y114087D02*
Y115487D01*
Y107487D02*
Y108687D01*
Y103687D02*
Y105087D01*
Y96287D02*
Y97687D01*
Y90487D02*
Y91887D01*
X20333Y154687D02*
Y156087D01*
Y138687D02*
Y139887D01*
Y134887D02*
Y136287D01*
Y129287D02*
Y130687D01*
Y125087D02*
Y126487D01*
Y117487D02*
Y118887D01*
Y114287D02*
Y115687D01*
Y107487D02*
Y108687D01*
Y103887D02*
Y105087D01*
Y96287D02*
Y97687D01*
Y90487D02*
Y91887D01*
X20133Y154487D02*
Y156087D01*
Y138487D02*
Y139887D01*
Y134887D02*
Y136287D01*
Y129287D02*
Y130687D01*
Y125087D02*
Y126487D01*
Y117487D02*
Y118887D01*
Y114287D02*
Y115687D01*
Y107487D02*
Y108687D01*
Y103887D02*
Y105287D01*
Y96287D02*
Y97687D01*
Y90487D02*
Y91887D01*
X19933Y154287D02*
Y156087D01*
Y138487D02*
Y139887D01*
Y134887D02*
Y136287D01*
Y129287D02*
Y130687D01*
Y125087D02*
Y126487D01*
Y117487D02*
Y118887D01*
Y114287D02*
Y115687D01*
Y107487D02*
Y108687D01*
Y103887D02*
Y105287D01*
Y96287D02*
Y97687D01*
Y90487D02*
Y91887D01*
X19733Y154087D02*
Y155887D01*
Y138487D02*
Y139887D01*
Y134887D02*
Y136287D01*
Y129287D02*
Y130687D01*
Y125087D02*
Y126487D01*
Y117487D02*
Y118687D01*
Y114287D02*
Y115687D01*
Y107487D02*
Y108687D01*
Y103887D02*
Y105287D01*
Y96287D02*
Y97487D01*
Y90487D02*
Y91887D01*
X19533Y153687D02*
Y155887D01*
Y138487D02*
Y139887D01*
Y134887D02*
Y136287D01*
Y129287D02*
Y130687D01*
Y125287D02*
Y126487D01*
Y117487D02*
Y118687D01*
Y114287D02*
Y115687D01*
Y107487D02*
Y108687D01*
Y103887D02*
Y105287D01*
Y96087D02*
Y97487D01*
Y90487D02*
Y91887D01*
X19333Y153087D02*
Y155687D01*
Y138487D02*
Y139887D01*
Y134887D02*
Y136287D01*
Y129287D02*
Y130687D01*
Y125287D02*
Y126487D01*
Y117487D02*
Y118687D01*
Y114487D02*
Y115687D01*
Y107487D02*
Y108687D01*
Y104087D02*
Y105287D01*
Y96087D02*
Y97487D01*
Y90487D02*
Y91887D01*
X19133Y152487D02*
Y155487D01*
Y138487D02*
Y139887D01*
Y134887D02*
Y136287D01*
Y129287D02*
Y130687D01*
Y125287D02*
Y126487D01*
Y117487D02*
Y118687D01*
Y114487D02*
Y115687D01*
Y107487D02*
Y108687D01*
Y104087D02*
Y105287D01*
Y96087D02*
Y97487D01*
Y90487D02*
Y91887D01*
X18933Y151487D02*
Y155087D01*
Y138487D02*
Y139887D01*
Y134887D02*
Y136287D01*
Y129287D02*
Y130687D01*
Y125287D02*
Y126487D01*
Y117287D02*
Y118687D01*
Y114487D02*
Y115687D01*
Y107487D02*
Y108687D01*
Y104087D02*
Y105287D01*
Y96087D02*
Y97487D01*
Y90487D02*
Y91887D01*
X18733Y150887D02*
Y154887D01*
Y138487D02*
Y139887D01*
Y134887D02*
Y136287D01*
Y129287D02*
Y130687D01*
Y125287D02*
Y126487D01*
Y117287D02*
Y118687D01*
Y114487D02*
Y115687D01*
Y107487D02*
Y108687D01*
Y104087D02*
Y105287D01*
Y96087D02*
Y97487D01*
Y90487D02*
Y91887D01*
X18533Y150287D02*
Y154487D01*
Y138487D02*
Y139887D01*
Y134887D02*
Y136287D01*
Y129287D02*
Y130687D01*
Y125287D02*
Y126487D01*
Y117287D02*
Y118687D01*
Y114487D02*
Y115687D01*
Y107487D02*
Y108687D01*
Y104087D02*
Y105287D01*
Y96087D02*
Y97487D01*
Y90487D02*
Y91887D01*
X18333Y149887D02*
Y153887D01*
Y138487D02*
Y139887D01*
Y134887D02*
Y136287D01*
Y129287D02*
Y130687D01*
Y125287D02*
Y126487D01*
Y117287D02*
Y118687D01*
Y114487D02*
Y115687D01*
Y107487D02*
Y108687D01*
Y104087D02*
Y105287D01*
Y96087D02*
Y97487D01*
Y90487D02*
Y91887D01*
X18133Y149687D02*
Y153287D01*
Y138487D02*
Y139887D01*
Y134887D02*
Y136287D01*
Y129287D02*
Y130687D01*
Y125287D02*
Y126487D01*
Y117487D02*
Y118687D01*
Y114487D02*
Y115687D01*
Y107487D02*
Y108687D01*
Y104087D02*
Y105287D01*
Y96087D02*
Y97487D01*
Y90487D02*
Y91887D01*
X17933Y149487D02*
Y152487D01*
Y138487D02*
Y139887D01*
Y134887D02*
Y136287D01*
Y129287D02*
Y130687D01*
Y125287D02*
Y126487D01*
Y117487D02*
Y118687D01*
Y114487D02*
Y115687D01*
Y107487D02*
Y108687D01*
Y104087D02*
Y105287D01*
Y96087D02*
Y97487D01*
Y90487D02*
Y91887D01*
X17733Y149287D02*
Y151687D01*
Y138487D02*
Y139887D01*
Y134887D02*
Y136287D01*
Y129287D02*
Y130687D01*
Y125287D02*
Y126487D01*
Y117487D02*
Y118687D01*
Y114287D02*
Y115687D01*
Y107487D02*
Y108687D01*
Y103887D02*
Y105287D01*
Y96087D02*
Y97487D01*
Y90487D02*
Y91887D01*
X17533Y149087D02*
Y151287D01*
Y138487D02*
Y139887D01*
Y134887D02*
Y136287D01*
Y129287D02*
Y130687D01*
Y125087D02*
Y126487D01*
Y117487D02*
Y118887D01*
Y114287D02*
Y115687D01*
Y107487D02*
Y108687D01*
Y103887D02*
Y105287D01*
Y96287D02*
Y97487D01*
Y90487D02*
Y91887D01*
X17333Y148887D02*
Y150687D01*
Y138487D02*
Y139887D01*
Y134887D02*
Y136287D01*
Y129287D02*
Y130687D01*
Y125087D02*
Y126487D01*
Y117487D02*
Y118887D01*
Y114287D02*
Y115687D01*
Y107487D02*
Y108687D01*
Y103887D02*
Y105287D01*
Y96287D02*
Y97687D01*
Y90487D02*
Y91887D01*
X17133Y148887D02*
Y150487D01*
Y138487D02*
Y139887D01*
Y134887D02*
Y136287D01*
Y129287D02*
Y130687D01*
Y125087D02*
Y126487D01*
Y117487D02*
Y118887D01*
Y114287D02*
Y115687D01*
Y107487D02*
Y108687D01*
Y103887D02*
Y105287D01*
Y96287D02*
Y97687D01*
Y90487D02*
Y91887D01*
X16933Y148687D02*
Y150287D01*
Y145487D02*
Y146887D01*
Y138687D02*
Y140087D01*
Y134887D02*
Y136287D01*
Y129287D02*
Y130687D01*
Y125087D02*
Y126487D01*
Y117487D02*
Y118887D01*
Y114287D02*
Y115687D01*
Y107487D02*
Y108687D01*
Y103687D02*
Y105087D01*
Y96287D02*
Y97687D01*
Y90487D02*
Y91887D01*
X16733Y148687D02*
Y150087D01*
Y145487D02*
Y146887D01*
Y138687D02*
Y140087D01*
Y134887D02*
Y136287D01*
Y129287D02*
Y130687D01*
Y124887D02*
Y126287D01*
Y117687D02*
Y119087D01*
Y114287D02*
Y115487D01*
Y107487D02*
Y108687D01*
Y103687D02*
Y105087D01*
Y96287D02*
Y97687D01*
Y90487D02*
Y91887D01*
X16533Y148687D02*
Y150087D01*
Y145487D02*
Y146887D01*
Y138687D02*
Y140087D01*
Y134887D02*
Y136287D01*
Y129287D02*
Y130687D01*
Y124887D02*
Y126287D01*
Y117687D02*
Y119087D01*
Y114087D02*
Y115487D01*
Y107487D02*
Y108687D01*
Y103687D02*
Y105087D01*
Y96487D02*
Y97887D01*
Y90487D02*
Y91887D01*
X16333Y154887D02*
Y156087D01*
Y148687D02*
Y150087D01*
Y145487D02*
Y146887D01*
Y138687D02*
Y140287D01*
Y134887D02*
Y136287D01*
Y129287D02*
Y130687D01*
Y124687D02*
Y126287D01*
Y117687D02*
Y119287D01*
Y114087D02*
Y115487D01*
Y107487D02*
Y108887D01*
Y103487D02*
Y105087D01*
Y96487D02*
Y97887D01*
Y90487D02*
Y92087D01*
X16133Y154887D02*
Y156087D01*
Y148687D02*
Y150087D01*
Y145287D02*
Y146687D01*
Y138887D02*
Y140287D01*
Y134887D02*
Y136287D01*
Y129287D02*
Y130687D01*
Y124687D02*
Y126087D01*
Y117887D02*
Y119287D01*
Y113887D02*
Y115487D01*
Y107487D02*
Y108887D01*
Y103487D02*
Y104887D01*
Y96487D02*
Y98087D01*
Y90487D02*
Y92087D01*
X15933Y154687D02*
Y156087D01*
Y148687D02*
Y150087D01*
Y145287D02*
Y146687D01*
Y138887D02*
Y140487D01*
Y134887D02*
Y136287D01*
Y129287D02*
Y130687D01*
Y124487D02*
Y126087D01*
Y117887D02*
Y119487D01*
Y113887D02*
Y115287D01*
Y107487D02*
Y109087D01*
Y103287D02*
Y104887D01*
Y96687D02*
Y98287D01*
Y90487D02*
Y92287D01*
X15733Y154687D02*
Y156087D01*
Y148687D02*
Y150087D01*
Y145087D02*
Y146687D01*
Y139087D02*
Y140487D01*
Y134887D02*
Y136287D01*
Y129287D02*
Y130687D01*
Y124487D02*
Y126087D01*
Y117887D02*
Y119487D01*
Y113687D02*
Y115287D01*
Y107487D02*
Y109087D01*
Y103087D02*
Y104687D01*
Y96687D02*
Y98287D01*
Y90487D02*
Y92287D01*
X15533Y154487D02*
Y156087D01*
Y148687D02*
Y150087D01*
Y145087D02*
Y146487D01*
Y139087D02*
Y140687D01*
Y134887D02*
Y136287D01*
Y129287D02*
Y130687D01*
Y124287D02*
Y125887D01*
Y118087D02*
Y119687D01*
Y113687D02*
Y115287D01*
Y107487D02*
Y109287D01*
Y103087D02*
Y104687D01*
Y96887D02*
Y98487D01*
Y90487D02*
Y92487D01*
X15333Y154487D02*
Y156087D01*
Y148887D02*
Y150287D01*
Y144887D02*
Y146487D01*
Y139287D02*
Y140887D01*
Y134887D02*
Y136287D01*
Y129287D02*
Y130687D01*
Y124087D02*
Y125687D01*
Y118287D02*
Y119887D01*
Y113487D02*
Y115087D01*
Y107487D02*
Y109487D01*
Y102887D02*
Y104487D01*
Y96887D02*
Y98687D01*
Y90487D02*
Y92687D01*
X15133Y154287D02*
Y155887D01*
Y148887D02*
Y150487D01*
Y144687D02*
Y146287D01*
Y139287D02*
Y141087D01*
Y134887D02*
Y136287D01*
Y129287D02*
Y130687D01*
Y123887D02*
Y125687D01*
Y118287D02*
Y120087D01*
Y113287D02*
Y115087D01*
Y107487D02*
Y109687D01*
Y102687D02*
Y104487D01*
Y97087D02*
Y98887D01*
Y90487D02*
Y92887D01*
X14933Y153887D02*
Y155887D01*
Y148887D02*
Y150687D01*
Y144487D02*
Y146287D01*
Y139487D02*
Y141287D01*
Y134887D02*
Y136287D01*
Y129287D02*
Y130687D01*
Y123487D02*
Y125487D01*
Y118487D02*
Y120487D01*
Y113087D02*
Y114887D01*
Y107487D02*
Y109887D01*
Y102287D02*
Y104287D01*
Y97287D02*
Y99087D01*
Y90487D02*
Y93287D01*
X14733Y153487D02*
Y155687D01*
Y149087D02*
Y151087D01*
Y144087D02*
Y146087D01*
Y139687D02*
Y141687D01*
Y134887D02*
Y136287D01*
Y129287D02*
Y130687D01*
Y123087D02*
Y125287D01*
Y118687D02*
Y120687D01*
Y112687D02*
Y114687D01*
Y107487D02*
Y110287D01*
Y101887D02*
Y104087D01*
Y97487D02*
Y99487D01*
Y90487D02*
Y93687D01*
X14533Y152887D02*
Y155487D01*
Y149287D02*
Y151687D01*
Y143487D02*
Y145887D01*
Y139887D02*
Y142287D01*
Y134887D02*
Y136287D01*
Y127487D02*
Y132687D01*
Y122487D02*
Y125087D01*
Y118887D02*
Y121487D01*
Y112087D02*
Y114487D01*
Y108887D02*
Y111087D01*
Y107487D02*
Y108687D01*
Y101287D02*
Y103887D01*
Y97687D02*
Y100087D01*
Y92087D02*
Y95487D01*
Y90487D02*
Y91887D01*
X14333Y149487D02*
Y155287D01*
Y140087D02*
Y145687D01*
Y134887D02*
Y136287D01*
Y127487D02*
Y132687D01*
Y119087D02*
Y124887D01*
Y109087D02*
Y114487D01*
Y107487D02*
Y108687D01*
Y97887D02*
Y103687D01*
Y92087D02*
Y95487D01*
Y90487D02*
Y91887D01*
X14133Y149687D02*
Y155087D01*
Y140287D02*
Y145487D01*
Y134887D02*
Y136287D01*
Y127487D02*
Y132687D01*
Y119287D02*
Y124687D01*
Y109287D02*
Y114287D01*
Y107487D02*
Y108687D01*
Y98087D02*
Y103487D01*
Y92287D02*
Y95487D01*
Y90487D02*
Y91887D01*
X13933Y149887D02*
Y154887D01*
Y140487D02*
Y145287D01*
Y134887D02*
Y136287D01*
Y127487D02*
Y132687D01*
Y119687D02*
Y124287D01*
Y109487D02*
Y113887D01*
Y107487D02*
Y108687D01*
Y98287D02*
Y103087D01*
Y92487D02*
Y95487D01*
Y90487D02*
Y91887D01*
X13733Y150287D02*
Y154487D01*
Y140887D02*
Y144887D01*
Y134887D02*
Y136287D01*
Y127487D02*
Y132687D01*
Y119887D02*
Y124087D01*
Y109887D02*
Y113687D01*
Y107487D02*
Y108687D01*
Y98687D02*
Y102687D01*
Y92887D02*
Y95487D01*
Y90487D02*
Y91887D01*
X13533Y150687D02*
Y153887D01*
Y141287D02*
Y144487D01*
Y134887D02*
Y136287D01*
Y127487D02*
Y132687D01*
Y120487D02*
Y123487D01*
Y110287D02*
Y113087D01*
Y107487D02*
Y108687D01*
Y99287D02*
Y102287D01*
Y93287D02*
Y95487D01*
Y90487D02*
Y91887D01*
X13333Y151887D02*
Y152887D01*
Y142487D02*
Y143287D01*
Y129287D02*
Y130687D01*
Y121487D02*
Y122487D01*
Y111287D02*
Y112287D01*
Y107487D02*
Y108687D01*
Y100287D02*
Y101287D01*
Y94087D02*
Y94887D01*
X13133Y129287D02*
Y130687D01*
Y107487D02*
Y108687D01*
X12933Y129287D02*
Y130687D01*
Y107487D02*
Y108687D01*
X12733Y129287D02*
Y130687D01*
Y107487D02*
Y108687D01*
X12533Y129287D02*
Y130687D01*
Y107487D02*
Y108687D01*
X12333Y129287D02*
Y130687D01*
Y107487D02*
Y108687D01*
X12133Y129287D02*
Y130687D01*
Y107487D02*
Y108687D01*
X11933Y129287D02*
Y130687D01*
Y107487D02*
Y108687D01*
X11733Y129287D02*
Y130687D01*
Y107487D02*
Y108687D01*
X11533Y135287D02*
Y135887D01*
Y129287D02*
Y130687D01*
Y107487D02*
Y108687D01*
X11333Y134887D02*
Y136287D01*
Y129287D02*
Y130687D01*
Y107487D02*
Y108687D01*
X11133Y134887D02*
Y136487D01*
Y129287D02*
Y130687D01*
Y107487D02*
Y108687D01*
X10933Y134687D02*
Y136487D01*
Y129287D02*
Y130687D01*
Y107487D02*
Y108687D01*
X10733Y134687D02*
Y136487D01*
Y107487D02*
Y108687D01*
X10533Y134687D02*
Y136487D01*
Y107487D02*
Y108687D01*
X10333Y134687D02*
Y136487D01*
Y107487D02*
Y108687D01*
X10133Y134887D02*
Y136287D01*
Y107487D02*
Y108687D01*
X9933Y135087D02*
Y136087D01*
Y107487D02*
Y108687D01*
X9733Y107487D02*
Y108687D01*
X9533Y107487D02*
Y108687D01*
X9333Y107487D02*
Y108687D01*
D30*
X118041Y43743D02*
D03*
X119433Y42351D02*
D03*
X120825Y40959D02*
D03*
X122217Y39567D02*
D03*
X123609Y38175D02*
D03*
X125001Y36784D02*
D03*
X126393Y35392D02*
D03*
X127785Y34000D02*
D03*
X129177Y32608D02*
D03*
X130569Y31216D02*
D03*
X131961Y29824D02*
D03*
X133353Y28432D02*
D03*
X134745Y27040D02*
D03*
X136137Y25648D02*
D03*
X137529Y24256D02*
D03*
X138920Y22864D02*
D03*
X170935Y54879D02*
D03*
X169543Y56271D02*
D03*
X168151Y57663D02*
D03*
X166759Y59055D02*
D03*
X165367Y60447D02*
D03*
X163975Y61839D02*
D03*
X162583Y63230D02*
D03*
X161191Y64622D02*
D03*
X159800Y66014D02*
D03*
X158408Y67406D02*
D03*
X157016Y68798D02*
D03*
X155624Y70190D02*
D03*
X154232Y71582D02*
D03*
X152840Y72974D02*
D03*
X151448Y74366D02*
D03*
X150056Y75758D02*
D03*
D31*
Y22864D02*
D03*
X151448Y24256D02*
D03*
X152840Y25648D02*
D03*
X154232Y27040D02*
D03*
X155624Y28432D02*
D03*
X157016Y29824D02*
D03*
X158408Y31216D02*
D03*
X159800Y32608D02*
D03*
X161191Y34000D02*
D03*
X162583Y35392D02*
D03*
X163975Y36783D02*
D03*
X165367Y38175D02*
D03*
X166759Y39567D02*
D03*
X168151Y40959D02*
D03*
X169543Y42351D02*
D03*
X170935Y43743D02*
D03*
X138920Y75758D02*
D03*
X137529Y74366D02*
D03*
X136137Y72974D02*
D03*
X134745Y71582D02*
D03*
X133353Y70190D02*
D03*
X131961Y68798D02*
D03*
X130569Y67406D02*
D03*
X129177Y66014D02*
D03*
X127785Y64622D02*
D03*
X126393Y63230D02*
D03*
X125001Y61839D02*
D03*
X123609Y60447D02*
D03*
X122217Y59055D02*
D03*
X120825Y57663D02*
D03*
X119433Y56271D02*
D03*
X118041Y54879D02*
D03*
D36*
X179823Y-23228D02*
D03*
Y-26328D02*
D03*
Y-29528D02*
D03*
Y-32628D02*
D03*
X193623D02*
D03*
Y-29528D02*
D03*
Y-26328D02*
D03*
Y-23228D02*
D03*
D37*
X186723Y-27928D02*
D03*
D38*
X132087Y-45000D02*
D03*
X135236D02*
D03*
X154528D02*
D03*
X157677D02*
D03*
D39*
X143898D02*
D03*
X141929D02*
D03*
X139961D02*
D03*
X137992D02*
D03*
X145866D02*
D03*
X147835D02*
D03*
X149803D02*
D03*
X151772D02*
D03*
D40*
X175847Y-8366D02*
D03*
X186476D02*
D03*
D41*
Y-16339D02*
D03*
X180571D02*
D03*
X180217Y-40157D02*
D03*
X174311D02*
D03*
X90453Y115354D02*
D03*
X96358D02*
D03*
X190157Y115157D02*
D03*
X196063D02*
D03*
D42*
X163248Y-26181D02*
D03*
Y-32087D02*
D03*
X156653Y-26280D02*
D03*
Y-32185D02*
D03*
X117913Y-63583D02*
D03*
Y-57677D02*
D03*
Y-52756D02*
D03*
Y-46850D02*
D03*
X27165Y187795D02*
D03*
Y181890D02*
D03*
X268307Y198031D02*
D03*
Y192126D02*
D03*
X178445Y144587D02*
D03*
Y138681D02*
D03*
X78937Y144587D02*
D03*
Y138681D02*
D03*
X27165Y192717D02*
D03*
Y198622D02*
D03*
X21457Y192717D02*
D03*
Y198622D02*
D03*
X262598Y192126D02*
D03*
Y198031D02*
D03*
Y181299D02*
D03*
Y187205D02*
D03*
X268307Y181299D02*
D03*
Y187205D02*
D03*
X21457Y181890D02*
D03*
Y187795D02*
D03*
D43*
X148779Y-24094D02*
D03*
X145039D02*
D03*
X141299D02*
D03*
Y-33976D02*
D03*
X145039D02*
D03*
X148779D02*
D03*
D44*
X193623Y45845D02*
D03*
X189447Y50021D02*
D03*
X120493Y67597D02*
D03*
X116318Y71773D02*
D03*
D45*
X174093Y35454D02*
D03*
X178269Y31278D02*
D03*
X120058Y29155D02*
D03*
X124234Y24979D02*
D03*
X178445Y39764D02*
D03*
X182621Y35588D02*
D03*
X108542Y64391D02*
D03*
X112718Y60215D02*
D03*
X111769Y37345D02*
D03*
X115945Y33169D02*
D03*
X162718Y15825D02*
D03*
X158542Y20001D02*
D03*
D46*
X133289Y16360D02*
D03*
X129113Y12184D02*
D03*
X128782Y20711D02*
D03*
X124606Y16535D02*
D03*
X155631Y89588D02*
D03*
X151455Y85412D02*
D03*
X103325Y37676D02*
D03*
X107501Y41852D02*
D03*
X155786Y81081D02*
D03*
X159962Y85257D02*
D03*
D47*
X133542Y7853D02*
D03*
X137718Y12029D02*
D03*
D48*
X100807Y145866D02*
D03*
X95807D02*
D03*
X90807D02*
D03*
X85807D02*
D03*
X100807Y126575D02*
D03*
X95807D02*
D03*
X90807D02*
D03*
X85807D02*
D03*
X200807Y145866D02*
D03*
X195807D02*
D03*
X190807D02*
D03*
X185807D02*
D03*
X200807Y126575D02*
D03*
X195807D02*
D03*
X190807D02*
D03*
X185807D02*
D03*
D49*
X196949Y155173D02*
D03*
X189449D02*
D03*
X193199Y164173D02*
D03*
X97155Y155173D02*
D03*
X89656D02*
D03*
X93405Y164173D02*
D03*
D50*
X95965Y186319D02*
D03*
X101870D02*
D03*
X193898Y186024D02*
D03*
X187992D02*
D03*
D51*
X108477Y26858D02*
D03*
X113767Y21568D02*
D03*
D52*
X246307Y-25000D02*
D03*
X43457D02*
D03*
D53*
X236910Y213287D02*
D03*
Y185728D02*
D03*
X70472Y186319D02*
D03*
Y213878D02*
D03*
X39075Y186319D02*
D03*
Y213878D02*
D03*
X205512Y185728D02*
D03*
Y213287D02*
D03*
D54*
X250689D02*
D03*
Y185728D02*
D03*
X84252Y186319D02*
D03*
Y213878D02*
D03*
X52854Y186319D02*
D03*
Y213878D02*
D03*
X219291Y185728D02*
D03*
Y213287D02*
D03*
D55*
X101476Y224606D02*
D03*
Y194606D02*
D03*
X188287D02*
D03*
Y224606D02*
D03*
D56*
X127874Y-48602D02*
D03*
X161890D02*
D03*
X127874Y-65059D02*
D03*
X161890D02*
D03*
D57*
X133504Y-50689D02*
D03*
X156260D02*
D03*
D58*
X238130Y54035D02*
D03*
D59*
X248130D02*
D03*
X258130D02*
D03*
X268130D02*
D03*
X278130D02*
D03*
M02*
