G04*
G04 #@! TF.GenerationSoftware,Altium Limited,Altium Designer,24.4.1 (13)*
G04*
G04 Layer_Color=8421504*
%FSLAX25Y25*%
%MOIN*%
G70*
G04*
G04 #@! TF.SameCoordinates,6C79CE8A-1C4A-4FCF-B1DC-1DD74DCF0495*
G04*
G04*
G04 #@! TF.FilePolarity,Positive*
G04*
G01*
G75*
%ADD18R,0.03600X0.02000*%
%ADD19R,0.08700X0.11800*%
%ADD20R,0.02362X0.05709*%
%ADD21R,0.01181X0.05709*%
G04:AMPARAMS|DCode=22|XSize=67.32mil|YSize=48.42mil|CornerRadius=6.05mil|HoleSize=0mil|Usage=FLASHONLY|Rotation=180.000|XOffset=0mil|YOffset=0mil|HoleType=Round|Shape=RoundedRectangle|*
%AMROUNDEDRECTD22*
21,1,0.06732,0.03632,0,0,180.0*
21,1,0.05522,0.04842,0,0,180.0*
1,1,0.01211,-0.02761,0.01816*
1,1,0.01211,0.02761,0.01816*
1,1,0.01211,0.02761,-0.01816*
1,1,0.01211,-0.02761,-0.01816*
%
%ADD22ROUNDEDRECTD22*%
%ADD23R,0.03150X0.03150*%
%ADD24R,0.03543X0.02362*%
G04:AMPARAMS|DCode=25|XSize=47.64mil|YSize=23.23mil|CornerRadius=2.9mil|HoleSize=0mil|Usage=FLASHONLY|Rotation=270.000|XOffset=0mil|YOffset=0mil|HoleType=Round|Shape=RoundedRectangle|*
%AMROUNDEDRECTD25*
21,1,0.04764,0.01742,0,0,270.0*
21,1,0.04183,0.02323,0,0,270.0*
1,1,0.00581,-0.00871,-0.02092*
1,1,0.00581,-0.00871,0.02092*
1,1,0.00581,0.00871,0.02092*
1,1,0.00581,0.00871,-0.02092*
%
%ADD25ROUNDEDRECTD25*%
G04:AMPARAMS|DCode=26|XSize=23.62mil|YSize=35.43mil|CornerRadius=0mil|HoleSize=0mil|Usage=FLASHONLY|Rotation=135.000|XOffset=0mil|YOffset=0mil|HoleType=Round|Shape=Rectangle|*
%AMROTATEDRECTD26*
4,1,4,0.02088,0.00418,-0.00418,-0.02088,-0.02088,-0.00418,0.00418,0.02088,0.02088,0.00418,0.0*
%
%ADD26ROTATEDRECTD26*%

%ADD27P,0.04454X4X180.0*%
%ADD28P,0.04454X4X90.0*%
G04:AMPARAMS|DCode=29|XSize=23.62mil|YSize=35.43mil|CornerRadius=0mil|HoleSize=0mil|Usage=FLASHONLY|Rotation=45.000|XOffset=0mil|YOffset=0mil|HoleType=Round|Shape=Rectangle|*
%AMROTATEDRECTD29*
4,1,4,0.00418,-0.02088,-0.02088,0.00418,-0.00418,0.02088,0.02088,-0.00418,0.00418,-0.02088,0.0*
%
%ADD29ROTATEDRECTD29*%

G04:AMPARAMS|DCode=30|XSize=47mil|YSize=12mil|CornerRadius=0mil|HoleSize=0mil|Usage=FLASHONLY|Rotation=45.000|XOffset=0mil|YOffset=0mil|HoleType=Round|Shape=Rectangle|*
%AMROTATEDRECTD30*
4,1,4,-0.01237,-0.02086,-0.02086,-0.01237,0.01237,0.02086,0.02086,0.01237,-0.01237,-0.02086,0.0*
%
%ADD30ROTATEDRECTD30*%

G04:AMPARAMS|DCode=31|XSize=47mil|YSize=12mil|CornerRadius=0mil|HoleSize=0mil|Usage=FLASHONLY|Rotation=135.000|XOffset=0mil|YOffset=0mil|HoleType=Round|Shape=Rectangle|*
%AMROTATEDRECTD31*
4,1,4,0.02086,-0.01237,0.01237,-0.02086,-0.02086,0.01237,-0.01237,0.02086,0.02086,-0.01237,0.0*
%
%ADD31ROTATEDRECTD31*%

%ADD32O,0.02756X0.09843*%
%ADD33R,0.03000X0.03000*%
%ADD34R,0.02362X0.03543*%
G04:AMPARAMS|DCode=35|XSize=59.06mil|YSize=106.3mil|CornerRadius=0mil|HoleSize=0mil|Usage=FLASHONLY|Rotation=135.000|XOffset=0mil|YOffset=0mil|HoleType=Round|Shape=Rectangle|*
%AMROTATEDRECTD35*
4,1,4,0.05846,0.01670,-0.01670,-0.05846,-0.05846,-0.01670,0.01670,0.05846,0.05846,0.01670,0.0*
%
%ADD35ROTATEDRECTD35*%

D18*
X179823Y-23228D02*
D03*
Y-26328D02*
D03*
Y-29528D02*
D03*
Y-32628D02*
D03*
X193623D02*
D03*
Y-29528D02*
D03*
Y-26328D02*
D03*
Y-23228D02*
D03*
D19*
X186723Y-27928D02*
D03*
D20*
X132087Y-45000D02*
D03*
X135236D02*
D03*
X154528D02*
D03*
X157677D02*
D03*
D21*
X143898D02*
D03*
X141929D02*
D03*
X139961D02*
D03*
X137992D02*
D03*
X145866D02*
D03*
X147835D02*
D03*
X149803D02*
D03*
X151772D02*
D03*
D22*
X175847Y-8366D02*
D03*
X186476D02*
D03*
D23*
Y-16339D02*
D03*
X180571D02*
D03*
X180217Y-40157D02*
D03*
X174311D02*
D03*
X90453Y115354D02*
D03*
X96358D02*
D03*
X190157Y115157D02*
D03*
X196063D02*
D03*
D24*
X163248Y-26181D02*
D03*
Y-32087D02*
D03*
X156653Y-26280D02*
D03*
Y-32185D02*
D03*
X117913Y-63583D02*
D03*
Y-57677D02*
D03*
Y-52756D02*
D03*
Y-46850D02*
D03*
X27165Y187795D02*
D03*
Y181890D02*
D03*
X268307Y198031D02*
D03*
Y192126D02*
D03*
X178445Y144587D02*
D03*
Y138681D02*
D03*
X78937Y144587D02*
D03*
Y138681D02*
D03*
X27165Y192717D02*
D03*
Y198622D02*
D03*
X21457Y192717D02*
D03*
Y198622D02*
D03*
X262598Y192126D02*
D03*
Y198031D02*
D03*
Y181299D02*
D03*
Y187205D02*
D03*
X268307Y181299D02*
D03*
Y187205D02*
D03*
X21457Y181890D02*
D03*
Y187795D02*
D03*
D25*
X148779Y-24094D02*
D03*
X145039D02*
D03*
X141299D02*
D03*
Y-33976D02*
D03*
X145039D02*
D03*
X148779D02*
D03*
D26*
X193623Y45845D02*
D03*
X189447Y50021D02*
D03*
X120493Y67597D02*
D03*
X116318Y71773D02*
D03*
D27*
X174093Y35454D02*
D03*
X178269Y31278D02*
D03*
X120058Y29155D02*
D03*
X124234Y24979D02*
D03*
X178445Y39764D02*
D03*
X182621Y35588D02*
D03*
X108542Y64391D02*
D03*
X112718Y60215D02*
D03*
X111769Y37345D02*
D03*
X115945Y33169D02*
D03*
X162718Y15825D02*
D03*
X158542Y20001D02*
D03*
D28*
X133289Y16360D02*
D03*
X129113Y12184D02*
D03*
X128782Y20711D02*
D03*
X124606Y16535D02*
D03*
X155631Y89588D02*
D03*
X151455Y85412D02*
D03*
X103325Y37676D02*
D03*
X107501Y41852D02*
D03*
X155786Y81081D02*
D03*
X159962Y85257D02*
D03*
D29*
X133542Y7853D02*
D03*
X137718Y12029D02*
D03*
D30*
X118041Y43743D02*
D03*
X119433Y42351D02*
D03*
X120825Y40959D02*
D03*
X122217Y39567D02*
D03*
X123609Y38175D02*
D03*
X125001Y36784D02*
D03*
X126393Y35392D02*
D03*
X127785Y34000D02*
D03*
X129177Y32608D02*
D03*
X130569Y31216D02*
D03*
X131961Y29824D02*
D03*
X133353Y28432D02*
D03*
X134745Y27040D02*
D03*
X136137Y25648D02*
D03*
X137529Y24256D02*
D03*
X138920Y22864D02*
D03*
X170935Y54879D02*
D03*
X169543Y56271D02*
D03*
X168151Y57663D02*
D03*
X166759Y59055D02*
D03*
X165367Y60447D02*
D03*
X163975Y61839D02*
D03*
X162583Y63230D02*
D03*
X161191Y64622D02*
D03*
X159800Y66014D02*
D03*
X158408Y67406D02*
D03*
X157016Y68798D02*
D03*
X155624Y70190D02*
D03*
X154232Y71582D02*
D03*
X152840Y72974D02*
D03*
X151448Y74366D02*
D03*
X150056Y75758D02*
D03*
D31*
Y22864D02*
D03*
X151448Y24256D02*
D03*
X152840Y25648D02*
D03*
X154232Y27040D02*
D03*
X155624Y28432D02*
D03*
X157016Y29824D02*
D03*
X158408Y31216D02*
D03*
X159800Y32608D02*
D03*
X161191Y34000D02*
D03*
X162583Y35392D02*
D03*
X163975Y36783D02*
D03*
X165367Y38175D02*
D03*
X166759Y39567D02*
D03*
X168151Y40959D02*
D03*
X169543Y42351D02*
D03*
X170935Y43743D02*
D03*
X138920Y75758D02*
D03*
X137529Y74366D02*
D03*
X136137Y72974D02*
D03*
X134745Y71582D02*
D03*
X133353Y70190D02*
D03*
X131961Y68798D02*
D03*
X130569Y67406D02*
D03*
X129177Y66014D02*
D03*
X127785Y64622D02*
D03*
X126393Y63230D02*
D03*
X125001Y61839D02*
D03*
X123609Y60447D02*
D03*
X122217Y59055D02*
D03*
X120825Y57663D02*
D03*
X119433Y56271D02*
D03*
X118041Y54879D02*
D03*
D32*
X100807Y145866D02*
D03*
X95807D02*
D03*
X90807D02*
D03*
X85807D02*
D03*
X100807Y126575D02*
D03*
X95807D02*
D03*
X90807D02*
D03*
X85807D02*
D03*
X200807Y145866D02*
D03*
X195807D02*
D03*
X190807D02*
D03*
X185807D02*
D03*
X200807Y126575D02*
D03*
X195807D02*
D03*
X190807D02*
D03*
X185807D02*
D03*
D33*
X196949Y155173D02*
D03*
X189449D02*
D03*
X193199Y164173D02*
D03*
X97155Y155173D02*
D03*
X89656D02*
D03*
X93405Y164173D02*
D03*
D34*
X95965Y186319D02*
D03*
X101870D02*
D03*
X193898Y186024D02*
D03*
X187992D02*
D03*
D35*
X108477Y26858D02*
D03*
X113767Y21568D02*
D03*
M02*
