G04*
G04 #@! TF.GenerationSoftware,Altium Limited,Altium Designer,24.4.1 (13)*
G04*
G04 Layer_Physical_Order=1*
G04 Layer_Color=255*
%FSLAX25Y25*%
%MOIN*%
G70*
G04*
G04 #@! TF.SameCoordinates,6C79CE8A-1C4A-4FCF-B1DC-1DD74DCF0495*
G04*
G04*
G04 #@! TF.FilePolarity,Positive*
G04*
G01*
G75*
%ADD14C,0.00200*%
%ADD16C,0.01000*%
%ADD18R,0.03600X0.02000*%
%ADD19R,0.08700X0.11800*%
%ADD20R,0.02362X0.05709*%
%ADD21R,0.01181X0.05709*%
G04:AMPARAMS|DCode=22|XSize=67.32mil|YSize=48.42mil|CornerRadius=6.05mil|HoleSize=0mil|Usage=FLASHONLY|Rotation=180.000|XOffset=0mil|YOffset=0mil|HoleType=Round|Shape=RoundedRectangle|*
%AMROUNDEDRECTD22*
21,1,0.06732,0.03632,0,0,180.0*
21,1,0.05522,0.04842,0,0,180.0*
1,1,0.01211,-0.02761,0.01816*
1,1,0.01211,0.02761,0.01816*
1,1,0.01211,0.02761,-0.01816*
1,1,0.01211,-0.02761,-0.01816*
%
%ADD22ROUNDEDRECTD22*%
%ADD23R,0.03150X0.03150*%
%ADD24R,0.03543X0.02362*%
G04:AMPARAMS|DCode=25|XSize=47.64mil|YSize=23.23mil|CornerRadius=2.9mil|HoleSize=0mil|Usage=FLASHONLY|Rotation=270.000|XOffset=0mil|YOffset=0mil|HoleType=Round|Shape=RoundedRectangle|*
%AMROUNDEDRECTD25*
21,1,0.04764,0.01742,0,0,270.0*
21,1,0.04183,0.02323,0,0,270.0*
1,1,0.00581,-0.00871,-0.02092*
1,1,0.00581,-0.00871,0.02092*
1,1,0.00581,0.00871,0.02092*
1,1,0.00581,0.00871,-0.02092*
%
%ADD25ROUNDEDRECTD25*%
G04:AMPARAMS|DCode=26|XSize=23.62mil|YSize=35.43mil|CornerRadius=0mil|HoleSize=0mil|Usage=FLASHONLY|Rotation=135.000|XOffset=0mil|YOffset=0mil|HoleType=Round|Shape=Rectangle|*
%AMROTATEDRECTD26*
4,1,4,0.02088,0.00418,-0.00418,-0.02088,-0.02088,-0.00418,0.00418,0.02088,0.02088,0.00418,0.0*
%
%ADD26ROTATEDRECTD26*%

%ADD27P,0.04454X4X180.0*%
%ADD28P,0.04454X4X90.0*%
G04:AMPARAMS|DCode=29|XSize=23.62mil|YSize=35.43mil|CornerRadius=0mil|HoleSize=0mil|Usage=FLASHONLY|Rotation=45.000|XOffset=0mil|YOffset=0mil|HoleType=Round|Shape=Rectangle|*
%AMROTATEDRECTD29*
4,1,4,0.00418,-0.02088,-0.02088,0.00418,-0.00418,0.02088,0.02088,-0.00418,0.00418,-0.02088,0.0*
%
%ADD29ROTATEDRECTD29*%

G04:AMPARAMS|DCode=30|XSize=47mil|YSize=12mil|CornerRadius=0mil|HoleSize=0mil|Usage=FLASHONLY|Rotation=45.000|XOffset=0mil|YOffset=0mil|HoleType=Round|Shape=Rectangle|*
%AMROTATEDRECTD30*
4,1,4,-0.01237,-0.02086,-0.02086,-0.01237,0.01237,0.02086,0.02086,0.01237,-0.01237,-0.02086,0.0*
%
%ADD30ROTATEDRECTD30*%

G04:AMPARAMS|DCode=31|XSize=47mil|YSize=12mil|CornerRadius=0mil|HoleSize=0mil|Usage=FLASHONLY|Rotation=135.000|XOffset=0mil|YOffset=0mil|HoleType=Round|Shape=Rectangle|*
%AMROTATEDRECTD31*
4,1,4,0.02086,-0.01237,0.01237,-0.02086,-0.02086,0.01237,-0.01237,0.02086,0.02086,-0.01237,0.0*
%
%ADD31ROTATEDRECTD31*%

%ADD32O,0.02756X0.09843*%
%ADD33R,0.03000X0.03000*%
%ADD34R,0.02362X0.03543*%
G04:AMPARAMS|DCode=35|XSize=59.06mil|YSize=106.3mil|CornerRadius=0mil|HoleSize=0mil|Usage=FLASHONLY|Rotation=135.000|XOffset=0mil|YOffset=0mil|HoleType=Round|Shape=Rectangle|*
%AMROTATEDRECTD35*
4,1,4,0.05846,0.01670,-0.01670,-0.05846,-0.05846,-0.01670,0.01670,0.05846,0.05846,0.01670,0.0*
%
%ADD35ROTATEDRECTD35*%

%ADD60C,0.01968*%
%ADD61C,0.03937*%
%ADD62C,0.02362*%
%ADD63C,0.01181*%
%ADD64C,0.02756*%
%ADD65C,0.01575*%
%ADD66C,0.25000*%
%ADD67C,0.07087*%
%ADD68R,0.07087X0.07087*%
G04:AMPARAMS|DCode=69|XSize=66.93mil|YSize=66.93mil|CornerRadius=0mil|HoleSize=0mil|Usage=FLASHONLY|Rotation=0.000|XOffset=0mil|YOffset=0mil|HoleType=Round|Shape=Octagon|*
%AMOCTAGOND69*
4,1,8,0.03347,-0.01673,0.03347,0.01673,0.01673,0.03347,-0.01673,0.03347,-0.03347,0.01673,-0.03347,-0.01673,-0.01673,-0.03347,0.01673,-0.03347,0.03347,-0.01673,0.0*
%
%ADD69OCTAGOND69*%

%ADD70O,0.04134X0.08268*%
%ADD71C,0.02756*%
%ADD72R,0.05906X0.05906*%
%ADD73C,0.05906*%
%ADD74C,0.02362*%
%ADD75C,0.03937*%
%ADD76C,0.03500*%
G36*
X191632Y225511D02*
X191662Y225426D01*
X191712Y225351D01*
X191782Y225286D01*
X191872Y225231D01*
X191982Y225186D01*
X192112Y225151D01*
X192262Y225126D01*
X192432Y225111D01*
X192622Y225106D01*
Y224106D01*
X192432Y224101D01*
X192262Y224086D01*
X192112Y224061D01*
X191982Y224026D01*
X191872Y223981D01*
X191782Y223926D01*
X191712Y223861D01*
X191662Y223786D01*
X191632Y223701D01*
X191622Y223606D01*
Y225606D01*
X191632Y225511D01*
D02*
G37*
G36*
X98154Y223606D02*
X98144Y223701D01*
X98114Y223786D01*
X98063Y223861D01*
X97992Y223926D01*
X97901Y223981D01*
X97790Y224026D01*
X97658Y224061D01*
X97506Y224086D01*
X97334Y224101D01*
X97142Y224106D01*
Y225106D01*
X97334Y225111D01*
X97506Y225126D01*
X97658Y225151D01*
X97790Y225186D01*
X97901Y225231D01*
X97992Y225286D01*
X98063Y225351D01*
X98114Y225426D01*
X98144Y225511D01*
X98154Y225606D01*
Y223606D01*
D02*
G37*
G36*
X88490Y217409D02*
X88291Y217203D01*
X87978Y216834D01*
X87863Y216671D01*
X87777Y216522D01*
X87720Y216388D01*
X87690Y216268D01*
X87689Y216163D01*
X87716Y216072D01*
X87771Y215995D01*
X86369Y217397D01*
X86446Y217342D01*
X86537Y217315D01*
X86642Y217316D01*
X86762Y217345D01*
X86896Y217403D01*
X87045Y217489D01*
X87208Y217604D01*
X87385Y217746D01*
X87783Y218116D01*
X88490Y217409D01*
D02*
G37*
G36*
X215966Y217327D02*
X216335Y217013D01*
X216498Y216899D01*
X216647Y216813D01*
X216781Y216755D01*
X216901Y216725D01*
X217006Y216724D01*
X217098Y216751D01*
X217174Y216807D01*
X215772Y215405D01*
X215827Y215481D01*
X215855Y215572D01*
X215853Y215678D01*
X215824Y215798D01*
X215766Y215932D01*
X215680Y216080D01*
X215566Y216243D01*
X215423Y216421D01*
X215053Y216819D01*
X215760Y217526D01*
X215966Y217327D01*
D02*
G37*
G36*
X205476Y209744D02*
X204941Y209741D01*
X203988Y209684D01*
X203570Y209630D01*
X203191Y209560D01*
X202851Y209472D01*
X202550Y209367D01*
X202288Y209245D01*
X202065Y209106D01*
X201882Y208950D01*
X201174Y209657D01*
X201330Y209841D01*
X201469Y210064D01*
X201591Y210326D01*
X201696Y210627D01*
X201784Y210967D01*
X201855Y211346D01*
X201909Y211764D01*
X201966Y212717D01*
X201969Y213252D01*
X205476Y209744D01*
D02*
G37*
G36*
X25418Y197527D02*
X25407Y197548D01*
X25373Y197567D01*
X25318Y197584D01*
X25241Y197598D01*
X25141Y197610D01*
X24875Y197628D01*
X24311Y197638D01*
X24103Y197637D01*
X23315Y197584D01*
X23260Y197567D01*
X23227Y197548D01*
X23216Y197527D01*
Y199717D01*
X23227Y199696D01*
X23260Y199677D01*
X23315Y199660D01*
X23392Y199646D01*
X23490Y199634D01*
X23753Y199616D01*
X24311Y199606D01*
X24521Y199607D01*
X25318Y199660D01*
X25373Y199677D01*
X25407Y199696D01*
X25418Y199717D01*
Y197527D01*
D02*
G37*
G36*
X266559Y196937D02*
X266548Y196958D01*
X266515Y196977D01*
X266460Y196993D01*
X266382Y197008D01*
X266283Y197020D01*
X266017Y197037D01*
X265453Y197047D01*
X265245Y197046D01*
X264457Y196993D01*
X264402Y196977D01*
X264369Y196958D01*
X264358Y196937D01*
Y199126D01*
X264369Y199105D01*
X264402Y199086D01*
X264457Y199070D01*
X264533Y199056D01*
X264632Y199043D01*
X264895Y199026D01*
X265453Y199016D01*
X265663Y199017D01*
X266460Y199070D01*
X266515Y199086D01*
X266548Y199105D01*
X266559Y199126D01*
Y196937D01*
D02*
G37*
G36*
X188897Y191274D02*
X188812Y191243D01*
X188737Y191193D01*
X188672Y191122D01*
X188617Y191031D01*
X188572Y190919D01*
X188537Y190788D01*
X188512Y190636D01*
X188497Y190464D01*
X188492Y190272D01*
X187492D01*
X187487Y190464D01*
X187472Y190636D01*
X187447Y190788D01*
X187412Y190919D01*
X187367Y191031D01*
X187312Y191122D01*
X187247Y191193D01*
X187172Y191243D01*
X187087Y191274D01*
X186992Y191284D01*
X188992D01*
X188897Y191274D01*
D02*
G37*
G36*
X102775D02*
X102690Y191243D01*
X102615Y191193D01*
X102550Y191122D01*
X102495Y191031D01*
X102450Y190919D01*
X102415Y190788D01*
X102390Y190636D01*
X102375Y190464D01*
X102370Y190272D01*
X101370D01*
X101365Y190464D01*
X101350Y190636D01*
X101325Y190788D01*
X101290Y190919D01*
X101245Y191031D01*
X101190Y191122D01*
X101125Y191193D01*
X101050Y191243D01*
X100965Y191274D01*
X100870Y191284D01*
X102870D01*
X102775Y191274D01*
D02*
G37*
G36*
X269212Y190959D02*
X269127Y190928D01*
X269052Y190878D01*
X268987Y190807D01*
X268932Y190716D01*
X268887Y190605D01*
X268852Y190473D01*
X268827Y190321D01*
X268812Y190149D01*
X268807Y189957D01*
X267807D01*
X267802Y190149D01*
X267787Y190321D01*
X267762Y190473D01*
X267727Y190605D01*
X267682Y190716D01*
X267627Y190807D01*
X267562Y190878D01*
X267487Y190928D01*
X267402Y190959D01*
X267307Y190969D01*
X269307D01*
X269212Y190959D01*
D02*
G37*
G36*
X263503D02*
X263418Y190928D01*
X263343Y190878D01*
X263278Y190807D01*
X263223Y190716D01*
X263178Y190605D01*
X263143Y190473D01*
X263118Y190321D01*
X263103Y190149D01*
X263098Y189957D01*
X262098D01*
X262093Y190149D01*
X262078Y190321D01*
X262053Y190473D01*
X262018Y190605D01*
X261973Y190716D01*
X261918Y190807D01*
X261853Y190878D01*
X261778Y190928D01*
X261693Y190959D01*
X261598Y190969D01*
X263598D01*
X263503Y190959D01*
D02*
G37*
G36*
X28778Y191528D02*
X28646Y191469D01*
X28530Y191370D01*
X28429Y191233D01*
X28343Y191055D01*
X28274Y190839D01*
X28219Y190583D01*
X28183Y190303D01*
X28219Y189929D01*
X28274Y189673D01*
X28343Y189456D01*
X28429Y189279D01*
X28530Y189142D01*
X28646Y189043D01*
X28778Y188984D01*
X28925Y188964D01*
X25406D01*
X25553Y188984D01*
X25685Y189043D01*
X25801Y189142D01*
X25902Y189279D01*
X25987Y189456D01*
X26057Y189673D01*
X26111Y189929D01*
X26148Y190209D01*
X26111Y190583D01*
X26057Y190839D01*
X25987Y191055D01*
X25902Y191233D01*
X25801Y191370D01*
X25685Y191469D01*
X25553Y191528D01*
X25406Y191547D01*
X28925D01*
X28778Y191528D01*
D02*
G37*
G36*
X23069D02*
X22937Y191469D01*
X22821Y191370D01*
X22720Y191233D01*
X22635Y191055D01*
X22565Y190839D01*
X22511Y190583D01*
X22474Y190303D01*
X22511Y189929D01*
X22565Y189673D01*
X22635Y189456D01*
X22720Y189279D01*
X22821Y189142D01*
X22937Y189043D01*
X23069Y188984D01*
X23216Y188964D01*
X19697D01*
X19844Y188984D01*
X19976Y189043D01*
X20092Y189142D01*
X20193Y189279D01*
X20279Y189456D01*
X20348Y189673D01*
X20403Y189929D01*
X20439Y190209D01*
X20403Y190583D01*
X20348Y190839D01*
X20279Y191055D01*
X20193Y191233D01*
X20092Y191370D01*
X19976Y191469D01*
X19844Y191528D01*
X19697Y191547D01*
X23216D01*
X23069Y191528D01*
D02*
G37*
G36*
X268812Y189181D02*
X268827Y189009D01*
X268852Y188858D01*
X268887Y188726D01*
X268932Y188615D01*
X268987Y188524D01*
X269052Y188453D01*
X269127Y188402D01*
X269212Y188372D01*
X269307Y188362D01*
X267307D01*
X267402Y188372D01*
X267487Y188402D01*
X267562Y188453D01*
X267627Y188524D01*
X267682Y188615D01*
X267727Y188726D01*
X267762Y188858D01*
X267787Y189009D01*
X267802Y189181D01*
X267807Y189374D01*
X268807D01*
X268812Y189181D01*
D02*
G37*
G36*
X263103D02*
X263118Y189009D01*
X263143Y188858D01*
X263178Y188726D01*
X263223Y188615D01*
X263278Y188524D01*
X263343Y188453D01*
X263418Y188402D01*
X263503Y188372D01*
X263598Y188362D01*
X261598D01*
X261693Y188372D01*
X261778Y188402D01*
X261853Y188453D01*
X261918Y188524D01*
X261973Y188615D01*
X262018Y188726D01*
X262053Y188858D01*
X262078Y189009D01*
X262093Y189181D01*
X262098Y189374D01*
X263098D01*
X263103Y189181D01*
D02*
G37*
G36*
X102375Y188889D02*
X102390Y188719D01*
X102415Y188569D01*
X102450Y188439D01*
X102495Y188329D01*
X102550Y188239D01*
X102615Y188169D01*
X102690Y188119D01*
X102775Y188089D01*
X102870Y188078D01*
X100870D01*
X100965Y188089D01*
X101050Y188119D01*
X101125Y188169D01*
X101190Y188239D01*
X101245Y188329D01*
X101290Y188439D01*
X101325Y188569D01*
X101350Y188719D01*
X101365Y188889D01*
X101370Y189078D01*
X102370D01*
X102375Y188889D01*
D02*
G37*
G36*
X194403Y188591D02*
X194418Y188419D01*
X194443Y188267D01*
X194478Y188136D01*
X194523Y188024D01*
X194578Y187933D01*
X194643Y187862D01*
X194718Y187812D01*
X194803Y187781D01*
X194898Y187771D01*
X192898D01*
X192993Y187781D01*
X193078Y187812D01*
X193153Y187862D01*
X193218Y187933D01*
X193273Y188024D01*
X193318Y188136D01*
X193353Y188267D01*
X193378Y188419D01*
X193393Y188591D01*
X193398Y188783D01*
X194398D01*
X194403Y188591D01*
D02*
G37*
G36*
X188497D02*
X188512Y188419D01*
X188537Y188267D01*
X188572Y188136D01*
X188617Y188024D01*
X188672Y187933D01*
X188737Y187862D01*
X188812Y187812D01*
X188897Y187781D01*
X188992Y187771D01*
X186992D01*
X187087Y187781D01*
X187172Y187812D01*
X187247Y187862D01*
X187312Y187933D01*
X187367Y188024D01*
X187412Y188136D01*
X187447Y188267D01*
X187472Y188419D01*
X187487Y188591D01*
X187492Y188783D01*
X188492D01*
X188497Y188591D01*
D02*
G37*
G36*
X215772Y186243D02*
X215762Y186338D01*
X215732Y186423D01*
X215681Y186498D01*
X215610Y186563D01*
X215519Y186618D01*
X215408Y186663D01*
X215276Y186698D01*
X215124Y186723D01*
X214952Y186738D01*
X214760Y186743D01*
Y187743D01*
X214952Y187748D01*
X215124Y187763D01*
X215276Y187788D01*
X215408Y187823D01*
X215519Y187868D01*
X215610Y187923D01*
X215681Y187988D01*
X215732Y188063D01*
X215762Y188148D01*
X215772Y188243D01*
Y186243D01*
D02*
G37*
G36*
X94807Y185319D02*
X94797Y185414D01*
X94767Y185499D01*
X94716Y185574D01*
X94646Y185639D01*
X94555Y185694D01*
X94443Y185739D01*
X94312Y185774D01*
X94160Y185799D01*
X93988Y185814D01*
X93796Y185819D01*
Y186819D01*
X93988Y186824D01*
X94160Y186839D01*
X94312Y186864D01*
X94443Y186899D01*
X94555Y186944D01*
X94646Y186999D01*
X94716Y187064D01*
X94767Y187139D01*
X94797Y187224D01*
X94807Y187319D01*
Y185319D01*
D02*
G37*
G36*
X80733D02*
X80723Y185414D01*
X80692Y185499D01*
X80642Y185574D01*
X80571Y185639D01*
X80480Y185694D01*
X80368Y185739D01*
X80237Y185774D01*
X80085Y185799D01*
X79913Y185814D01*
X79721Y185819D01*
Y186819D01*
X79913Y186824D01*
X80085Y186839D01*
X80237Y186864D01*
X80368Y186899D01*
X80480Y186944D01*
X80571Y186999D01*
X80642Y187064D01*
X80692Y187139D01*
X80723Y187224D01*
X80733Y187319D01*
Y185319D01*
D02*
G37*
G36*
X49335D02*
X49325Y185414D01*
X49294Y185499D01*
X49244Y185574D01*
X49173Y185639D01*
X49082Y185694D01*
X48971Y185739D01*
X48839Y185774D01*
X48687Y185799D01*
X48515Y185814D01*
X48323Y185819D01*
Y186819D01*
X48515Y186824D01*
X48687Y186839D01*
X48839Y186864D01*
X48971Y186899D01*
X49082Y186944D01*
X49173Y186999D01*
X49244Y187064D01*
X49294Y187139D01*
X49325Y187224D01*
X49335Y187319D01*
Y185319D01*
D02*
G37*
G36*
X247170Y184728D02*
X247160Y184823D01*
X247129Y184908D01*
X247079Y184983D01*
X247008Y185048D01*
X246917Y185103D01*
X246805Y185148D01*
X246674Y185183D01*
X246522Y185208D01*
X246350Y185223D01*
X246158Y185228D01*
Y186228D01*
X246350Y186233D01*
X246522Y186248D01*
X246674Y186273D01*
X246805Y186308D01*
X246917Y186353D01*
X247008Y186408D01*
X247079Y186473D01*
X247129Y186548D01*
X247160Y186633D01*
X247170Y186728D01*
Y184728D01*
D02*
G37*
G36*
X42185Y188078D02*
X42412Y187813D01*
X42644Y187580D01*
X42879Y187378D01*
X43119Y187207D01*
X43363Y187068D01*
X43611Y186959D01*
X43863Y186881D01*
X44119Y186834D01*
X44379Y186819D01*
Y185819D01*
X44119Y185803D01*
X43863Y185757D01*
X43611Y185679D01*
X43363Y185570D01*
X43119Y185430D01*
X42879Y185259D01*
X42644Y185057D01*
X42412Y184824D01*
X42185Y184560D01*
X41962Y184265D01*
Y188373D01*
X42185Y188078D01*
D02*
G37*
G36*
X215772Y184243D02*
X215762Y184338D01*
X215732Y184423D01*
X215681Y184498D01*
X215610Y184563D01*
X215519Y184618D01*
X215408Y184663D01*
X215276Y184698D01*
X215124Y184723D01*
X214952Y184738D01*
X214760Y184743D01*
Y185743D01*
X214952Y185748D01*
X215124Y185763D01*
X215276Y185788D01*
X215408Y185823D01*
X215519Y185868D01*
X215610Y185923D01*
X215681Y185988D01*
X215732Y186063D01*
X215762Y186148D01*
X215772Y186243D01*
Y184243D01*
D02*
G37*
G36*
X73583Y188078D02*
X73810Y187813D01*
X74041Y187580D01*
X74277Y187378D01*
X74517Y187207D01*
X74760Y187068D01*
X75008Y186959D01*
X75260Y186881D01*
X75516Y186834D01*
X75776Y186819D01*
Y185819D01*
X75516Y185803D01*
X75260Y185757D01*
X75008Y185679D01*
X74760Y185570D01*
X74517Y185430D01*
X74277Y185259D01*
X74090Y185099D01*
X74093Y185094D01*
X74257Y184899D01*
X74473Y184672D01*
X73766Y183965D01*
X73697Y184031D01*
X73632Y184086D01*
X73571Y184130D01*
X73514Y184163D01*
X73461Y184185D01*
X73413Y184197D01*
X73369Y184197D01*
X73328Y184186D01*
X73292Y184165D01*
X73261Y184132D01*
X73360Y184337D01*
Y188373D01*
X73583Y188078D01*
D02*
G37*
G36*
X240020Y187487D02*
X240247Y187223D01*
X240478Y186990D01*
X240714Y186788D01*
X240954Y186617D01*
X241197Y186477D01*
X241445Y186368D01*
X241697Y186291D01*
X241953Y186244D01*
X242213Y186228D01*
Y185228D01*
X241953Y185213D01*
X241697Y185166D01*
X241445Y185089D01*
X241197Y184980D01*
X240954Y184840D01*
X240714Y184669D01*
X240478Y184467D01*
X240247Y184234D01*
X240020Y183969D01*
X239797Y183674D01*
Y187783D01*
X240020Y187487D01*
D02*
G37*
G36*
X80733Y183319D02*
X80723Y183414D01*
X80692Y183499D01*
X80642Y183574D01*
X80571Y183639D01*
X80480Y183694D01*
X80368Y183739D01*
X80237Y183774D01*
X80085Y183799D01*
X79913Y183814D01*
X79721Y183819D01*
Y184819D01*
X79913Y184824D01*
X80085Y184839D01*
X80237Y184864D01*
X80368Y184899D01*
X80480Y184944D01*
X80571Y184999D01*
X80642Y185064D01*
X80692Y185139D01*
X80723Y185224D01*
X80733Y185319D01*
Y183319D01*
D02*
G37*
G36*
X208261Y188002D02*
X208503Y187800D01*
X208748Y187622D01*
X208997Y187467D01*
X209248Y187336D01*
X209503Y187229D01*
X209761Y187146D01*
X210022Y187086D01*
X210287Y187051D01*
X210555Y187039D01*
Y186039D01*
X210321Y186024D01*
X210102Y185982D01*
X209985Y185941D01*
X210079Y185893D01*
X210317Y185810D01*
X210562Y185760D01*
X210816Y185743D01*
Y184743D01*
X210550Y184728D01*
X210281Y184684D01*
X210011Y184610D01*
X209738Y184506D01*
X209463Y184373D01*
X209186Y184210D01*
X208907Y184018D01*
X208626Y183796D01*
X208343Y183545D01*
X208057Y183263D01*
X208477Y186296D01*
X208023Y188228D01*
X208261Y188002D01*
D02*
G37*
G36*
X28070Y180723D02*
X27985Y180692D01*
X27910Y180642D01*
X27845Y180571D01*
X27790Y180480D01*
X27745Y180368D01*
X27710Y180237D01*
X27685Y180085D01*
X27670Y179913D01*
X27665Y179721D01*
X26665D01*
X26660Y179913D01*
X26645Y180085D01*
X26620Y180237D01*
X26585Y180368D01*
X26540Y180480D01*
X26485Y180571D01*
X26420Y180642D01*
X26345Y180692D01*
X26260Y180723D01*
X26165Y180733D01*
X28165D01*
X28070Y180723D01*
D02*
G37*
G36*
X22862D02*
X22777Y180692D01*
X22702Y180642D01*
X22637Y180571D01*
X22582Y180480D01*
X22537Y180368D01*
X22502Y180237D01*
X22477Y180085D01*
X22462Y179913D01*
X22457Y179721D01*
X21457D01*
X21452Y179913D01*
X21437Y180085D01*
X21412Y180237D01*
X21377Y180368D01*
X21332Y180480D01*
X21277Y180571D01*
X21212Y180642D01*
X21137Y180692D01*
X21052Y180723D01*
X20957Y180733D01*
X22957D01*
X22862Y180723D01*
D02*
G37*
G36*
X268712Y180132D02*
X268627Y180102D01*
X268552Y180051D01*
X268487Y179980D01*
X268432Y179889D01*
X268387Y179778D01*
X268352Y179646D01*
X268327Y179494D01*
X268312Y179322D01*
X268307Y179130D01*
X267307D01*
X267302Y179322D01*
X267287Y179494D01*
X267262Y179646D01*
X267227Y179778D01*
X267182Y179889D01*
X267127Y179980D01*
X267062Y180051D01*
X266987Y180102D01*
X266902Y180132D01*
X266807Y180142D01*
X268807D01*
X268712Y180132D01*
D02*
G37*
G36*
X263003D02*
X262918Y180102D01*
X262843Y180051D01*
X262778Y179980D01*
X262723Y179889D01*
X262678Y179778D01*
X262643Y179646D01*
X262618Y179494D01*
X262603Y179322D01*
X262598Y179130D01*
X261598D01*
X261593Y179322D01*
X261578Y179494D01*
X261553Y179646D01*
X261518Y179778D01*
X261473Y179889D01*
X261418Y179980D01*
X261353Y180051D01*
X261278Y180102D01*
X261193Y180132D01*
X261098Y180142D01*
X263098D01*
X263003Y180132D01*
D02*
G37*
G36*
X194318Y167256D02*
X194374Y166370D01*
X194407Y166153D01*
X194448Y165976D01*
X194497Y165838D01*
X194553Y165740D01*
X194616Y165681D01*
X194687Y165661D01*
X191711D01*
X191832Y165681D01*
X191939Y165740D01*
X192035Y165838D01*
X192117Y165976D01*
X192187Y166153D01*
X192244Y166370D01*
X192289Y166626D01*
X192321Y166921D01*
X192346Y167630D01*
X194314D01*
X194318Y167256D01*
D02*
G37*
G36*
X94395D02*
X94470Y166370D01*
X94516Y166153D01*
X94571Y165976D01*
X94637Y165838D01*
X94712Y165740D01*
X94798Y165681D01*
X94893Y165661D01*
X91918D01*
X92013Y165681D01*
X92099Y165740D01*
X92174Y165838D01*
X92240Y165976D01*
X92295Y166153D01*
X92341Y166370D01*
X92376Y166626D01*
X92416Y167256D01*
X92421Y167630D01*
X94390D01*
X94395Y167256D01*
D02*
G37*
G36*
X195461Y156661D02*
X195473Y155497D01*
X195466Y155531D01*
X195445Y155561D01*
X195410Y155587D01*
X195362Y155610D01*
X195300Y155629D01*
X195224Y155645D01*
X195135Y155657D01*
X194915Y155672D01*
X194785Y155673D01*
Y156673D01*
X195461Y156661D01*
D02*
G37*
G36*
X191613Y155673D02*
X191484Y155672D01*
X191180Y155645D01*
X191106Y155629D01*
X191045Y155610D01*
X190998Y155587D01*
X190964Y155561D01*
X190944Y155531D01*
X190937Y155497D01*
Y156661D01*
X190944Y156664D01*
X190964Y156666D01*
X191045Y156669D01*
X191613Y156673D01*
Y155673D01*
D02*
G37*
G36*
X95667Y156661D02*
X95679Y155497D01*
X95672Y155531D01*
X95651Y155561D01*
X95617Y155587D01*
X95569Y155610D01*
X95507Y155629D01*
X95431Y155645D01*
X95341Y155657D01*
X95122Y155672D01*
X94991Y155673D01*
Y156673D01*
X95667Y156661D01*
D02*
G37*
G36*
X91820Y155673D02*
X91691Y155672D01*
X91387Y155645D01*
X91313Y155629D01*
X91252Y155610D01*
X91204Y155587D01*
X91171Y155561D01*
X91150Y155531D01*
X91144Y155497D01*
Y156661D01*
X91150Y156664D01*
X91171Y156666D01*
X91252Y156669D01*
X91820Y156673D01*
Y155673D01*
D02*
G37*
G36*
X195461Y153685D02*
X195454Y153683D01*
X195434Y153681D01*
X195353Y153677D01*
X194785Y153673D01*
Y154673D01*
X194915Y154675D01*
X195224Y154701D01*
X195300Y154717D01*
X195362Y154737D01*
X195410Y154760D01*
X195445Y154786D01*
X195466Y154816D01*
X195473Y154849D01*
X195461Y153685D01*
D02*
G37*
G36*
X190944Y154816D02*
X190964Y154786D01*
X190998Y154760D01*
X191045Y154737D01*
X191106Y154717D01*
X191180Y154701D01*
X191268Y154689D01*
X191370Y154680D01*
X191613Y154673D01*
Y153673D01*
X190937Y153685D01*
Y154849D01*
X190944Y154816D01*
D02*
G37*
G36*
X95667Y153685D02*
X95661Y153683D01*
X95640Y153681D01*
X95559Y153677D01*
X94991Y153673D01*
Y154673D01*
X95122Y154675D01*
X95431Y154701D01*
X95507Y154717D01*
X95569Y154737D01*
X95617Y154760D01*
X95651Y154786D01*
X95672Y154816D01*
X95679Y154849D01*
X95667Y153685D01*
D02*
G37*
G36*
X91150Y154816D02*
X91171Y154786D01*
X91204Y154760D01*
X91252Y154737D01*
X91313Y154717D01*
X91387Y154701D01*
X91475Y154689D01*
X91576Y154680D01*
X91820Y154673D01*
Y153673D01*
X91144Y153685D01*
Y154849D01*
X91150Y154816D01*
D02*
G37*
G36*
X192661Y150520D02*
X192534Y150390D01*
X192254Y150065D01*
X192193Y149977D01*
X192149Y149899D01*
X192121Y149832D01*
X192109Y149775D01*
X192114Y149728D01*
X192136Y149692D01*
X191154Y150729D01*
X191188Y150706D01*
X191233Y150700D01*
X191287Y150709D01*
X191352Y150734D01*
X191427Y150776D01*
X191512Y150834D01*
X191607Y150908D01*
X191828Y151104D01*
X191954Y151227D01*
X192661Y150520D01*
D02*
G37*
G36*
X92661D02*
X92534Y150390D01*
X92254Y150065D01*
X92193Y149977D01*
X92149Y149899D01*
X92121Y149832D01*
X92110Y149775D01*
X92114Y149728D01*
X92136Y149692D01*
X91154Y150729D01*
X91188Y150706D01*
X91233Y150700D01*
X91287Y150709D01*
X91352Y150734D01*
X91427Y150776D01*
X91512Y150834D01*
X91607Y150908D01*
X91828Y151104D01*
X91953Y151227D01*
X92661Y150520D01*
D02*
G37*
G36*
X194786Y151104D02*
X195102Y150834D01*
X195187Y150776D01*
X195262Y150734D01*
X195327Y150709D01*
X195381Y150700D01*
X195426Y150706D01*
X195460Y150729D01*
X194479Y149692D01*
X194500Y149728D01*
X194505Y149775D01*
X194493Y149832D01*
X194465Y149899D01*
X194421Y149977D01*
X194360Y150065D01*
X194283Y150163D01*
X194080Y150390D01*
X193954Y150520D01*
X194661Y151227D01*
X194786Y151104D01*
D02*
G37*
G36*
X94786D02*
X95102Y150834D01*
X95187Y150776D01*
X95262Y150734D01*
X95327Y150709D01*
X95381Y150700D01*
X95426Y150706D01*
X95461Y150729D01*
X94479Y149692D01*
X94500Y149728D01*
X94505Y149775D01*
X94493Y149832D01*
X94465Y149899D01*
X94421Y149977D01*
X94360Y150065D01*
X94283Y150163D01*
X94080Y150390D01*
X93954Y150520D01*
X94661Y151227D01*
X94786Y151104D01*
D02*
G37*
G36*
X184441Y143587D02*
X184431Y143682D01*
X184401Y143767D01*
X184350Y143842D01*
X184279Y143907D01*
X184188Y143962D01*
X184077Y144007D01*
X183945Y144042D01*
X183794Y144067D01*
X183622Y144082D01*
X183429Y144087D01*
Y145087D01*
X183622Y145092D01*
X183794Y145107D01*
X183945Y145132D01*
X184077Y145167D01*
X184188Y145212D01*
X184279Y145267D01*
X184350Y145332D01*
X184401Y145407D01*
X184431Y145492D01*
X184441Y145587D01*
Y143587D01*
D02*
G37*
G36*
X180203Y145492D02*
X180233Y145407D01*
X180284Y145332D01*
X180354Y145267D01*
X180446Y145212D01*
X180557Y145167D01*
X180688Y145132D01*
X180840Y145107D01*
X181012Y145092D01*
X181204Y145087D01*
Y144087D01*
X181012Y144082D01*
X180840Y144067D01*
X180688Y144042D01*
X180557Y144007D01*
X180446Y143962D01*
X180354Y143907D01*
X180284Y143842D01*
X180233Y143767D01*
X180203Y143682D01*
X180192Y143587D01*
Y145587D01*
X180203Y145492D01*
D02*
G37*
G36*
X84441Y143587D02*
X84431Y143682D01*
X84401Y143767D01*
X84350Y143842D01*
X84279Y143907D01*
X84188Y143962D01*
X84077Y144007D01*
X83946Y144042D01*
X83794Y144067D01*
X83622Y144082D01*
X83429Y144087D01*
Y145087D01*
X83622Y145092D01*
X83794Y145107D01*
X83946Y145132D01*
X84077Y145167D01*
X84188Y145212D01*
X84279Y145267D01*
X84350Y145332D01*
X84401Y145407D01*
X84431Y145492D01*
X84441Y145587D01*
Y143587D01*
D02*
G37*
G36*
X80695Y145492D02*
X80725Y145407D01*
X80776Y145332D01*
X80847Y145267D01*
X80938Y145212D01*
X81049Y145167D01*
X81181Y145132D01*
X81332Y145107D01*
X81504Y145092D01*
X81697Y145087D01*
Y144087D01*
X81504Y144082D01*
X81332Y144067D01*
X81181Y144042D01*
X81049Y144007D01*
X80938Y143962D01*
X80847Y143907D01*
X80776Y143842D01*
X80725Y143767D01*
X80695Y143682D01*
X80685Y143587D01*
Y145587D01*
X80695Y145492D01*
D02*
G37*
G36*
X180219Y139656D02*
X180260Y139454D01*
X180330Y139242D01*
X180427Y139022D01*
X180552Y138793D01*
X180706Y138554D01*
X180887Y138307D01*
X181332Y137786D01*
X181597Y137512D01*
X180204Y136120D01*
X179811Y136500D01*
X179101Y137100D01*
X178784Y137320D01*
X178492Y137487D01*
X178227Y137601D01*
X177987Y137662D01*
X177773Y137669D01*
X177584Y137623D01*
X177421Y137524D01*
X180204Y139850D01*
X180219Y139656D01*
D02*
G37*
G36*
X80711D02*
X80752Y139454D01*
X80822Y139242D01*
X80919Y139022D01*
X81045Y138793D01*
X81198Y138554D01*
X81379Y138307D01*
X81824Y137786D01*
X82089Y137512D01*
X80697Y136120D01*
X80303Y136500D01*
X79593Y137100D01*
X79276Y137320D01*
X78985Y137487D01*
X78719Y137601D01*
X78479Y137662D01*
X78265Y137669D01*
X78076Y137623D01*
X77913Y137524D01*
X80697Y139850D01*
X80711Y139656D01*
D02*
G37*
G36*
X97138Y130475D02*
X94476D01*
X94505Y130567D01*
X94530Y130699D01*
X94553Y130870D01*
X94589Y131333D01*
X94626Y133185D01*
X96988D01*
X97138Y130475D01*
D02*
G37*
G36*
X189699Y132621D02*
X190865Y131597D01*
X190985Y131521D01*
X191085Y131471D01*
X191164Y131449D01*
X189441Y128712D01*
X189523Y128892D01*
X189556Y129094D01*
X189539Y129318D01*
X189472Y129564D01*
X189357Y129831D01*
X189192Y130121D01*
X188977Y130432D01*
X188713Y130765D01*
X188400Y131119D01*
X188037Y131496D01*
X189431Y132886D01*
X189699Y132621D01*
D02*
G37*
G36*
X89699D02*
X90865Y131597D01*
X90986Y131521D01*
X91085Y131471D01*
X91164Y131449D01*
X89441Y128712D01*
X89523Y128892D01*
X89556Y129094D01*
X89539Y129318D01*
X89473Y129564D01*
X89357Y129831D01*
X89192Y130121D01*
X88977Y130432D01*
X88713Y130765D01*
X88400Y131119D01*
X88037Y131496D01*
X89432Y132886D01*
X89699Y132621D01*
D02*
G37*
G36*
X96579Y125654D02*
X96522Y125529D01*
X96472Y125365D01*
X96428Y125163D01*
X96391Y124923D01*
X96337Y124326D01*
X96311Y123576D01*
X96307Y123143D01*
X95307D01*
X95304Y123576D01*
X95186Y125163D01*
X95143Y125365D01*
X95092Y125529D01*
X95035Y125654D01*
X94971Y125740D01*
X96643D01*
X96579Y125654D01*
D02*
G37*
G36*
X201704Y122085D02*
X201621Y122045D01*
X201547Y121978D01*
X201484Y121884D01*
X201430Y121764D01*
X201385Y121616D01*
X201351Y121442D01*
X201327Y121242D01*
X201312Y121014D01*
X201307Y120760D01*
X200307D01*
X200302Y121014D01*
X200263Y121442D01*
X200229Y121616D01*
X200184Y121764D01*
X200130Y121884D01*
X200067Y121978D01*
X199993Y122045D01*
X199910Y122085D01*
X199817Y122098D01*
X201798D01*
X201704Y122085D01*
D02*
G37*
G36*
X196704D02*
X196621Y122045D01*
X196547Y121978D01*
X196484Y121884D01*
X196430Y121764D01*
X196386Y121616D01*
X196351Y121442D01*
X196327Y121242D01*
X196312Y121014D01*
X196307Y120760D01*
X195307D01*
X195302Y121014D01*
X195263Y121442D01*
X195229Y121616D01*
X195184Y121764D01*
X195130Y121884D01*
X195067Y121978D01*
X194993Y122045D01*
X194910Y122085D01*
X194817Y122098D01*
X196798D01*
X196704Y122085D01*
D02*
G37*
G36*
X186704D02*
X186621Y122045D01*
X186547Y121978D01*
X186484Y121884D01*
X186430Y121764D01*
X186386Y121616D01*
X186351Y121442D01*
X186327Y121242D01*
X186312Y121014D01*
X186307Y120760D01*
X185307D01*
X185302Y121014D01*
X185263Y121442D01*
X185229Y121616D01*
X185184Y121764D01*
X185130Y121884D01*
X185067Y121978D01*
X184993Y122045D01*
X184910Y122085D01*
X184817Y122098D01*
X186797D01*
X186704Y122085D01*
D02*
G37*
G36*
X101704D02*
X101621Y122045D01*
X101547Y121978D01*
X101484Y121884D01*
X101430Y121764D01*
X101386Y121616D01*
X101351Y121442D01*
X101327Y121242D01*
X101312Y121014D01*
X101307Y120760D01*
X100307D01*
X100302Y121014D01*
X100263Y121442D01*
X100229Y121616D01*
X100185Y121764D01*
X100130Y121884D01*
X100067Y121978D01*
X99993Y122045D01*
X99910Y122085D01*
X99817Y122098D01*
X101798D01*
X101704Y122085D01*
D02*
G37*
G36*
X96704D02*
X96621Y122045D01*
X96547Y121978D01*
X96484Y121884D01*
X96430Y121764D01*
X96386Y121616D01*
X96351Y121442D01*
X96327Y121242D01*
X96312Y121014D01*
X96307Y120760D01*
X95307D01*
X95302Y121014D01*
X95263Y121442D01*
X95229Y121616D01*
X95184Y121764D01*
X95130Y121884D01*
X95067Y121978D01*
X94993Y122045D01*
X94910Y122085D01*
X94817Y122098D01*
X96798D01*
X96704Y122085D01*
D02*
G37*
G36*
X86704D02*
X86621Y122045D01*
X86547Y121978D01*
X86484Y121884D01*
X86430Y121764D01*
X86386Y121616D01*
X86351Y121442D01*
X86327Y121242D01*
X86312Y121014D01*
X86307Y120760D01*
X85307D01*
X85302Y121014D01*
X85263Y121442D01*
X85229Y121616D01*
X85185Y121764D01*
X85131Y121884D01*
X85067Y121978D01*
X84993Y122045D01*
X84910Y122085D01*
X84817Y122098D01*
X86798D01*
X86704Y122085D01*
D02*
G37*
G36*
X92000Y122343D02*
X91932Y122235D01*
X91871Y122098D01*
X91817Y121933D01*
X91770Y121740D01*
X91731Y121518D01*
X91673Y120989D01*
X91644Y120345D01*
X91641Y119981D01*
X89672Y120298D01*
X89670Y120665D01*
X89576Y122262D01*
X89547Y122429D01*
X89513Y122566D01*
X89476Y122675D01*
X92000Y122343D01*
D02*
G37*
G36*
X189419Y122778D02*
X189476Y122675D01*
X192000Y122343D01*
X191837Y122115D01*
X191691Y121880D01*
X191562Y121637D01*
X191451Y121388D01*
X191356Y121130D01*
X191279Y120865D01*
X191219Y120592D01*
X191176Y120312D01*
X191150Y120025D01*
X191142Y119729D01*
X189173Y119853D01*
X189176Y120521D01*
X189322Y122728D01*
X189367Y122796D01*
X189419Y122778D01*
D02*
G37*
G36*
X91644Y118512D02*
X91701Y117626D01*
X91734Y117409D01*
X91776Y117232D01*
X91824Y117094D01*
X91881Y116996D01*
X91944Y116937D01*
X92015Y116917D01*
X88890D01*
X89039Y116937D01*
X89172Y116996D01*
X89289Y117094D01*
X89391Y117232D01*
X89477Y117409D01*
X89547Y117626D01*
X89602Y117882D01*
X89641Y118177D01*
X89664Y118512D01*
X89672Y118886D01*
X91641D01*
X91644Y118512D01*
D02*
G37*
G36*
X96312Y117725D02*
X96327Y117553D01*
X96352Y117401D01*
X96387Y117270D01*
X96432Y117158D01*
X96487Y117067D01*
X96552Y116996D01*
X96627Y116946D01*
X96712Y116915D01*
X96807Y116905D01*
X94807D01*
X94902Y116915D01*
X94987Y116946D01*
X95062Y116996D01*
X95127Y117067D01*
X95182Y117158D01*
X95227Y117270D01*
X95262Y117401D01*
X95287Y117553D01*
X95302Y117725D01*
X95307Y117917D01*
X96307D01*
X96312Y117725D01*
D02*
G37*
G36*
X191147Y118315D02*
X191194Y117685D01*
X191234Y117429D01*
X191286Y117212D01*
X191350Y117035D01*
X191425Y116897D01*
X191512Y116799D01*
X191610Y116740D01*
X191720Y116720D01*
X188595D01*
X188705Y116740D01*
X188803Y116799D01*
X188890Y116897D01*
X188965Y117035D01*
X189029Y117212D01*
X189081Y117429D01*
X189121Y117685D01*
X189150Y117980D01*
X189173Y118689D01*
X191142D01*
X191147Y118315D01*
D02*
G37*
G36*
X196309Y117862D02*
X196350Y117215D01*
X196352Y117204D01*
X196387Y117073D01*
X196432Y116961D01*
X196487Y116870D01*
X196552Y116799D01*
X196627Y116749D01*
X196712Y116718D01*
X196807Y116708D01*
X196382D01*
X196403Y116383D01*
X196433Y116257D01*
X196466Y116166D01*
X196503Y116109D01*
X195111D01*
X195148Y116166D01*
X195181Y116257D01*
X195211Y116383D01*
X195236Y116543D01*
X195252Y116708D01*
X194807D01*
X194902Y116718D01*
X194987Y116749D01*
X195062Y116799D01*
X195127Y116870D01*
X195182Y116961D01*
X195227Y117073D01*
X195262Y117204D01*
X195287Y117356D01*
X195289Y117381D01*
X195305Y117862D01*
X195307Y118230D01*
X196307D01*
X196309Y117862D01*
D02*
G37*
G36*
X91906Y113772D02*
X91807Y113713D01*
X91720Y113614D01*
X91645Y113477D01*
X91582Y113299D01*
X91530Y113083D01*
X91489Y112827D01*
X91460Y112532D01*
X91437Y111823D01*
X89468D01*
X89463Y112197D01*
X89416Y112827D01*
X89376Y113083D01*
X89324Y113299D01*
X89260Y113477D01*
X89185Y113614D01*
X89098Y113713D01*
X89000Y113772D01*
X88890Y113792D01*
X92015D01*
X91906Y113772D01*
D02*
G37*
G36*
X197525Y113575D02*
X197435Y113516D01*
X197356Y113417D01*
X197287Y113280D01*
X197229Y113102D01*
X197181Y112886D01*
X197144Y112630D01*
X197118Y112335D01*
X197097Y111626D01*
X195128D01*
X195122Y112000D01*
X195071Y112630D01*
X195027Y112886D01*
X194971Y113102D01*
X194902Y113280D01*
X194820Y113417D01*
X194726Y113516D01*
X194620Y113575D01*
X194500Y113595D01*
X197626D01*
X197525Y113575D01*
D02*
G37*
G36*
X191610D02*
X191512Y113516D01*
X191425Y113417D01*
X191350Y113280D01*
X191286Y113102D01*
X191234Y112886D01*
X191194Y112630D01*
X191165Y112335D01*
X191142Y111626D01*
X189173D01*
X189167Y112000D01*
X189121Y112630D01*
X189081Y112886D01*
X189029Y113102D01*
X188965Y113280D01*
X188890Y113417D01*
X188803Y113516D01*
X188705Y113575D01*
X188595Y113595D01*
X191720D01*
X191610Y113575D01*
D02*
G37*
G36*
X196261Y90847D02*
X194291Y88877D01*
X194264Y88909D01*
X193846Y89336D01*
X191507Y91681D01*
X193456Y93630D01*
X196261Y90847D01*
D02*
G37*
G36*
X152705Y88605D02*
X152783Y87645D01*
X152851Y87219D01*
X152938Y86829D01*
X153045Y86474D01*
X153171Y86155D01*
X153316Y85872D01*
X153481Y85624D01*
X153665Y85412D01*
X149245D01*
X149377Y85572D01*
X149495Y85772D01*
X149599Y86014D01*
X149690Y86297D01*
X149766Y86622D01*
X149829Y86987D01*
X149912Y87842D01*
X149933Y88332D01*
X149940Y88862D01*
X152696Y89138D01*
X152705Y88605D01*
D02*
G37*
G36*
X157778Y89496D02*
X157750Y89385D01*
X157758Y89254D01*
X157802Y89103D01*
X157882Y88933D01*
X157999Y88743D01*
X158151Y88534D01*
X158340Y88304D01*
X158520Y88112D01*
X158908Y87777D01*
X159117Y87625D01*
X159307Y87508D01*
X159477Y87428D01*
X159628Y87384D01*
X159759Y87376D01*
X159870Y87404D01*
X159962Y87467D01*
X157752Y85257D01*
X157816Y85349D01*
X157843Y85460D01*
X157835Y85591D01*
X157791Y85742D01*
X157711Y85912D01*
X157594Y86102D01*
X157442Y86312D01*
X157254Y86541D01*
X157073Y86733D01*
X156686Y87068D01*
X156476Y87220D01*
X156286Y87337D01*
X156116Y87417D01*
X155965Y87461D01*
X155834Y87469D01*
X155723Y87442D01*
X155631Y87378D01*
X157841Y89588D01*
X157778Y89496D01*
D02*
G37*
G36*
X152117Y84076D02*
X152285Y84048D01*
X152191Y84048D01*
X152108Y84014D01*
X152034Y83946D01*
X151970Y83846D01*
X151916Y83711D01*
X151872Y83544D01*
X151838Y83343D01*
X151813Y83109D01*
X151793Y82540D01*
X150793Y82364D01*
X150788Y82731D01*
X150715Y83611D01*
X150671Y83830D01*
X150617Y84013D01*
X150553Y84158D01*
X150479Y84266D01*
X150395Y84338D01*
X150302Y84372D01*
X150572Y84328D01*
X150410Y84514D01*
X152500D01*
X152117Y84076D01*
D02*
G37*
G36*
X155786Y78871D02*
X155781Y78863D01*
X155761Y78840D01*
X155447Y78517D01*
X155087Y78156D01*
X154380Y78863D01*
X154512Y79002D01*
X154623Y79134D01*
X154712Y79258D01*
X154780Y79376D01*
X154827Y79486D01*
X154853Y79590D01*
X154857Y79686D01*
X154840Y79775D01*
X154802Y79857D01*
X154742Y79932D01*
X155786Y78871D01*
D02*
G37*
G36*
X137049Y78338D02*
X137588Y77859D01*
X137632Y77833D01*
X137664Y77822D01*
X137683Y77827D01*
X136851Y76995D01*
X136856Y77014D01*
X136846Y77046D01*
X136820Y77091D01*
X136778Y77148D01*
X136721Y77219D01*
X136459Y77508D01*
X136206Y77765D01*
X136914Y78472D01*
X137049Y78338D01*
D02*
G37*
G36*
X151797Y78134D02*
X151823Y77787D01*
X151847Y77634D01*
X151876Y77494D01*
X151913Y77368D01*
X151956Y77254D01*
X152006Y77155D01*
X152062Y77068D01*
X152125Y76995D01*
X150293Y76827D01*
X150388Y76850D01*
X150473Y76902D01*
X150548Y76981D01*
X150613Y77089D01*
X150668Y77225D01*
X150713Y77389D01*
X150748Y77581D01*
X150773Y77802D01*
X150788Y78050D01*
X150793Y78327D01*
X151793D01*
X151797Y78134D01*
D02*
G37*
G36*
X154162Y76373D02*
X154028Y76238D01*
X153549Y75699D01*
X153523Y75654D01*
X153512Y75622D01*
X153517Y75603D01*
X152685Y76435D01*
X152704Y76430D01*
X152736Y76441D01*
X152781Y76467D01*
X152838Y76508D01*
X152909Y76565D01*
X153198Y76828D01*
X153455Y77080D01*
X154162Y76373D01*
D02*
G37*
G36*
X155554Y74981D02*
X155420Y74846D01*
X154941Y74307D01*
X154915Y74262D01*
X154904Y74230D01*
X154909Y74212D01*
X154077Y75043D01*
X154096Y75038D01*
X154128Y75049D01*
X154173Y75075D01*
X154230Y75116D01*
X154301Y75173D01*
X154590Y75436D01*
X154847Y75688D01*
X155554Y74981D01*
D02*
G37*
G36*
X119363Y73622D02*
X119272Y73620D01*
X119181Y73609D01*
X119090Y73589D01*
X119001Y73559D01*
X118911Y73521D01*
X118822Y73474D01*
X118733Y73418D01*
X118645Y73354D01*
X118558Y73280D01*
X118551Y73274D01*
X118501Y73221D01*
X118389Y73089D01*
X118300Y72964D01*
X118232Y72846D01*
X118185Y72735D01*
X118159Y72632D01*
X118155Y72536D01*
X118172Y72447D01*
X118211Y72365D01*
X118271Y72291D01*
X116857Y73705D01*
X116931Y73645D01*
X117013Y73607D01*
X117102Y73589D01*
X117198Y73594D01*
X117301Y73619D01*
X117411Y73666D01*
X117529Y73734D01*
X117654Y73824D01*
X117786Y73935D01*
X117846Y73992D01*
X117856Y74002D01*
X117929Y74089D01*
X117995Y74177D01*
X118051Y74266D01*
X118099Y74355D01*
X118138Y74444D01*
X118169Y74534D01*
X118191Y74624D01*
X118204Y74715D01*
X118209Y74806D01*
X119363Y73622D01*
D02*
G37*
G36*
X131504Y72747D02*
X132022Y72289D01*
X132066Y72264D01*
X132097Y72254D01*
X132115Y72259D01*
X131284Y71428D01*
X131289Y71446D01*
X131279Y71477D01*
X131254Y71520D01*
X131215Y71576D01*
X131161Y71644D01*
X130909Y71922D01*
X130667Y72169D01*
X131374Y72876D01*
X131504Y72747D01*
D02*
G37*
G36*
X102956Y70960D02*
X102968Y70869D01*
X102989Y70779D01*
X103019Y70689D01*
X103058Y70599D01*
X103105Y70510D01*
X103162Y70422D01*
X103227Y70334D01*
X103300Y70246D01*
X103383Y70159D01*
X102676Y69452D01*
X102589Y69534D01*
X102501Y69608D01*
X102413Y69673D01*
X102324Y69729D01*
X102235Y69777D01*
X102146Y69815D01*
X102056Y69845D01*
X101966Y69866D01*
X101875Y69879D01*
X101784Y69882D01*
X102953Y71051D01*
X102956Y70960D01*
D02*
G37*
G36*
X120981Y66511D02*
X120896Y66466D01*
X120821Y66391D01*
X120756Y66286D01*
X120701Y66151D01*
X120656Y65986D01*
X120621Y65791D01*
X120596Y65566D01*
X120576Y65026D01*
X119576D01*
X119571Y65311D01*
X119531Y65791D01*
X119496Y65986D01*
X119451Y66151D01*
X119396Y66286D01*
X119331Y66391D01*
X119256Y66466D01*
X119171Y66511D01*
X119076Y66526D01*
X121076D01*
X120981Y66511D01*
D02*
G37*
G36*
X107174Y66375D02*
X107306Y66264D01*
X107431Y66174D01*
X107549Y66106D01*
X107659Y66059D01*
X107763Y66034D01*
X107859Y66030D01*
X107947Y66047D01*
X108029Y66085D01*
X108103Y66145D01*
X106689Y64731D01*
X106749Y64806D01*
X106788Y64887D01*
X106805Y64976D01*
X106801Y65072D01*
X106775Y65175D01*
X106728Y65286D01*
X106660Y65404D01*
X106570Y65529D01*
X106459Y65661D01*
X106327Y65800D01*
X107034Y66508D01*
X107174Y66375D01*
D02*
G37*
G36*
X125155Y65299D02*
X124324Y64468D01*
X124343Y64499D01*
X124346Y64541D01*
X124334Y64593D01*
X124307Y64655D01*
X124264Y64727D01*
X124206Y64809D01*
X124133Y64901D01*
X123940Y65115D01*
X123820Y65238D01*
X124527Y65945D01*
X125155Y65299D01*
D02*
G37*
G36*
X121737Y63027D02*
X122276Y62547D01*
X122321Y62521D01*
X122353Y62511D01*
X122372Y62516D01*
X121540Y61684D01*
X121545Y61703D01*
X121534Y61735D01*
X121508Y61779D01*
X121467Y61837D01*
X121410Y61907D01*
X121147Y62196D01*
X120895Y62453D01*
X121602Y63161D01*
X121737Y63027D01*
D02*
G37*
G36*
X105541Y62021D02*
X105629Y61947D01*
X105717Y61882D01*
X105806Y61826D01*
X105895Y61778D01*
X105984Y61740D01*
X106074Y61710D01*
X106164Y61689D01*
X106255Y61677D01*
X106346Y61673D01*
X105177Y60504D01*
X105174Y60595D01*
X105161Y60686D01*
X105140Y60776D01*
X105111Y60866D01*
X105072Y60956D01*
X105025Y61045D01*
X104968Y61133D01*
X104903Y61221D01*
X104830Y61309D01*
X104747Y61396D01*
X105454Y62103D01*
X105541Y62021D01*
D02*
G37*
G36*
X120345Y61635D02*
X120884Y61155D01*
X120929Y61129D01*
X120961Y61119D01*
X120980Y61124D01*
X120148Y60292D01*
X120153Y60311D01*
X120142Y60343D01*
X120116Y60387D01*
X120075Y60445D01*
X120018Y60515D01*
X119755Y60804D01*
X119503Y61061D01*
X120210Y61769D01*
X120345Y61635D01*
D02*
G37*
G36*
X118953Y60243D02*
X119492Y59764D01*
X119537Y59737D01*
X119569Y59727D01*
X119588Y59732D01*
X118756Y58900D01*
X118761Y58919D01*
X118750Y58951D01*
X118724Y58995D01*
X118683Y59053D01*
X118626Y59124D01*
X118363Y59412D01*
X118111Y59669D01*
X118818Y60377D01*
X118953Y60243D01*
D02*
G37*
G36*
X112718Y58005D02*
X112651Y58039D01*
X112556Y58033D01*
X112433Y57989D01*
X112282Y57906D01*
X112103Y57785D01*
X111895Y57625D01*
X111396Y57189D01*
X110784Y56598D01*
X109114Y58268D01*
X109428Y58589D01*
X110297Y59590D01*
X110417Y59771D01*
X110498Y59924D01*
X110540Y60049D01*
X110544Y60146D01*
X110508Y60215D01*
X112718Y58005D01*
D02*
G37*
G36*
X113915Y60097D02*
X113963Y59968D01*
X114043Y59817D01*
X114155Y59643D01*
X114233Y59537D01*
X114515Y59819D01*
X114455Y59745D01*
X114416Y59663D01*
X114399Y59575D01*
X114403Y59478D01*
X114429Y59375D01*
X114476Y59265D01*
X114532Y59168D01*
X114628Y59053D01*
X114683Y58987D01*
X115194Y58437D01*
X115498Y58129D01*
X114791Y57422D01*
X114483Y57726D01*
X113643Y58450D01*
X113545Y58491D01*
X113442Y58517D01*
X113346Y58521D01*
X113257Y58504D01*
X113175Y58465D01*
X113101Y58405D01*
X113376Y58680D01*
X113277Y58765D01*
X113103Y58877D01*
X112952Y58957D01*
X112823Y59005D01*
X112717Y59021D01*
X113899Y60203D01*
X113915Y60097D01*
D02*
G37*
G36*
X102086Y58566D02*
X102174Y58492D01*
X102262Y58427D01*
X102351Y58371D01*
X102440Y58324D01*
X102529Y58285D01*
X102619Y58255D01*
X102710Y58234D01*
X102801Y58222D01*
X102892Y58218D01*
X101723Y57049D01*
X101719Y57140D01*
X101707Y57231D01*
X101686Y57322D01*
X101656Y57412D01*
X101617Y57501D01*
X101570Y57590D01*
X101514Y57679D01*
X101449Y57767D01*
X101375Y57854D01*
X101292Y57942D01*
X101999Y58649D01*
X102086Y58566D01*
D02*
G37*
G36*
X116170Y57459D02*
X116709Y56980D01*
X116753Y56954D01*
X116785Y56943D01*
X116804Y56948D01*
X115972Y56116D01*
X115977Y56135D01*
X115966Y56167D01*
X115940Y56212D01*
X115899Y56269D01*
X115842Y56340D01*
X115579Y56629D01*
X115327Y56886D01*
X116034Y57593D01*
X116170Y57459D01*
D02*
G37*
G36*
X255334Y57560D02*
X255525Y57436D01*
X255745Y57327D01*
X255993Y57234D01*
X256272Y57155D01*
X256579Y57091D01*
X256915Y57043D01*
X257676Y56991D01*
X258100Y56988D01*
X255177Y54065D01*
X255174Y54489D01*
X255122Y55250D01*
X255074Y55586D01*
X255010Y55894D01*
X254932Y56172D01*
X254838Y56421D01*
X254729Y56641D01*
X254605Y56831D01*
X254466Y56992D01*
X255173Y57700D01*
X255334Y57560D01*
D02*
G37*
G36*
X245334D02*
X245525Y57436D01*
X245744Y57327D01*
X245993Y57234D01*
X246271Y57155D01*
X246579Y57091D01*
X246915Y57043D01*
X247676Y56991D01*
X248100Y56988D01*
X245177Y54065D01*
X245174Y54489D01*
X245123Y55250D01*
X245074Y55586D01*
X245010Y55894D01*
X244932Y56172D01*
X244838Y56421D01*
X244729Y56641D01*
X244605Y56831D01*
X244466Y56992D01*
X245173Y57700D01*
X245334Y57560D01*
D02*
G37*
G36*
X121497Y55014D02*
X121507Y54981D01*
X121532Y54936D01*
X121573Y54878D01*
X121630Y54807D01*
X121891Y54517D01*
X121925Y54484D01*
X121925Y54483D01*
X122012Y54410D01*
X122100Y54345D01*
X122189Y54288D01*
X122278Y54241D01*
X122367Y54202D01*
X122457Y54172D01*
X122548Y54150D01*
X122638Y54138D01*
X122730Y54134D01*
X121555Y52970D01*
X121552Y53061D01*
X121540Y53152D01*
X121519Y53242D01*
X121490Y53332D01*
X121451Y53422D01*
X121404Y53511D01*
X121348Y53599D01*
X121283Y53688D01*
X121235Y53745D01*
X120720Y54194D01*
X120689Y54206D01*
X120671Y54202D01*
X121502Y55033D01*
X121497Y55014D01*
D02*
G37*
G36*
X114245Y54209D02*
X114304Y54145D01*
X114370Y54087D01*
X114445Y54038D01*
X114527Y53996D01*
X114617Y53962D01*
X114714Y53935D01*
X114820Y53916D01*
X114933Y53905D01*
X115054Y53901D01*
X114801Y52901D01*
X114681Y52899D01*
X114456Y52880D01*
X114352Y52864D01*
X114252Y52843D01*
X114157Y52817D01*
X114068Y52787D01*
X113983Y52752D01*
X113904Y52713D01*
X113829Y52669D01*
X114194Y54282D01*
X114245Y54209D01*
D02*
G37*
G36*
X235189Y51095D02*
X235150Y51279D01*
X235032Y51445D01*
X234835Y51591D01*
X234559Y51717D01*
X234205Y51824D01*
X233772Y51911D01*
X233260Y51979D01*
X232000Y52057D01*
X231252Y52067D01*
Y56004D01*
X232000Y56014D01*
X233772Y56160D01*
X234205Y56247D01*
X234559Y56354D01*
X234835Y56480D01*
X235032Y56626D01*
X235150Y56792D01*
X235189Y56976D01*
Y51095D01*
D02*
G37*
G36*
X268100Y51083D02*
X267676Y51080D01*
X266915Y51028D01*
X266579Y50980D01*
X266271Y50916D01*
X265993Y50837D01*
X265744Y50743D01*
X265525Y50634D01*
X265334Y50511D01*
X265173Y50371D01*
X264466Y51078D01*
X264605Y51240D01*
X264729Y51430D01*
X264838Y51650D01*
X264932Y51899D01*
X265010Y52177D01*
X265074Y52484D01*
X265123Y52821D01*
X265174Y53582D01*
X265177Y54006D01*
X268100Y51083D01*
D02*
G37*
G36*
X110261Y51355D02*
X110334Y51300D01*
X110413Y51251D01*
X110497Y51208D01*
X110588Y51172D01*
X110684Y51143D01*
X110787Y51120D01*
X110895Y51104D01*
X111009Y51094D01*
X111129Y51091D01*
Y50091D01*
X111009Y50087D01*
X110895Y50077D01*
X110787Y50061D01*
X110684Y50038D01*
X110588Y50009D01*
X110497Y49973D01*
X110413Y49930D01*
X110334Y49881D01*
X110261Y49826D01*
X110194Y49764D01*
Y51417D01*
X110261Y51355D01*
D02*
G37*
G36*
X205413Y59193D02*
X205532Y58524D01*
X205728Y57933D01*
X206004Y57421D01*
X206358Y56988D01*
X206791Y56634D01*
X207303Y56358D01*
X207894Y56161D01*
X208563Y56043D01*
X209311Y56004D01*
Y52067D01*
X208563Y52027D01*
X207894Y51909D01*
X207303Y51713D01*
X206791Y51437D01*
X206358Y51083D01*
X206004Y50650D01*
X205728Y50138D01*
X205532Y49547D01*
X205413Y48878D01*
X205374Y48130D01*
X201437Y54035D01*
X205374Y59941D01*
X205413Y59193D01*
D02*
G37*
G36*
X188919Y48078D02*
X188845Y48138D01*
X188763Y48177D01*
X188674Y48194D01*
X188578Y48190D01*
X188475Y48164D01*
X188364Y48118D01*
X188247Y48049D01*
X188121Y47960D01*
X187989Y47848D01*
X187850Y47716D01*
X187143Y48423D01*
X187275Y48563D01*
X187386Y48695D01*
X187476Y48820D01*
X187544Y48938D01*
X187591Y49048D01*
X187616Y49152D01*
X187620Y49248D01*
X187603Y49336D01*
X187565Y49418D01*
X187505Y49492D01*
X188919Y48078D01*
D02*
G37*
G36*
X194154Y47826D02*
X194305Y47746D01*
X194494Y47675D01*
X194721Y47614D01*
X194986Y47562D01*
X195288Y47519D01*
X196006Y47463D01*
X196875Y47444D01*
Y45082D01*
X196240Y45070D01*
X195156Y44975D01*
X194708Y44893D01*
X194322Y44786D01*
X193999Y44656D01*
X193739Y44503D01*
X193541Y44326D01*
X193405Y44125D01*
X193332Y43900D01*
X194041Y47916D01*
X194154Y47826D01*
D02*
G37*
G36*
X121819Y44170D02*
X121733Y44082D01*
X121542Y43862D01*
X121501Y43803D01*
X121470Y43751D01*
X121450Y43707D01*
X121442Y43670D01*
X121444Y43640D01*
X121457Y43617D01*
X120671Y44420D01*
X120674Y44426D01*
X120686Y44441D01*
X120738Y44497D01*
X121112Y44877D01*
X121819Y44170D01*
D02*
G37*
G36*
X123539Y42966D02*
X123405Y42831D01*
X122926Y42292D01*
X122900Y42248D01*
X122889Y42216D01*
X122894Y42197D01*
X122063Y43028D01*
X122081Y43024D01*
X122113Y43034D01*
X122158Y43060D01*
X122216Y43102D01*
X122286Y43159D01*
X122575Y43421D01*
X122832Y43673D01*
X123539Y42966D01*
D02*
G37*
G36*
X108726Y42757D02*
X108771Y42672D01*
X108846Y42597D01*
X108951Y42532D01*
X109086Y42477D01*
X109251Y42432D01*
X109306Y42422D01*
X109750Y42382D01*
X110501Y42355D01*
X110934Y42352D01*
Y41352D01*
X110501Y41348D01*
X109172Y41250D01*
X109086Y41227D01*
X108951Y41172D01*
X108846Y41107D01*
X108771Y41032D01*
X108726Y40947D01*
X108711Y40852D01*
Y41187D01*
X108711Y41187D01*
X108547Y41137D01*
X108422Y41080D01*
X108336Y41016D01*
Y42687D01*
X108422Y42624D01*
X108547Y42566D01*
X108711Y42516D01*
X108711Y42516D01*
Y42852D01*
X108726Y42757D01*
D02*
G37*
G36*
X182087Y43307D02*
X181981Y43291D01*
X181852Y43243D01*
X181701Y43163D01*
X181527Y43051D01*
X181331Y42907D01*
X180871Y42523D01*
X180322Y42011D01*
X180057Y41751D01*
X179938Y41626D01*
X179829Y41495D01*
X179741Y41371D01*
X179673Y41255D01*
X179627Y41145D01*
X179603Y41043D01*
X179599Y40947D01*
X179617Y40859D01*
X179656Y40777D01*
X179716Y40703D01*
X178445Y41974D01*
X178492Y41941D01*
X178549Y41927D01*
X178616Y41930D01*
X178692Y41953D01*
X178779Y41993D01*
X178876Y42052D01*
X178983Y42129D01*
X179099Y42225D01*
X179351Y42461D01*
X179610Y42723D01*
X180649Y43929D01*
X180761Y44103D01*
X180841Y44254D01*
X180889Y44383D01*
X180905Y44489D01*
X182087Y43307D01*
D02*
G37*
G36*
X105881Y45148D02*
X106881Y44277D01*
X107061Y44156D01*
X107213Y44074D01*
X107337Y44032D01*
X107433Y44027D01*
X107501Y44062D01*
X105291Y41852D01*
X105326Y41920D01*
X105322Y42016D01*
X105279Y42140D01*
X105197Y42292D01*
X105076Y42472D01*
X104917Y42680D01*
X104481Y43180D01*
X103891Y43792D01*
X105561Y45462D01*
X105881Y45148D01*
D02*
G37*
G36*
X172999Y42487D02*
X173010Y42455D01*
X173036Y42410D01*
X173077Y42353D01*
X173134Y42282D01*
X173397Y41993D01*
X173649Y41737D01*
X172942Y41029D01*
X172807Y41163D01*
X172268Y41642D01*
X172223Y41668D01*
X172191Y41679D01*
X172172Y41674D01*
X173004Y42506D01*
X172999Y42487D01*
D02*
G37*
G36*
X202224Y39665D02*
X202109Y39740D01*
X201971Y39807D01*
X201813Y39866D01*
X201632Y39917D01*
X201430Y39961D01*
X201207Y39996D01*
X200696Y40043D01*
X200098Y40059D01*
Y42421D01*
X200408Y42425D01*
X201207Y42484D01*
X201430Y42520D01*
X201632Y42563D01*
X201813Y42614D01*
X201971Y42673D01*
X202109Y42740D01*
X202224Y42815D01*
Y39665D01*
D02*
G37*
G36*
X171607Y41095D02*
X171618Y41063D01*
X171644Y41019D01*
X171686Y40961D01*
X171742Y40890D01*
X172005Y40602D01*
X172257Y40345D01*
X171550Y39637D01*
X171415Y39771D01*
X170876Y40250D01*
X170831Y40276D01*
X170800Y40287D01*
X170781Y40282D01*
X171612Y41114D01*
X171607Y41095D01*
D02*
G37*
G36*
X177243Y38772D02*
X177228Y38866D01*
X177183Y38949D01*
X177108Y39023D01*
X177002Y39087D01*
X176866Y39141D01*
X176700Y39185D01*
X176504Y39219D01*
X176278Y39244D01*
X175735Y39264D01*
Y40264D01*
X176021Y40269D01*
X176504Y40308D01*
X176700Y40342D01*
X176866Y40387D01*
X177002Y40441D01*
X177108Y40505D01*
X177183Y40578D01*
X177228Y40662D01*
X177243Y40755D01*
Y38772D01*
D02*
G37*
G36*
X101779Y40595D02*
X102258Y40183D01*
X102469Y40032D01*
X102660Y39917D01*
X102832Y39838D01*
X102984Y39795D01*
X103117Y39789D01*
X103231Y39819D01*
X103325Y39886D01*
X101115Y37676D01*
X101177Y37765D01*
X101202Y37874D01*
X101191Y38003D01*
X101145Y38151D01*
X101064Y38320D01*
X100946Y38509D01*
X100793Y38717D01*
X100604Y38946D01*
X100118Y39463D01*
X101510Y40855D01*
X101779Y40595D01*
D02*
G37*
G36*
X122372Y36107D02*
X122353Y36111D01*
X122321Y36101D01*
X122276Y36075D01*
X122219Y36033D01*
X122148Y35976D01*
X121859Y35714D01*
X121602Y35462D01*
X120895Y36169D01*
X121029Y36304D01*
X121508Y36843D01*
X121534Y36887D01*
X121545Y36919D01*
X121540Y36938D01*
X122372Y36107D01*
D02*
G37*
G36*
X103901Y39127D02*
X103969Y38959D01*
X104102Y38812D01*
X104300Y38684D01*
X104563Y38576D01*
X104891Y38487D01*
X105283Y38418D01*
X105741Y38369D01*
X106851Y38329D01*
X107173Y36361D01*
X106603Y36352D01*
X105587Y36280D01*
X105140Y36218D01*
X104735Y36137D01*
X104371Y36039D01*
X104048Y35922D01*
X103766Y35788D01*
X103525Y35636D01*
X103325Y35466D01*
X103898Y39314D01*
X103901Y39127D01*
D02*
G37*
G36*
X111527Y35377D02*
X111498Y35564D01*
X111409Y35731D01*
X111262Y35879D01*
X111055Y36007D01*
X110789Y36115D01*
X110464Y36203D01*
X110081Y36272D01*
X109638Y36321D01*
X108575Y36361D01*
Y38329D01*
X109136Y38339D01*
X110081Y38418D01*
X110464Y38487D01*
X110789Y38576D01*
X111055Y38684D01*
X111262Y38812D01*
X111409Y38959D01*
X111498Y39127D01*
X111527Y39314D01*
Y35377D01*
D02*
G37*
G36*
X123764Y34715D02*
X123747Y34717D01*
X123717Y34704D01*
X123674Y34677D01*
X123618Y34634D01*
X123467Y34502D01*
X123006Y34058D01*
X122299Y34765D01*
X122433Y34900D01*
X122906Y35445D01*
X122931Y35491D01*
X122939Y35525D01*
X122932Y35546D01*
X123764Y34715D01*
D02*
G37*
G36*
X118871Y33868D02*
X118155Y33169D01*
X117094Y34213D01*
X117169Y34154D01*
X117251Y34115D01*
X117340Y34098D01*
X117437Y34103D01*
X117540Y34128D01*
X117650Y34175D01*
X117768Y34243D01*
X117893Y34332D01*
X118025Y34443D01*
X118164Y34575D01*
X118871Y33868D01*
D02*
G37*
G36*
X182621Y33378D02*
X182527Y33444D01*
X182414Y33473D01*
X182281Y33467D01*
X182130Y33424D01*
X181958Y33345D01*
X181767Y33229D01*
X181557Y33078D01*
X181327Y32890D01*
X181129Y32705D01*
X180798Y32323D01*
X180645Y32114D01*
X180528Y31925D01*
X180447Y31756D01*
X180401Y31607D01*
X180391Y31477D01*
X180417Y31368D01*
X180479Y31278D01*
X178269Y33488D01*
X178363Y33423D01*
X178476Y33393D01*
X178608Y33400D01*
X178760Y33443D01*
X178932Y33522D01*
X179123Y33637D01*
X179333Y33789D01*
X179563Y33976D01*
X179761Y34161D01*
X180091Y34543D01*
X180244Y34752D01*
X180362Y34941D01*
X180443Y35110D01*
X180489Y35259D01*
X180498Y35389D01*
X180472Y35498D01*
X180411Y35588D01*
X182621Y33378D01*
D02*
G37*
G36*
X115547Y31357D02*
X115473Y31417D01*
X115391Y31456D01*
X115303Y31474D01*
X115208Y31470D01*
X115105Y31446D01*
X114995Y31400D01*
X114879Y31332D01*
X114755Y31244D01*
X114624Y31134D01*
X114486Y31004D01*
X113779Y31711D01*
X113910Y31849D01*
X114020Y31979D01*
X114108Y32103D01*
X114175Y32220D01*
X114221Y32329D01*
X114246Y32432D01*
X114249Y32527D01*
X114232Y32616D01*
X114193Y32697D01*
X114133Y32771D01*
X115547Y31357D01*
D02*
G37*
G36*
X122223Y30613D02*
X122093Y30476D01*
X121983Y30345D01*
X121895Y30221D01*
X121827Y30104D01*
X121782Y29995D01*
X121757Y29892D01*
X121753Y29797D01*
X121771Y29708D01*
X121810Y29627D01*
X121870Y29553D01*
X120456Y30967D01*
X120530Y30907D01*
X120611Y30868D01*
X120700Y30850D01*
X120795Y30854D01*
X120898Y30879D01*
X121007Y30925D01*
X121124Y30992D01*
X121248Y31080D01*
X121379Y31190D01*
X121516Y31321D01*
X122223Y30613D01*
D02*
G37*
G36*
X113866Y30383D02*
X113735Y30245D01*
X113625Y30114D01*
X113537Y29991D01*
X113470Y29874D01*
X113424Y29764D01*
X113399Y29662D01*
X113396Y29566D01*
X113413Y29478D01*
X113452Y29397D01*
X113512Y29322D01*
X112098Y30737D01*
X112172Y30676D01*
X112254Y30638D01*
X112342Y30620D01*
X112437Y30623D01*
X112540Y30648D01*
X112650Y30694D01*
X112766Y30761D01*
X112890Y30850D01*
X113021Y30959D01*
X113159Y31090D01*
X113866Y30383D01*
D02*
G37*
G36*
X136701Y30413D02*
X136609Y30410D01*
X136519Y30398D01*
X136428Y30377D01*
X136338Y30347D01*
X136249Y30308D01*
X136160Y30261D01*
X136071Y30205D01*
X135983Y30140D01*
X135896Y30066D01*
X135808Y29983D01*
X135101Y30690D01*
X135184Y30777D01*
X135258Y30865D01*
X135323Y30953D01*
X135379Y31042D01*
X135426Y31131D01*
X135465Y31220D01*
X135495Y31310D01*
X135516Y31401D01*
X135528Y31491D01*
X135532Y31583D01*
X136701Y30413D01*
D02*
G37*
G36*
X177720Y29634D02*
X177668Y29667D01*
X177602Y29677D01*
X177522Y29664D01*
X177428Y29628D01*
X177320Y29569D01*
X177198Y29487D01*
X177062Y29383D01*
X176747Y29104D01*
X176569Y28930D01*
X175177Y30322D01*
X176059Y31278D01*
X177720Y29634D01*
D02*
G37*
G36*
X119668Y27351D02*
X119594Y27411D01*
X119512Y27450D01*
X119424Y27467D01*
X119327Y27463D01*
X119224Y27437D01*
X119114Y27391D01*
X118996Y27322D01*
X118871Y27233D01*
X118739Y27122D01*
X118599Y26989D01*
X117892Y27696D01*
X118025Y27836D01*
X118135Y27968D01*
X118225Y28093D01*
X118293Y28211D01*
X118340Y28321D01*
X118366Y28425D01*
X118370Y28521D01*
X118353Y28609D01*
X118314Y28691D01*
X118254Y28765D01*
X119668Y27351D01*
D02*
G37*
G36*
X117929Y26319D02*
X117799Y26182D01*
X117689Y26051D01*
X117601Y25927D01*
X117534Y25810D01*
X117488Y25701D01*
X117463Y25598D01*
X117459Y25503D01*
X117477Y25414D01*
X117516Y25333D01*
X117576Y25259D01*
X116162Y26673D01*
X116236Y26613D01*
X116317Y26574D01*
X116406Y26556D01*
X116501Y26560D01*
X116604Y26585D01*
X116713Y26631D01*
X116830Y26698D01*
X116954Y26786D01*
X117085Y26896D01*
X117222Y27027D01*
X117929Y26319D01*
D02*
G37*
G36*
X149314Y27259D02*
X149327Y27168D01*
X149348Y27078D01*
X149378Y26988D01*
X149416Y26899D01*
X149464Y26809D01*
X149520Y26721D01*
X149582Y26637D01*
X149815Y26438D01*
X149908Y26376D01*
X149990Y26331D01*
X150061Y26303D01*
X150122Y26293D01*
X150171Y26300D01*
X150210Y26325D01*
X149379Y25493D01*
X149364Y25492D01*
X149335Y25506D01*
X149293Y25535D01*
X149238Y25579D01*
X149088Y25711D01*
X149040Y25757D01*
X149034Y25751D01*
X148947Y25833D01*
X148859Y25907D01*
X148771Y25972D01*
X148683Y26028D01*
X148594Y26076D01*
X148504Y26114D01*
X148414Y26144D01*
X148324Y26165D01*
X148233Y26178D01*
X148142Y26181D01*
X149311Y27350D01*
X149314Y27259D01*
D02*
G37*
G36*
X133507Y24971D02*
X132879Y24326D01*
X132172Y25033D01*
X132291Y25155D01*
X132558Y25462D01*
X132616Y25544D01*
X132659Y25616D01*
X132686Y25677D01*
X132698Y25729D01*
X132694Y25771D01*
X132676Y25802D01*
X133507Y24971D01*
D02*
G37*
G36*
X154904Y24392D02*
X154915Y24360D01*
X154941Y24315D01*
X154982Y24258D01*
X155039Y24187D01*
X155302Y23898D01*
X155554Y23641D01*
X154847Y22934D01*
X154712Y23068D01*
X154173Y23547D01*
X154128Y23573D01*
X154096Y23584D01*
X154077Y23579D01*
X154909Y24411D01*
X154904Y24392D01*
D02*
G37*
G36*
X124234Y22769D02*
X124142Y22833D01*
X124031Y22861D01*
X123900Y22852D01*
X123749Y22808D01*
X123579Y22728D01*
X123389Y22611D01*
X123179Y22459D01*
X122950Y22271D01*
X122433Y21786D01*
X121041Y23178D01*
X121301Y23447D01*
X121714Y23925D01*
X121866Y24134D01*
X121982Y24324D01*
X122063Y24495D01*
X122107Y24645D01*
X122115Y24776D01*
X122087Y24887D01*
X122023Y24979D01*
X124234Y22769D01*
D02*
G37*
G36*
X161807Y21177D02*
X160752Y20001D01*
X158741Y22012D01*
X158806Y21970D01*
X158887Y21956D01*
X158984Y21970D01*
X159099Y22011D01*
X159230Y22081D01*
X159378Y22178D01*
X159543Y22304D01*
X159922Y22638D01*
X160137Y22847D01*
X161807Y21177D01*
D02*
G37*
G36*
X157195Y22007D02*
X157327Y21896D01*
X157452Y21806D01*
X157570Y21738D01*
X157681Y21691D01*
X157784Y21666D01*
X157880Y21661D01*
X157969Y21679D01*
X158051Y21717D01*
X158125Y21777D01*
X156711Y20363D01*
X156771Y20437D01*
X156809Y20519D01*
X156826Y20608D01*
X156822Y20704D01*
X156797Y20807D01*
X156750Y20918D01*
X156682Y21035D01*
X156592Y21160D01*
X156481Y21293D01*
X156349Y21432D01*
X157056Y22139D01*
X157195Y22007D01*
D02*
G37*
G36*
X133794Y18783D02*
X133833Y18300D01*
X133867Y18104D01*
X133912Y17938D01*
X133966Y17803D01*
X134030Y17697D01*
X134103Y17622D01*
X134187Y17576D01*
X134280Y17561D01*
X132297D01*
X132391Y17576D01*
X132474Y17622D01*
X132548Y17697D01*
X132612Y17803D01*
X132666Y17938D01*
X132710Y18104D01*
X132745Y18300D01*
X132769Y18527D01*
X132789Y19070D01*
X133789D01*
X133794Y18783D01*
D02*
G37*
G36*
X126757Y16454D02*
X126727Y16358D01*
X126727Y16247D01*
X126757Y16121D01*
X126816Y15980D01*
X126905Y15825D01*
X127023Y15655D01*
X127171Y15470D01*
X127556Y15056D01*
X127772Y14848D01*
X128162Y14523D01*
X128337Y14407D01*
X128497Y14321D01*
X128643Y14266D01*
X128775Y14242D01*
X128893Y14247D01*
X128997Y14284D01*
X129087Y14351D01*
X127601Y12877D01*
X128252Y11576D01*
X127973Y11826D01*
X127695Y12021D01*
X127416Y12160D01*
X127138Y12244D01*
X126979Y12260D01*
X126903Y12184D01*
X126960Y12262D01*
X126860Y12272D01*
X126581Y12244D01*
X126303Y12160D01*
X126024Y12021D01*
X125746Y11826D01*
X125468Y11576D01*
X124076Y12968D01*
X124326Y13246D01*
X124521Y13524D01*
X124660Y13803D01*
X124744Y14081D01*
X124772Y14360D01*
X124764Y14439D01*
X124730Y14427D01*
X124641Y14360D01*
X124760Y14479D01*
X124744Y14638D01*
X124660Y14916D01*
X124521Y15195D01*
X124326Y15473D01*
X124076Y15752D01*
X125380Y15099D01*
X126816Y16535D01*
X126757Y16454D01*
D02*
G37*
G36*
X135090Y15937D02*
X135051Y15855D01*
X135033Y15767D01*
X135037Y15671D01*
X135062Y15569D01*
X135108Y15459D01*
X135175Y15343D01*
X135263Y15219D01*
X135373Y15088D01*
X135504Y14950D01*
X134797Y14243D01*
X134659Y14374D01*
X134528Y14483D01*
X134404Y14572D01*
X134287Y14639D01*
X134178Y14685D01*
X134075Y14710D01*
X133980Y14713D01*
X133891Y14696D01*
X133810Y14657D01*
X133736Y14597D01*
X135150Y16011D01*
X135090Y15937D01*
D02*
G37*
G36*
X162485Y13866D02*
X162455Y14051D01*
X162366Y14217D01*
X162218Y14363D01*
X162011Y14490D01*
X161744Y14597D01*
X161419Y14685D01*
X161034Y14753D01*
X160590Y14802D01*
X159523Y14841D01*
Y16810D01*
X160086Y16819D01*
X161034Y16897D01*
X161419Y16966D01*
X161744Y17054D01*
X162011Y17161D01*
X162218Y17288D01*
X162366Y17434D01*
X162455Y17600D01*
X162485Y17785D01*
Y13866D01*
D02*
G37*
G36*
X142757Y14707D02*
X142845Y14633D01*
X142933Y14569D01*
X143021Y14513D01*
X143111Y14467D01*
X143200Y14429D01*
X143290Y14401D01*
X143380Y14381D01*
X143471Y14371D01*
X143563Y14369D01*
X142421Y13173D01*
X142416Y13264D01*
X142402Y13355D01*
X142379Y13445D01*
X142348Y13535D01*
X142308Y13624D01*
X142260Y13713D01*
X142203Y13801D01*
X142138Y13889D01*
X142063Y13977D01*
X141981Y14064D01*
X142669Y14789D01*
X142757Y14707D01*
D02*
G37*
G36*
X135953Y14505D02*
X136583Y13962D01*
X136635Y13932D01*
X136745Y13885D01*
X136848Y13860D01*
X136944Y13856D01*
X137033Y13873D01*
X137115Y13912D01*
X137189Y13972D01*
X136904Y13686D01*
X136976Y13624D01*
X137159Y13466D01*
X137332Y13354D01*
X137484Y13274D01*
X137612Y13226D01*
X137719Y13210D01*
X136537Y12028D01*
X136521Y12134D01*
X136473Y12263D01*
X136393Y12414D01*
X136281Y12588D01*
X136137Y12784D01*
X136075Y12858D01*
X135775Y12558D01*
X135835Y12632D01*
X135874Y12713D01*
X135891Y12802D01*
X135887Y12898D01*
X135861Y13002D01*
X135814Y13112D01*
X135746Y13230D01*
X135679Y13323D01*
X135241Y13794D01*
X134937Y14102D01*
X135644Y14809D01*
X135953Y14505D01*
D02*
G37*
G36*
X133333Y6426D02*
X133258Y6486D01*
X133177Y6525D01*
X133088Y6542D01*
X132992Y6538D01*
X132888Y6512D01*
X132778Y6465D01*
X132660Y6397D01*
X132535Y6308D01*
X132403Y6196D01*
X132263Y6064D01*
X131556Y6771D01*
X131689Y6911D01*
X131800Y7043D01*
X131889Y7168D01*
X131958Y7286D01*
X132004Y7396D01*
X132030Y7500D01*
X132034Y7596D01*
X132017Y7684D01*
X131978Y7766D01*
X131918Y7840D01*
X133333Y6426D01*
D02*
G37*
G36*
X139950Y11491D02*
X140305Y11207D01*
X140673Y10956D01*
X141056Y10739D01*
X141452Y10555D01*
X141862Y10405D01*
X142286Y10288D01*
X142724Y10205D01*
X143176Y10154D01*
X143641Y10138D01*
Y7776D01*
X143176Y7759D01*
X142724Y7709D01*
X142286Y7625D01*
X141862Y7508D01*
X141452Y7358D01*
X141056Y7174D01*
X140673Y6957D01*
X140305Y6707D01*
X139950Y6423D01*
X139609Y6105D01*
X137449Y7286D01*
X137750Y7620D01*
X137984Y7954D01*
X138151Y8289D01*
X138251Y8623D01*
X138285Y8957D01*
X138251Y9291D01*
X138151Y9625D01*
X137984Y9959D01*
X137750Y10293D01*
X137449Y10627D01*
X139609Y11808D01*
X139950Y11491D01*
D02*
G37*
G36*
X143689Y2756D02*
X143598Y2753D01*
X143507Y2740D01*
X143417Y2719D01*
X143327Y2689D01*
X143237Y2651D01*
X143148Y2603D01*
X143060Y2547D01*
X142972Y2482D01*
X142884Y2408D01*
X142797Y2326D01*
X142089Y3033D01*
X142172Y3120D01*
X142246Y3208D01*
X142311Y3296D01*
X142367Y3384D01*
X142414Y3473D01*
X142453Y3563D01*
X142483Y3653D01*
X142504Y3743D01*
X142516Y3834D01*
X142520Y3925D01*
X143689Y2756D01*
D02*
G37*
G36*
X176860Y-4353D02*
X176890Y-4690D01*
X176939Y-4987D01*
X177008Y-5244D01*
X177096Y-5462D01*
X177205Y-5640D01*
X177333Y-5779D01*
X177480Y-5878D01*
X177648Y-5937D01*
X177835Y-5957D01*
X173898D01*
X174085Y-5937D01*
X174252Y-5878D01*
X174400Y-5779D01*
X174528Y-5640D01*
X174636Y-5462D01*
X174724Y-5244D01*
X174793Y-4987D01*
X174843Y-4690D01*
X174872Y-4353D01*
X174882Y-3977D01*
X176850D01*
X176860Y-4353D01*
D02*
G37*
G36*
X188457Y-2643D02*
X188555Y-3764D01*
X188640Y-4250D01*
X188750Y-4686D01*
X188884Y-5073D01*
X189043Y-5410D01*
X189226Y-5697D01*
X189433Y-5935D01*
X189665Y-6122D01*
X183288D01*
X183520Y-5935D01*
X183727Y-5697D01*
X183910Y-5410D01*
X184069Y-5073D01*
X184203Y-4686D01*
X184313Y-4250D01*
X184398Y-3764D01*
X184459Y-3229D01*
X184508Y-2008D01*
X188445D01*
X188457Y-2643D01*
D02*
G37*
G36*
X179124Y-8499D02*
X179097Y-8641D01*
X179117Y-8811D01*
X179185Y-9009D01*
X179302Y-9235D01*
X179466Y-9489D01*
X179678Y-9771D01*
X179939Y-10082D01*
X180604Y-10787D01*
X179212Y-12179D01*
X178846Y-11822D01*
X177914Y-11041D01*
X177660Y-10876D01*
X177434Y-10760D01*
X177236Y-10692D01*
X177066Y-10671D01*
X176924Y-10699D01*
X176810Y-10775D01*
X179200Y-8385D01*
X179124Y-8499D01*
D02*
G37*
G36*
X189443Y-10792D02*
X189243Y-11025D01*
X189068Y-11309D01*
X188916Y-11644D01*
X188787Y-12030D01*
X188681Y-12466D01*
X188600Y-12954D01*
X188541Y-13493D01*
X188494Y-14724D01*
X184557D01*
X184544Y-14095D01*
X184443Y-12982D01*
X184354Y-12498D01*
X184240Y-12062D01*
X184100Y-11675D01*
X183935Y-11336D01*
X183745Y-11046D01*
X183529Y-10804D01*
X183288Y-10610D01*
X189665D01*
X189443Y-10792D01*
D02*
G37*
G36*
X181230Y-13181D02*
X181257Y-13516D01*
X181303Y-13811D01*
X181367Y-14067D01*
X181449Y-14284D01*
X181549Y-14461D01*
X181668Y-14599D01*
X181805Y-14697D01*
X181960Y-14756D01*
X182134Y-14776D01*
X179008D01*
X179054Y-14756D01*
X179096Y-14697D01*
X179132Y-14599D01*
X179164Y-14461D01*
X179191Y-14284D01*
X179230Y-13811D01*
X179252Y-12807D01*
X181220D01*
X181230Y-13181D01*
D02*
G37*
G36*
X182024Y-17921D02*
X181925Y-17980D01*
X181839Y-18079D01*
X181763Y-18216D01*
X181700Y-18394D01*
X181648Y-18610D01*
X181607Y-18866D01*
X181578Y-19161D01*
X181555Y-19870D01*
X179587D01*
X179581Y-19496D01*
X179534Y-18866D01*
X179494Y-18610D01*
X179442Y-18394D01*
X179378Y-18216D01*
X179303Y-18079D01*
X179216Y-17980D01*
X179118Y-17921D01*
X179008Y-17901D01*
X182134D01*
X182024Y-17921D01*
D02*
G37*
G36*
X188465Y-18854D02*
X188524Y-19525D01*
X188622Y-20117D01*
X188760Y-20631D01*
X188937Y-21065D01*
X189154Y-21420D01*
X189409Y-21697D01*
X189705Y-21894D01*
X190039Y-22013D01*
X190413Y-22052D01*
X182539D01*
X182913Y-22013D01*
X183248Y-21894D01*
X183543Y-21697D01*
X183799Y-21420D01*
X184016Y-21065D01*
X184193Y-20631D01*
X184331Y-20117D01*
X184429Y-19525D01*
X184488Y-18854D01*
X184508Y-18103D01*
X188445D01*
X188465Y-18854D01*
D02*
G37*
G36*
X181611Y-22240D02*
X178602Y-22252D01*
X178789Y-22232D01*
X178957Y-22172D01*
X179104Y-22072D01*
X179232Y-21934D01*
X179341Y-21755D01*
X179429Y-21538D01*
X179498Y-21280D01*
X179547Y-20984D01*
X179577Y-20647D01*
X179587Y-20272D01*
X181555D01*
X181611Y-22240D01*
D02*
G37*
G36*
X178035Y-24216D02*
X176066Y-24213D01*
Y-22244D01*
X178035Y-22240D01*
Y-24216D01*
D02*
G37*
G36*
X161488Y-27350D02*
X161473Y-27324D01*
X161427Y-27301D01*
X161350Y-27281D01*
X161242Y-27263D01*
X161104Y-27248D01*
X160504Y-27220D01*
X159951Y-27215D01*
X159659Y-27217D01*
X158798Y-27273D01*
X158659Y-27299D01*
X158552Y-27329D01*
X158475Y-27364D01*
X158429Y-27404D01*
X158413Y-27449D01*
Y-25110D01*
X158429Y-25136D01*
X158475Y-25159D01*
X158552Y-25180D01*
X158659Y-25197D01*
X158798Y-25212D01*
X159397Y-25241D01*
X159951Y-25246D01*
X160243Y-25244D01*
X161104Y-25188D01*
X161242Y-25162D01*
X161350Y-25131D01*
X161427Y-25096D01*
X161473Y-25056D01*
X161488Y-25012D01*
Y-27350D01*
D02*
G37*
G36*
X191061Y-25260D02*
X191097Y-25360D01*
X191156Y-25448D01*
X191240Y-25525D01*
X191347Y-25590D01*
X191478Y-25643D01*
X191500Y-25649D01*
X191540Y-25638D01*
X191646Y-25595D01*
X191728Y-25543D01*
X191788Y-25483D01*
X191823Y-25416D01*
X191835Y-25340D01*
Y-25716D01*
X192015Y-25732D01*
X192242Y-25738D01*
Y-26919D01*
X192015Y-26925D01*
X191835Y-26941D01*
Y-27316D01*
X191823Y-27241D01*
X191788Y-27173D01*
X191728Y-27114D01*
X191646Y-27062D01*
X191540Y-27018D01*
X191500Y-27007D01*
X191478Y-27013D01*
X191347Y-27066D01*
X191240Y-27132D01*
X191156Y-27208D01*
X191097Y-27297D01*
X191061Y-27397D01*
X191049Y-27509D01*
Y-26933D01*
X190878Y-26923D01*
X190654Y-26919D01*
Y-25738D01*
X190878Y-25734D01*
X191049Y-25719D01*
Y-25147D01*
X191061Y-25260D01*
D02*
G37*
G36*
X146148Y-26347D02*
X146126Y-26426D01*
X146107Y-26532D01*
X146090Y-26665D01*
X146055Y-27227D01*
X146043Y-28032D01*
X144075D01*
X144073Y-27747D01*
X143992Y-26557D01*
X143967Y-26445D01*
X143938Y-26357D01*
X143906Y-26295D01*
X146173D01*
X146148Y-26347D01*
D02*
G37*
G36*
X188740Y-26746D02*
X188752Y-26747D01*
X188760Y-26778D01*
X188765Y-26839D01*
X188765Y-26930D01*
X188742Y-27381D01*
X188693Y-27983D01*
X188740Y-29111D01*
X187905Y-29946D01*
X187904Y-29958D01*
X187873Y-29966D01*
X187812Y-29970D01*
X187722Y-29970D01*
X187270Y-29947D01*
X186549Y-29889D01*
X188510Y-27928D01*
X186549Y-25967D01*
X187905Y-25911D01*
X188740Y-26746D01*
D02*
G37*
G36*
X191061Y-28459D02*
X191097Y-28560D01*
X191156Y-28648D01*
X191240Y-28725D01*
X191347Y-28790D01*
X191478Y-28843D01*
X191500Y-28849D01*
X191540Y-28838D01*
X191646Y-28795D01*
X191728Y-28743D01*
X191788Y-28683D01*
X191823Y-28616D01*
X191835Y-28540D01*
Y-28916D01*
X192015Y-28932D01*
X192242Y-28938D01*
Y-30119D01*
X192015Y-30125D01*
X191835Y-30141D01*
Y-30516D01*
X191823Y-30441D01*
X191788Y-30373D01*
X191728Y-30314D01*
X191646Y-30262D01*
X191540Y-30218D01*
X191500Y-30207D01*
X191478Y-30213D01*
X191347Y-30266D01*
X191240Y-30332D01*
X191156Y-30408D01*
X191097Y-30497D01*
X191061Y-30597D01*
X191049Y-30709D01*
Y-30133D01*
X190878Y-30123D01*
X190654Y-30119D01*
Y-28938D01*
X190878Y-28934D01*
X191049Y-28920D01*
Y-28347D01*
X191061Y-28459D01*
D02*
G37*
G36*
X181010Y-26749D02*
X181049Y-27316D01*
X181611D01*
X181495Y-27338D01*
X181392Y-27405D01*
X181301Y-27515D01*
X181222Y-27670D01*
X181156Y-27869D01*
X181142Y-27928D01*
X181156Y-27987D01*
X181222Y-28186D01*
X181301Y-28341D01*
X181392Y-28452D01*
X181495Y-28518D01*
X181611Y-28540D01*
X181046D01*
X181028Y-28732D01*
X181004Y-29528D01*
X181010Y-29930D01*
X181052Y-30516D01*
X181611D01*
X181495Y-30538D01*
X181392Y-30601D01*
X181301Y-30706D01*
X181222Y-30854D01*
X181156Y-31044D01*
X181148Y-31078D01*
X181156Y-31112D01*
X181222Y-31302D01*
X181301Y-31450D01*
X181392Y-31556D01*
X181495Y-31619D01*
X181611Y-31640D01*
X181050D01*
X181028Y-31868D01*
X181004Y-32628D01*
X178642D01*
X178636Y-32227D01*
X178594Y-31640D01*
X178035D01*
X178150Y-31619D01*
X178253Y-31556D01*
X178344Y-31450D01*
X178423Y-31302D01*
X178490Y-31112D01*
X178498Y-31078D01*
X178490Y-31044D01*
X178423Y-30854D01*
X178344Y-30706D01*
X178253Y-30601D01*
X178150Y-30538D01*
X178035Y-30516D01*
X178596D01*
X178618Y-30289D01*
X178642Y-29528D01*
X178636Y-29108D01*
X178597Y-28540D01*
X178035D01*
X178150Y-28518D01*
X178253Y-28452D01*
X178344Y-28341D01*
X178423Y-28186D01*
X178490Y-27987D01*
X178503Y-27928D01*
X178490Y-27869D01*
X178423Y-27670D01*
X178344Y-27515D01*
X178253Y-27405D01*
X178150Y-27338D01*
X178035Y-27316D01*
X178600D01*
X178618Y-27125D01*
X178642Y-26328D01*
X181004D01*
X181010Y-26749D01*
D02*
G37*
G36*
X156308Y-33354D02*
X156230Y-33298D01*
X156138Y-33269D01*
X156032D01*
X155912Y-33298D01*
X155778Y-33354D01*
X155629Y-33439D01*
X155467Y-33552D01*
X155290Y-33694D01*
X154894Y-34061D01*
X154187Y-33354D01*
X154385Y-33149D01*
X154696Y-32781D01*
X154809Y-32619D01*
X154894Y-32470D01*
X154950Y-32336D01*
X154979Y-32216D01*
Y-32110D01*
X154950Y-32018D01*
X154894Y-31940D01*
X156308Y-33354D01*
D02*
G37*
G36*
X191061Y-31559D02*
X191097Y-31660D01*
X191156Y-31748D01*
X191240Y-31825D01*
X191347Y-31890D01*
X191478Y-31943D01*
X191500Y-31949D01*
X191540Y-31938D01*
X191646Y-31895D01*
X191728Y-31843D01*
X191788Y-31783D01*
X191823Y-31716D01*
X191835Y-31640D01*
Y-32016D01*
X192015Y-32032D01*
X192242Y-32038D01*
Y-33219D01*
X192015Y-33225D01*
X191835Y-33241D01*
Y-33616D01*
X191823Y-33541D01*
X191788Y-33473D01*
X191728Y-33414D01*
X191646Y-33362D01*
X191540Y-33318D01*
X191500Y-33307D01*
X191478Y-33313D01*
X191347Y-33367D01*
X191240Y-33432D01*
X191156Y-33508D01*
X191097Y-33597D01*
X191061Y-33697D01*
X191049Y-33809D01*
Y-33233D01*
X190878Y-33223D01*
X190654Y-33219D01*
Y-32038D01*
X190878Y-32034D01*
X191049Y-32019D01*
Y-31447D01*
X191061Y-31559D01*
D02*
G37*
G36*
X163956Y-33254D02*
X163871Y-33284D01*
X163796Y-33335D01*
X163731Y-33406D01*
X163676Y-33497D01*
X163631Y-33608D01*
X163596Y-33740D01*
X163571Y-33891D01*
X163564Y-33979D01*
X163564Y-33987D01*
X163581Y-34095D01*
X163603Y-34198D01*
X163633Y-34294D01*
X163669Y-34385D01*
X163711Y-34469D01*
X163760Y-34548D01*
X163816Y-34621D01*
X163878Y-34688D01*
X162224D01*
X162286Y-34621D01*
X162342Y-34548D01*
X162391Y-34469D01*
X162434Y-34385D01*
X162469Y-34294D01*
X162499Y-34198D01*
X162522Y-34095D01*
X162538Y-33987D01*
X162539Y-33979D01*
X162531Y-33891D01*
X162506Y-33740D01*
X162471Y-33608D01*
X162426Y-33497D01*
X162371Y-33406D01*
X162306Y-33335D01*
X162231Y-33284D01*
X162146Y-33254D01*
X162051Y-33244D01*
X164051D01*
X163956Y-33254D01*
D02*
G37*
G36*
X181495Y-33640D02*
X181392Y-33711D01*
X181301Y-33829D01*
X181222Y-33994D01*
X181156Y-34207D01*
X181101Y-34467D01*
X181059Y-34774D01*
X181010Y-35530D01*
X181004Y-35979D01*
X178642D01*
X178636Y-35530D01*
X178545Y-34467D01*
X178490Y-34207D01*
X178423Y-33994D01*
X178344Y-33829D01*
X178253Y-33711D01*
X178150Y-33640D01*
X178035Y-33616D01*
X181611D01*
X181495Y-33640D01*
D02*
G37*
G36*
X149679Y-36317D02*
X149595Y-36348D01*
X149521Y-36401D01*
X149457Y-36474D01*
X149403Y-36568D01*
X149358Y-36683D01*
X149324Y-36819D01*
X149299Y-36975D01*
X149285Y-37153D01*
X149279Y-37352D01*
X148280D01*
X148275Y-37153D01*
X148260Y-36975D01*
X148235Y-36819D01*
X148201Y-36683D01*
X148156Y-36568D01*
X148102Y-36474D01*
X148038Y-36401D01*
X147964Y-36348D01*
X147880Y-36317D01*
X147786Y-36307D01*
X149773D01*
X149679Y-36317D01*
D02*
G37*
G36*
X142199D02*
X142115Y-36348D01*
X142041Y-36401D01*
X141977Y-36474D01*
X141923Y-36568D01*
X141878Y-36683D01*
X141844Y-36819D01*
X141819Y-36975D01*
X141804Y-37153D01*
X141799Y-37352D01*
X140799D01*
X140794Y-37153D01*
X140779Y-36975D01*
X140755Y-36819D01*
X140720Y-36683D01*
X140676Y-36568D01*
X140622Y-36474D01*
X140558Y-36401D01*
X140483Y-36348D01*
X140400Y-36317D01*
X140306Y-36307D01*
X142293D01*
X142199Y-36317D01*
D02*
G37*
G36*
X181012Y-36681D02*
X181074Y-37437D01*
X181128Y-37744D01*
X181198Y-38004D01*
X181283Y-38217D01*
X181384Y-38382D01*
X181500Y-38500D01*
X181632Y-38571D01*
X181779Y-38595D01*
X178654D01*
X178651Y-38571D01*
X178649Y-38500D01*
X178642Y-36233D01*
X181004D01*
X181012Y-36681D01*
D02*
G37*
G36*
X140535Y-39651D02*
X140519Y-39725D01*
X140506Y-39817D01*
X140484Y-40053D01*
X140464Y-40537D01*
X140461Y-40946D01*
X139461Y-41063D01*
X139457Y-40940D01*
X139445Y-40828D01*
X139425Y-40725D01*
X139398Y-40633D01*
X139363Y-40551D01*
X139320Y-40479D01*
X139269Y-40417D01*
X139210Y-40365D01*
X139144Y-40323D01*
X139069Y-40292D01*
X140552Y-39594D01*
X140535Y-39651D01*
D02*
G37*
G36*
X172748Y-41720D02*
X172729Y-41610D01*
X172669Y-41512D01*
X172571Y-41425D01*
X172433Y-41350D01*
X172256Y-41286D01*
X172040Y-41234D01*
X171784Y-41194D01*
X171488Y-41165D01*
X170780Y-41142D01*
Y-39173D01*
X171154Y-39167D01*
X171784Y-39121D01*
X172040Y-39081D01*
X172256Y-39029D01*
X172433Y-38965D01*
X172571Y-38890D01*
X172669Y-38803D01*
X172729Y-38705D01*
X172748Y-38595D01*
Y-41720D01*
D02*
G37*
G36*
X152272Y-41348D02*
X152322Y-42118D01*
X152335Y-42148D01*
X152350Y-42158D01*
X151193D01*
X151208Y-42148D01*
X151221Y-42118D01*
X151233Y-42068D01*
X151243Y-41998D01*
X151259Y-41798D01*
X151272Y-41158D01*
X152272D01*
X152272Y-41348D01*
D02*
G37*
G36*
X149042Y-39658D02*
X148907Y-39802D01*
X148787Y-39952D01*
X148681Y-40108D01*
X148589Y-40270D01*
X148511Y-40438D01*
X148448Y-40611D01*
X148398Y-40791D01*
X148363Y-40976D01*
X148342Y-41168D01*
X148335Y-41343D01*
X148336Y-41348D01*
X148385Y-42118D01*
X148398Y-42148D01*
X148413Y-42158D01*
X147256D01*
X147271Y-42148D01*
X147284Y-42118D01*
X147296Y-42068D01*
X147306Y-41998D01*
X147322Y-41798D01*
X147327Y-41522D01*
X147325Y-41467D01*
X147295Y-41298D01*
X147245Y-41148D01*
X147175Y-41017D01*
X147085Y-40907D01*
X146975Y-40817D01*
X146845Y-40747D01*
X146695Y-40698D01*
X146525Y-40668D01*
X146335Y-40657D01*
X146628Y-39658D01*
X146825Y-39650D01*
X147016Y-39629D01*
X147201Y-39594D01*
X147381Y-39544D01*
X147554Y-39481D01*
X147722Y-39403D01*
X147884Y-39311D01*
X148040Y-39205D01*
X148190Y-39085D01*
X148335Y-38950D01*
X149042Y-39658D01*
D02*
G37*
G36*
X144476Y-42158D02*
X143319D01*
X143351Y-42149D01*
X143380Y-42125D01*
X143405Y-42083D01*
X143427Y-42025D01*
X143446Y-41951D01*
X143461Y-41860D01*
X143473Y-41752D01*
X143486Y-41487D01*
X143488Y-41330D01*
X144488D01*
X144476Y-42158D01*
D02*
G37*
G36*
X142430Y-41348D02*
X142479Y-42118D01*
X142493Y-42148D01*
X142508Y-42158D01*
X141351D01*
X141366Y-42148D01*
X141379Y-42118D01*
X141391Y-42068D01*
X141401Y-41998D01*
X141417Y-41798D01*
X141429Y-41158D01*
X142429D01*
X142430Y-41348D01*
D02*
G37*
G36*
X140461D02*
X140511Y-42118D01*
X140524Y-42148D01*
X140539Y-42158D01*
X139382D01*
X139397Y-42148D01*
X139410Y-42118D01*
X139422Y-42068D01*
X139432Y-41998D01*
X139448Y-41798D01*
X139461Y-41158D01*
X140461D01*
X140461Y-41348D01*
D02*
G37*
G36*
X181707Y-41744D02*
X181642Y-41815D01*
X181585Y-41933D01*
X181535Y-42098D01*
X181493Y-42311D01*
X181459Y-42571D01*
X181413Y-43232D01*
X181398Y-44082D01*
X179035D01*
X179032Y-43634D01*
X178940Y-42311D01*
X178898Y-42098D01*
X178848Y-41933D01*
X178791Y-41815D01*
X178726Y-41744D01*
X178654Y-41720D01*
X181779D01*
X181707Y-41744D01*
D02*
G37*
G36*
X130926Y-45390D02*
X131232Y-45416D01*
X131579Y-45423D01*
X131890Y-47392D01*
X131469Y-47401D01*
X131098Y-47431D01*
X130919Y-47458D01*
X130918Y-47842D01*
X130898Y-47757D01*
X130839Y-47680D01*
X130740Y-47613D01*
X130603Y-47554D01*
X130545Y-47538D01*
X130506Y-47548D01*
X130286Y-47636D01*
X130115Y-47743D01*
X129995Y-47870D01*
X129925Y-48016D01*
X129905Y-48182D01*
X129935Y-48367D01*
X129666Y-47416D01*
X129323Y-47396D01*
X128949Y-47392D01*
Y-45423D01*
X129102Y-45419D01*
X128910Y-44741D01*
X129097Y-44870D01*
X129302Y-44986D01*
X129524Y-45089D01*
X129764Y-45177D01*
X130023Y-45252D01*
X130154Y-45282D01*
X130215Y-45266D01*
X130433Y-45177D01*
X130611Y-45069D01*
X130750Y-44941D01*
X130849Y-44793D01*
X130909Y-44626D01*
X130930Y-44439D01*
X130926Y-45390D01*
D02*
G37*
G36*
X118418Y-44874D02*
X118433Y-45046D01*
X118458Y-45197D01*
X118493Y-45329D01*
X118538Y-45440D01*
X118593Y-45531D01*
X118658Y-45602D01*
X118733Y-45653D01*
X118818Y-45683D01*
X118913Y-45693D01*
X116913D01*
X117008Y-45683D01*
X117093Y-45653D01*
X117168Y-45602D01*
X117233Y-45531D01*
X117288Y-45440D01*
X117333Y-45329D01*
X117368Y-45197D01*
X117393Y-45046D01*
X117408Y-44874D01*
X117413Y-44681D01*
X118413D01*
X118418Y-44874D01*
D02*
G37*
G36*
X158855Y-44626D02*
X158915Y-44793D01*
X159014Y-44941D01*
X159153Y-45069D01*
X159331Y-45177D01*
X159549Y-45266D01*
X159609Y-45282D01*
X159741Y-45252D01*
X159999Y-45177D01*
X160240Y-45089D01*
X160462Y-44986D01*
X160667Y-44870D01*
X160853Y-44741D01*
X160662Y-45419D01*
X160815Y-45423D01*
Y-47392D01*
X160441Y-47396D01*
X160096Y-47423D01*
X159829Y-48367D01*
X159859Y-48182D01*
X159839Y-48016D01*
X159769Y-47870D01*
X159649Y-47743D01*
X159478Y-47636D01*
X159257Y-47548D01*
X159218Y-47538D01*
X159161Y-47554D01*
X159023Y-47613D01*
X158925Y-47680D01*
X158866Y-47757D01*
X158846Y-47842D01*
X158845Y-47458D01*
X158666Y-47431D01*
X158295Y-47401D01*
X157874Y-47392D01*
X158185Y-45423D01*
X158531Y-45416D01*
X158838Y-45390D01*
X158834Y-44439D01*
X158855Y-44626D01*
D02*
G37*
G36*
X146035Y-51051D02*
X146063Y-51057D01*
X146104Y-51063D01*
X146226Y-51073D01*
X146632Y-51082D01*
X146766Y-51083D01*
Y-52658D01*
X146021Y-52697D01*
Y-51043D01*
X146035Y-51051D01*
D02*
G37*
G36*
X144334Y-52697D02*
X143588Y-52658D01*
Y-51083D01*
X143723Y-51082D01*
X144128Y-51073D01*
X144250Y-51063D01*
X144291Y-51057D01*
X144319Y-51051D01*
X144334Y-51043D01*
Y-52697D01*
D02*
G37*
G36*
X118818Y-53923D02*
X118733Y-53953D01*
X118658Y-54004D01*
X118593Y-54075D01*
X118538Y-54166D01*
X118493Y-54277D01*
X118458Y-54409D01*
X118433Y-54561D01*
X118418Y-54733D01*
X118413Y-54925D01*
X117413D01*
X117408Y-54733D01*
X117393Y-54561D01*
X117368Y-54409D01*
X117333Y-54277D01*
X117288Y-54166D01*
X117233Y-54075D01*
X117168Y-54004D01*
X117093Y-53953D01*
X117008Y-53923D01*
X116913Y-53913D01*
X118913D01*
X118818Y-53923D01*
D02*
G37*
G36*
X118418Y-55700D02*
X118433Y-55872D01*
X118458Y-56024D01*
X118493Y-56156D01*
X118538Y-56267D01*
X118593Y-56358D01*
X118658Y-56429D01*
X118733Y-56480D01*
X118818Y-56510D01*
X118913Y-56520D01*
X116913D01*
X117008Y-56510D01*
X117093Y-56480D01*
X117168Y-56429D01*
X117233Y-56358D01*
X117288Y-56267D01*
X117333Y-56156D01*
X117368Y-56024D01*
X117393Y-55872D01*
X117408Y-55700D01*
X117413Y-55508D01*
X118413D01*
X118418Y-55700D01*
D02*
G37*
G36*
X119693Y-62449D02*
X119752Y-62480D01*
X119850Y-62508D01*
X119988Y-62532D01*
X120165Y-62552D01*
X120933Y-62591D01*
X121642Y-62598D01*
Y-64567D01*
X121267Y-64569D01*
X119850Y-64657D01*
X119752Y-64685D01*
X119693Y-64717D01*
X119673Y-64752D01*
Y-62414D01*
X119693Y-62449D01*
D02*
G37*
G36*
X125813Y-65551D02*
X125818Y-65364D01*
X125777Y-65197D01*
X125692Y-65049D01*
X125561Y-64921D01*
X125385Y-64813D01*
X125165Y-64724D01*
X124899Y-64656D01*
X124589Y-64606D01*
X124233Y-64577D01*
X123833Y-64567D01*
X123885Y-62598D01*
X124329Y-62589D01*
X125086Y-62511D01*
X125399Y-62442D01*
X125667Y-62354D01*
X125892Y-62247D01*
X126073Y-62120D01*
X126209Y-61973D01*
X126302Y-61807D01*
X126351Y-61621D01*
X125813Y-65551D01*
D02*
G37*
D14*
X2965Y109292D02*
Y110492D01*
X3165Y109292D02*
Y110492D01*
X3365Y109292D02*
Y110492D01*
X3565Y109292D02*
Y110492D01*
Y136892D02*
Y137892D01*
X3765Y109292D02*
Y110492D01*
Y136692D02*
Y138092D01*
X3965Y109292D02*
Y110492D01*
Y136492D02*
Y138292D01*
X4165Y109292D02*
Y110492D01*
Y136492D02*
Y138292D01*
X4365Y109292D02*
Y110492D01*
Y136492D02*
Y138292D01*
X4565Y109292D02*
Y110492D01*
Y131092D02*
Y132492D01*
Y136492D02*
Y138292D01*
X4765Y109292D02*
Y110492D01*
Y131092D02*
Y132492D01*
Y136692D02*
Y138292D01*
X4965Y109292D02*
Y110492D01*
Y131092D02*
Y132492D01*
Y136692D02*
Y138092D01*
X5165Y109292D02*
Y110492D01*
Y131092D02*
Y132492D01*
Y137092D02*
Y137692D01*
X5365Y109292D02*
Y110492D01*
Y131092D02*
Y132492D01*
X5565Y109292D02*
Y110492D01*
Y131092D02*
Y132492D01*
X5765Y109292D02*
Y110492D01*
Y131092D02*
Y132492D01*
X5965Y109292D02*
Y110492D01*
Y131092D02*
Y132492D01*
X6165Y109292D02*
Y110492D01*
Y131092D02*
Y132492D01*
X6365Y109292D02*
Y110492D01*
Y131092D02*
Y132492D01*
X6565Y109292D02*
Y110492D01*
Y131092D02*
Y132492D01*
X6765Y109292D02*
Y110492D01*
Y131092D02*
Y132492D01*
X6965Y95892D02*
Y96692D01*
Y102092D02*
Y103092D01*
Y109292D02*
Y110492D01*
Y113092D02*
Y114092D01*
Y123292D02*
Y124292D01*
Y131092D02*
Y132492D01*
Y144292D02*
Y145092D01*
Y153692D02*
Y154692D01*
X7165Y92292D02*
Y93692D01*
Y95092D02*
Y97292D01*
Y101092D02*
Y104092D01*
Y109292D02*
Y110492D01*
Y112092D02*
Y114892D01*
Y122292D02*
Y125292D01*
Y129292D02*
Y134492D01*
Y136692D02*
Y138092D01*
Y143092D02*
Y146292D01*
Y152492D02*
Y155692D01*
X7365Y92292D02*
Y93692D01*
Y94692D02*
Y97292D01*
Y100492D02*
Y104492D01*
Y109292D02*
Y110492D01*
Y111692D02*
Y115492D01*
Y121692D02*
Y125892D01*
Y129292D02*
Y134492D01*
Y136692D02*
Y138092D01*
Y142692D02*
Y146692D01*
Y152092D02*
Y156292D01*
X7565Y92292D02*
Y93692D01*
Y94292D02*
Y97292D01*
Y100092D02*
Y104892D01*
Y109292D02*
Y110492D01*
Y111292D02*
Y115692D01*
Y121492D02*
Y126092D01*
Y129292D02*
Y134492D01*
Y136692D02*
Y138092D01*
Y142292D02*
Y147092D01*
Y151692D02*
Y156692D01*
X7765Y92292D02*
Y93692D01*
Y94092D02*
Y97292D01*
Y99892D02*
Y105292D01*
Y109292D02*
Y110492D01*
Y111092D02*
Y116092D01*
Y121092D02*
Y126492D01*
Y129292D02*
Y134492D01*
Y136692D02*
Y138092D01*
Y142092D02*
Y147292D01*
Y151492D02*
Y156892D01*
X7965Y92292D02*
Y93692D01*
Y93892D02*
Y97292D01*
Y99692D02*
Y105492D01*
Y109292D02*
Y110492D01*
Y110892D02*
Y116292D01*
Y120892D02*
Y126692D01*
Y129292D02*
Y134492D01*
Y136692D02*
Y138092D01*
Y141892D02*
Y147492D01*
Y151292D02*
Y157092D01*
X8165Y92292D02*
Y93692D01*
Y93892D02*
Y97292D01*
Y99492D02*
Y101892D01*
Y103092D02*
Y105692D01*
Y109292D02*
Y110492D01*
Y110692D02*
Y112892D01*
Y113892D02*
Y116292D01*
Y120692D02*
Y123292D01*
Y124292D02*
Y126892D01*
Y129292D02*
Y134492D01*
Y136692D02*
Y138092D01*
Y141692D02*
Y144092D01*
Y145292D02*
Y147692D01*
Y151092D02*
Y153492D01*
Y154692D02*
Y157292D01*
X8365Y92292D02*
Y95492D01*
Y99292D02*
Y101292D01*
Y103692D02*
Y105892D01*
Y109292D02*
Y112092D01*
Y114492D02*
Y116492D01*
Y120492D02*
Y122492D01*
Y124892D02*
Y127092D01*
Y131092D02*
Y132492D01*
Y136692D02*
Y138092D01*
Y141492D02*
Y143492D01*
Y145892D02*
Y147892D01*
Y150892D02*
Y152892D01*
Y155292D02*
Y157492D01*
X8565Y92292D02*
Y95092D01*
Y99092D02*
Y100892D01*
Y104092D02*
Y106092D01*
Y109292D02*
Y111692D01*
Y114892D02*
Y116692D01*
Y120292D02*
Y122292D01*
Y125292D02*
Y127292D01*
Y131092D02*
Y132492D01*
Y136692D02*
Y138092D01*
Y141292D02*
Y143092D01*
Y146292D02*
Y148092D01*
Y150692D02*
Y152492D01*
Y155692D02*
Y157692D01*
X8765Y92292D02*
Y94692D01*
Y98892D02*
Y100692D01*
Y104492D02*
Y106292D01*
Y109292D02*
Y111492D01*
Y115092D02*
Y116892D01*
Y120092D02*
Y121892D01*
Y125692D02*
Y127492D01*
Y131092D02*
Y132492D01*
Y136692D02*
Y138092D01*
Y141092D02*
Y142892D01*
Y146492D02*
Y148092D01*
Y150692D02*
Y152292D01*
Y156092D02*
Y157692D01*
X8965Y92292D02*
Y94492D01*
Y98692D02*
Y100492D01*
Y104692D02*
Y106292D01*
Y109292D02*
Y111292D01*
Y115292D02*
Y116892D01*
Y120092D02*
Y121692D01*
Y125892D02*
Y127492D01*
Y131092D02*
Y132492D01*
Y136692D02*
Y138092D01*
Y141092D02*
Y142692D01*
Y146692D02*
Y148292D01*
Y150692D02*
Y152092D01*
Y156292D02*
Y157892D01*
X9165Y92292D02*
Y94292D01*
Y98692D02*
Y100292D01*
Y104892D02*
Y106492D01*
Y109292D02*
Y111092D01*
Y115492D02*
Y117092D01*
Y119892D02*
Y121492D01*
Y126092D02*
Y127692D01*
Y131092D02*
Y132492D01*
Y136692D02*
Y138092D01*
Y140892D02*
Y142492D01*
Y146892D02*
Y148292D01*
Y150492D02*
Y151892D01*
Y156292D02*
Y157892D01*
X9365Y92292D02*
Y94092D01*
Y98492D02*
Y100092D01*
Y104892D02*
Y106492D01*
Y109292D02*
Y110892D01*
Y115492D02*
Y117092D01*
Y119692D02*
Y121292D01*
Y126292D02*
Y127892D01*
Y131092D02*
Y132492D01*
Y136692D02*
Y138092D01*
Y140892D02*
Y142292D01*
Y146892D02*
Y148492D01*
Y150492D02*
Y151892D01*
Y156492D02*
Y157892D01*
X9565Y92292D02*
Y94092D01*
Y98492D02*
Y100092D01*
Y105092D02*
Y106692D01*
Y109292D02*
Y110892D01*
Y115692D02*
Y117092D01*
Y119692D02*
Y121292D01*
Y126292D02*
Y127892D01*
Y131092D02*
Y132492D01*
Y136692D02*
Y138092D01*
Y140692D02*
Y142292D01*
Y147092D02*
Y148492D01*
Y150492D02*
Y151892D01*
Y156492D02*
Y157892D01*
X9765Y92292D02*
Y93892D01*
Y98292D02*
Y99892D01*
Y105292D02*
Y106692D01*
Y109292D02*
Y110692D01*
Y115692D02*
Y117292D01*
Y119692D02*
Y121092D01*
Y126492D02*
Y127892D01*
Y131092D02*
Y132492D01*
Y136692D02*
Y138092D01*
Y140692D02*
Y142092D01*
Y147092D02*
Y148492D01*
Y150492D02*
Y151892D01*
Y156692D02*
Y157892D01*
X9965Y92292D02*
Y93892D01*
Y98292D02*
Y99692D01*
Y105292D02*
Y106892D01*
Y109292D02*
Y110692D01*
Y115892D02*
Y117292D01*
Y119492D02*
Y121092D01*
Y126492D02*
Y128092D01*
Y131092D02*
Y132492D01*
Y136692D02*
Y138092D01*
Y140492D02*
Y142092D01*
Y147292D02*
Y148692D01*
Y150492D02*
Y151892D01*
Y156692D02*
Y157892D01*
X10165Y92292D02*
Y93692D01*
Y98292D02*
Y99692D01*
Y105492D02*
Y106892D01*
Y109292D02*
Y110492D01*
Y115892D02*
Y117292D01*
Y119492D02*
Y120892D01*
Y126692D02*
Y128092D01*
Y131092D02*
Y132492D01*
Y136692D02*
Y138092D01*
Y140492D02*
Y141892D01*
Y147292D02*
Y148692D01*
Y150492D02*
Y151892D01*
X10365Y92292D02*
Y93692D01*
Y98092D02*
Y99492D01*
Y105492D02*
Y106892D01*
Y109292D02*
Y110492D01*
Y116092D02*
Y117292D01*
Y119492D02*
Y120892D01*
Y126692D02*
Y128092D01*
Y131092D02*
Y132492D01*
Y136692D02*
Y138092D01*
Y140492D02*
Y141892D01*
Y147292D02*
Y148692D01*
Y150492D02*
Y151892D01*
X10565Y92292D02*
Y93692D01*
Y98092D02*
Y99492D01*
Y105492D02*
Y106892D01*
Y109292D02*
Y110492D01*
Y116092D02*
Y117492D01*
Y119292D02*
Y120692D01*
Y126892D02*
Y128292D01*
Y131092D02*
Y132492D01*
Y136692D02*
Y138092D01*
Y140492D02*
Y141892D01*
Y147292D02*
Y148692D01*
Y150492D02*
Y152092D01*
X10765Y92292D02*
Y93692D01*
Y98092D02*
Y99492D01*
Y105692D02*
Y107092D01*
Y109292D02*
Y110492D01*
Y116092D02*
Y117492D01*
Y119292D02*
Y120692D01*
Y126892D02*
Y128292D01*
Y131092D02*
Y132492D01*
Y136692D02*
Y138092D01*
Y140292D02*
Y141692D01*
Y150692D02*
Y152292D01*
X10965Y92292D02*
Y93692D01*
Y98092D02*
Y99492D01*
Y105692D02*
Y107092D01*
Y109292D02*
Y110492D01*
Y116092D02*
Y117492D01*
Y119292D02*
Y120692D01*
Y126892D02*
Y128292D01*
Y131092D02*
Y132492D01*
Y136692D02*
Y138092D01*
Y140292D02*
Y141692D01*
Y150692D02*
Y152492D01*
X11165Y92292D02*
Y93692D01*
Y98092D02*
Y99292D01*
Y105692D02*
Y107092D01*
Y109292D02*
Y110492D01*
Y116092D02*
Y117492D01*
Y119292D02*
Y120692D01*
Y126892D02*
Y128292D01*
Y131092D02*
Y132492D01*
Y136692D02*
Y138092D01*
Y140292D02*
Y141692D01*
Y150892D02*
Y153092D01*
X11365Y92292D02*
Y93692D01*
Y97892D02*
Y99292D01*
Y105692D02*
Y107092D01*
Y109292D02*
Y110492D01*
Y116092D02*
Y117492D01*
Y119292D02*
Y120492D01*
Y127092D02*
Y128292D01*
Y131092D02*
Y132492D01*
Y136692D02*
Y138092D01*
Y140292D02*
Y141692D01*
Y151092D02*
Y153492D01*
X11565Y92292D02*
Y93692D01*
Y97892D02*
Y99292D01*
Y105892D02*
Y107092D01*
Y109292D02*
Y110492D01*
Y116292D02*
Y117492D01*
Y119292D02*
Y120492D01*
Y127092D02*
Y128292D01*
Y131092D02*
Y132492D01*
Y136692D02*
Y138092D01*
Y140292D02*
Y141692D01*
Y151292D02*
Y154292D01*
X11765Y92292D02*
Y93692D01*
Y97892D02*
Y99292D01*
Y105892D02*
Y107092D01*
Y109292D02*
Y110492D01*
Y116292D02*
Y117492D01*
Y119292D02*
Y120492D01*
Y127092D02*
Y128292D01*
Y131092D02*
Y132492D01*
Y136692D02*
Y138092D01*
Y140292D02*
Y141692D01*
Y151492D02*
Y155092D01*
X11965Y92292D02*
Y93692D01*
Y97892D02*
Y99292D01*
Y105892D02*
Y107092D01*
Y109292D02*
Y110492D01*
Y116292D02*
Y117492D01*
Y119092D02*
Y120492D01*
Y127092D02*
Y128292D01*
Y131092D02*
Y132492D01*
Y136692D02*
Y138092D01*
Y140292D02*
Y141692D01*
Y151692D02*
Y155692D01*
X12165Y92292D02*
Y93692D01*
Y97892D02*
Y99292D01*
Y105892D02*
Y107092D01*
Y109292D02*
Y110492D01*
Y116292D02*
Y117492D01*
Y119092D02*
Y120492D01*
Y127092D02*
Y128292D01*
Y131092D02*
Y132492D01*
Y136692D02*
Y138092D01*
Y140292D02*
Y141692D01*
Y152092D02*
Y156292D01*
X12365Y92292D02*
Y93692D01*
Y97892D02*
Y99292D01*
Y105892D02*
Y107092D01*
Y109292D02*
Y110492D01*
Y116292D02*
Y117492D01*
Y119092D02*
Y120492D01*
Y127092D02*
Y128292D01*
Y131092D02*
Y132492D01*
Y136692D02*
Y138092D01*
Y140292D02*
Y141692D01*
Y152692D02*
Y156692D01*
X12565Y92292D02*
Y93692D01*
Y97892D02*
Y99292D01*
Y105892D02*
Y107092D01*
Y109292D02*
Y110492D01*
Y116292D02*
Y117492D01*
Y119092D02*
Y120492D01*
Y127092D02*
Y128292D01*
Y131092D02*
Y132492D01*
Y136692D02*
Y138092D01*
Y140292D02*
Y141692D01*
Y153292D02*
Y156892D01*
X12765Y92292D02*
Y93692D01*
Y97892D02*
Y99292D01*
Y105892D02*
Y107092D01*
Y109292D02*
Y110492D01*
Y116292D02*
Y117492D01*
Y119292D02*
Y120492D01*
Y127092D02*
Y128292D01*
Y131092D02*
Y132492D01*
Y136692D02*
Y138092D01*
Y140292D02*
Y141692D01*
Y154292D02*
Y157292D01*
X12965Y92292D02*
Y93692D01*
Y97892D02*
Y99292D01*
Y105892D02*
Y107092D01*
Y109292D02*
Y110492D01*
Y116292D02*
Y117492D01*
Y119292D02*
Y120492D01*
Y127092D02*
Y128292D01*
Y131092D02*
Y132492D01*
Y136692D02*
Y138092D01*
Y140292D02*
Y141692D01*
Y154892D02*
Y157492D01*
X13165Y92292D02*
Y93692D01*
Y97892D02*
Y99292D01*
Y105692D02*
Y107092D01*
Y109292D02*
Y110492D01*
Y116092D02*
Y117492D01*
Y119292D02*
Y120492D01*
Y127092D02*
Y128292D01*
Y131092D02*
Y132492D01*
Y136692D02*
Y138092D01*
Y140292D02*
Y141692D01*
Y155492D02*
Y157692D01*
X13365Y92292D02*
Y93692D01*
Y98092D02*
Y99292D01*
Y105692D02*
Y107092D01*
Y109292D02*
Y110492D01*
Y116092D02*
Y117492D01*
Y119292D02*
Y120492D01*
Y126892D02*
Y128292D01*
Y131092D02*
Y132492D01*
Y136692D02*
Y138092D01*
Y140292D02*
Y141692D01*
Y155892D02*
Y157692D01*
X13565Y92292D02*
Y93692D01*
Y98092D02*
Y99492D01*
Y105692D02*
Y107092D01*
Y109292D02*
Y110492D01*
Y116092D02*
Y117492D01*
Y119292D02*
Y120692D01*
Y126892D02*
Y128292D01*
Y131092D02*
Y132492D01*
Y136692D02*
Y138092D01*
Y140292D02*
Y141692D01*
Y156092D02*
Y157892D01*
X13765Y92292D02*
Y93692D01*
Y98092D02*
Y99492D01*
Y105692D02*
Y107092D01*
Y109292D02*
Y110492D01*
Y116092D02*
Y117492D01*
Y119292D02*
Y120692D01*
Y126892D02*
Y128292D01*
Y131092D02*
Y132492D01*
Y136692D02*
Y138092D01*
Y140292D02*
Y141692D01*
Y156292D02*
Y157892D01*
X13965Y92292D02*
Y93692D01*
Y98092D02*
Y99492D01*
Y105692D02*
Y106892D01*
Y109292D02*
Y110492D01*
Y116092D02*
Y117492D01*
Y119292D02*
Y120692D01*
Y126892D02*
Y128292D01*
Y131092D02*
Y132492D01*
Y136692D02*
Y138092D01*
Y140492D02*
Y141692D01*
Y156492D02*
Y157892D01*
X14165Y92292D02*
Y93692D01*
Y98092D02*
Y99492D01*
Y105492D02*
Y106892D01*
Y109292D02*
Y110492D01*
Y115892D02*
Y117292D01*
Y119292D02*
Y120892D01*
Y126692D02*
Y128092D01*
Y131092D02*
Y132492D01*
Y136692D02*
Y138092D01*
Y140492D02*
Y141892D01*
Y147292D02*
Y148692D01*
Y156492D02*
Y158092D01*
X14365Y92292D02*
Y93692D01*
Y98292D02*
Y99692D01*
Y105492D02*
Y106892D01*
Y109292D02*
Y110492D01*
Y115892D02*
Y117292D01*
Y119492D02*
Y120892D01*
Y126692D02*
Y128092D01*
Y131092D02*
Y132492D01*
Y136692D02*
Y138092D01*
Y140492D02*
Y141892D01*
Y147292D02*
Y148692D01*
Y156692D02*
Y158092D01*
X14565Y92292D02*
Y93692D01*
Y98292D02*
Y99692D01*
Y105292D02*
Y106892D01*
Y109292D02*
Y110492D01*
Y115892D02*
Y117292D01*
Y119492D02*
Y120892D01*
Y126692D02*
Y128092D01*
Y131092D02*
Y132492D01*
Y136692D02*
Y138092D01*
Y140492D02*
Y141892D01*
Y147292D02*
Y148692D01*
Y150092D02*
Y151492D01*
Y156692D02*
Y158092D01*
X14765Y92292D02*
Y93692D01*
Y98292D02*
Y99892D01*
Y105292D02*
Y106692D01*
Y109292D02*
Y110692D01*
Y115692D02*
Y117292D01*
Y119492D02*
Y121092D01*
Y126492D02*
Y127892D01*
Y131092D02*
Y132492D01*
Y136692D02*
Y138092D01*
Y140692D02*
Y142092D01*
Y147292D02*
Y148692D01*
Y150092D02*
Y151492D01*
Y156692D02*
Y158092D01*
X14965Y92292D02*
Y93692D01*
Y98492D02*
Y99892D01*
Y105092D02*
Y106692D01*
Y109292D02*
Y110692D01*
Y115692D02*
Y117092D01*
Y119692D02*
Y121292D01*
Y126292D02*
Y127892D01*
Y131092D02*
Y132492D01*
Y136692D02*
Y138092D01*
Y140692D02*
Y142092D01*
Y147092D02*
Y148492D01*
Y150292D02*
Y151692D01*
Y156692D02*
Y158092D01*
X15165Y92292D02*
Y93692D01*
Y98492D02*
Y100092D01*
Y105092D02*
Y106492D01*
Y109292D02*
Y110892D01*
Y115492D02*
Y117092D01*
Y119692D02*
Y121292D01*
Y126292D02*
Y127892D01*
Y131092D02*
Y132492D01*
Y136692D02*
Y138092D01*
Y140892D02*
Y142292D01*
Y147092D02*
Y148492D01*
Y150292D02*
Y151692D01*
Y156692D02*
Y158092D01*
X15365Y92292D02*
Y93692D01*
Y98692D02*
Y100292D01*
Y104892D02*
Y106492D01*
Y109292D02*
Y111092D01*
Y115492D02*
Y117092D01*
Y119892D02*
Y121492D01*
Y126092D02*
Y127692D01*
Y131092D02*
Y132492D01*
Y136692D02*
Y138092D01*
Y140892D02*
Y142492D01*
Y146892D02*
Y148492D01*
Y150292D02*
Y151892D01*
Y156492D02*
Y157892D01*
X15565Y92292D02*
Y93692D01*
Y98692D02*
Y100492D01*
Y104692D02*
Y106292D01*
Y109292D02*
Y111292D01*
Y115292D02*
Y116892D01*
Y119892D02*
Y121692D01*
Y125892D02*
Y127692D01*
Y131092D02*
Y132492D01*
Y136692D02*
Y138092D01*
Y141092D02*
Y142692D01*
Y146692D02*
Y148292D01*
Y150292D02*
Y151892D01*
Y156492D02*
Y157892D01*
X15765Y92292D02*
Y93692D01*
Y98892D02*
Y100692D01*
Y104492D02*
Y106292D01*
Y109292D02*
Y111492D01*
Y115092D02*
Y116892D01*
Y120092D02*
Y121892D01*
Y125692D02*
Y127492D01*
Y131092D02*
Y132492D01*
Y136692D02*
Y138092D01*
Y141092D02*
Y142892D01*
Y146492D02*
Y148292D01*
Y150492D02*
Y152092D01*
Y156292D02*
Y157892D01*
X15965Y92292D02*
Y93692D01*
Y99092D02*
Y100892D01*
Y104092D02*
Y106092D01*
Y109292D02*
Y111692D01*
Y114892D02*
Y116692D01*
Y120292D02*
Y122092D01*
Y125492D02*
Y127292D01*
Y131092D02*
Y132692D01*
Y136692D02*
Y138092D01*
Y141292D02*
Y143092D01*
Y146292D02*
Y148092D01*
Y150492D02*
Y152492D01*
Y155892D02*
Y157692D01*
X16165Y92292D02*
Y93692D01*
Y99092D02*
Y101292D01*
Y103892D02*
Y105892D01*
Y109292D02*
Y112092D01*
Y114492D02*
Y116492D01*
Y120492D02*
Y122492D01*
Y125092D02*
Y127092D01*
Y131292D02*
Y132892D01*
Y136692D02*
Y138092D01*
Y141492D02*
Y143492D01*
Y145892D02*
Y147892D01*
Y150692D02*
Y152692D01*
Y155692D02*
Y157692D01*
X16365Y92292D02*
Y93692D01*
Y99292D02*
Y101892D01*
Y103292D02*
Y105692D01*
Y109292D02*
Y112692D01*
Y113892D02*
Y116292D01*
Y120692D02*
Y123092D01*
Y124492D02*
Y126892D01*
Y131292D02*
Y133292D01*
Y134092D02*
Y134692D01*
Y136692D02*
Y138092D01*
Y141492D02*
Y143892D01*
Y145492D02*
Y147692D01*
Y150892D02*
Y153492D01*
Y155092D02*
Y157492D01*
X16565Y92292D02*
Y93692D01*
Y99492D02*
Y105492D01*
Y109292D02*
Y110492D01*
Y110692D02*
Y116292D01*
Y120892D02*
Y126692D01*
Y131292D02*
Y134692D01*
Y136692D02*
Y138092D01*
Y141692D02*
Y147492D01*
Y151092D02*
Y157292D01*
X16765Y92292D02*
Y93692D01*
Y99892D02*
Y105292D01*
Y109292D02*
Y110492D01*
Y110892D02*
Y116092D01*
Y121092D02*
Y126492D01*
Y131492D02*
Y134692D01*
Y136692D02*
Y138092D01*
Y142092D02*
Y147292D01*
Y151292D02*
Y157092D01*
X16965Y92292D02*
Y93692D01*
Y100092D02*
Y104892D01*
Y109292D02*
Y110492D01*
Y111292D02*
Y115692D01*
Y121292D02*
Y126292D01*
Y131692D02*
Y134692D01*
Y136692D02*
Y138092D01*
Y142292D02*
Y147092D01*
Y151492D02*
Y156892D01*
X17165Y92292D02*
Y93692D01*
Y100492D02*
Y104692D01*
Y109292D02*
Y110492D01*
Y111492D02*
Y115492D01*
Y121692D02*
Y125892D01*
Y131892D02*
Y134692D01*
Y136692D02*
Y138092D01*
Y142692D02*
Y146692D01*
Y151892D02*
Y156492D01*
X17365Y92292D02*
Y93692D01*
Y100892D02*
Y104092D01*
Y109292D02*
Y110492D01*
Y112092D02*
Y115092D01*
Y122292D02*
Y125292D01*
Y132092D02*
Y134692D01*
Y136692D02*
Y138092D01*
Y143092D02*
Y146092D01*
Y152492D02*
Y155892D01*
X17565Y101892D02*
Y103292D01*
Y112892D02*
Y114092D01*
Y123092D02*
Y124492D01*
Y132892D02*
Y134092D01*
Y144092D02*
Y145292D01*
Y153492D02*
Y154892D01*
X20765Y92292D02*
Y93692D01*
Y125892D02*
Y127092D01*
X20965Y92292D02*
Y93692D01*
Y125892D02*
Y127092D01*
X21165Y92292D02*
Y93692D01*
Y125892D02*
Y127092D01*
X21365Y92292D02*
Y93692D01*
Y125892D02*
Y127092D01*
X21565Y92292D02*
Y93692D01*
Y125892D02*
Y127092D01*
X21765Y92292D02*
Y93692D01*
Y125892D02*
Y127092D01*
X21965Y92292D02*
Y93692D01*
Y125892D02*
Y127092D01*
X22165Y92292D02*
Y93692D01*
Y125892D02*
Y127092D01*
X22365Y92292D02*
Y93692D01*
Y125892D02*
Y127092D01*
X22565Y92292D02*
Y93692D01*
Y125892D02*
Y127092D01*
X22765Y92292D02*
Y93692D01*
Y125892D02*
Y127092D01*
X22965Y92292D02*
Y93692D01*
Y125892D02*
Y127092D01*
X23165Y92292D02*
Y93692D01*
Y125892D02*
Y127092D01*
X23365Y92292D02*
Y93692D01*
Y125892D02*
Y127092D01*
X23565Y92292D02*
Y93692D01*
Y125892D02*
Y127092D01*
X23765Y92292D02*
Y93692D01*
Y125892D02*
Y127092D01*
X23965Y92292D02*
Y93692D01*
Y125892D02*
Y127092D01*
X24165Y92292D02*
Y93692D01*
Y125892D02*
Y127092D01*
X24365Y92292D02*
Y93692D01*
Y125892D02*
Y127092D01*
X24565Y92292D02*
Y93692D01*
Y125892D02*
Y127092D01*
X24765Y92292D02*
Y93692D01*
Y95892D02*
Y97892D01*
Y105492D02*
Y107492D01*
Y116092D02*
Y117892D01*
Y121892D02*
Y123692D01*
Y125892D02*
Y127092D01*
Y146892D02*
Y148892D01*
Y157492D02*
Y159292D01*
Y163492D02*
Y165492D01*
X24965Y92292D02*
Y93692D01*
Y95292D02*
Y98492D01*
Y104692D02*
Y108292D01*
Y113092D02*
Y114292D01*
Y115492D02*
Y117892D01*
Y121292D02*
Y124492D01*
Y125892D02*
Y127092D01*
Y128892D02*
Y130292D01*
Y135092D02*
Y136292D01*
Y140892D02*
Y142292D01*
Y146092D02*
Y149692D01*
Y154492D02*
Y155692D01*
Y156892D02*
Y159292D01*
Y162892D02*
Y166092D01*
X25165Y92292D02*
Y93692D01*
Y94892D02*
Y98892D01*
Y104292D02*
Y108692D01*
Y113092D02*
Y114292D01*
Y115292D02*
Y117892D01*
Y120892D02*
Y124892D01*
Y125892D02*
Y127092D01*
Y129092D02*
Y130492D01*
Y134892D02*
Y136292D01*
Y140892D02*
Y142292D01*
Y145692D02*
Y150092D01*
Y154492D02*
Y155692D01*
Y156692D02*
Y159292D01*
Y162492D02*
Y166492D01*
X25365Y92292D02*
Y93692D01*
Y94492D02*
Y99092D01*
Y103892D02*
Y109092D01*
Y113092D02*
Y114292D01*
Y114892D02*
Y117892D01*
Y120492D02*
Y125092D01*
Y125892D02*
Y127092D01*
Y129092D02*
Y130492D01*
Y134892D02*
Y136292D01*
Y140892D02*
Y142292D01*
Y145292D02*
Y150492D01*
Y154492D02*
Y155692D01*
Y156292D02*
Y159292D01*
Y162092D02*
Y166892D01*
X25565Y92292D02*
Y93692D01*
Y94292D02*
Y99292D01*
Y103692D02*
Y109292D01*
Y113092D02*
Y114292D01*
Y114692D02*
Y117892D01*
Y120292D02*
Y125292D01*
Y125892D02*
Y127092D01*
Y129092D02*
Y130492D01*
Y134892D02*
Y136492D01*
Y140692D02*
Y142092D01*
Y145092D02*
Y150692D01*
Y154492D02*
Y155692D01*
Y156092D02*
Y159292D01*
Y161892D02*
Y167092D01*
X25765Y92292D02*
Y93692D01*
Y94092D02*
Y99492D01*
Y103492D02*
Y109492D01*
Y113092D02*
Y114292D01*
Y114492D02*
Y117892D01*
Y120092D02*
Y125492D01*
Y125892D02*
Y127092D01*
Y129092D02*
Y130492D01*
Y134692D02*
Y136492D01*
Y140692D02*
Y142092D01*
Y144892D02*
Y150892D01*
Y154492D02*
Y155692D01*
Y155892D02*
Y159292D01*
Y161692D02*
Y167292D01*
X25965Y92292D02*
Y93692D01*
Y93892D02*
Y95892D01*
Y97292D02*
Y99692D01*
Y103292D02*
Y105492D01*
Y107492D02*
Y109692D01*
Y113092D02*
Y114292D01*
Y114492D02*
Y116692D01*
Y117292D02*
Y117892D01*
Y119892D02*
Y122292D01*
Y123892D02*
Y125692D01*
Y125892D02*
Y127092D01*
Y129292D02*
Y130692D01*
Y134692D02*
Y136492D01*
Y140692D02*
Y142092D01*
Y144692D02*
Y146892D01*
Y148892D02*
Y151092D01*
Y154492D02*
Y155692D01*
Y155892D02*
Y158092D01*
Y158692D02*
Y159292D01*
Y161492D02*
Y163692D01*
Y165292D02*
Y167492D01*
X26165Y92292D02*
Y95292D01*
Y97892D02*
Y99692D01*
Y103092D02*
Y104892D01*
Y107892D02*
Y109692D01*
Y113092D02*
Y115892D01*
Y119692D02*
Y121692D01*
Y124292D02*
Y127092D01*
Y129292D02*
Y130692D01*
Y134692D02*
Y136692D01*
Y140492D02*
Y141892D01*
Y144492D02*
Y146292D01*
Y149292D02*
Y151092D01*
Y154492D02*
Y157292D01*
Y161292D02*
Y163092D01*
Y165692D02*
Y167692D01*
X26365Y92292D02*
Y95092D01*
Y98092D02*
Y99892D01*
Y102892D02*
Y104692D01*
Y108092D02*
Y109892D01*
Y113092D02*
Y115492D01*
Y119692D02*
Y121492D01*
Y124692D02*
Y127092D01*
Y129292D02*
Y130692D01*
Y134492D02*
Y136692D01*
Y140492D02*
Y141892D01*
Y144292D02*
Y146092D01*
Y149492D02*
Y151292D01*
Y154492D02*
Y156892D01*
Y161092D02*
Y162892D01*
Y166092D02*
Y167692D01*
X26565Y92292D02*
Y94692D01*
Y98292D02*
Y99892D01*
Y102692D02*
Y104492D01*
Y108492D02*
Y109892D01*
Y113092D02*
Y115292D01*
Y119492D02*
Y121292D01*
Y124892D02*
Y127092D01*
Y129492D02*
Y130692D01*
Y134492D02*
Y136692D01*
Y140492D02*
Y141892D01*
Y144092D02*
Y145892D01*
Y149892D02*
Y151292D01*
Y154492D02*
Y156692D01*
Y160892D02*
Y162692D01*
Y166292D02*
Y167892D01*
X26765Y92292D02*
Y94492D01*
Y98492D02*
Y99892D01*
Y102692D02*
Y104292D01*
Y108492D02*
Y110092D01*
Y113092D02*
Y115092D01*
Y119492D02*
Y121092D01*
Y125092D02*
Y127092D01*
Y129492D02*
Y130892D01*
Y134492D02*
Y136892D01*
Y140492D02*
Y141892D01*
Y144092D02*
Y145692D01*
Y149892D02*
Y151492D01*
Y154492D02*
Y156492D01*
Y160892D02*
Y162492D01*
Y166492D02*
Y168092D01*
X26965Y92292D02*
Y94292D01*
Y98492D02*
Y99892D01*
Y102692D02*
Y104092D01*
Y108692D02*
Y110092D01*
Y113092D02*
Y114892D01*
Y119292D02*
Y120892D01*
Y125292D02*
Y127092D01*
Y129492D02*
Y130892D01*
Y134492D02*
Y136892D01*
Y140292D02*
Y141692D01*
Y144092D02*
Y145492D01*
Y150092D02*
Y151492D01*
Y154492D02*
Y156292D01*
Y160692D02*
Y162292D01*
Y166492D02*
Y168092D01*
X27165Y92292D02*
Y94292D01*
Y98692D02*
Y100092D01*
Y102492D02*
Y103892D01*
Y108692D02*
Y110092D01*
Y113092D02*
Y114692D01*
Y119292D02*
Y120692D01*
Y125492D02*
Y127092D01*
Y129492D02*
Y130892D01*
Y134292D02*
Y135492D01*
Y135692D02*
Y136892D01*
Y140292D02*
Y141692D01*
Y143892D02*
Y145292D01*
Y150092D02*
Y151492D01*
Y154492D02*
Y156092D01*
Y160692D02*
Y162092D01*
Y166692D02*
Y168092D01*
X27365Y92292D02*
Y94092D01*
Y98692D02*
Y100092D01*
Y102492D02*
Y103892D01*
Y108892D02*
Y110292D01*
Y113092D02*
Y114692D01*
Y119092D02*
Y120692D01*
Y125492D02*
Y127092D01*
Y129692D02*
Y131092D01*
Y134292D02*
Y135492D01*
Y135692D02*
Y136892D01*
Y140292D02*
Y141692D01*
Y143892D02*
Y145292D01*
Y150292D02*
Y151692D01*
Y154492D02*
Y156092D01*
Y160492D02*
Y161892D01*
Y166892D02*
Y168292D01*
X27565Y92292D02*
Y93892D01*
Y98692D02*
Y100092D01*
Y102492D02*
Y103892D01*
Y108892D02*
Y110292D01*
Y113092D02*
Y114492D01*
Y119092D02*
Y120492D01*
Y125692D02*
Y127092D01*
Y129692D02*
Y131092D01*
Y134292D02*
Y135492D01*
Y135692D02*
Y137092D01*
Y140292D02*
Y141492D01*
Y143892D02*
Y145292D01*
Y150292D02*
Y151692D01*
Y154492D02*
Y155892D01*
Y160492D02*
Y161892D01*
Y166892D02*
Y168292D01*
X27765Y92292D02*
Y93892D01*
Y98692D02*
Y100092D01*
Y102492D02*
Y103892D01*
Y108892D02*
Y110292D01*
Y113092D02*
Y114492D01*
Y119092D02*
Y120492D01*
Y125692D02*
Y127092D01*
Y129692D02*
Y131092D01*
Y134092D02*
Y135292D01*
Y135892D02*
Y137092D01*
Y140092D02*
Y141492D01*
Y143892D02*
Y145292D01*
Y150292D02*
Y151692D01*
Y154492D02*
Y155892D01*
Y160292D02*
Y161692D01*
Y166892D02*
Y168292D01*
X27965Y92292D02*
Y93692D01*
Y98892D02*
Y100092D01*
Y108892D02*
Y110292D01*
Y113092D02*
Y114492D01*
Y118892D02*
Y120492D01*
Y125892D02*
Y127092D01*
Y129892D02*
Y131092D01*
Y134092D02*
Y135292D01*
Y135892D02*
Y137092D01*
Y140092D02*
Y141492D01*
Y150292D02*
Y151692D01*
Y154492D02*
Y155892D01*
Y160292D02*
Y161692D01*
Y167092D02*
Y168292D01*
X28165Y92292D02*
Y93692D01*
Y98892D02*
Y100092D01*
Y108892D02*
Y110292D01*
Y113092D02*
Y114292D01*
Y118892D02*
Y120292D01*
Y125892D02*
Y127092D01*
Y129892D02*
Y131292D01*
Y134092D02*
Y135292D01*
Y135892D02*
Y137292D01*
Y140092D02*
Y141292D01*
Y150292D02*
Y151692D01*
Y154492D02*
Y155692D01*
Y160292D02*
Y161692D01*
Y167092D02*
Y168492D01*
X28365Y92292D02*
Y93692D01*
Y98892D02*
Y100092D01*
Y108892D02*
Y110292D01*
Y113092D02*
Y114292D01*
Y118892D02*
Y120292D01*
Y125892D02*
Y127092D01*
Y129892D02*
Y131292D01*
Y133892D02*
Y135292D01*
Y136092D02*
Y137292D01*
Y140092D02*
Y141292D01*
Y150292D02*
Y151692D01*
Y154492D02*
Y155692D01*
Y160092D02*
Y161492D01*
Y167092D02*
Y168492D01*
X28565Y92292D02*
Y93692D01*
Y98892D02*
Y100092D01*
Y108892D02*
Y110292D01*
Y113092D02*
Y114292D01*
Y118892D02*
Y120292D01*
Y125892D02*
Y127092D01*
Y129892D02*
Y131292D01*
Y133892D02*
Y135092D01*
Y136092D02*
Y137292D01*
Y139892D02*
Y141292D01*
Y150292D02*
Y151692D01*
Y154492D02*
Y155692D01*
Y160092D02*
Y161492D01*
Y167092D02*
Y168492D01*
X28765Y92292D02*
Y93692D01*
Y98892D02*
Y100092D01*
Y108892D02*
Y110292D01*
Y113092D02*
Y114292D01*
Y118892D02*
Y120292D01*
Y125892D02*
Y127092D01*
Y130092D02*
Y131292D01*
Y133892D02*
Y135092D01*
Y136092D02*
Y137492D01*
Y139892D02*
Y141292D01*
Y150292D02*
Y151692D01*
Y154492D02*
Y155692D01*
Y160092D02*
Y161492D01*
Y167092D02*
Y168492D01*
X28965Y92292D02*
Y93692D01*
Y98892D02*
Y100092D01*
Y108892D02*
Y110292D01*
Y113092D02*
Y114292D01*
Y118892D02*
Y120292D01*
Y125892D02*
Y127092D01*
Y130092D02*
Y131492D01*
Y133692D02*
Y135092D01*
Y136292D02*
Y137492D01*
Y139892D02*
Y141092D01*
Y150292D02*
Y151692D01*
Y154492D02*
Y155692D01*
Y160092D02*
Y161492D01*
Y167292D02*
Y168492D01*
X29165Y92292D02*
Y93692D01*
Y98892D02*
Y100092D01*
Y105692D02*
Y110292D01*
Y113092D02*
Y114292D01*
Y118892D02*
Y120092D01*
Y125892D02*
Y127092D01*
Y130092D02*
Y131492D01*
Y133692D02*
Y134892D01*
Y136292D02*
Y137492D01*
Y139692D02*
Y141092D01*
Y147092D02*
Y151692D01*
Y154492D02*
Y155692D01*
Y160092D02*
Y168492D01*
X29365Y92292D02*
Y93692D01*
Y98892D02*
Y100092D01*
Y104692D02*
Y110292D01*
Y113092D02*
Y114292D01*
Y118892D02*
Y120092D01*
Y125892D02*
Y127092D01*
Y130292D02*
Y131492D01*
Y133692D02*
Y134892D01*
Y136292D02*
Y137692D01*
Y139692D02*
Y141092D01*
Y146092D02*
Y151692D01*
Y154492D02*
Y155692D01*
Y160092D02*
Y168492D01*
X29565Y92292D02*
Y93692D01*
Y98892D02*
Y100092D01*
Y104092D02*
Y110292D01*
Y113092D02*
Y114292D01*
Y118892D02*
Y120092D01*
Y125892D02*
Y127092D01*
Y130292D02*
Y131692D01*
Y133492D02*
Y134892D01*
Y136492D02*
Y137692D01*
Y139692D02*
Y140892D01*
Y145492D02*
Y151692D01*
Y154492D02*
Y155692D01*
Y160092D02*
Y168492D01*
X29765Y92292D02*
Y93692D01*
Y98892D02*
Y100092D01*
Y103692D02*
Y110292D01*
Y113092D02*
Y114292D01*
Y118892D02*
Y120092D01*
Y125892D02*
Y127092D01*
Y130292D02*
Y131692D01*
Y133492D02*
Y134692D01*
Y136492D02*
Y137692D01*
Y139692D02*
Y140892D01*
Y145092D02*
Y151692D01*
Y154492D02*
Y155692D01*
Y160092D02*
Y168492D01*
X29965Y92292D02*
Y93692D01*
Y98892D02*
Y100092D01*
Y103492D02*
Y110292D01*
Y113092D02*
Y114292D01*
Y118892D02*
Y120092D01*
Y125892D02*
Y127092D01*
Y130292D02*
Y131692D01*
Y133492D02*
Y134692D01*
Y136492D02*
Y137892D01*
Y139492D02*
Y140892D01*
Y144892D02*
Y151692D01*
Y154492D02*
Y155692D01*
Y160092D02*
Y168492D01*
X30165Y92292D02*
Y93692D01*
Y98892D02*
Y100092D01*
Y103292D02*
Y106492D01*
Y108892D02*
Y110292D01*
Y113092D02*
Y114292D01*
Y118892D02*
Y120092D01*
Y125892D02*
Y127092D01*
Y130492D02*
Y131692D01*
Y133292D02*
Y134692D01*
Y136692D02*
Y137892D01*
Y139492D02*
Y140892D01*
Y144692D02*
Y147892D01*
Y150292D02*
Y151692D01*
Y154492D02*
Y155692D01*
Y160092D02*
Y168492D01*
X30365Y92292D02*
Y93692D01*
Y98892D02*
Y100092D01*
Y103092D02*
Y105492D01*
Y108892D02*
Y110292D01*
Y113092D02*
Y114292D01*
Y118892D02*
Y120092D01*
Y125892D02*
Y127092D01*
Y130492D02*
Y131892D01*
Y133292D02*
Y134492D01*
Y136692D02*
Y137892D01*
Y139492D02*
Y140692D01*
Y144492D02*
Y146892D01*
Y150292D02*
Y151692D01*
Y154492D02*
Y155692D01*
Y160092D02*
Y161292D01*
X30565Y92292D02*
Y93692D01*
Y98892D02*
Y100092D01*
Y102892D02*
Y104892D01*
Y108892D02*
Y110292D01*
Y113092D02*
Y114292D01*
Y118892D02*
Y120092D01*
Y125892D02*
Y127092D01*
Y130492D02*
Y131892D01*
Y133292D02*
Y134492D01*
Y136692D02*
Y137892D01*
Y139492D02*
Y140692D01*
Y144292D02*
Y146292D01*
Y150292D02*
Y151692D01*
Y154492D02*
Y155692D01*
Y160092D02*
Y161292D01*
X30765Y92292D02*
Y93692D01*
Y98892D02*
Y100092D01*
Y102692D02*
Y104492D01*
Y108892D02*
Y110292D01*
Y113092D02*
Y114292D01*
Y118892D02*
Y120092D01*
Y125892D02*
Y127092D01*
Y130692D02*
Y131892D01*
Y133292D02*
Y134492D01*
Y136692D02*
Y138092D01*
Y139292D02*
Y140692D01*
Y144092D02*
Y145892D01*
Y150292D02*
Y151692D01*
Y154492D02*
Y155692D01*
Y160092D02*
Y161292D01*
X30965Y92292D02*
Y93692D01*
Y98892D02*
Y100092D01*
Y102492D02*
Y104292D01*
Y108892D02*
Y110292D01*
Y113092D02*
Y114292D01*
Y118892D02*
Y120092D01*
Y125892D02*
Y127092D01*
Y130692D02*
Y131892D01*
Y133092D02*
Y134292D01*
Y136892D02*
Y138092D01*
Y139292D02*
Y140492D01*
Y143892D02*
Y145692D01*
Y150292D02*
Y151692D01*
Y154492D02*
Y155692D01*
Y160092D02*
Y161292D01*
X31165Y92292D02*
Y93692D01*
Y98892D02*
Y100092D01*
Y102492D02*
Y104092D01*
Y108892D02*
Y110292D01*
Y113092D02*
Y114292D01*
Y118892D02*
Y120292D01*
Y125892D02*
Y127092D01*
Y130692D02*
Y132092D01*
Y133092D02*
Y134292D01*
Y136892D02*
Y138092D01*
Y139292D02*
Y140492D01*
Y143892D02*
Y145492D01*
Y150292D02*
Y151692D01*
Y154492D02*
Y155692D01*
Y160092D02*
Y161492D01*
X31365Y92292D02*
Y93692D01*
Y98892D02*
Y100092D01*
Y102492D02*
Y103892D01*
Y108892D02*
Y110292D01*
Y113092D02*
Y114292D01*
Y118892D02*
Y120292D01*
Y125892D02*
Y127092D01*
Y130892D02*
Y132092D01*
Y133092D02*
Y134292D01*
Y136892D02*
Y138292D01*
Y139292D02*
Y140492D01*
Y143892D02*
Y145292D01*
Y150292D02*
Y151692D01*
Y154492D02*
Y155692D01*
Y160092D02*
Y161492D01*
X31565Y92292D02*
Y93692D01*
Y98892D02*
Y100092D01*
Y102292D02*
Y103692D01*
Y108892D02*
Y110292D01*
Y113092D02*
Y114292D01*
Y118892D02*
Y120292D01*
Y125892D02*
Y127092D01*
Y130892D02*
Y132092D01*
Y132892D02*
Y134092D01*
Y137092D02*
Y138292D01*
Y139092D02*
Y140492D01*
Y143692D02*
Y145092D01*
Y150292D02*
Y151692D01*
Y154492D02*
Y155692D01*
Y160092D02*
Y161492D01*
X31765Y92292D02*
Y93692D01*
Y98892D02*
Y100092D01*
Y102292D02*
Y103692D01*
Y108892D02*
Y110292D01*
Y113092D02*
Y114292D01*
Y118892D02*
Y120292D01*
Y125892D02*
Y127092D01*
Y130892D02*
Y132292D01*
Y132892D02*
Y134092D01*
Y137092D02*
Y138292D01*
Y139092D02*
Y140292D01*
Y143692D02*
Y145092D01*
Y150292D02*
Y151692D01*
Y154492D02*
Y155692D01*
Y160092D02*
Y161492D01*
X31965Y92292D02*
Y93692D01*
Y98892D02*
Y100092D01*
Y102292D02*
Y103692D01*
Y108892D02*
Y110292D01*
Y113092D02*
Y114292D01*
Y118892D02*
Y120292D01*
Y125892D02*
Y127092D01*
Y130892D02*
Y132292D01*
Y132892D02*
Y134092D01*
Y137092D02*
Y138492D01*
Y139092D02*
Y140292D01*
Y143692D02*
Y145092D01*
Y150292D02*
Y151692D01*
Y154492D02*
Y155692D01*
Y160292D02*
Y161692D01*
X32165Y92292D02*
Y93692D01*
Y98892D02*
Y100092D01*
Y102292D02*
Y103692D01*
Y108892D02*
Y110292D01*
Y113092D02*
Y114292D01*
Y119092D02*
Y120492D01*
Y125892D02*
Y127092D01*
Y131092D02*
Y132292D01*
Y132692D02*
Y133892D01*
Y137292D02*
Y138492D01*
Y138892D02*
Y140292D01*
Y143692D02*
Y145092D01*
Y150292D02*
Y151692D01*
Y154492D02*
Y155692D01*
Y160292D02*
Y161692D01*
X32365Y92292D02*
Y93692D01*
Y98892D02*
Y100092D01*
Y102292D02*
Y103692D01*
Y108892D02*
Y110292D01*
Y113092D02*
Y114292D01*
Y119092D02*
Y120492D01*
Y125692D02*
Y127092D01*
Y131092D02*
Y132292D01*
Y132692D02*
Y133892D01*
Y137292D02*
Y138492D01*
Y138892D02*
Y140092D01*
Y143692D02*
Y145092D01*
Y150292D02*
Y151692D01*
Y154492D02*
Y155692D01*
Y160292D02*
Y161892D01*
X32565Y92292D02*
Y93692D01*
Y98892D02*
Y100092D01*
Y102292D02*
Y103692D01*
Y108692D02*
Y110292D01*
Y113092D02*
Y114292D01*
Y119092D02*
Y120692D01*
Y125692D02*
Y127092D01*
Y131092D02*
Y132492D01*
Y132692D02*
Y133892D01*
Y137292D02*
Y138692D01*
Y138892D02*
Y140092D01*
Y143692D02*
Y145092D01*
Y150092D02*
Y151692D01*
Y154492D02*
Y155692D01*
Y160492D02*
Y161892D01*
X32765Y92292D02*
Y93692D01*
Y98892D02*
Y100092D01*
Y102292D02*
Y103692D01*
Y108492D02*
Y110292D01*
Y113092D02*
Y114292D01*
Y119292D02*
Y120692D01*
Y125492D02*
Y127092D01*
Y131292D02*
Y133892D01*
Y137492D02*
Y138692D01*
Y138892D02*
Y140092D01*
Y143692D02*
Y145092D01*
Y149892D02*
Y151692D01*
Y154492D02*
Y155692D01*
Y160492D02*
Y162092D01*
X32965Y92292D02*
Y93692D01*
Y98892D02*
Y100092D01*
Y102292D02*
Y103692D01*
Y108492D02*
Y110292D01*
Y113092D02*
Y114292D01*
Y119292D02*
Y120892D01*
Y125492D02*
Y127092D01*
Y131292D02*
Y133692D01*
Y137492D02*
Y139892D01*
Y143692D02*
Y145092D01*
Y149892D02*
Y151692D01*
Y154492D02*
Y155692D01*
Y160692D02*
Y162292D01*
Y167292D02*
Y167892D01*
X33165Y92292D02*
Y93692D01*
Y98892D02*
Y100092D01*
Y102292D02*
Y103892D01*
Y108292D02*
Y110292D01*
Y113092D02*
Y114292D01*
Y119492D02*
Y120892D01*
Y125292D02*
Y127092D01*
Y131292D02*
Y133692D01*
Y137492D02*
Y139892D01*
Y143692D02*
Y145292D01*
Y149692D02*
Y151692D01*
Y154492D02*
Y155692D01*
Y160692D02*
Y162492D01*
Y167092D02*
Y168092D01*
X33365Y92292D02*
Y93692D01*
Y98892D02*
Y100092D01*
Y102492D02*
Y104092D01*
Y107892D02*
Y110292D01*
Y113092D02*
Y114292D01*
Y119492D02*
Y121092D01*
Y125092D02*
Y127092D01*
Y131292D02*
Y133692D01*
Y137692D02*
Y139892D01*
Y143892D02*
Y145492D01*
Y149292D02*
Y151692D01*
Y154492D02*
Y155692D01*
Y160892D02*
Y162692D01*
Y166892D02*
Y168292D01*
X33565Y92292D02*
Y93692D01*
Y98892D02*
Y100092D01*
Y102492D02*
Y104292D01*
Y107692D02*
Y110292D01*
Y113092D02*
Y114292D01*
Y119692D02*
Y121292D01*
Y124892D02*
Y127092D01*
Y131492D02*
Y133492D01*
Y137692D02*
Y139892D01*
Y143892D02*
Y145692D01*
Y149092D02*
Y151692D01*
Y154492D02*
Y155692D01*
Y161092D02*
Y162892D01*
Y166692D02*
Y168292D01*
X33765Y92292D02*
Y93692D01*
Y98892D02*
Y100092D01*
Y102492D02*
Y104492D01*
Y107292D02*
Y110292D01*
Y113092D02*
Y114292D01*
Y119692D02*
Y121692D01*
Y124492D02*
Y127092D01*
Y131492D02*
Y133492D01*
Y137692D02*
Y139692D01*
Y143892D02*
Y145892D01*
Y148692D02*
Y151692D01*
Y154492D02*
Y155692D01*
Y161092D02*
Y163092D01*
Y166292D02*
Y168092D01*
X33965Y92292D02*
Y93692D01*
Y98892D02*
Y100092D01*
Y102692D02*
Y104892D01*
Y106892D02*
Y110292D01*
Y113092D02*
Y114292D01*
Y119892D02*
Y122092D01*
Y124092D02*
Y127092D01*
Y131492D02*
Y133492D01*
Y137892D02*
Y139692D01*
Y144092D02*
Y146292D01*
Y148292D02*
Y151692D01*
Y154492D02*
Y155692D01*
Y161292D02*
Y163492D01*
Y165892D02*
Y167892D01*
X34165Y92292D02*
Y93692D01*
Y98892D02*
Y100092D01*
Y102892D02*
Y108692D01*
Y108892D02*
Y110292D01*
Y113092D02*
Y114292D01*
Y120092D02*
Y125692D01*
Y125892D02*
Y127092D01*
Y131692D02*
Y133292D01*
Y137892D02*
Y139692D01*
Y144292D02*
Y150092D01*
Y150292D02*
Y151692D01*
Y154492D02*
Y155692D01*
Y161492D02*
Y164492D01*
Y164892D02*
Y167692D01*
X34365Y92292D02*
Y93692D01*
Y98892D02*
Y100092D01*
Y103092D02*
Y108492D01*
Y109092D02*
Y110492D01*
Y113092D02*
Y114292D01*
Y120292D02*
Y125492D01*
Y125892D02*
Y127092D01*
Y131692D02*
Y133292D01*
Y137892D02*
Y139492D01*
Y144492D02*
Y149892D01*
Y150492D02*
Y151892D01*
Y154492D02*
Y155692D01*
Y161692D02*
Y167492D01*
X34565Y92292D02*
Y93692D01*
Y98892D02*
Y100092D01*
Y103292D02*
Y108292D01*
Y109092D02*
Y110492D01*
Y113092D02*
Y114292D01*
Y120492D02*
Y125292D01*
Y125892D02*
Y127092D01*
Y131692D02*
Y133292D01*
Y138092D02*
Y139492D01*
Y144692D02*
Y149692D01*
Y150492D02*
Y151892D01*
Y154492D02*
Y155692D01*
Y162092D02*
Y167292D01*
X34765Y92292D02*
Y93692D01*
Y98892D02*
Y100092D01*
Y103492D02*
Y107892D01*
Y109092D02*
Y110492D01*
Y113092D02*
Y114292D01*
Y120692D02*
Y125092D01*
Y125892D02*
Y127092D01*
Y131692D02*
Y133092D01*
Y138092D02*
Y139492D01*
Y144892D02*
Y149292D01*
Y150492D02*
Y151892D01*
Y154492D02*
Y155692D01*
Y162292D02*
Y167092D01*
X34965Y92292D02*
Y93692D01*
Y98892D02*
Y100092D01*
Y103892D02*
Y107492D01*
Y109092D02*
Y110492D01*
Y113092D02*
Y114292D01*
Y121092D02*
Y124692D01*
Y125892D02*
Y127092D01*
Y131892D02*
Y133092D01*
Y138092D02*
Y139492D01*
Y145292D02*
Y148892D01*
Y150492D02*
Y151892D01*
Y154492D02*
Y155692D01*
Y162692D02*
Y166692D01*
X35165Y104292D02*
Y106892D01*
Y121492D02*
Y124092D01*
Y145692D02*
Y148292D01*
Y163292D02*
Y166092D01*
X36765Y112892D02*
Y114092D01*
X36965Y112892D02*
Y114092D01*
X37165Y112892D02*
Y114092D01*
X37365Y112892D02*
Y114092D01*
Y133892D02*
Y134692D01*
X37565Y112892D02*
Y114092D01*
Y133692D02*
Y135092D01*
X37765Y112892D02*
Y114092D01*
Y133492D02*
Y135092D01*
X37965Y112892D02*
Y114092D01*
Y133492D02*
Y135292D01*
X38165Y112892D02*
Y114092D01*
Y133492D02*
Y135292D01*
X38365Y112892D02*
Y114092D01*
Y133492D02*
Y135092D01*
X38565Y112892D02*
Y114092D01*
Y128092D02*
Y129292D01*
Y133492D02*
Y135092D01*
X38765Y112892D02*
Y114092D01*
Y128092D02*
Y129292D01*
Y133692D02*
Y135092D01*
X38965Y112892D02*
Y114092D01*
Y128092D02*
Y129292D01*
Y134092D02*
Y134692D01*
X39165Y112892D02*
Y114092D01*
Y128092D02*
Y129292D01*
X39365Y112892D02*
Y114092D01*
Y128092D02*
Y129292D01*
X39565Y112892D02*
Y114092D01*
Y128092D02*
Y129292D01*
X39765Y112892D02*
Y114092D01*
Y128092D02*
Y129292D01*
X39965Y112892D02*
Y114092D01*
Y128092D02*
Y129292D01*
X40165Y112892D02*
Y114092D01*
Y128092D02*
Y129292D01*
X40365Y112892D02*
Y114092D01*
Y128092D02*
Y129292D01*
X40565Y112892D02*
Y114092D01*
Y128092D02*
Y129292D01*
X40765Y112892D02*
Y114092D01*
Y128092D02*
Y129292D01*
X40965Y94292D02*
Y97292D01*
Y104492D02*
Y107492D01*
Y112892D02*
Y114092D01*
Y116892D02*
Y118292D01*
Y123492D02*
Y124692D01*
Y126092D02*
Y131492D01*
Y133692D02*
Y134892D01*
Y140292D02*
Y143292D01*
Y148492D02*
Y149692D01*
Y151692D02*
Y154292D01*
Y160892D02*
Y163892D01*
X41165Y93692D02*
Y97892D01*
Y104092D02*
Y107892D01*
Y112892D02*
Y114092D01*
Y116892D02*
Y118292D01*
Y123492D02*
Y124692D01*
Y126092D02*
Y131492D01*
Y133692D02*
Y134892D01*
Y139892D02*
Y143692D01*
Y148492D02*
Y149692D01*
Y151092D02*
Y154892D01*
Y160292D02*
Y164492D01*
X41365Y93492D02*
Y98292D01*
Y103692D02*
Y108292D01*
Y112892D02*
Y114092D01*
Y116892D02*
Y118292D01*
Y123492D02*
Y124692D01*
Y126092D02*
Y131492D01*
Y133692D02*
Y134892D01*
Y139492D02*
Y144092D01*
Y148492D02*
Y149692D01*
Y150892D02*
Y155092D01*
Y160092D02*
Y164892D01*
X41565Y93092D02*
Y98492D01*
Y103292D02*
Y108692D01*
Y112892D02*
Y114092D01*
Y116892D02*
Y118292D01*
Y123492D02*
Y124692D01*
Y126092D02*
Y131492D01*
Y133692D02*
Y134892D01*
Y139092D02*
Y144492D01*
Y148492D02*
Y149692D01*
Y150492D02*
Y155292D01*
Y159692D02*
Y165092D01*
X41765Y92892D02*
Y98892D01*
Y103092D02*
Y108892D01*
Y112892D02*
Y114092D01*
Y116892D02*
Y118292D01*
Y123492D02*
Y124692D01*
Y126092D02*
Y131492D01*
Y133692D02*
Y134892D01*
Y138892D02*
Y144692D01*
Y148492D02*
Y149692D01*
Y150292D02*
Y155492D01*
Y159492D02*
Y165492D01*
X41965Y92692D02*
Y95292D01*
Y96292D02*
Y98892D01*
Y102892D02*
Y105492D01*
Y106492D02*
Y109092D01*
Y112892D02*
Y114092D01*
Y116892D02*
Y118292D01*
Y123492D02*
Y124692D01*
Y126092D02*
Y131492D01*
Y133692D02*
Y134892D01*
Y138692D02*
Y141292D01*
Y142292D02*
Y144892D01*
Y148492D02*
Y149692D01*
Y150092D02*
Y152292D01*
Y153092D02*
Y155692D01*
Y159292D02*
Y161892D01*
Y162892D02*
Y165492D01*
X42165Y92492D02*
Y94492D01*
Y97092D02*
Y99092D01*
Y102692D02*
Y104892D01*
Y107092D02*
Y109292D01*
Y112892D02*
Y114092D01*
Y116892D02*
Y118292D01*
Y123492D02*
Y124692D01*
Y128092D02*
Y129292D01*
Y133692D02*
Y134892D01*
Y138492D02*
Y140692D01*
Y142892D02*
Y145092D01*
Y148492D02*
Y149692D01*
Y149892D02*
Y151692D01*
Y153892D02*
Y155892D01*
Y159092D02*
Y161092D01*
Y163692D02*
Y165692D01*
X42365Y92492D02*
Y94292D01*
Y97292D02*
Y99292D01*
Y102492D02*
Y104492D01*
Y107492D02*
Y109492D01*
Y112892D02*
Y114092D01*
Y116892D02*
Y118292D01*
Y123492D02*
Y124692D01*
Y128092D02*
Y129292D01*
Y133692D02*
Y134892D01*
Y138292D02*
Y140292D01*
Y143292D02*
Y145292D01*
Y148492D02*
Y151292D01*
Y154092D02*
Y155892D01*
Y159092D02*
Y160892D01*
Y163892D02*
Y165892D01*
X42565Y92292D02*
Y93892D01*
Y97692D02*
Y99292D01*
Y102292D02*
Y104092D01*
Y107892D02*
Y109692D01*
Y112892D02*
Y114092D01*
Y116892D02*
Y118292D01*
Y123492D02*
Y124692D01*
Y128092D02*
Y129292D01*
Y133692D02*
Y134892D01*
Y138092D02*
Y139892D01*
Y143692D02*
Y145492D01*
Y148492D02*
Y150892D01*
Y154292D02*
Y155892D01*
Y158892D02*
Y160492D01*
Y164292D02*
Y165892D01*
X42765Y92292D02*
Y93692D01*
Y97892D02*
Y99492D01*
Y102292D02*
Y103892D01*
Y108092D02*
Y109692D01*
Y112892D02*
Y114092D01*
Y116892D02*
Y118292D01*
Y123492D02*
Y124692D01*
Y128092D02*
Y129292D01*
Y133692D02*
Y134892D01*
Y138092D02*
Y139692D01*
Y143892D02*
Y145492D01*
Y148492D02*
Y150692D01*
Y154492D02*
Y156092D01*
Y158892D02*
Y160292D01*
Y164492D02*
Y166092D01*
X42965Y92292D02*
Y93692D01*
Y98092D02*
Y99492D01*
Y102092D02*
Y103692D01*
Y108292D02*
Y109892D01*
Y112892D02*
Y114092D01*
Y116892D02*
Y118292D01*
Y123492D02*
Y124692D01*
Y128092D02*
Y129292D01*
Y133692D02*
Y134892D01*
Y137892D02*
Y139492D01*
Y144092D02*
Y145692D01*
Y148492D02*
Y150492D01*
Y154692D02*
Y156092D01*
Y158892D02*
Y160292D01*
Y164692D02*
Y166092D01*
X43165Y92092D02*
Y93492D01*
Y98092D02*
Y99492D01*
Y101892D02*
Y103492D01*
Y108292D02*
Y109892D01*
Y112892D02*
Y114092D01*
Y116892D02*
Y118292D01*
Y123492D02*
Y124692D01*
Y128092D02*
Y129292D01*
Y133692D02*
Y134892D01*
Y137692D02*
Y139292D01*
Y144092D02*
Y145692D01*
Y148492D02*
Y150492D01*
Y154692D02*
Y156092D01*
Y158692D02*
Y160092D01*
Y164692D02*
Y166092D01*
X43365Y92092D02*
Y93492D01*
Y98292D02*
Y99692D01*
Y101892D02*
Y103492D01*
Y108492D02*
Y110092D01*
Y112892D02*
Y114092D01*
Y116892D02*
Y118292D01*
Y123492D02*
Y124692D01*
Y128092D02*
Y129292D01*
Y133692D02*
Y134892D01*
Y137692D02*
Y139292D01*
Y144292D02*
Y145892D01*
Y148492D02*
Y150292D01*
Y154692D02*
Y156092D01*
Y158692D02*
Y160092D01*
Y164892D02*
Y166292D01*
X43565Y92092D02*
Y93492D01*
Y98292D02*
Y99692D01*
Y101892D02*
Y103292D01*
Y108692D02*
Y110092D01*
Y112892D02*
Y114092D01*
Y116892D02*
Y118292D01*
Y123492D02*
Y124692D01*
Y128092D02*
Y129292D01*
Y133692D02*
Y134892D01*
Y137692D02*
Y139092D01*
Y144492D02*
Y145892D01*
Y148492D02*
Y150092D01*
Y154892D02*
Y156292D01*
Y158692D02*
Y160092D01*
Y164892D02*
Y166292D01*
X43765Y92092D02*
Y93492D01*
Y98292D02*
Y99692D01*
Y101692D02*
Y103292D01*
Y108692D02*
Y110292D01*
Y112892D02*
Y114092D01*
Y116892D02*
Y118292D01*
Y123492D02*
Y124692D01*
Y128092D02*
Y129292D01*
Y133692D02*
Y134892D01*
Y137492D02*
Y139092D01*
Y144492D02*
Y146092D01*
Y148492D02*
Y150092D01*
Y154892D02*
Y156292D01*
Y158692D02*
Y160092D01*
Y164892D02*
Y166292D01*
X43965Y92092D02*
Y93492D01*
Y98292D02*
Y99692D01*
Y101692D02*
Y103092D01*
Y108892D02*
Y110292D01*
Y112892D02*
Y114092D01*
Y116892D02*
Y118292D01*
Y123492D02*
Y124692D01*
Y128092D02*
Y129292D01*
Y133692D02*
Y134892D01*
Y137492D02*
Y138892D01*
Y144692D02*
Y146092D01*
Y148492D02*
Y149892D01*
Y154892D02*
Y156292D01*
Y158692D02*
Y160092D01*
Y164892D02*
Y166292D01*
X44165Y92292D02*
Y93692D01*
Y101492D02*
Y103092D01*
Y108892D02*
Y110292D01*
Y112892D02*
Y114092D01*
Y116892D02*
Y118292D01*
Y123492D02*
Y124692D01*
Y128092D02*
Y129292D01*
Y133692D02*
Y134892D01*
Y137492D02*
Y138892D01*
Y144692D02*
Y146092D01*
Y148492D02*
Y149892D01*
Y154892D02*
Y156292D01*
Y158892D02*
Y160292D01*
X44365Y92292D02*
Y93692D01*
Y101492D02*
Y102892D01*
Y109092D02*
Y110492D01*
Y112892D02*
Y114092D01*
Y116892D02*
Y118292D01*
Y123492D02*
Y124692D01*
Y128092D02*
Y129292D01*
Y133692D02*
Y134892D01*
Y137292D02*
Y138692D01*
Y144892D02*
Y146292D01*
Y148492D02*
Y149692D01*
Y154892D02*
Y156292D01*
Y158892D02*
Y160292D01*
X44565Y92292D02*
Y93892D01*
Y101492D02*
Y102892D01*
Y109092D02*
Y110492D01*
Y112892D02*
Y114092D01*
Y116892D02*
Y118292D01*
Y123492D02*
Y124692D01*
Y128092D02*
Y129292D01*
Y133692D02*
Y134892D01*
Y137292D02*
Y138692D01*
Y144892D02*
Y146292D01*
Y148492D02*
Y149692D01*
Y154892D02*
Y156292D01*
Y158892D02*
Y160492D01*
X44765Y92292D02*
Y94292D01*
Y101492D02*
Y102892D01*
Y109092D02*
Y110492D01*
Y112892D02*
Y114092D01*
Y116892D02*
Y118292D01*
Y123492D02*
Y124692D01*
Y128092D02*
Y129292D01*
Y133692D02*
Y134892D01*
Y137292D02*
Y138692D01*
Y144892D02*
Y146292D01*
Y148492D02*
Y149692D01*
Y154892D02*
Y156292D01*
Y158892D02*
Y160892D01*
X44965Y92492D02*
Y94692D01*
Y101492D02*
Y102892D01*
Y109092D02*
Y110492D01*
Y112892D02*
Y114092D01*
Y116892D02*
Y118292D01*
Y123492D02*
Y124692D01*
Y128092D02*
Y129292D01*
Y133692D02*
Y134892D01*
Y137292D02*
Y138692D01*
Y144892D02*
Y146292D01*
Y148492D02*
Y149692D01*
Y154892D02*
Y156292D01*
Y159092D02*
Y161292D01*
X45165Y92692D02*
Y95092D01*
Y101492D02*
Y102692D01*
Y109292D02*
Y110492D01*
Y112892D02*
Y114092D01*
Y116892D02*
Y118292D01*
Y123492D02*
Y124692D01*
Y128092D02*
Y129292D01*
Y133692D02*
Y134892D01*
Y137292D02*
Y138492D01*
Y145092D02*
Y146292D01*
Y148492D02*
Y149692D01*
Y154892D02*
Y156292D01*
Y159292D02*
Y161692D01*
X45365Y92892D02*
Y95892D01*
Y101492D02*
Y102692D01*
Y109292D02*
Y110492D01*
Y112892D02*
Y114092D01*
Y116892D02*
Y118292D01*
Y123492D02*
Y124692D01*
Y128092D02*
Y129292D01*
Y133692D02*
Y134892D01*
Y137292D02*
Y138492D01*
Y145092D02*
Y146292D01*
Y148492D02*
Y149692D01*
Y154892D02*
Y156292D01*
Y159492D02*
Y162492D01*
X45565Y93092D02*
Y96692D01*
Y101292D02*
Y102692D01*
Y109292D02*
Y110492D01*
Y112892D02*
Y114092D01*
Y116892D02*
Y118292D01*
Y123492D02*
Y124692D01*
Y128092D02*
Y129292D01*
Y133692D02*
Y134892D01*
Y137092D02*
Y138492D01*
Y145092D02*
Y146292D01*
Y148492D02*
Y149692D01*
Y154892D02*
Y156292D01*
Y159692D02*
Y163292D01*
X45765Y93292D02*
Y97292D01*
Y101292D02*
Y102692D01*
Y109292D02*
Y110492D01*
Y112892D02*
Y114092D01*
Y116892D02*
Y118292D01*
Y123492D02*
Y124692D01*
Y128092D02*
Y129292D01*
Y133692D02*
Y134892D01*
Y137092D02*
Y138492D01*
Y145092D02*
Y146292D01*
Y148492D02*
Y149692D01*
Y154892D02*
Y156292D01*
Y159892D02*
Y163892D01*
X45965Y93692D02*
Y97892D01*
Y101292D02*
Y102692D01*
Y109292D02*
Y110492D01*
Y112892D02*
Y114092D01*
Y116892D02*
Y118292D01*
Y123492D02*
Y124692D01*
Y128092D02*
Y129292D01*
Y133692D02*
Y134892D01*
Y137092D02*
Y138492D01*
Y145092D02*
Y146292D01*
Y148492D02*
Y149692D01*
Y154892D02*
Y156292D01*
Y160292D02*
Y164492D01*
X46165Y94292D02*
Y98292D01*
Y101292D02*
Y102692D01*
Y109292D02*
Y110492D01*
Y112892D02*
Y114092D01*
Y116892D02*
Y118292D01*
Y123492D02*
Y124692D01*
Y128092D02*
Y129292D01*
Y133692D02*
Y134892D01*
Y137092D02*
Y138492D01*
Y145092D02*
Y146292D01*
Y148492D02*
Y149692D01*
Y154892D02*
Y156292D01*
Y160892D02*
Y164892D01*
X46365Y94892D02*
Y98692D01*
Y101292D02*
Y102692D01*
Y109292D02*
Y110492D01*
Y112892D02*
Y114092D01*
Y116892D02*
Y118292D01*
Y123492D02*
Y124692D01*
Y128092D02*
Y129292D01*
Y133692D02*
Y134892D01*
Y137092D02*
Y138492D01*
Y145092D02*
Y146292D01*
Y148492D02*
Y149692D01*
Y154892D02*
Y156292D01*
Y161492D02*
Y165292D01*
X46565Y95692D02*
Y98892D01*
Y101292D02*
Y102692D01*
Y109292D02*
Y110492D01*
Y112892D02*
Y114092D01*
Y116892D02*
Y118292D01*
Y123492D02*
Y124692D01*
Y128092D02*
Y129292D01*
Y133692D02*
Y134892D01*
Y137092D02*
Y138492D01*
Y145092D02*
Y146292D01*
Y148492D02*
Y149692D01*
Y154892D02*
Y156292D01*
Y162292D02*
Y165492D01*
X46765Y96492D02*
Y99092D01*
Y101492D02*
Y102692D01*
Y109292D02*
Y110492D01*
Y112892D02*
Y114092D01*
Y116892D02*
Y118292D01*
Y123492D02*
Y124692D01*
Y128092D02*
Y129292D01*
Y133692D02*
Y134892D01*
Y137292D02*
Y138492D01*
Y145092D02*
Y146292D01*
Y148492D02*
Y149692D01*
Y154892D02*
Y156292D01*
Y163092D02*
Y165692D01*
X46965Y97092D02*
Y99292D01*
Y101492D02*
Y102692D01*
Y109292D02*
Y110492D01*
Y112892D02*
Y114092D01*
Y116892D02*
Y118292D01*
Y123492D02*
Y124692D01*
Y128092D02*
Y129292D01*
Y133692D02*
Y134892D01*
Y137292D02*
Y138492D01*
Y145092D02*
Y146292D01*
Y148492D02*
Y149692D01*
Y154892D02*
Y156292D01*
Y163692D02*
Y165892D01*
X47165Y97492D02*
Y99292D01*
Y101492D02*
Y102692D01*
Y109092D02*
Y110492D01*
Y112892D02*
Y114092D01*
Y116892D02*
Y118292D01*
Y123492D02*
Y124692D01*
Y128092D02*
Y129292D01*
Y133692D02*
Y134892D01*
Y137292D02*
Y138492D01*
Y144892D02*
Y146292D01*
Y148492D02*
Y149692D01*
Y154892D02*
Y156292D01*
Y164092D02*
Y165892D01*
X47365Y97692D02*
Y99492D01*
Y101492D02*
Y102892D01*
Y109092D02*
Y110492D01*
Y112892D02*
Y114092D01*
Y116892D02*
Y118292D01*
Y123492D02*
Y124692D01*
Y128092D02*
Y129292D01*
Y133692D02*
Y134892D01*
Y137292D02*
Y138692D01*
Y144892D02*
Y146292D01*
Y148492D02*
Y149692D01*
Y154892D02*
Y156292D01*
Y164292D02*
Y166092D01*
X47565Y97892D02*
Y99492D01*
Y101492D02*
Y102892D01*
Y109092D02*
Y110492D01*
Y112892D02*
Y114092D01*
Y116892D02*
Y118292D01*
Y123492D02*
Y124692D01*
Y128092D02*
Y129292D01*
Y133692D02*
Y134892D01*
Y137292D02*
Y138692D01*
Y144892D02*
Y146292D01*
Y148492D02*
Y149692D01*
Y154892D02*
Y156292D01*
Y164492D02*
Y166092D01*
X47765Y98092D02*
Y99692D01*
Y101492D02*
Y102892D01*
Y109092D02*
Y110492D01*
Y112892D02*
Y114092D01*
Y116892D02*
Y118292D01*
Y123492D02*
Y124692D01*
Y128092D02*
Y129292D01*
Y133692D02*
Y134892D01*
Y137292D02*
Y138692D01*
Y144892D02*
Y146292D01*
Y148492D02*
Y149692D01*
Y154892D02*
Y156292D01*
Y164692D02*
Y166292D01*
X47965Y98292D02*
Y99692D01*
Y101492D02*
Y102892D01*
Y108892D02*
Y110292D01*
Y112892D02*
Y114092D01*
Y116892D02*
Y118292D01*
Y123492D02*
Y124692D01*
Y128092D02*
Y129292D01*
Y133692D02*
Y134892D01*
Y137292D02*
Y138892D01*
Y144692D02*
Y146092D01*
Y148492D02*
Y149692D01*
Y154892D02*
Y156292D01*
Y164892D02*
Y166292D01*
X48165Y98292D02*
Y99692D01*
Y101692D02*
Y103092D01*
Y108892D02*
Y110292D01*
Y112892D02*
Y114092D01*
Y116892D02*
Y118292D01*
Y123492D02*
Y124692D01*
Y128092D02*
Y129292D01*
Y133692D02*
Y134892D01*
Y137492D02*
Y138892D01*
Y144692D02*
Y146092D01*
Y148492D02*
Y149692D01*
Y154892D02*
Y156292D01*
Y164892D02*
Y166292D01*
X48365Y91892D02*
Y93092D01*
Y98292D02*
Y99692D01*
Y101692D02*
Y103092D01*
Y108892D02*
Y110292D01*
Y112892D02*
Y114092D01*
Y116892D02*
Y118292D01*
Y123292D02*
Y124692D01*
Y128092D02*
Y129292D01*
Y133692D02*
Y134892D01*
Y137492D02*
Y138892D01*
Y144692D02*
Y146092D01*
Y148492D02*
Y149692D01*
Y154892D02*
Y156292D01*
Y158492D02*
Y159692D01*
Y164892D02*
Y166292D01*
X48565Y91892D02*
Y93292D01*
Y98292D02*
Y99692D01*
Y101692D02*
Y103292D01*
Y108692D02*
Y110092D01*
Y112892D02*
Y114092D01*
Y116892D02*
Y118292D01*
Y123292D02*
Y124692D01*
Y128092D02*
Y129292D01*
Y133692D02*
Y134892D01*
Y137492D02*
Y139092D01*
Y144492D02*
Y145892D01*
Y148492D02*
Y149692D01*
Y154892D02*
Y156292D01*
Y158492D02*
Y159892D01*
Y164892D02*
Y166292D01*
X48765Y91892D02*
Y93292D01*
Y98292D02*
Y99692D01*
Y101892D02*
Y103292D01*
Y108492D02*
Y110092D01*
Y112892D02*
Y114092D01*
Y116892D02*
Y118492D01*
Y123092D02*
Y124692D01*
Y128092D02*
Y129292D01*
Y133692D02*
Y134892D01*
Y137692D02*
Y139092D01*
Y144292D02*
Y145892D01*
Y148492D02*
Y149692D01*
Y154892D02*
Y156292D01*
Y158492D02*
Y159892D01*
Y164892D02*
Y166292D01*
X48965Y91892D02*
Y93292D01*
Y98292D02*
Y99692D01*
Y101892D02*
Y103492D01*
Y108492D02*
Y110092D01*
Y112892D02*
Y114092D01*
Y117092D02*
Y118492D01*
Y123092D02*
Y124692D01*
Y128092D02*
Y129292D01*
Y133692D02*
Y134892D01*
Y137692D02*
Y139292D01*
Y144292D02*
Y145892D01*
Y148492D02*
Y149692D01*
Y154892D02*
Y156292D01*
Y158492D02*
Y159892D01*
Y164892D02*
Y166292D01*
X49165Y91892D02*
Y93492D01*
Y98292D02*
Y99692D01*
Y102092D02*
Y103692D01*
Y108292D02*
Y109892D01*
Y112892D02*
Y114092D01*
Y117092D02*
Y118492D01*
Y122892D02*
Y124692D01*
Y128092D02*
Y129292D01*
Y133692D02*
Y134892D01*
Y137892D02*
Y139492D01*
Y144092D02*
Y145692D01*
Y148492D02*
Y149692D01*
Y154892D02*
Y156292D01*
Y158492D02*
Y160092D01*
Y164892D02*
Y166292D01*
X49365Y92092D02*
Y93492D01*
Y98092D02*
Y99492D01*
Y102092D02*
Y103892D01*
Y108092D02*
Y109892D01*
Y112892D02*
Y114092D01*
Y117092D02*
Y118692D01*
Y122692D02*
Y124692D01*
Y128092D02*
Y129492D01*
Y133692D02*
Y134892D01*
Y137892D02*
Y139692D01*
Y143892D02*
Y145692D01*
Y148492D02*
Y149692D01*
Y154892D02*
Y156292D01*
Y158692D02*
Y160092D01*
Y164692D02*
Y166092D01*
X49565Y92092D02*
Y93692D01*
Y97892D02*
Y99492D01*
Y102292D02*
Y104092D01*
Y107892D02*
Y109692D01*
Y112892D02*
Y114092D01*
Y117292D02*
Y118892D01*
Y122492D02*
Y124692D01*
Y128092D02*
Y129492D01*
Y133692D02*
Y134892D01*
Y138092D02*
Y139892D01*
Y143692D02*
Y145492D01*
Y148492D02*
Y149692D01*
Y154892D02*
Y156292D01*
Y158692D02*
Y160292D01*
Y164492D02*
Y166092D01*
X49765Y92292D02*
Y94092D01*
Y97692D02*
Y99492D01*
Y102492D02*
Y104292D01*
Y107692D02*
Y109492D01*
Y112892D02*
Y114092D01*
Y117292D02*
Y119092D01*
Y122292D02*
Y124692D01*
Y128092D02*
Y129492D01*
Y133692D02*
Y134892D01*
Y138292D02*
Y140092D01*
Y143492D02*
Y145292D01*
Y148492D02*
Y149692D01*
Y154892D02*
Y156292D01*
Y158892D02*
Y160692D01*
Y164292D02*
Y166092D01*
X49965Y92292D02*
Y94292D01*
Y97292D02*
Y99292D01*
Y102692D02*
Y104692D01*
Y107292D02*
Y109292D01*
Y112892D02*
Y114092D01*
Y117492D02*
Y119292D01*
Y121892D02*
Y124692D01*
Y128092D02*
Y129692D01*
Y133692D02*
Y134892D01*
Y138492D02*
Y140492D01*
Y143092D02*
Y145092D01*
Y148492D02*
Y149692D01*
Y154892D02*
Y156292D01*
Y158892D02*
Y160892D01*
Y163892D02*
Y165892D01*
X50165Y92492D02*
Y94892D01*
Y96692D02*
Y99092D01*
Y102692D02*
Y105292D01*
Y106692D02*
Y109092D01*
Y112892D02*
Y114092D01*
Y117492D02*
Y119892D01*
Y121292D02*
Y124692D01*
Y128292D02*
Y130092D01*
Y131292D02*
Y131492D01*
Y133692D02*
Y134892D01*
Y138492D02*
Y141092D01*
Y142492D02*
Y144892D01*
Y148492D02*
Y149692D01*
Y154892D02*
Y156292D01*
Y159092D02*
Y161492D01*
Y163292D02*
Y165692D01*
X50365Y92692D02*
Y98892D01*
Y102892D02*
Y108892D01*
Y112892D02*
Y114092D01*
Y117692D02*
Y123292D01*
Y123492D02*
Y124692D01*
Y128292D02*
Y131492D01*
Y133692D02*
Y134892D01*
Y138892D02*
Y144692D01*
Y148492D02*
Y149692D01*
Y154892D02*
Y156292D01*
Y159292D02*
Y165492D01*
X50565Y92892D02*
Y98692D01*
Y103292D02*
Y108692D01*
Y112892D02*
Y114092D01*
Y117892D02*
Y123092D01*
Y123492D02*
Y124692D01*
Y128492D02*
Y131492D01*
Y133692D02*
Y134892D01*
Y139092D02*
Y144492D01*
Y148492D02*
Y149692D01*
Y154892D02*
Y156292D01*
Y159492D02*
Y165292D01*
X50765Y93292D02*
Y98492D01*
Y103492D02*
Y108492D01*
Y112892D02*
Y114092D01*
Y118092D02*
Y122892D01*
Y123492D02*
Y124692D01*
Y128492D02*
Y131492D01*
Y133692D02*
Y134892D01*
Y139292D02*
Y144292D01*
Y148492D02*
Y149692D01*
Y154892D02*
Y156292D01*
Y159892D02*
Y165092D01*
X50965Y93492D02*
Y98092D01*
Y103892D02*
Y108092D01*
Y112892D02*
Y114092D01*
Y118292D02*
Y122492D01*
Y123492D02*
Y124692D01*
Y128692D02*
Y131692D01*
Y133692D02*
Y134892D01*
Y139692D02*
Y143892D01*
Y148492D02*
Y149692D01*
Y154892D02*
Y156292D01*
Y160092D02*
Y164692D01*
X51165Y94092D02*
Y97692D01*
Y104292D02*
Y107692D01*
Y112892D02*
Y114092D01*
Y118692D02*
Y122092D01*
Y123492D02*
Y124692D01*
Y129092D02*
Y131692D01*
Y133692D02*
Y134892D01*
Y140092D02*
Y143492D01*
Y148492D02*
Y149692D01*
Y154892D02*
Y156292D01*
Y160692D02*
Y164292D01*
X51365Y94892D02*
Y96692D01*
Y105092D02*
Y106692D01*
Y119492D02*
Y121092D01*
Y129692D02*
Y131092D01*
Y140892D02*
Y142492D01*
Y161492D02*
Y163292D01*
D16*
X108444Y64391D02*
X108542D01*
X101772Y71063D02*
X108444Y64391D01*
X119369Y74803D02*
X119390D01*
X116318Y71773D02*
X116339D01*
X119369Y74803D01*
X100807Y80465D02*
X122217Y59055D01*
X120076Y63980D02*
X123609Y60447D01*
X120076Y63980D02*
Y67180D01*
X85807Y92681D02*
X120825Y57663D01*
X109350Y50591D02*
X116227D01*
X115833Y53401D02*
X123548Y45686D01*
X113189Y53661D02*
X113450Y53401D01*
X115833D01*
X116227Y50591D02*
X121466Y45351D01*
X119433Y56263D02*
X122736Y52960D01*
Y52953D02*
Y52960D01*
X119433Y56263D02*
Y56271D01*
X134873Y29811D02*
X134929D01*
X136713Y31594D01*
X136713D01*
X133353Y28432D02*
X133494D01*
X134873Y29811D01*
X149928Y25635D02*
X151306Y24256D01*
X148130Y27362D02*
X149857Y25635D01*
X148130Y27362D02*
X148130D01*
X151306Y24256D02*
X151448D01*
X149857Y25635D02*
X149928D01*
X187334Y47866D02*
X191127Y44072D01*
X160287Y74913D02*
X187334Y47866D01*
X189447Y50021D02*
Y50021D01*
X187334Y47908D02*
X189447Y50021D01*
X187334Y47866D02*
Y47908D01*
X191127Y32987D02*
Y44072D01*
X156982Y74093D02*
X157802Y74913D01*
X189127Y33815D02*
Y43244D01*
X159459Y72913D02*
X189127Y43244D01*
X158630Y72913D02*
X159459D01*
X157802Y74913D02*
X160287D01*
X157810Y72093D02*
X158630Y72913D01*
X146039Y-20012D02*
Y-12101D01*
X180912Y22772D02*
X191127Y32987D01*
X21957Y176075D02*
X25295Y172736D01*
X59744D02*
X63646Y168835D01*
X25295Y172736D02*
X59744D01*
X63646Y96295D02*
Y168835D01*
X28346Y174571D02*
X60326D01*
X65354Y169542D01*
Y101496D02*
Y169542D01*
Y101496D02*
X106358Y60492D01*
X63646Y96295D02*
X102903Y57037D01*
X21457Y181890D02*
X21957Y181390D01*
Y176075D02*
Y181390D01*
X27165Y175752D02*
Y181890D01*
Y175752D02*
X28346Y174571D01*
X46965Y189344D02*
X48983Y191362D01*
X44965Y190173D02*
X48154Y193362D01*
X56726Y191362D02*
X61433Y186655D01*
X48983Y191362D02*
X56726D01*
X46965Y186905D02*
Y189344D01*
X63433Y186226D02*
X68383Y181276D01*
X63433Y186226D02*
Y187483D01*
X57555Y193362D02*
X63433Y187483D01*
X61433Y185397D02*
X67555Y179276D01*
X121466Y44523D02*
Y45351D01*
X119433Y42491D02*
X121466Y44523D01*
X107501Y41852D02*
X116008D01*
X119433Y42351D02*
Y42491D01*
X123548Y43682D02*
Y45686D01*
X120825Y40959D02*
X123548Y43682D01*
X116008Y41852D02*
X117900Y43743D01*
X125882Y66667D02*
Y81217D01*
Y66667D02*
X127785Y64764D01*
X117913Y-46850D02*
Y-21850D01*
X143701Y3937D01*
X134234Y22518D02*
X143563Y13189D01*
X143602D01*
X144039Y-13681D02*
Y-11273D01*
X180912Y22772D02*
X180912D01*
X146039Y-12101D02*
X180912Y22772D01*
X180084Y24772D02*
X180084D01*
X144039Y-11273D02*
X180084Y24772D01*
X180084D02*
X189127Y33815D01*
X144039Y-20012D02*
Y-13681D01*
X178445Y39764D02*
Y40846D01*
X182087Y44488D01*
X147938Y105689D02*
X181280D01*
X150769Y98854D02*
X213311D01*
X149353Y102272D02*
X219960D01*
X150061Y100563D02*
X221035D01*
X148645Y103980D02*
X196992D01*
X151476Y97146D02*
X211811D01*
X138091Y83760D02*
X151476Y97146D01*
X125882Y81217D02*
X148645Y103980D01*
X124174Y81925D02*
X147938Y105689D01*
X132842Y83344D02*
X150061Y100563D01*
X136198Y84284D02*
X150769Y98854D01*
X131021Y83939D02*
X149353Y102272D01*
X142520Y73721D02*
Y75394D01*
X132613Y65504D02*
X134303D01*
X142520Y73721D01*
X138091Y79823D02*
X142520Y75394D01*
X138091Y79823D02*
Y83760D01*
X132842Y73626D02*
Y83344D01*
X136198Y78480D02*
Y84284D01*
X124174Y65591D02*
Y81925D01*
X213311Y98854D02*
X258130Y54035D01*
X131021Y72522D02*
Y83939D01*
X221035Y100563D02*
X267807Y147335D01*
X219960Y102272D02*
X262098Y144410D01*
X134745Y71582D02*
Y71724D01*
X196992Y103980D02*
X200807Y107795D01*
X136198Y78480D02*
X138920Y75758D01*
X181280Y105689D02*
X185807Y110216D01*
X132842Y73626D02*
X134745Y71724D01*
X211811Y97146D02*
X252291Y56665D01*
X268307Y187205D02*
Y192126D01*
X130569Y67406D02*
X130710D01*
X132613Y65504D01*
X252291Y53989D02*
Y56665D01*
Y53989D02*
X256406Y49874D01*
X263968D01*
X268130Y54035D01*
X267807Y180799D02*
X268307Y181299D01*
X267807Y147335D02*
Y180799D01*
X262098D02*
X262598Y181299D01*
X262098Y144410D02*
Y180799D01*
X200807Y107795D02*
Y126575D01*
X185807Y110216D02*
Y126575D01*
X131021Y72522D02*
X133353Y70190D01*
X100807Y80465D02*
Y126575D01*
X134234Y23604D02*
X136137Y25507D01*
X134234Y22518D02*
Y23604D01*
X132525Y24679D02*
X134745Y26899D01*
X132525Y21810D02*
X133289Y21047D01*
Y16360D02*
Y21047D01*
X136137Y25507D02*
Y25648D01*
X132525Y21810D02*
Y24679D01*
X91295Y186221D02*
Y191019D01*
Y176238D02*
Y186221D01*
X91394Y186319D02*
X95965D01*
X91295Y186221D02*
X91394Y186319D01*
X88124Y191362D02*
X89295Y190191D01*
X80380Y191362D02*
X88124D01*
X89295Y177067D02*
Y190191D01*
X84252Y213878D02*
X94980Y224606D01*
X101476D01*
Y194606D02*
X101870Y194213D01*
Y186319D02*
Y194213D01*
X72119Y186319D02*
X75776D01*
X70472D02*
X72119D01*
X76362Y182905D02*
Y183733D01*
X72119Y186319D02*
X74120Y184319D01*
X75776D01*
X68383Y181276D02*
X74733D01*
X75776Y184319D02*
X76362Y183733D01*
X74733Y181276D02*
X76362Y182905D01*
X46965Y186905D02*
X47550Y186319D01*
X44965Y186905D02*
Y190173D01*
X44379Y186319D02*
X44965Y186905D01*
X39075Y186319D02*
X44379D01*
X47550D02*
X52854D01*
X48154Y193362D02*
X57555D01*
X67555Y179276D02*
X75561D01*
X61433Y185397D02*
Y186655D01*
X78948Y184319D02*
X82252D01*
X78362Y183733D02*
X78948Y184319D01*
X78362Y182076D02*
Y183733D01*
X75561Y179276D02*
X78362Y182076D01*
X82252Y184319D02*
X84252Y186319D01*
X94991Y156173D02*
X96156D01*
X97155Y155173D01*
X78362Y189344D02*
X80380Y191362D01*
X75776Y186319D02*
X76362Y186905D01*
Y190173D01*
X79552Y193362D01*
X88952D01*
X88697Y176468D02*
X89295Y177067D01*
X88952Y193362D02*
X91295Y191019D01*
X88697Y161344D02*
X92405Y157635D01*
X90697Y175640D02*
X91295Y176238D01*
X92405Y156759D02*
Y157635D01*
X90697Y162173D02*
Y175640D01*
X91820Y156173D02*
X92405Y156759D01*
X90697Y162173D02*
X94406Y158464D01*
X89656Y155173D02*
X90655Y156173D01*
X94406Y156759D02*
X94991Y156173D01*
X78948Y186319D02*
X84252D01*
X78362Y186905D02*
X78948Y186319D01*
X90655Y156173D02*
X91820D01*
X94406Y156759D02*
Y158464D01*
X78362Y186905D02*
Y189344D01*
X88697Y161344D02*
Y176468D01*
X94406Y153587D02*
X94991Y154173D01*
X94406Y151800D02*
Y153587D01*
X94307Y150873D02*
X95807Y149373D01*
X94307Y150873D02*
Y151702D01*
X96156Y154173D02*
X97155Y155173D01*
X92307Y150873D02*
Y152530D01*
X91820Y154173D02*
X92405Y153587D01*
X90655Y154173D02*
X91820D01*
X94307Y151702D02*
X94406Y151800D01*
X94991Y154173D02*
X96156D01*
X95807Y145866D02*
Y149373D01*
X92307Y152530D02*
X92405Y152628D01*
X90807Y145866D02*
Y149373D01*
X92307Y150873D01*
X92405Y152628D02*
Y153587D01*
X89656Y155173D02*
X90655Y154173D01*
X195807Y115413D02*
Y126575D01*
X184996Y144587D02*
X185807Y145398D01*
X178445Y144587D02*
X184996D01*
X185807Y145398D02*
Y145866D01*
X193898Y186024D02*
Y201673D01*
X205512Y213287D01*
X187992Y194311D02*
X188287Y194606D01*
X187992Y186024D02*
Y194311D01*
X188287Y224606D02*
X207972D01*
X219291Y213287D01*
X214591Y178685D02*
X223991D01*
X230113Y184807D02*
Y186064D01*
X209239Y190772D02*
X211402Y188609D01*
Y187385D02*
Y188609D01*
X228113Y185635D02*
Y186893D01*
X242799Y186314D02*
Y187143D01*
X239170Y190772D02*
X242799Y187143D01*
X213987Y187243D02*
X217777D01*
X203423Y190772D02*
X209239D01*
X206322Y186539D02*
X210555D01*
X205997Y185243D02*
X210816D01*
X202594Y192772D02*
X210067D01*
X233992D02*
X239999D01*
X244799Y186314D02*
Y187971D01*
X210816Y185243D02*
X211402Y184657D01*
X223991Y178685D02*
X230113Y184807D01*
X196689Y186867D02*
X202594Y192772D01*
X211402Y181875D02*
X214591Y178685D01*
X239999Y192772D02*
X244799Y187971D01*
X230113Y186064D02*
X234820Y190772D01*
X213402Y187829D02*
X213987Y187243D01*
X223163Y180685D02*
X228113Y185635D01*
X242213Y185728D02*
X242799Y186314D01*
X210067Y192772D02*
X213402Y189437D01*
X217777Y187243D02*
X219291Y185728D01*
X213987Y185243D02*
X218806D01*
X244799Y186314D02*
X245385Y185728D01*
X211402Y181875D02*
Y184657D01*
X213402Y187829D02*
Y189437D01*
X218806Y185243D02*
X219291Y185728D01*
X228113Y186893D02*
X233992Y192772D01*
X245385Y185728D02*
X250689D01*
X213402Y182703D02*
Y184657D01*
X210555Y186539D02*
X211402Y187385D01*
X215420Y180685D02*
X223163D01*
X198689Y186038D02*
X203423Y190772D01*
X205512Y185728D02*
X205997Y185243D01*
X234820Y190772D02*
X239170D01*
X236910Y185728D02*
X242213D01*
X213402Y184657D02*
X213987Y185243D01*
X213402Y182703D02*
X215420Y180685D01*
X205512Y185728D02*
X206322Y186539D01*
X194199Y174012D02*
X198689Y178502D01*
Y186038D01*
X194199Y171555D02*
Y174012D01*
X192199Y171555D02*
Y174840D01*
X196689Y179331D01*
Y186867D01*
X194199Y171555D02*
X195907Y169846D01*
Y162173D02*
Y169846D01*
X195200Y161465D02*
X195907Y162173D01*
X194785Y161465D02*
X195200D01*
X194199Y156759D02*
X194785Y156173D01*
X195949D01*
X196949Y155173D01*
X190490Y162173D02*
X191198Y161465D01*
X191613D01*
X194199Y156759D02*
Y160879D01*
X194785Y161465D01*
X190449Y156173D02*
X191613D01*
X192199Y156759D01*
Y160879D01*
X191613Y161465D02*
X192199Y160879D01*
X190490Y162173D02*
Y169846D01*
X192199Y171555D01*
X189449Y155173D02*
X190449Y156173D01*
X194785Y154173D02*
X195949D01*
X194199Y153587D02*
X194785Y154173D01*
X194307Y150873D02*
X195807Y149373D01*
X194199Y152638D02*
Y153587D01*
X192199Y151810D02*
Y153587D01*
X195949Y154173D02*
X196949Y155173D01*
X191613Y154173D02*
X192199Y153587D01*
X194307Y150873D02*
Y152530D01*
X195807Y145866D02*
Y149373D01*
X194199Y152638D02*
X194307Y152530D01*
X190807Y149373D02*
X192307Y150873D01*
X190807Y145866D02*
Y149373D01*
X192199Y151810D02*
X192307Y151702D01*
Y150873D02*
Y151702D01*
X189449Y155173D02*
X190449Y154173D01*
X191613D01*
X124174Y65591D02*
X126393Y63372D01*
Y63230D02*
Y63372D01*
X127785Y64622D02*
Y64764D01*
X95807Y115905D02*
Y126575D01*
Y115905D02*
X96358Y115354D01*
X84996Y144587D02*
X85807Y145398D01*
Y145866D01*
X78937Y144587D02*
X84996D01*
X85807Y92681D02*
Y126575D01*
X225130Y77035D02*
X248130Y54035D01*
X156901Y77035D02*
X225130D01*
X157717Y72057D02*
X157775D01*
X156032Y73201D02*
X156888Y74057D01*
X156946D01*
X157446Y71786D02*
X157717Y72057D01*
X157775D02*
X157810Y72093D01*
X157810D01*
X156946Y74057D02*
X156982Y74093D01*
X156982D01*
X152840Y72974D02*
X156901Y77035D01*
X151448Y74366D02*
X154271Y77189D01*
Y78046D02*
X155786Y79561D01*
X154271Y77189D02*
Y78046D01*
X155786Y79561D02*
Y81081D01*
X124846Y20711D02*
X128782D01*
X120690Y11068D02*
Y16555D01*
X124846Y20711D01*
X133345Y7853D02*
X133542D01*
X130905Y5413D02*
X133345Y7853D01*
X126345Y5413D02*
X130905D01*
X120690Y11068D02*
X126345Y5413D01*
X134745Y26899D02*
Y27040D01*
X126393Y35250D02*
Y35392D01*
X124490Y33347D02*
X126393Y35250D01*
X124490Y29935D02*
Y33347D01*
Y29935D02*
X128782Y25644D01*
Y20711D02*
Y25644D01*
X117900Y43743D02*
X118041D01*
X122291Y34049D02*
X125001Y36759D01*
X120058Y29155D02*
Y29155D01*
X125001Y36759D02*
Y36784D01*
X122291Y31388D02*
Y34049D01*
X120058Y29155D02*
X122291Y31388D01*
X120452Y35018D02*
X123609Y38175D01*
X115945Y33169D02*
X117465D01*
X119314Y35018D01*
X120452D01*
X108477Y26858D02*
X109633D01*
X115945Y33169D01*
X113767Y21568D02*
Y22864D01*
X120058Y29155D01*
X133289Y16360D02*
X133387D01*
X137718Y12029D01*
X158487Y20001D02*
X158542D01*
X152840Y25648D02*
X158487Y20001D01*
X112718Y60202D02*
X118041Y54879D01*
X112718Y60202D02*
Y60215D01*
X120076Y67180D02*
X120493Y67597D01*
X151293Y76995D02*
Y83730D01*
X151455Y83892D01*
Y85412D01*
X150056Y75758D02*
X151293Y76995D01*
X174093Y35454D02*
Y37801D01*
X169543Y42351D02*
X174093Y37801D01*
X174915Y39764D02*
X178445D01*
X170935Y43743D02*
X174915Y39764D01*
X141299Y-24094D02*
Y-22874D01*
X146039Y-20012D02*
X147409Y-21382D01*
Y-21504D02*
Y-21382D01*
Y-21504D02*
X148779Y-22874D01*
X142669Y-21504D02*
Y-21382D01*
X141299Y-22874D02*
X142669Y-21504D01*
X148779Y-24094D02*
Y-22874D01*
X142669Y-21382D02*
X144039Y-20012D01*
X144989Y-49063D02*
X145776Y-48276D01*
X142020Y-48276D02*
X142806Y-49063D01*
X142020Y-48276D02*
Y-45091D01*
X145776Y-48276D02*
Y-45091D01*
X145866Y-45000D01*
X142806Y-49063D02*
X144989D01*
X141299Y-37644D02*
X141929Y-38274D01*
X141299Y-37644D02*
Y-33976D01*
X163051Y-32283D02*
X163248Y-32087D01*
X163051Y-35531D02*
Y-32283D01*
X151772Y-36476D02*
X156063Y-32185D01*
X156653D01*
X143898Y-44606D02*
X143988Y-44516D01*
X141929Y-45000D02*
X142020Y-45091D01*
X148779Y-39213D02*
Y-33976D01*
X147835Y-40157D02*
X148779Y-39213D01*
X151772Y-44606D02*
Y-36476D01*
X147835Y-44606D02*
Y-40157D01*
X139449Y-39542D02*
X139961Y-40054D01*
X143988Y-41330D02*
X145161Y-40157D01*
X139961Y-44606D02*
Y-40054D01*
X145161Y-40157D02*
X147835D01*
X143988Y-44516D02*
Y-41330D01*
X139449Y-39542D02*
Y-39173D01*
X141929Y-45000D02*
Y-38274D01*
X117913Y-57677D02*
Y-52756D01*
X262598Y187205D02*
Y192126D01*
D18*
X179823Y-23228D02*
D03*
Y-26328D02*
D03*
Y-29528D02*
D03*
Y-32628D02*
D03*
X193623D02*
D03*
Y-29528D02*
D03*
Y-26328D02*
D03*
Y-23228D02*
D03*
D19*
X186723Y-27928D02*
D03*
D20*
X132087Y-45000D02*
D03*
X135236D02*
D03*
X154528D02*
D03*
X157677D02*
D03*
D21*
X143898D02*
D03*
X141929D02*
D03*
X139961D02*
D03*
X137992D02*
D03*
X145866D02*
D03*
X147835D02*
D03*
X149803D02*
D03*
X151772D02*
D03*
D22*
X175847Y-8366D02*
D03*
X186476D02*
D03*
D23*
Y-16339D02*
D03*
X180571D02*
D03*
X180217Y-40157D02*
D03*
X174311D02*
D03*
X90453Y115354D02*
D03*
X96358D02*
D03*
X190157Y115157D02*
D03*
X196063D02*
D03*
D24*
X163248Y-26181D02*
D03*
Y-32087D02*
D03*
X156653Y-26280D02*
D03*
Y-32185D02*
D03*
X117913Y-63583D02*
D03*
Y-57677D02*
D03*
Y-52756D02*
D03*
Y-46850D02*
D03*
X27165Y187795D02*
D03*
Y181890D02*
D03*
X268307Y198031D02*
D03*
Y192126D02*
D03*
X178445Y144587D02*
D03*
Y138681D02*
D03*
X78937Y144587D02*
D03*
Y138681D02*
D03*
X27165Y192717D02*
D03*
Y198622D02*
D03*
X21457Y192717D02*
D03*
Y198622D02*
D03*
X262598Y192126D02*
D03*
Y198031D02*
D03*
Y181299D02*
D03*
Y187205D02*
D03*
X268307Y181299D02*
D03*
Y187205D02*
D03*
X21457Y181890D02*
D03*
Y187795D02*
D03*
D25*
X148779Y-24094D02*
D03*
X145039D02*
D03*
X141299D02*
D03*
Y-33976D02*
D03*
X145039D02*
D03*
X148779D02*
D03*
D26*
X193623Y45845D02*
D03*
X189447Y50021D02*
D03*
X120493Y67597D02*
D03*
X116318Y71773D02*
D03*
D27*
X174093Y35454D02*
D03*
X178269Y31278D02*
D03*
X120058Y29155D02*
D03*
X124234Y24979D02*
D03*
X178445Y39764D02*
D03*
X182621Y35588D02*
D03*
X108542Y64391D02*
D03*
X112718Y60215D02*
D03*
X111769Y37345D02*
D03*
X115945Y33169D02*
D03*
X162718Y15825D02*
D03*
X158542Y20001D02*
D03*
D28*
X133289Y16360D02*
D03*
X129113Y12184D02*
D03*
X128782Y20711D02*
D03*
X124606Y16535D02*
D03*
X155631Y89588D02*
D03*
X151455Y85412D02*
D03*
X103325Y37676D02*
D03*
X107501Y41852D02*
D03*
X155786Y81081D02*
D03*
X159962Y85257D02*
D03*
D29*
X133542Y7853D02*
D03*
X137718Y12029D02*
D03*
D30*
X118041Y43743D02*
D03*
X119433Y42351D02*
D03*
X120825Y40959D02*
D03*
X122217Y39567D02*
D03*
X123609Y38175D02*
D03*
X125001Y36784D02*
D03*
X126393Y35392D02*
D03*
X127785Y34000D02*
D03*
X129177Y32608D02*
D03*
X130569Y31216D02*
D03*
X131961Y29824D02*
D03*
X133353Y28432D02*
D03*
X134745Y27040D02*
D03*
X136137Y25648D02*
D03*
X137529Y24256D02*
D03*
X138920Y22864D02*
D03*
X170935Y54879D02*
D03*
X169543Y56271D02*
D03*
X168151Y57663D02*
D03*
X166759Y59055D02*
D03*
X165367Y60447D02*
D03*
X163975Y61839D02*
D03*
X162583Y63230D02*
D03*
X161191Y64622D02*
D03*
X159800Y66014D02*
D03*
X158408Y67406D02*
D03*
X157016Y68798D02*
D03*
X155624Y70190D02*
D03*
X154232Y71582D02*
D03*
X152840Y72974D02*
D03*
X151448Y74366D02*
D03*
X150056Y75758D02*
D03*
D31*
Y22864D02*
D03*
X151448Y24256D02*
D03*
X152840Y25648D02*
D03*
X154232Y27040D02*
D03*
X155624Y28432D02*
D03*
X157016Y29824D02*
D03*
X158408Y31216D02*
D03*
X159800Y32608D02*
D03*
X161191Y34000D02*
D03*
X162583Y35392D02*
D03*
X163975Y36783D02*
D03*
X165367Y38175D02*
D03*
X166759Y39567D02*
D03*
X168151Y40959D02*
D03*
X169543Y42351D02*
D03*
X170935Y43743D02*
D03*
X138920Y75758D02*
D03*
X137529Y74366D02*
D03*
X136137Y72974D02*
D03*
X134745Y71582D02*
D03*
X133353Y70190D02*
D03*
X131961Y68798D02*
D03*
X130569Y67406D02*
D03*
X129177Y66014D02*
D03*
X127785Y64622D02*
D03*
X126393Y63230D02*
D03*
X125001Y61839D02*
D03*
X123609Y60447D02*
D03*
X122217Y59055D02*
D03*
X120825Y57663D02*
D03*
X119433Y56271D02*
D03*
X118041Y54879D02*
D03*
D32*
X100807Y145866D02*
D03*
X95807D02*
D03*
X90807D02*
D03*
X85807D02*
D03*
X100807Y126575D02*
D03*
X95807D02*
D03*
X90807D02*
D03*
X85807D02*
D03*
X200807Y145866D02*
D03*
X195807D02*
D03*
X190807D02*
D03*
X185807D02*
D03*
X200807Y126575D02*
D03*
X195807D02*
D03*
X190807D02*
D03*
X185807D02*
D03*
D33*
X196949Y155173D02*
D03*
X189449D02*
D03*
X193199Y164173D02*
D03*
X97155Y155173D02*
D03*
X89656D02*
D03*
X93405Y164173D02*
D03*
D34*
X95965Y186319D02*
D03*
X101870D02*
D03*
X193898Y186024D02*
D03*
X187992D02*
D03*
D35*
X108477Y26858D02*
D03*
X113767Y21568D02*
D03*
D60*
X175866Y-8347D02*
Y-2579D01*
X175847Y-8366D02*
X175866Y-8347D01*
Y-2579D02*
X175886Y-2559D01*
X173721Y-40157D02*
Y-39764D01*
X169488Y-40157D02*
X173721D01*
X179823Y-23228D02*
X180555D01*
X173237D02*
X179823D01*
X157677Y-46211D02*
Y-44606D01*
X132087Y-46211D02*
Y-44606D01*
X173031Y-23327D02*
X173138D01*
X173237Y-23228D01*
X180555D02*
X180571Y-23213D01*
X178269Y31278D02*
X178290D01*
X177525D02*
X178269D01*
X180571Y-23213D02*
Y-16339D01*
X155815Y16831D02*
X156820Y15825D01*
X162718D01*
X155709Y16831D02*
X155815D01*
X175873Y29626D02*
X177525Y31278D01*
X173729Y29626D02*
X175873D01*
X171071Y32283D02*
X173729Y29626D01*
X170965Y32283D02*
X171071D01*
X178290Y31278D02*
X182600Y35588D01*
X182621D01*
X90453Y110531D02*
Y115354D01*
X90453Y115354D02*
X90453Y115354D01*
X155631Y89588D02*
X159962Y85257D01*
X158192Y87826D02*
X160819Y90453D01*
X160925D01*
X126874Y-63583D02*
X127874Y-64583D01*
Y-65059D02*
Y-64583D01*
X117913Y-63583D02*
X126874D01*
X196063Y115157D02*
X196112Y115108D01*
X195807Y115413D02*
X196063Y115157D01*
X196112Y110384D02*
Y115108D01*
Y110384D02*
X196161Y110335D01*
X24311Y198622D02*
X27165D01*
X21457D02*
X24311D01*
X24213Y201969D02*
X24288Y201893D01*
Y198645D02*
X24311Y198622D01*
X24288Y198645D02*
Y201893D01*
X27165Y187795D02*
Y192717D01*
X21457Y187795D02*
Y192717D01*
X265453Y198031D02*
X268307D01*
X262598D02*
X265453D01*
X265476Y198055D02*
Y201696D01*
X265551Y201772D01*
X265453Y198031D02*
X265476Y198055D01*
X190807Y122818D02*
Y126575D01*
X190157Y122169D02*
X190807Y122818D01*
X190157Y115157D02*
Y122169D01*
X104491Y37345D02*
X111769D01*
X104161Y37676D02*
X104491Y37345D01*
X93405Y164173D02*
Y167815D01*
X78937Y138681D02*
X79528D01*
X83832Y134377D01*
X86549D01*
X90807Y130118D01*
Y126575D02*
Y130118D01*
X190157Y110433D02*
Y115157D01*
X179035Y138681D02*
X183340Y134377D01*
X178445Y138681D02*
X179035D01*
X183340Y134377D02*
X186549D01*
X190807Y130118D01*
Y126575D02*
Y130118D01*
X193330Y167740D02*
X193405Y167815D01*
X193330Y164305D02*
Y167740D01*
X193199Y164173D02*
X193330Y164305D01*
X90656Y115558D02*
Y126424D01*
X90807Y126575D01*
X90453Y115354D02*
X90656Y115558D01*
X100127Y40846D02*
X103297Y37676D01*
X100098Y40846D02*
X100127D01*
X103297Y37676D02*
X103325D01*
X104161D01*
X117890Y18636D02*
X124234Y24979D01*
X117815Y16535D02*
X117890Y16611D01*
Y18636D01*
X126860Y14360D02*
X129035Y12184D01*
X124684Y16535D02*
X126860Y14360D01*
X123819Y11319D02*
X126860Y14360D01*
X123819Y11319D02*
X123819D01*
X129035Y12184D02*
X129113D01*
X124606Y16535D02*
X124684D01*
X161890Y-48209D02*
Y-47408D01*
X157874Y-46407D02*
X160889D01*
X161890Y-47408D01*
X127874Y-48209D02*
Y-47408D01*
X128874Y-46407D01*
X163199Y-26230D02*
X163248Y-26181D01*
X159951Y-26230D02*
X163199D01*
X156653Y-26280D02*
X156703Y-26230D01*
X159951D01*
X159941Y-26220D02*
X159951Y-26230D01*
X159941Y-26220D02*
Y-22343D01*
X131890Y-46407D02*
X132087Y-46211D01*
X128874Y-46407D02*
X131890D01*
X145039Y-24094D02*
X145059Y-24114D01*
Y-28032D02*
Y-24114D01*
Y-28032D02*
X145079Y-28051D01*
X157677Y-46211D02*
X157874Y-46407D01*
X180236Y-16004D02*
X180571Y-16339D01*
X176791Y-8366D02*
X180236Y-11811D01*
Y-16004D02*
Y-11811D01*
X175847Y-8366D02*
X176791D01*
D61*
X186526Y-16339D02*
Y-8415D01*
X203405Y26929D02*
Y41240D01*
X186476Y10000D02*
X203405Y26929D01*
X186476Y-8366D02*
Y10000D01*
Y-27682D02*
X186723Y-27928D01*
X186476Y-27682D02*
Y-16339D01*
X203405Y45571D02*
Y54035D01*
Y41240D02*
Y45571D01*
Y54035D02*
Y66357D01*
Y54035D02*
X238130D01*
X196161Y88779D02*
X196260Y88878D01*
X196161Y83957D02*
Y88779D01*
X203426Y66357D02*
X203445Y66339D01*
X203426Y66357D02*
Y70834D01*
D62*
X180217Y-44989D02*
Y-40157D01*
X179823Y-39764D02*
Y-32628D01*
Y-29528D01*
X178833Y-46373D02*
X180217Y-44989D01*
X169503Y-46373D02*
X178833D01*
X179823Y-39764D02*
X180217Y-40157D01*
X162106Y-38976D02*
X169503Y-46373D01*
X155911Y-38976D02*
X162106D01*
X179823Y-29528D02*
Y-26328D01*
X162929Y22012D02*
X168367Y16575D01*
X158542Y20001D02*
X158961D01*
X171934D02*
X186738Y34805D01*
X158961Y20001D02*
X160972Y22012D01*
X162929D01*
X193623Y45845D02*
X194041Y46263D01*
X202714D01*
X203405Y45571D01*
X100547Y48031D02*
X112718Y60202D01*
X112718D01*
X109941Y135827D02*
X133563Y112205D01*
X172933D01*
X95807Y126575D02*
Y134291D01*
X97342Y135827D02*
X109941D01*
X95807Y134291D02*
X97342Y135827D01*
X89862Y37347D02*
X100547Y48031D01*
X89862Y32087D02*
Y37347D01*
X101321Y48031D02*
X107501Y41852D01*
X100547Y48031D02*
X101321D01*
X184400Y42175D02*
X186713Y39862D01*
X182087Y44488D02*
X184400Y42175D01*
X200098Y41240D02*
X203405D01*
X168367Y16575D02*
X171793Y20001D01*
X160749Y8957D02*
X168367Y16575D01*
X124016Y-2067D02*
X129766D01*
X89862Y32087D02*
X124016Y-2067D01*
X107501Y41852D02*
X107501D01*
X129766Y-2067D02*
X140790Y8957D01*
X160749D01*
X137718Y12029D02*
X137718D01*
X140790Y8957D01*
X171793Y20001D02*
X171934D01*
X186738Y34805D02*
Y36371D01*
X186713Y36396D02*
Y39862D01*
Y36396D02*
X186738Y36371D01*
X145039Y-37771D02*
Y-33976D01*
X154528Y-40360D02*
X155911Y-38976D01*
X154528Y-44606D02*
Y-40360D01*
D63*
X186723Y-28869D02*
Y-27928D01*
X190482Y-32628D02*
X193623D01*
X186723Y-28869D02*
X190482Y-32628D01*
X186723Y-27928D02*
X188323Y-29528D01*
X193623D01*
X186723Y-27928D02*
X188323Y-26328D01*
X193623D01*
D64*
X154269Y94016D02*
X191122D01*
X151318Y91064D02*
X154269Y94016D01*
X191122D02*
X196260Y88878D01*
X151318Y85986D02*
Y91064D01*
Y85986D02*
X151455Y85848D01*
Y85412D02*
Y85848D01*
D65*
X135630Y-48198D02*
X139302Y-51870D01*
X150462D02*
X154134Y-48198D01*
X135630D02*
Y-45000D01*
X139302Y-51870D02*
X150462D01*
X154134Y-48198D02*
Y-45000D01*
X135236Y-44606D02*
X135630Y-45000D01*
X154134Y-45000D02*
X154528Y-44606D01*
D66*
X246307Y-25000D02*
D03*
X43457D02*
D03*
D67*
X236910Y213287D02*
D03*
Y185728D02*
D03*
X70472Y186319D02*
D03*
Y213878D02*
D03*
X39075Y186319D02*
D03*
Y213878D02*
D03*
X205512Y185728D02*
D03*
Y213287D02*
D03*
D68*
X250689D02*
D03*
Y185728D02*
D03*
X84252Y186319D02*
D03*
Y213878D02*
D03*
X52854Y186319D02*
D03*
Y213878D02*
D03*
X219291Y185728D02*
D03*
Y213287D02*
D03*
D69*
X101476Y224606D02*
D03*
Y194606D02*
D03*
X188287D02*
D03*
Y224606D02*
D03*
D70*
X127874Y-48602D02*
D03*
X161890D02*
D03*
X127874Y-65059D02*
D03*
X161890D02*
D03*
D71*
X133504Y-50689D02*
D03*
X156260D02*
D03*
D72*
X238130Y54035D02*
D03*
D73*
X248130D02*
D03*
X258130D02*
D03*
X268130D02*
D03*
X278130D02*
D03*
D74*
X173031Y-23327D02*
D03*
X169488Y-40157D02*
D03*
X175886Y-2559D02*
D03*
X101772Y71063D02*
D03*
X119390Y74803D02*
D03*
X122736Y52953D02*
D03*
X136713Y31594D02*
D03*
X148130Y27362D02*
D03*
X155709Y16831D02*
D03*
X170965Y32283D02*
D03*
X90453Y110531D02*
D03*
X160925Y90453D02*
D03*
X106358Y60492D02*
D03*
X102903Y57037D02*
D03*
X109350Y50591D02*
D03*
X113189Y53661D02*
D03*
X172933Y112205D02*
D03*
X184400Y42175D02*
D03*
X200098Y41240D02*
D03*
X143701Y3937D02*
D03*
X143602Y13189D02*
D03*
X182087Y44488D02*
D03*
X203405Y41240D02*
D03*
X196161Y110335D02*
D03*
X24213Y201969D02*
D03*
X265551Y201772D02*
D03*
X93405Y167815D02*
D03*
X190157Y110433D02*
D03*
X193405Y167815D02*
D03*
X100098Y40846D02*
D03*
X117815Y16535D02*
D03*
X123819Y11319D02*
D03*
X145079Y-28051D02*
D03*
X159941Y-22343D02*
D03*
X145177Y-51870D02*
D03*
X163051Y-35531D02*
D03*
X145039Y-37771D02*
D03*
X139449Y-39173D02*
D03*
D75*
X196161Y83957D02*
D03*
X196260Y88878D02*
D03*
X203445Y66339D02*
D03*
X203426Y70834D02*
D03*
D76*
X237448Y-25000D02*
D03*
X255165D02*
D03*
X246307Y-16142D02*
D03*
Y-34843D02*
D03*
X253197Y-18110D02*
D03*
X239417D02*
D03*
Y-31890D02*
D03*
X253197Y-31890D02*
D03*
X34599Y-25000D02*
D03*
X52315D02*
D03*
X43457Y-16142D02*
D03*
Y-34843D02*
D03*
X50347Y-18110D02*
D03*
X36567D02*
D03*
Y-31890D02*
D03*
X50347Y-31890D02*
D03*
M02*
