G04*
G04 #@! TF.GenerationSoftware,Altium Limited,Altium Designer,24.4.1 (13)*
G04*
G04 Layer_Color=8388736*
%FSLAX25Y25*%
%MOIN*%
G70*
G04*
G04 #@! TF.SameCoordinates,CE62225C-9D11-4DC4-9690-87E0813CFFB1*
G04*
G04*
G04 #@! TF.FilePolarity,Negative*
G04*
G01*
G75*
%ADD16C,0.00200*%
G04:AMPARAMS|DCode=26|XSize=47mil|YSize=12mil|CornerRadius=0mil|HoleSize=0mil|Usage=FLASHONLY|Rotation=45.000|XOffset=0mil|YOffset=0mil|HoleType=Round|Shape=Rectangle|*
%AMROTATEDRECTD26*
4,1,4,-0.01237,-0.02086,-0.02086,-0.01237,0.01237,0.02086,0.02086,0.01237,-0.01237,-0.02086,0.0*
%
%ADD26ROTATEDRECTD26*%

G04:AMPARAMS|DCode=27|XSize=47mil|YSize=12mil|CornerRadius=0mil|HoleSize=0mil|Usage=FLASHONLY|Rotation=135.000|XOffset=0mil|YOffset=0mil|HoleType=Round|Shape=Rectangle|*
%AMROTATEDRECTD27*
4,1,4,0.02086,-0.01237,0.01237,-0.02086,-0.02086,0.01237,-0.01237,0.02086,0.02086,-0.01237,0.0*
%
%ADD27ROTATEDRECTD27*%

%ADD32R,0.08668X0.06699*%
%ADD33R,0.01778X0.02762*%
%ADD34R,0.03950X0.03950*%
%ADD35R,0.03162X0.06509*%
%ADD36R,0.01981X0.06509*%
%ADD37R,0.04343X0.03162*%
G04:AMPARAMS|DCode=38|XSize=55.64mil|YSize=31.23mil|CornerRadius=6.9mil|HoleSize=0mil|Usage=FLASHONLY|Rotation=270.000|XOffset=0mil|YOffset=0mil|HoleType=Round|Shape=RoundedRectangle|*
%AMROUNDEDRECTD38*
21,1,0.05564,0.01742,0,0,270.0*
21,1,0.04183,0.03123,0,0,270.0*
1,1,0.01381,-0.00871,-0.02092*
1,1,0.01381,-0.00871,0.02092*
1,1,0.01381,0.00871,0.02092*
1,1,0.01381,0.00871,-0.02092*
%
%ADD38ROUNDEDRECTD38*%
G04:AMPARAMS|DCode=39|XSize=31.62mil|YSize=43.43mil|CornerRadius=0mil|HoleSize=0mil|Usage=FLASHONLY|Rotation=135.000|XOffset=0mil|YOffset=0mil|HoleType=Round|Shape=Rectangle|*
%AMROTATEDRECTD39*
4,1,4,0.02654,0.00418,-0.00418,-0.02654,-0.02654,-0.00418,0.00418,0.02654,0.02654,0.00418,0.0*
%
%ADD39ROTATEDRECTD39*%

%ADD40P,0.05586X4X180.0*%
%ADD41P,0.05586X4X90.0*%
G04:AMPARAMS|DCode=42|XSize=31.62mil|YSize=43.43mil|CornerRadius=0mil|HoleSize=0mil|Usage=FLASHONLY|Rotation=45.000|XOffset=0mil|YOffset=0mil|HoleType=Round|Shape=Rectangle|*
%AMROTATEDRECTD42*
4,1,4,0.00418,-0.02654,-0.02654,0.00418,-0.00418,0.02654,0.02654,-0.00418,0.00418,-0.02654,0.0*
%
%ADD42ROTATEDRECTD42*%

%ADD43O,0.03556X0.10642*%
%ADD44R,0.03800X0.03800*%
%ADD45R,0.03162X0.04343*%
G04:AMPARAMS|DCode=46|XSize=67.06mil|YSize=114.3mil|CornerRadius=0mil|HoleSize=0mil|Usage=FLASHONLY|Rotation=135.000|XOffset=0mil|YOffset=0mil|HoleType=Round|Shape=Rectangle|*
%AMROTATEDRECTD46*
4,1,4,0.06412,0.01670,-0.01670,-0.06412,-0.06412,-0.01670,0.01670,0.06412,0.06412,0.01670,0.0*
%
%ADD46ROTATEDRECTD46*%

%ADD47C,0.07887*%
%ADD48R,0.07887X0.07887*%
G04:AMPARAMS|DCode=49|XSize=70.87mil|YSize=70.87mil|CornerRadius=0mil|HoleSize=0mil|Usage=FLASHONLY|Rotation=0.000|XOffset=0mil|YOffset=0mil|HoleType=Round|Shape=Octagon|*
%AMOCTAGOND49*
4,1,8,0.03543,-0.01772,0.03543,0.01772,0.01772,0.03543,-0.01772,0.03543,-0.03543,0.01772,-0.03543,-0.01772,-0.01772,-0.03543,0.01772,-0.03543,0.03543,-0.01772,0.0*
%
%ADD49OCTAGOND49*%

%ADD50C,0.25800*%
%ADD51O,0.04934X0.09068*%
%ADD52C,0.03556*%
%ADD53R,0.06706X0.06706*%
%ADD54C,0.06706*%
%ADD55C,0.03162*%
D16*
X51365Y161492D02*
Y163292D01*
Y140892D02*
Y142492D01*
Y129692D02*
Y131092D01*
Y119492D02*
Y121092D01*
Y105092D02*
Y106692D01*
Y94892D02*
Y96692D01*
X51165Y160692D02*
Y164292D01*
Y154892D02*
Y156292D01*
Y148492D02*
Y149692D01*
Y140092D02*
Y143492D01*
Y133692D02*
Y134892D01*
Y129092D02*
Y131692D01*
Y123492D02*
Y124692D01*
Y118692D02*
Y122092D01*
Y112892D02*
Y114092D01*
Y104292D02*
Y107692D01*
Y94092D02*
Y97692D01*
X50965Y160092D02*
Y164692D01*
Y154892D02*
Y156292D01*
Y148492D02*
Y149692D01*
Y139692D02*
Y143892D01*
Y133692D02*
Y134892D01*
Y128692D02*
Y131692D01*
Y123492D02*
Y124692D01*
Y118292D02*
Y122492D01*
Y112892D02*
Y114092D01*
Y103892D02*
Y108092D01*
Y93492D02*
Y98092D01*
X50765Y159892D02*
Y165092D01*
Y154892D02*
Y156292D01*
Y148492D02*
Y149692D01*
Y139292D02*
Y144292D01*
Y133692D02*
Y134892D01*
Y128492D02*
Y131492D01*
Y123492D02*
Y124692D01*
Y118092D02*
Y122892D01*
Y112892D02*
Y114092D01*
Y103492D02*
Y108492D01*
Y93292D02*
Y98492D01*
X50565Y159492D02*
Y165292D01*
Y154892D02*
Y156292D01*
Y148492D02*
Y149692D01*
Y139092D02*
Y144492D01*
Y133692D02*
Y134892D01*
Y128492D02*
Y131492D01*
Y123492D02*
Y124692D01*
Y117892D02*
Y123092D01*
Y112892D02*
Y114092D01*
Y103292D02*
Y108692D01*
Y92892D02*
Y98692D01*
X50365Y159292D02*
Y165492D01*
Y154892D02*
Y156292D01*
Y148492D02*
Y149692D01*
Y138892D02*
Y144692D01*
Y133692D02*
Y134892D01*
Y128292D02*
Y131492D01*
Y123492D02*
Y124692D01*
Y117692D02*
Y123292D01*
Y112892D02*
Y114092D01*
Y102892D02*
Y108892D01*
Y92692D02*
Y98892D01*
X50165Y163292D02*
Y165692D01*
Y159092D02*
Y161492D01*
Y154892D02*
Y156292D01*
Y148492D02*
Y149692D01*
Y142492D02*
Y144892D01*
Y138492D02*
Y141092D01*
Y133692D02*
Y134892D01*
Y131292D02*
Y131492D01*
Y128292D02*
Y130092D01*
Y121292D02*
Y124692D01*
Y117492D02*
Y119892D01*
Y112892D02*
Y114092D01*
Y106692D02*
Y109092D01*
Y102692D02*
Y105292D01*
Y96692D02*
Y99092D01*
Y92492D02*
Y94892D01*
X49965Y163892D02*
Y165892D01*
Y158892D02*
Y160892D01*
Y154892D02*
Y156292D01*
Y148492D02*
Y149692D01*
Y143092D02*
Y145092D01*
Y138492D02*
Y140492D01*
Y133692D02*
Y134892D01*
Y128092D02*
Y129692D01*
Y121892D02*
Y124692D01*
Y117492D02*
Y119292D01*
Y112892D02*
Y114092D01*
Y107292D02*
Y109292D01*
Y102692D02*
Y104692D01*
Y97292D02*
Y99292D01*
Y92292D02*
Y94292D01*
X49765Y164292D02*
Y166092D01*
Y158892D02*
Y160692D01*
Y154892D02*
Y156292D01*
Y148492D02*
Y149692D01*
Y143492D02*
Y145292D01*
Y138292D02*
Y140092D01*
Y133692D02*
Y134892D01*
Y128092D02*
Y129492D01*
Y122292D02*
Y124692D01*
Y117292D02*
Y119092D01*
Y112892D02*
Y114092D01*
Y107692D02*
Y109492D01*
Y102492D02*
Y104292D01*
Y97692D02*
Y99492D01*
Y92292D02*
Y94092D01*
X49565Y164492D02*
Y166092D01*
Y158692D02*
Y160292D01*
Y154892D02*
Y156292D01*
Y148492D02*
Y149692D01*
Y143692D02*
Y145492D01*
Y138092D02*
Y139892D01*
Y133692D02*
Y134892D01*
Y128092D02*
Y129492D01*
Y122492D02*
Y124692D01*
Y117292D02*
Y118892D01*
Y112892D02*
Y114092D01*
Y107892D02*
Y109692D01*
Y102292D02*
Y104092D01*
Y97892D02*
Y99492D01*
Y92092D02*
Y93692D01*
X49365Y164692D02*
Y166092D01*
Y158692D02*
Y160092D01*
Y154892D02*
Y156292D01*
Y148492D02*
Y149692D01*
Y143892D02*
Y145692D01*
Y137892D02*
Y139692D01*
Y133692D02*
Y134892D01*
Y128092D02*
Y129492D01*
Y122692D02*
Y124692D01*
Y117092D02*
Y118692D01*
Y112892D02*
Y114092D01*
Y108092D02*
Y109892D01*
Y102092D02*
Y103892D01*
Y98092D02*
Y99492D01*
Y92092D02*
Y93492D01*
X49165Y164892D02*
Y166292D01*
Y158492D02*
Y160092D01*
Y154892D02*
Y156292D01*
Y148492D02*
Y149692D01*
Y144092D02*
Y145692D01*
Y137892D02*
Y139492D01*
Y133692D02*
Y134892D01*
Y128092D02*
Y129292D01*
Y122892D02*
Y124692D01*
Y117092D02*
Y118492D01*
Y112892D02*
Y114092D01*
Y108292D02*
Y109892D01*
Y102092D02*
Y103692D01*
Y98292D02*
Y99692D01*
Y91892D02*
Y93492D01*
X48965Y164892D02*
Y166292D01*
Y158492D02*
Y159892D01*
Y154892D02*
Y156292D01*
Y148492D02*
Y149692D01*
Y144292D02*
Y145892D01*
Y137692D02*
Y139292D01*
Y133692D02*
Y134892D01*
Y128092D02*
Y129292D01*
Y123092D02*
Y124692D01*
Y117092D02*
Y118492D01*
Y112892D02*
Y114092D01*
Y108492D02*
Y110092D01*
Y101892D02*
Y103492D01*
Y98292D02*
Y99692D01*
Y91892D02*
Y93292D01*
X48765Y164892D02*
Y166292D01*
Y158492D02*
Y159892D01*
Y154892D02*
Y156292D01*
Y148492D02*
Y149692D01*
Y144292D02*
Y145892D01*
Y137692D02*
Y139092D01*
Y133692D02*
Y134892D01*
Y128092D02*
Y129292D01*
Y123092D02*
Y124692D01*
Y116892D02*
Y118492D01*
Y112892D02*
Y114092D01*
Y108492D02*
Y110092D01*
Y101892D02*
Y103292D01*
Y98292D02*
Y99692D01*
Y91892D02*
Y93292D01*
X48565Y164892D02*
Y166292D01*
Y158492D02*
Y159892D01*
Y154892D02*
Y156292D01*
Y148492D02*
Y149692D01*
Y144492D02*
Y145892D01*
Y137492D02*
Y139092D01*
Y133692D02*
Y134892D01*
Y128092D02*
Y129292D01*
Y123292D02*
Y124692D01*
Y116892D02*
Y118292D01*
Y112892D02*
Y114092D01*
Y108692D02*
Y110092D01*
Y101692D02*
Y103292D01*
Y98292D02*
Y99692D01*
Y91892D02*
Y93292D01*
X48365Y164892D02*
Y166292D01*
Y158492D02*
Y159692D01*
Y154892D02*
Y156292D01*
Y148492D02*
Y149692D01*
Y144692D02*
Y146092D01*
Y137492D02*
Y138892D01*
Y133692D02*
Y134892D01*
Y128092D02*
Y129292D01*
Y123292D02*
Y124692D01*
Y116892D02*
Y118292D01*
Y112892D02*
Y114092D01*
Y108892D02*
Y110292D01*
Y101692D02*
Y103092D01*
Y98292D02*
Y99692D01*
Y91892D02*
Y93092D01*
X48165Y164892D02*
Y166292D01*
Y154892D02*
Y156292D01*
Y148492D02*
Y149692D01*
Y144692D02*
Y146092D01*
Y137492D02*
Y138892D01*
Y133692D02*
Y134892D01*
Y128092D02*
Y129292D01*
Y123492D02*
Y124692D01*
Y116892D02*
Y118292D01*
Y112892D02*
Y114092D01*
Y108892D02*
Y110292D01*
Y101692D02*
Y103092D01*
Y98292D02*
Y99692D01*
X47965Y164892D02*
Y166292D01*
Y154892D02*
Y156292D01*
Y148492D02*
Y149692D01*
Y144692D02*
Y146092D01*
Y137292D02*
Y138892D01*
Y133692D02*
Y134892D01*
Y128092D02*
Y129292D01*
Y123492D02*
Y124692D01*
Y116892D02*
Y118292D01*
Y112892D02*
Y114092D01*
Y108892D02*
Y110292D01*
Y101492D02*
Y102892D01*
Y98292D02*
Y99692D01*
X47765Y164692D02*
Y166292D01*
Y154892D02*
Y156292D01*
Y148492D02*
Y149692D01*
Y144892D02*
Y146292D01*
Y137292D02*
Y138692D01*
Y133692D02*
Y134892D01*
Y128092D02*
Y129292D01*
Y123492D02*
Y124692D01*
Y116892D02*
Y118292D01*
Y112892D02*
Y114092D01*
Y109092D02*
Y110492D01*
Y101492D02*
Y102892D01*
Y98092D02*
Y99692D01*
X47565Y164492D02*
Y166092D01*
Y154892D02*
Y156292D01*
Y148492D02*
Y149692D01*
Y144892D02*
Y146292D01*
Y137292D02*
Y138692D01*
Y133692D02*
Y134892D01*
Y128092D02*
Y129292D01*
Y123492D02*
Y124692D01*
Y116892D02*
Y118292D01*
Y112892D02*
Y114092D01*
Y109092D02*
Y110492D01*
Y101492D02*
Y102892D01*
Y97892D02*
Y99492D01*
X47365Y164292D02*
Y166092D01*
Y154892D02*
Y156292D01*
Y148492D02*
Y149692D01*
Y144892D02*
Y146292D01*
Y137292D02*
Y138692D01*
Y133692D02*
Y134892D01*
Y128092D02*
Y129292D01*
Y123492D02*
Y124692D01*
Y116892D02*
Y118292D01*
Y112892D02*
Y114092D01*
Y109092D02*
Y110492D01*
Y101492D02*
Y102892D01*
Y97692D02*
Y99492D01*
X47165Y164092D02*
Y165892D01*
Y154892D02*
Y156292D01*
Y148492D02*
Y149692D01*
Y144892D02*
Y146292D01*
Y137292D02*
Y138492D01*
Y133692D02*
Y134892D01*
Y128092D02*
Y129292D01*
Y123492D02*
Y124692D01*
Y116892D02*
Y118292D01*
Y112892D02*
Y114092D01*
Y109092D02*
Y110492D01*
Y101492D02*
Y102692D01*
Y97492D02*
Y99292D01*
X46965Y163692D02*
Y165892D01*
Y154892D02*
Y156292D01*
Y148492D02*
Y149692D01*
Y145092D02*
Y146292D01*
Y137292D02*
Y138492D01*
Y133692D02*
Y134892D01*
Y128092D02*
Y129292D01*
Y123492D02*
Y124692D01*
Y116892D02*
Y118292D01*
Y112892D02*
Y114092D01*
Y109292D02*
Y110492D01*
Y101492D02*
Y102692D01*
Y97092D02*
Y99292D01*
X46765Y163092D02*
Y165692D01*
Y154892D02*
Y156292D01*
Y148492D02*
Y149692D01*
Y145092D02*
Y146292D01*
Y137292D02*
Y138492D01*
Y133692D02*
Y134892D01*
Y128092D02*
Y129292D01*
Y123492D02*
Y124692D01*
Y116892D02*
Y118292D01*
Y112892D02*
Y114092D01*
Y109292D02*
Y110492D01*
Y101492D02*
Y102692D01*
Y96492D02*
Y99092D01*
X46565Y162292D02*
Y165492D01*
Y154892D02*
Y156292D01*
Y148492D02*
Y149692D01*
Y145092D02*
Y146292D01*
Y137092D02*
Y138492D01*
Y133692D02*
Y134892D01*
Y128092D02*
Y129292D01*
Y123492D02*
Y124692D01*
Y116892D02*
Y118292D01*
Y112892D02*
Y114092D01*
Y109292D02*
Y110492D01*
Y101292D02*
Y102692D01*
Y95692D02*
Y98892D01*
X46365Y161492D02*
Y165292D01*
Y154892D02*
Y156292D01*
Y148492D02*
Y149692D01*
Y145092D02*
Y146292D01*
Y137092D02*
Y138492D01*
Y133692D02*
Y134892D01*
Y128092D02*
Y129292D01*
Y123492D02*
Y124692D01*
Y116892D02*
Y118292D01*
Y112892D02*
Y114092D01*
Y109292D02*
Y110492D01*
Y101292D02*
Y102692D01*
Y94892D02*
Y98692D01*
X46165Y160892D02*
Y164892D01*
Y154892D02*
Y156292D01*
Y148492D02*
Y149692D01*
Y145092D02*
Y146292D01*
Y137092D02*
Y138492D01*
Y133692D02*
Y134892D01*
Y128092D02*
Y129292D01*
Y123492D02*
Y124692D01*
Y116892D02*
Y118292D01*
Y112892D02*
Y114092D01*
Y109292D02*
Y110492D01*
Y101292D02*
Y102692D01*
Y94292D02*
Y98292D01*
X45965Y160292D02*
Y164492D01*
Y154892D02*
Y156292D01*
Y148492D02*
Y149692D01*
Y145092D02*
Y146292D01*
Y137092D02*
Y138492D01*
Y133692D02*
Y134892D01*
Y128092D02*
Y129292D01*
Y123492D02*
Y124692D01*
Y116892D02*
Y118292D01*
Y112892D02*
Y114092D01*
Y109292D02*
Y110492D01*
Y101292D02*
Y102692D01*
Y93692D02*
Y97892D01*
X45765Y159892D02*
Y163892D01*
Y154892D02*
Y156292D01*
Y148492D02*
Y149692D01*
Y145092D02*
Y146292D01*
Y137092D02*
Y138492D01*
Y133692D02*
Y134892D01*
Y128092D02*
Y129292D01*
Y123492D02*
Y124692D01*
Y116892D02*
Y118292D01*
Y112892D02*
Y114092D01*
Y109292D02*
Y110492D01*
Y101292D02*
Y102692D01*
Y93292D02*
Y97292D01*
X45565Y159692D02*
Y163292D01*
Y154892D02*
Y156292D01*
Y148492D02*
Y149692D01*
Y145092D02*
Y146292D01*
Y137092D02*
Y138492D01*
Y133692D02*
Y134892D01*
Y128092D02*
Y129292D01*
Y123492D02*
Y124692D01*
Y116892D02*
Y118292D01*
Y112892D02*
Y114092D01*
Y109292D02*
Y110492D01*
Y101292D02*
Y102692D01*
Y93092D02*
Y96692D01*
X45365Y159492D02*
Y162492D01*
Y154892D02*
Y156292D01*
Y148492D02*
Y149692D01*
Y145092D02*
Y146292D01*
Y137292D02*
Y138492D01*
Y133692D02*
Y134892D01*
Y128092D02*
Y129292D01*
Y123492D02*
Y124692D01*
Y116892D02*
Y118292D01*
Y112892D02*
Y114092D01*
Y109292D02*
Y110492D01*
Y101492D02*
Y102692D01*
Y92892D02*
Y95892D01*
X45165Y159292D02*
Y161692D01*
Y154892D02*
Y156292D01*
Y148492D02*
Y149692D01*
Y145092D02*
Y146292D01*
Y137292D02*
Y138492D01*
Y133692D02*
Y134892D01*
Y128092D02*
Y129292D01*
Y123492D02*
Y124692D01*
Y116892D02*
Y118292D01*
Y112892D02*
Y114092D01*
Y109292D02*
Y110492D01*
Y101492D02*
Y102692D01*
Y92692D02*
Y95092D01*
X44965Y159092D02*
Y161292D01*
Y154892D02*
Y156292D01*
Y148492D02*
Y149692D01*
Y144892D02*
Y146292D01*
Y137292D02*
Y138692D01*
Y133692D02*
Y134892D01*
Y128092D02*
Y129292D01*
Y123492D02*
Y124692D01*
Y116892D02*
Y118292D01*
Y112892D02*
Y114092D01*
Y109092D02*
Y110492D01*
Y101492D02*
Y102892D01*
Y92492D02*
Y94692D01*
X44765Y158892D02*
Y160892D01*
Y154892D02*
Y156292D01*
Y148492D02*
Y149692D01*
Y144892D02*
Y146292D01*
Y137292D02*
Y138692D01*
Y133692D02*
Y134892D01*
Y128092D02*
Y129292D01*
Y123492D02*
Y124692D01*
Y116892D02*
Y118292D01*
Y112892D02*
Y114092D01*
Y109092D02*
Y110492D01*
Y101492D02*
Y102892D01*
Y92292D02*
Y94292D01*
X44565Y158892D02*
Y160492D01*
Y154892D02*
Y156292D01*
Y148492D02*
Y149692D01*
Y144892D02*
Y146292D01*
Y137292D02*
Y138692D01*
Y133692D02*
Y134892D01*
Y128092D02*
Y129292D01*
Y123492D02*
Y124692D01*
Y116892D02*
Y118292D01*
Y112892D02*
Y114092D01*
Y109092D02*
Y110492D01*
Y101492D02*
Y102892D01*
Y92292D02*
Y93892D01*
X44365Y158892D02*
Y160292D01*
Y154892D02*
Y156292D01*
Y148492D02*
Y149692D01*
Y144892D02*
Y146292D01*
Y137292D02*
Y138692D01*
Y133692D02*
Y134892D01*
Y128092D02*
Y129292D01*
Y123492D02*
Y124692D01*
Y116892D02*
Y118292D01*
Y112892D02*
Y114092D01*
Y109092D02*
Y110492D01*
Y101492D02*
Y102892D01*
Y92292D02*
Y93692D01*
X44165Y158892D02*
Y160292D01*
Y154892D02*
Y156292D01*
Y148492D02*
Y149892D01*
Y144692D02*
Y146092D01*
Y137492D02*
Y138892D01*
Y133692D02*
Y134892D01*
Y128092D02*
Y129292D01*
Y123492D02*
Y124692D01*
Y116892D02*
Y118292D01*
Y112892D02*
Y114092D01*
Y108892D02*
Y110292D01*
Y101492D02*
Y103092D01*
Y92292D02*
Y93692D01*
X43965Y164892D02*
Y166292D01*
Y158692D02*
Y160092D01*
Y154892D02*
Y156292D01*
Y148492D02*
Y149892D01*
Y144692D02*
Y146092D01*
Y137492D02*
Y138892D01*
Y133692D02*
Y134892D01*
Y128092D02*
Y129292D01*
Y123492D02*
Y124692D01*
Y116892D02*
Y118292D01*
Y112892D02*
Y114092D01*
Y108892D02*
Y110292D01*
Y101692D02*
Y103092D01*
Y98292D02*
Y99692D01*
Y92092D02*
Y93492D01*
X43765Y164892D02*
Y166292D01*
Y158692D02*
Y160092D01*
Y154892D02*
Y156292D01*
Y148492D02*
Y150092D01*
Y144492D02*
Y146092D01*
Y137492D02*
Y139092D01*
Y133692D02*
Y134892D01*
Y128092D02*
Y129292D01*
Y123492D02*
Y124692D01*
Y116892D02*
Y118292D01*
Y112892D02*
Y114092D01*
Y108692D02*
Y110292D01*
Y101692D02*
Y103292D01*
Y98292D02*
Y99692D01*
Y92092D02*
Y93492D01*
X43565Y164892D02*
Y166292D01*
Y158692D02*
Y160092D01*
Y154892D02*
Y156292D01*
Y148492D02*
Y150092D01*
Y144492D02*
Y145892D01*
Y137692D02*
Y139092D01*
Y133692D02*
Y134892D01*
Y128092D02*
Y129292D01*
Y123492D02*
Y124692D01*
Y116892D02*
Y118292D01*
Y112892D02*
Y114092D01*
Y108692D02*
Y110092D01*
Y101892D02*
Y103292D01*
Y98292D02*
Y99692D01*
Y92092D02*
Y93492D01*
X43365Y164892D02*
Y166292D01*
Y158692D02*
Y160092D01*
Y154692D02*
Y156092D01*
Y148492D02*
Y150292D01*
Y144292D02*
Y145892D01*
Y137692D02*
Y139292D01*
Y133692D02*
Y134892D01*
Y128092D02*
Y129292D01*
Y123492D02*
Y124692D01*
Y116892D02*
Y118292D01*
Y112892D02*
Y114092D01*
Y108492D02*
Y110092D01*
Y101892D02*
Y103492D01*
Y98292D02*
Y99692D01*
Y92092D02*
Y93492D01*
X43165Y164692D02*
Y166092D01*
Y158692D02*
Y160092D01*
Y154692D02*
Y156092D01*
Y148492D02*
Y150492D01*
Y144092D02*
Y145692D01*
Y137692D02*
Y139292D01*
Y133692D02*
Y134892D01*
Y128092D02*
Y129292D01*
Y123492D02*
Y124692D01*
Y116892D02*
Y118292D01*
Y112892D02*
Y114092D01*
Y108292D02*
Y109892D01*
Y101892D02*
Y103492D01*
Y98092D02*
Y99492D01*
Y92092D02*
Y93492D01*
X42965Y164692D02*
Y166092D01*
Y158892D02*
Y160292D01*
Y154692D02*
Y156092D01*
Y148492D02*
Y150492D01*
Y144092D02*
Y145692D01*
Y137892D02*
Y139492D01*
Y133692D02*
Y134892D01*
Y128092D02*
Y129292D01*
Y123492D02*
Y124692D01*
Y116892D02*
Y118292D01*
Y112892D02*
Y114092D01*
Y108292D02*
Y109892D01*
Y102092D02*
Y103692D01*
Y98092D02*
Y99492D01*
Y92292D02*
Y93692D01*
X42765Y164492D02*
Y166092D01*
Y158892D02*
Y160292D01*
Y154492D02*
Y156092D01*
Y148492D02*
Y150692D01*
Y143892D02*
Y145492D01*
Y138092D02*
Y139692D01*
Y133692D02*
Y134892D01*
Y128092D02*
Y129292D01*
Y123492D02*
Y124692D01*
Y116892D02*
Y118292D01*
Y112892D02*
Y114092D01*
Y108092D02*
Y109692D01*
Y102292D02*
Y103892D01*
Y97892D02*
Y99492D01*
Y92292D02*
Y93692D01*
X42565Y164292D02*
Y165892D01*
Y158892D02*
Y160492D01*
Y154292D02*
Y155892D01*
Y148492D02*
Y150892D01*
Y143692D02*
Y145492D01*
Y138092D02*
Y139892D01*
Y133692D02*
Y134892D01*
Y128092D02*
Y129292D01*
Y123492D02*
Y124692D01*
Y116892D02*
Y118292D01*
Y112892D02*
Y114092D01*
Y107892D02*
Y109692D01*
Y102292D02*
Y104092D01*
Y97692D02*
Y99292D01*
Y92292D02*
Y93892D01*
X42365Y163892D02*
Y165892D01*
Y159092D02*
Y160892D01*
Y154092D02*
Y155892D01*
Y148492D02*
Y151292D01*
Y143292D02*
Y145292D01*
Y138292D02*
Y140292D01*
Y133692D02*
Y134892D01*
Y128092D02*
Y129292D01*
Y123492D02*
Y124692D01*
Y116892D02*
Y118292D01*
Y112892D02*
Y114092D01*
Y107492D02*
Y109492D01*
Y102492D02*
Y104492D01*
Y97292D02*
Y99292D01*
Y92492D02*
Y94292D01*
X42165Y163692D02*
Y165692D01*
Y159092D02*
Y161092D01*
Y153892D02*
Y155892D01*
Y149892D02*
Y151692D01*
Y148492D02*
Y149692D01*
Y142892D02*
Y145092D01*
Y138492D02*
Y140692D01*
Y133692D02*
Y134892D01*
Y128092D02*
Y129292D01*
Y123492D02*
Y124692D01*
Y116892D02*
Y118292D01*
Y112892D02*
Y114092D01*
Y107092D02*
Y109292D01*
Y102692D02*
Y104892D01*
Y97092D02*
Y99092D01*
Y92492D02*
Y94492D01*
X41965Y162892D02*
Y165492D01*
Y159292D02*
Y161892D01*
Y153092D02*
Y155692D01*
Y150092D02*
Y152292D01*
Y148492D02*
Y149692D01*
Y142292D02*
Y144892D01*
Y138692D02*
Y141292D01*
Y133692D02*
Y134892D01*
Y126092D02*
Y131492D01*
Y123492D02*
Y124692D01*
Y116892D02*
Y118292D01*
Y112892D02*
Y114092D01*
Y106492D02*
Y109092D01*
Y102892D02*
Y105492D01*
Y96292D02*
Y98892D01*
Y92692D02*
Y95292D01*
X41765Y159492D02*
Y165492D01*
Y150292D02*
Y155492D01*
Y148492D02*
Y149692D01*
Y138892D02*
Y144692D01*
Y133692D02*
Y134892D01*
Y126092D02*
Y131492D01*
Y123492D02*
Y124692D01*
Y116892D02*
Y118292D01*
Y112892D02*
Y114092D01*
Y103092D02*
Y108892D01*
Y92892D02*
Y98892D01*
X41565Y159692D02*
Y165092D01*
Y150492D02*
Y155292D01*
Y148492D02*
Y149692D01*
Y139092D02*
Y144492D01*
Y133692D02*
Y134892D01*
Y126092D02*
Y131492D01*
Y123492D02*
Y124692D01*
Y116892D02*
Y118292D01*
Y112892D02*
Y114092D01*
Y103292D02*
Y108692D01*
Y93092D02*
Y98492D01*
X41365Y160092D02*
Y164892D01*
Y150892D02*
Y155092D01*
Y148492D02*
Y149692D01*
Y139492D02*
Y144092D01*
Y133692D02*
Y134892D01*
Y126092D02*
Y131492D01*
Y123492D02*
Y124692D01*
Y116892D02*
Y118292D01*
Y112892D02*
Y114092D01*
Y103692D02*
Y108292D01*
Y93492D02*
Y98292D01*
X41165Y160292D02*
Y164492D01*
Y151092D02*
Y154892D01*
Y148492D02*
Y149692D01*
Y139892D02*
Y143692D01*
Y133692D02*
Y134892D01*
Y126092D02*
Y131492D01*
Y123492D02*
Y124692D01*
Y116892D02*
Y118292D01*
Y112892D02*
Y114092D01*
Y104092D02*
Y107892D01*
Y93692D02*
Y97892D01*
X40965Y160892D02*
Y163892D01*
Y151692D02*
Y154292D01*
Y148492D02*
Y149692D01*
Y140292D02*
Y143292D01*
Y133692D02*
Y134892D01*
Y126092D02*
Y131492D01*
Y123492D02*
Y124692D01*
Y116892D02*
Y118292D01*
Y112892D02*
Y114092D01*
Y104492D02*
Y107492D01*
Y94292D02*
Y97292D01*
X40765Y128092D02*
Y129292D01*
Y112892D02*
Y114092D01*
X40565Y128092D02*
Y129292D01*
Y112892D02*
Y114092D01*
X40365Y128092D02*
Y129292D01*
Y112892D02*
Y114092D01*
X40165Y128092D02*
Y129292D01*
Y112892D02*
Y114092D01*
X39965Y128092D02*
Y129292D01*
Y112892D02*
Y114092D01*
X39765Y128092D02*
Y129292D01*
Y112892D02*
Y114092D01*
X39565Y128092D02*
Y129292D01*
Y112892D02*
Y114092D01*
X39365Y128092D02*
Y129292D01*
Y112892D02*
Y114092D01*
X39165Y128092D02*
Y129292D01*
Y112892D02*
Y114092D01*
X38965Y134092D02*
Y134692D01*
Y128092D02*
Y129292D01*
Y112892D02*
Y114092D01*
X38765Y133692D02*
Y135092D01*
Y128092D02*
Y129292D01*
Y112892D02*
Y114092D01*
X38565Y133492D02*
Y135092D01*
Y128092D02*
Y129292D01*
Y112892D02*
Y114092D01*
X38365Y133492D02*
Y135092D01*
Y112892D02*
Y114092D01*
X38165Y133492D02*
Y135292D01*
Y112892D02*
Y114092D01*
X37965Y133492D02*
Y135292D01*
Y112892D02*
Y114092D01*
X37765Y133492D02*
Y135092D01*
Y112892D02*
Y114092D01*
X37565Y133692D02*
Y135092D01*
Y112892D02*
Y114092D01*
X37365Y133892D02*
Y134692D01*
Y112892D02*
Y114092D01*
X37165Y112892D02*
Y114092D01*
X36965Y112892D02*
Y114092D01*
X36765Y112892D02*
Y114092D01*
X35165Y163292D02*
Y166092D01*
Y145692D02*
Y148292D01*
Y121492D02*
Y124092D01*
Y104292D02*
Y106892D01*
X34965Y162692D02*
Y166692D01*
Y154492D02*
Y155692D01*
Y150492D02*
Y151892D01*
Y145292D02*
Y148892D01*
Y138092D02*
Y139492D01*
Y131892D02*
Y133092D01*
Y125892D02*
Y127092D01*
Y121092D02*
Y124692D01*
Y113092D02*
Y114292D01*
Y109092D02*
Y110492D01*
Y103892D02*
Y107492D01*
Y98892D02*
Y100092D01*
Y92292D02*
Y93692D01*
X34765Y162292D02*
Y167092D01*
Y154492D02*
Y155692D01*
Y150492D02*
Y151892D01*
Y144892D02*
Y149292D01*
Y138092D02*
Y139492D01*
Y131692D02*
Y133092D01*
Y125892D02*
Y127092D01*
Y120692D02*
Y125092D01*
Y113092D02*
Y114292D01*
Y109092D02*
Y110492D01*
Y103492D02*
Y107892D01*
Y98892D02*
Y100092D01*
Y92292D02*
Y93692D01*
X34565Y162092D02*
Y167292D01*
Y154492D02*
Y155692D01*
Y150492D02*
Y151892D01*
Y144692D02*
Y149692D01*
Y138092D02*
Y139492D01*
Y131692D02*
Y133292D01*
Y125892D02*
Y127092D01*
Y120492D02*
Y125292D01*
Y113092D02*
Y114292D01*
Y109092D02*
Y110492D01*
Y103292D02*
Y108292D01*
Y98892D02*
Y100092D01*
Y92292D02*
Y93692D01*
X34365Y161692D02*
Y167492D01*
Y154492D02*
Y155692D01*
Y150492D02*
Y151892D01*
Y144492D02*
Y149892D01*
Y137892D02*
Y139492D01*
Y131692D02*
Y133292D01*
Y125892D02*
Y127092D01*
Y120292D02*
Y125492D01*
Y113092D02*
Y114292D01*
Y109092D02*
Y110492D01*
Y103092D02*
Y108492D01*
Y98892D02*
Y100092D01*
Y92292D02*
Y93692D01*
X34165Y164892D02*
Y167692D01*
Y161492D02*
Y164492D01*
Y154492D02*
Y155692D01*
Y150292D02*
Y151692D01*
Y144292D02*
Y150092D01*
Y137892D02*
Y139692D01*
Y131692D02*
Y133292D01*
Y125892D02*
Y127092D01*
Y120092D02*
Y125692D01*
Y113092D02*
Y114292D01*
Y108892D02*
Y110292D01*
Y102892D02*
Y108692D01*
Y98892D02*
Y100092D01*
Y92292D02*
Y93692D01*
X33965Y165892D02*
Y167892D01*
Y161292D02*
Y163492D01*
Y154492D02*
Y155692D01*
Y148292D02*
Y151692D01*
Y144092D02*
Y146292D01*
Y137892D02*
Y139692D01*
Y131492D02*
Y133492D01*
Y124092D02*
Y127092D01*
Y119892D02*
Y122092D01*
Y113092D02*
Y114292D01*
Y106892D02*
Y110292D01*
Y102692D02*
Y104892D01*
Y98892D02*
Y100092D01*
Y92292D02*
Y93692D01*
X33765Y166292D02*
Y168092D01*
Y161092D02*
Y163092D01*
Y154492D02*
Y155692D01*
Y148692D02*
Y151692D01*
Y143892D02*
Y145892D01*
Y137692D02*
Y139692D01*
Y131492D02*
Y133492D01*
Y124492D02*
Y127092D01*
Y119692D02*
Y121692D01*
Y113092D02*
Y114292D01*
Y107292D02*
Y110292D01*
Y102492D02*
Y104492D01*
Y98892D02*
Y100092D01*
Y92292D02*
Y93692D01*
X33565Y166692D02*
Y168292D01*
Y161092D02*
Y162892D01*
Y154492D02*
Y155692D01*
Y149092D02*
Y151692D01*
Y143892D02*
Y145692D01*
Y137692D02*
Y139892D01*
Y131492D02*
Y133492D01*
Y124892D02*
Y127092D01*
Y119692D02*
Y121292D01*
Y113092D02*
Y114292D01*
Y107692D02*
Y110292D01*
Y102492D02*
Y104292D01*
Y98892D02*
Y100092D01*
Y92292D02*
Y93692D01*
X33365Y166892D02*
Y168292D01*
Y160892D02*
Y162692D01*
Y154492D02*
Y155692D01*
Y149292D02*
Y151692D01*
Y143892D02*
Y145492D01*
Y137692D02*
Y139892D01*
Y131292D02*
Y133692D01*
Y125092D02*
Y127092D01*
Y119492D02*
Y121092D01*
Y113092D02*
Y114292D01*
Y107892D02*
Y110292D01*
Y102492D02*
Y104092D01*
Y98892D02*
Y100092D01*
Y92292D02*
Y93692D01*
X33165Y167092D02*
Y168092D01*
Y160692D02*
Y162492D01*
Y154492D02*
Y155692D01*
Y149692D02*
Y151692D01*
Y143692D02*
Y145292D01*
Y137492D02*
Y139892D01*
Y131292D02*
Y133692D01*
Y125292D02*
Y127092D01*
Y119492D02*
Y120892D01*
Y113092D02*
Y114292D01*
Y108292D02*
Y110292D01*
Y102292D02*
Y103892D01*
Y98892D02*
Y100092D01*
Y92292D02*
Y93692D01*
X32965Y167292D02*
Y167892D01*
Y160692D02*
Y162292D01*
Y154492D02*
Y155692D01*
Y149892D02*
Y151692D01*
Y143692D02*
Y145092D01*
Y137492D02*
Y139892D01*
Y131292D02*
Y133692D01*
Y125492D02*
Y127092D01*
Y119292D02*
Y120892D01*
Y113092D02*
Y114292D01*
Y108492D02*
Y110292D01*
Y102292D02*
Y103692D01*
Y98892D02*
Y100092D01*
Y92292D02*
Y93692D01*
X32765Y160492D02*
Y162092D01*
Y154492D02*
Y155692D01*
Y149892D02*
Y151692D01*
Y143692D02*
Y145092D01*
Y138892D02*
Y140092D01*
Y137492D02*
Y138692D01*
Y131292D02*
Y133892D01*
Y125492D02*
Y127092D01*
Y119292D02*
Y120692D01*
Y113092D02*
Y114292D01*
Y108492D02*
Y110292D01*
Y102292D02*
Y103692D01*
Y98892D02*
Y100092D01*
Y92292D02*
Y93692D01*
X32565Y160492D02*
Y161892D01*
Y154492D02*
Y155692D01*
Y150092D02*
Y151692D01*
Y143692D02*
Y145092D01*
Y138892D02*
Y140092D01*
Y137292D02*
Y138692D01*
Y132692D02*
Y133892D01*
Y131092D02*
Y132492D01*
Y125692D02*
Y127092D01*
Y119092D02*
Y120692D01*
Y113092D02*
Y114292D01*
Y108692D02*
Y110292D01*
Y102292D02*
Y103692D01*
Y98892D02*
Y100092D01*
Y92292D02*
Y93692D01*
X32365Y160292D02*
Y161892D01*
Y154492D02*
Y155692D01*
Y150292D02*
Y151692D01*
Y143692D02*
Y145092D01*
Y138892D02*
Y140092D01*
Y137292D02*
Y138492D01*
Y132692D02*
Y133892D01*
Y131092D02*
Y132292D01*
Y125692D02*
Y127092D01*
Y119092D02*
Y120492D01*
Y113092D02*
Y114292D01*
Y108892D02*
Y110292D01*
Y102292D02*
Y103692D01*
Y98892D02*
Y100092D01*
Y92292D02*
Y93692D01*
X32165Y160292D02*
Y161692D01*
Y154492D02*
Y155692D01*
Y150292D02*
Y151692D01*
Y143692D02*
Y145092D01*
Y138892D02*
Y140292D01*
Y137292D02*
Y138492D01*
Y132692D02*
Y133892D01*
Y131092D02*
Y132292D01*
Y125892D02*
Y127092D01*
Y119092D02*
Y120492D01*
Y113092D02*
Y114292D01*
Y108892D02*
Y110292D01*
Y102292D02*
Y103692D01*
Y98892D02*
Y100092D01*
Y92292D02*
Y93692D01*
X31965Y160292D02*
Y161692D01*
Y154492D02*
Y155692D01*
Y150292D02*
Y151692D01*
Y143692D02*
Y145092D01*
Y139092D02*
Y140292D01*
Y137092D02*
Y138492D01*
Y132892D02*
Y134092D01*
Y130892D02*
Y132292D01*
Y125892D02*
Y127092D01*
Y118892D02*
Y120292D01*
Y113092D02*
Y114292D01*
Y108892D02*
Y110292D01*
Y102292D02*
Y103692D01*
Y98892D02*
Y100092D01*
Y92292D02*
Y93692D01*
X31765Y160092D02*
Y161492D01*
Y154492D02*
Y155692D01*
Y150292D02*
Y151692D01*
Y143692D02*
Y145092D01*
Y139092D02*
Y140292D01*
Y137092D02*
Y138292D01*
Y132892D02*
Y134092D01*
Y130892D02*
Y132292D01*
Y125892D02*
Y127092D01*
Y118892D02*
Y120292D01*
Y113092D02*
Y114292D01*
Y108892D02*
Y110292D01*
Y102292D02*
Y103692D01*
Y98892D02*
Y100092D01*
Y92292D02*
Y93692D01*
X31565Y160092D02*
Y161492D01*
Y154492D02*
Y155692D01*
Y150292D02*
Y151692D01*
Y143692D02*
Y145092D01*
Y139092D02*
Y140492D01*
Y137092D02*
Y138292D01*
Y132892D02*
Y134092D01*
Y130892D02*
Y132092D01*
Y125892D02*
Y127092D01*
Y118892D02*
Y120292D01*
Y113092D02*
Y114292D01*
Y108892D02*
Y110292D01*
Y102292D02*
Y103692D01*
Y98892D02*
Y100092D01*
Y92292D02*
Y93692D01*
X31365Y160092D02*
Y161492D01*
Y154492D02*
Y155692D01*
Y150292D02*
Y151692D01*
Y143892D02*
Y145292D01*
Y139292D02*
Y140492D01*
Y136892D02*
Y138292D01*
Y133092D02*
Y134292D01*
Y130892D02*
Y132092D01*
Y125892D02*
Y127092D01*
Y118892D02*
Y120292D01*
Y113092D02*
Y114292D01*
Y108892D02*
Y110292D01*
Y102492D02*
Y103892D01*
Y98892D02*
Y100092D01*
Y92292D02*
Y93692D01*
X31165Y160092D02*
Y161492D01*
Y154492D02*
Y155692D01*
Y150292D02*
Y151692D01*
Y143892D02*
Y145492D01*
Y139292D02*
Y140492D01*
Y136892D02*
Y138092D01*
Y133092D02*
Y134292D01*
Y130692D02*
Y132092D01*
Y125892D02*
Y127092D01*
Y118892D02*
Y120292D01*
Y113092D02*
Y114292D01*
Y108892D02*
Y110292D01*
Y102492D02*
Y104092D01*
Y98892D02*
Y100092D01*
Y92292D02*
Y93692D01*
X30965Y160092D02*
Y161292D01*
Y154492D02*
Y155692D01*
Y150292D02*
Y151692D01*
Y143892D02*
Y145692D01*
Y139292D02*
Y140492D01*
Y136892D02*
Y138092D01*
Y133092D02*
Y134292D01*
Y130692D02*
Y131892D01*
Y125892D02*
Y127092D01*
Y118892D02*
Y120092D01*
Y113092D02*
Y114292D01*
Y108892D02*
Y110292D01*
Y102492D02*
Y104292D01*
Y98892D02*
Y100092D01*
Y92292D02*
Y93692D01*
X30765Y160092D02*
Y161292D01*
Y154492D02*
Y155692D01*
Y150292D02*
Y151692D01*
Y144092D02*
Y145892D01*
Y139292D02*
Y140692D01*
Y136692D02*
Y138092D01*
Y133292D02*
Y134492D01*
Y130692D02*
Y131892D01*
Y125892D02*
Y127092D01*
Y118892D02*
Y120092D01*
Y113092D02*
Y114292D01*
Y108892D02*
Y110292D01*
Y102692D02*
Y104492D01*
Y98892D02*
Y100092D01*
Y92292D02*
Y93692D01*
X30565Y160092D02*
Y161292D01*
Y154492D02*
Y155692D01*
Y150292D02*
Y151692D01*
Y144292D02*
Y146292D01*
Y139492D02*
Y140692D01*
Y136692D02*
Y137892D01*
Y133292D02*
Y134492D01*
Y130492D02*
Y131892D01*
Y125892D02*
Y127092D01*
Y118892D02*
Y120092D01*
Y113092D02*
Y114292D01*
Y108892D02*
Y110292D01*
Y102892D02*
Y104892D01*
Y98892D02*
Y100092D01*
Y92292D02*
Y93692D01*
X30365Y160092D02*
Y161292D01*
Y154492D02*
Y155692D01*
Y150292D02*
Y151692D01*
Y144492D02*
Y146892D01*
Y139492D02*
Y140692D01*
Y136692D02*
Y137892D01*
Y133292D02*
Y134492D01*
Y130492D02*
Y131892D01*
Y125892D02*
Y127092D01*
Y118892D02*
Y120092D01*
Y113092D02*
Y114292D01*
Y108892D02*
Y110292D01*
Y103092D02*
Y105492D01*
Y98892D02*
Y100092D01*
Y92292D02*
Y93692D01*
X30165Y160092D02*
Y168492D01*
Y154492D02*
Y155692D01*
Y150292D02*
Y151692D01*
Y144692D02*
Y147892D01*
Y139492D02*
Y140892D01*
Y136692D02*
Y137892D01*
Y133292D02*
Y134692D01*
Y130492D02*
Y131692D01*
Y125892D02*
Y127092D01*
Y118892D02*
Y120092D01*
Y113092D02*
Y114292D01*
Y108892D02*
Y110292D01*
Y103292D02*
Y106492D01*
Y98892D02*
Y100092D01*
Y92292D02*
Y93692D01*
X29965Y160092D02*
Y168492D01*
Y154492D02*
Y155692D01*
Y144892D02*
Y151692D01*
Y139492D02*
Y140892D01*
Y136492D02*
Y137892D01*
Y133492D02*
Y134692D01*
Y130292D02*
Y131692D01*
Y125892D02*
Y127092D01*
Y118892D02*
Y120092D01*
Y113092D02*
Y114292D01*
Y103492D02*
Y110292D01*
Y98892D02*
Y100092D01*
Y92292D02*
Y93692D01*
X29765Y160092D02*
Y168492D01*
Y154492D02*
Y155692D01*
Y145092D02*
Y151692D01*
Y139692D02*
Y140892D01*
Y136492D02*
Y137692D01*
Y133492D02*
Y134692D01*
Y130292D02*
Y131692D01*
Y125892D02*
Y127092D01*
Y118892D02*
Y120092D01*
Y113092D02*
Y114292D01*
Y103692D02*
Y110292D01*
Y98892D02*
Y100092D01*
Y92292D02*
Y93692D01*
X29565Y160092D02*
Y168492D01*
Y154492D02*
Y155692D01*
Y145492D02*
Y151692D01*
Y139692D02*
Y140892D01*
Y136492D02*
Y137692D01*
Y133492D02*
Y134892D01*
Y130292D02*
Y131692D01*
Y125892D02*
Y127092D01*
Y118892D02*
Y120092D01*
Y113092D02*
Y114292D01*
Y104092D02*
Y110292D01*
Y98892D02*
Y100092D01*
Y92292D02*
Y93692D01*
X29365Y160092D02*
Y168492D01*
Y154492D02*
Y155692D01*
Y146092D02*
Y151692D01*
Y139692D02*
Y141092D01*
Y136292D02*
Y137692D01*
Y133692D02*
Y134892D01*
Y130292D02*
Y131492D01*
Y125892D02*
Y127092D01*
Y118892D02*
Y120092D01*
Y113092D02*
Y114292D01*
Y104692D02*
Y110292D01*
Y98892D02*
Y100092D01*
Y92292D02*
Y93692D01*
X29165Y160092D02*
Y168492D01*
Y154492D02*
Y155692D01*
Y147092D02*
Y151692D01*
Y139692D02*
Y141092D01*
Y136292D02*
Y137492D01*
Y133692D02*
Y134892D01*
Y130092D02*
Y131492D01*
Y125892D02*
Y127092D01*
Y118892D02*
Y120092D01*
Y113092D02*
Y114292D01*
Y105692D02*
Y110292D01*
Y98892D02*
Y100092D01*
Y92292D02*
Y93692D01*
X28965Y167292D02*
Y168492D01*
Y160092D02*
Y161492D01*
Y154492D02*
Y155692D01*
Y150292D02*
Y151692D01*
Y139892D02*
Y141092D01*
Y136292D02*
Y137492D01*
Y133692D02*
Y135092D01*
Y130092D02*
Y131492D01*
Y125892D02*
Y127092D01*
Y118892D02*
Y120292D01*
Y113092D02*
Y114292D01*
Y108892D02*
Y110292D01*
Y98892D02*
Y100092D01*
Y92292D02*
Y93692D01*
X28765Y167092D02*
Y168492D01*
Y160092D02*
Y161492D01*
Y154492D02*
Y155692D01*
Y150292D02*
Y151692D01*
Y139892D02*
Y141292D01*
Y136092D02*
Y137492D01*
Y133892D02*
Y135092D01*
Y130092D02*
Y131292D01*
Y125892D02*
Y127092D01*
Y118892D02*
Y120292D01*
Y113092D02*
Y114292D01*
Y108892D02*
Y110292D01*
Y98892D02*
Y100092D01*
Y92292D02*
Y93692D01*
X28565Y167092D02*
Y168492D01*
Y160092D02*
Y161492D01*
Y154492D02*
Y155692D01*
Y150292D02*
Y151692D01*
Y139892D02*
Y141292D01*
Y136092D02*
Y137292D01*
Y133892D02*
Y135092D01*
Y129892D02*
Y131292D01*
Y125892D02*
Y127092D01*
Y118892D02*
Y120292D01*
Y113092D02*
Y114292D01*
Y108892D02*
Y110292D01*
Y98892D02*
Y100092D01*
Y92292D02*
Y93692D01*
X28365Y167092D02*
Y168492D01*
Y160092D02*
Y161492D01*
Y154492D02*
Y155692D01*
Y150292D02*
Y151692D01*
Y140092D02*
Y141292D01*
Y136092D02*
Y137292D01*
Y133892D02*
Y135292D01*
Y129892D02*
Y131292D01*
Y125892D02*
Y127092D01*
Y118892D02*
Y120292D01*
Y113092D02*
Y114292D01*
Y108892D02*
Y110292D01*
Y98892D02*
Y100092D01*
Y92292D02*
Y93692D01*
X28165Y167092D02*
Y168492D01*
Y160292D02*
Y161692D01*
Y154492D02*
Y155692D01*
Y150292D02*
Y151692D01*
Y140092D02*
Y141292D01*
Y135892D02*
Y137292D01*
Y134092D02*
Y135292D01*
Y129892D02*
Y131292D01*
Y125892D02*
Y127092D01*
Y118892D02*
Y120292D01*
Y113092D02*
Y114292D01*
Y108892D02*
Y110292D01*
Y98892D02*
Y100092D01*
Y92292D02*
Y93692D01*
X27965Y167092D02*
Y168292D01*
Y160292D02*
Y161692D01*
Y154492D02*
Y155892D01*
Y150292D02*
Y151692D01*
Y140092D02*
Y141492D01*
Y135892D02*
Y137092D01*
Y134092D02*
Y135292D01*
Y129892D02*
Y131092D01*
Y125892D02*
Y127092D01*
Y118892D02*
Y120492D01*
Y113092D02*
Y114492D01*
Y108892D02*
Y110292D01*
Y98892D02*
Y100092D01*
Y92292D02*
Y93692D01*
X27765Y166892D02*
Y168292D01*
Y160292D02*
Y161692D01*
Y154492D02*
Y155892D01*
Y150292D02*
Y151692D01*
Y143892D02*
Y145292D01*
Y140092D02*
Y141492D01*
Y135892D02*
Y137092D01*
Y134092D02*
Y135292D01*
Y129692D02*
Y131092D01*
Y125692D02*
Y127092D01*
Y119092D02*
Y120492D01*
Y113092D02*
Y114492D01*
Y108892D02*
Y110292D01*
Y102492D02*
Y103892D01*
Y98692D02*
Y100092D01*
Y92292D02*
Y93892D01*
X27565Y166892D02*
Y168292D01*
Y160492D02*
Y161892D01*
Y154492D02*
Y155892D01*
Y150292D02*
Y151692D01*
Y143892D02*
Y145292D01*
Y140292D02*
Y141492D01*
Y135692D02*
Y137092D01*
Y134292D02*
Y135492D01*
Y129692D02*
Y131092D01*
Y125692D02*
Y127092D01*
Y119092D02*
Y120492D01*
Y113092D02*
Y114492D01*
Y108892D02*
Y110292D01*
Y102492D02*
Y103892D01*
Y98692D02*
Y100092D01*
Y92292D02*
Y93892D01*
X27365Y166892D02*
Y168292D01*
Y160492D02*
Y161892D01*
Y154492D02*
Y156092D01*
Y150292D02*
Y151692D01*
Y143892D02*
Y145292D01*
Y140292D02*
Y141692D01*
Y135692D02*
Y136892D01*
Y134292D02*
Y135492D01*
Y129692D02*
Y131092D01*
Y125492D02*
Y127092D01*
Y119092D02*
Y120692D01*
Y113092D02*
Y114692D01*
Y108892D02*
Y110292D01*
Y102492D02*
Y103892D01*
Y98692D02*
Y100092D01*
Y92292D02*
Y94092D01*
X27165Y166692D02*
Y168092D01*
Y160692D02*
Y162092D01*
Y154492D02*
Y156092D01*
Y150092D02*
Y151492D01*
Y143892D02*
Y145292D01*
Y140292D02*
Y141692D01*
Y135692D02*
Y136892D01*
Y134292D02*
Y135492D01*
Y129492D02*
Y130892D01*
Y125492D02*
Y127092D01*
Y119292D02*
Y120692D01*
Y113092D02*
Y114692D01*
Y108692D02*
Y110092D01*
Y102492D02*
Y103892D01*
Y98692D02*
Y100092D01*
Y92292D02*
Y94292D01*
X26965Y166492D02*
Y168092D01*
Y160692D02*
Y162292D01*
Y154492D02*
Y156292D01*
Y150092D02*
Y151492D01*
Y144092D02*
Y145492D01*
Y140292D02*
Y141692D01*
Y134492D02*
Y136892D01*
Y129492D02*
Y130892D01*
Y125292D02*
Y127092D01*
Y119292D02*
Y120892D01*
Y113092D02*
Y114892D01*
Y108692D02*
Y110092D01*
Y102692D02*
Y104092D01*
Y98492D02*
Y99892D01*
Y92292D02*
Y94292D01*
X26765Y166492D02*
Y168092D01*
Y160892D02*
Y162492D01*
Y154492D02*
Y156492D01*
Y149892D02*
Y151492D01*
Y144092D02*
Y145692D01*
Y140492D02*
Y141892D01*
Y134492D02*
Y136892D01*
Y129492D02*
Y130892D01*
Y125092D02*
Y127092D01*
Y119492D02*
Y121092D01*
Y113092D02*
Y115092D01*
Y108492D02*
Y110092D01*
Y102692D02*
Y104292D01*
Y98492D02*
Y99892D01*
Y92292D02*
Y94492D01*
X26565Y166292D02*
Y167892D01*
Y160892D02*
Y162692D01*
Y154492D02*
Y156692D01*
Y149892D02*
Y151292D01*
Y144092D02*
Y145892D01*
Y140492D02*
Y141892D01*
Y134492D02*
Y136692D01*
Y129492D02*
Y130692D01*
Y124892D02*
Y127092D01*
Y119492D02*
Y121292D01*
Y113092D02*
Y115292D01*
Y108492D02*
Y109892D01*
Y102692D02*
Y104492D01*
Y98292D02*
Y99892D01*
Y92292D02*
Y94692D01*
X26365Y166092D02*
Y167692D01*
Y161092D02*
Y162892D01*
Y154492D02*
Y156892D01*
Y149492D02*
Y151292D01*
Y144292D02*
Y146092D01*
Y140492D02*
Y141892D01*
Y134492D02*
Y136692D01*
Y129292D02*
Y130692D01*
Y124692D02*
Y127092D01*
Y119692D02*
Y121492D01*
Y113092D02*
Y115492D01*
Y108092D02*
Y109892D01*
Y102892D02*
Y104692D01*
Y98092D02*
Y99892D01*
Y92292D02*
Y95092D01*
X26165Y165692D02*
Y167692D01*
Y161292D02*
Y163092D01*
Y154492D02*
Y157292D01*
Y149292D02*
Y151092D01*
Y144492D02*
Y146292D01*
Y140492D02*
Y141892D01*
Y134692D02*
Y136692D01*
Y129292D02*
Y130692D01*
Y124292D02*
Y127092D01*
Y119692D02*
Y121692D01*
Y113092D02*
Y115892D01*
Y107892D02*
Y109692D01*
Y103092D02*
Y104892D01*
Y97892D02*
Y99692D01*
Y92292D02*
Y95292D01*
X25965Y165292D02*
Y167492D01*
Y161492D02*
Y163692D01*
Y158692D02*
Y159292D01*
Y155892D02*
Y158092D01*
Y154492D02*
Y155692D01*
Y148892D02*
Y151092D01*
Y144692D02*
Y146892D01*
Y140692D02*
Y142092D01*
Y134692D02*
Y136492D01*
Y129292D02*
Y130692D01*
Y125892D02*
Y127092D01*
Y123892D02*
Y125692D01*
Y119892D02*
Y122292D01*
Y117292D02*
Y117892D01*
Y114492D02*
Y116692D01*
Y113092D02*
Y114292D01*
Y107492D02*
Y109692D01*
Y103292D02*
Y105492D01*
Y97292D02*
Y99692D01*
Y93892D02*
Y95892D01*
Y92292D02*
Y93692D01*
X25765Y161692D02*
Y167292D01*
Y155892D02*
Y159292D01*
Y154492D02*
Y155692D01*
Y144892D02*
Y150892D01*
Y140692D02*
Y142092D01*
Y134692D02*
Y136492D01*
Y129092D02*
Y130492D01*
Y125892D02*
Y127092D01*
Y120092D02*
Y125492D01*
Y114492D02*
Y117892D01*
Y113092D02*
Y114292D01*
Y103492D02*
Y109492D01*
Y94092D02*
Y99492D01*
Y92292D02*
Y93692D01*
X25565Y161892D02*
Y167092D01*
Y156092D02*
Y159292D01*
Y154492D02*
Y155692D01*
Y145092D02*
Y150692D01*
Y140692D02*
Y142092D01*
Y134892D02*
Y136492D01*
Y129092D02*
Y130492D01*
Y125892D02*
Y127092D01*
Y120292D02*
Y125292D01*
Y114692D02*
Y117892D01*
Y113092D02*
Y114292D01*
Y103692D02*
Y109292D01*
Y94292D02*
Y99292D01*
Y92292D02*
Y93692D01*
X25365Y162092D02*
Y166892D01*
Y156292D02*
Y159292D01*
Y154492D02*
Y155692D01*
Y145292D02*
Y150492D01*
Y140892D02*
Y142292D01*
Y134892D02*
Y136292D01*
Y129092D02*
Y130492D01*
Y125892D02*
Y127092D01*
Y120492D02*
Y125092D01*
Y114892D02*
Y117892D01*
Y113092D02*
Y114292D01*
Y103892D02*
Y109092D01*
Y94492D02*
Y99092D01*
Y92292D02*
Y93692D01*
X25165Y162492D02*
Y166492D01*
Y156692D02*
Y159292D01*
Y154492D02*
Y155692D01*
Y145692D02*
Y150092D01*
Y140892D02*
Y142292D01*
Y134892D02*
Y136292D01*
Y129092D02*
Y130492D01*
Y125892D02*
Y127092D01*
Y120892D02*
Y124892D01*
Y115292D02*
Y117892D01*
Y113092D02*
Y114292D01*
Y104292D02*
Y108692D01*
Y94892D02*
Y98892D01*
Y92292D02*
Y93692D01*
X24965Y162892D02*
Y166092D01*
Y156892D02*
Y159292D01*
Y154492D02*
Y155692D01*
Y146092D02*
Y149692D01*
Y140892D02*
Y142292D01*
Y135092D02*
Y136292D01*
Y128892D02*
Y130292D01*
Y125892D02*
Y127092D01*
Y121292D02*
Y124492D01*
Y115492D02*
Y117892D01*
Y113092D02*
Y114292D01*
Y104692D02*
Y108292D01*
Y95292D02*
Y98492D01*
Y92292D02*
Y93692D01*
X24765Y163492D02*
Y165492D01*
Y157492D02*
Y159292D01*
Y146892D02*
Y148892D01*
Y125892D02*
Y127092D01*
Y121892D02*
Y123692D01*
Y116092D02*
Y117892D01*
Y105492D02*
Y107492D01*
Y95892D02*
Y97892D01*
Y92292D02*
Y93692D01*
X24565Y125892D02*
Y127092D01*
Y92292D02*
Y93692D01*
X24365Y125892D02*
Y127092D01*
Y92292D02*
Y93692D01*
X24165Y125892D02*
Y127092D01*
Y92292D02*
Y93692D01*
X23965Y125892D02*
Y127092D01*
Y92292D02*
Y93692D01*
X23765Y125892D02*
Y127092D01*
Y92292D02*
Y93692D01*
X23565Y125892D02*
Y127092D01*
Y92292D02*
Y93692D01*
X23365Y125892D02*
Y127092D01*
Y92292D02*
Y93692D01*
X23165Y125892D02*
Y127092D01*
Y92292D02*
Y93692D01*
X22965Y125892D02*
Y127092D01*
Y92292D02*
Y93692D01*
X22765Y125892D02*
Y127092D01*
Y92292D02*
Y93692D01*
X22565Y125892D02*
Y127092D01*
Y92292D02*
Y93692D01*
X22365Y125892D02*
Y127092D01*
Y92292D02*
Y93692D01*
X22165Y125892D02*
Y127092D01*
Y92292D02*
Y93692D01*
X21965Y125892D02*
Y127092D01*
Y92292D02*
Y93692D01*
X21765Y125892D02*
Y127092D01*
Y92292D02*
Y93692D01*
X21565Y125892D02*
Y127092D01*
Y92292D02*
Y93692D01*
X21365Y125892D02*
Y127092D01*
Y92292D02*
Y93692D01*
X21165Y125892D02*
Y127092D01*
Y92292D02*
Y93692D01*
X20965Y125892D02*
Y127092D01*
Y92292D02*
Y93692D01*
X20765Y125892D02*
Y127092D01*
Y92292D02*
Y93692D01*
X17565Y153492D02*
Y154892D01*
Y144092D02*
Y145292D01*
Y132892D02*
Y134092D01*
Y123092D02*
Y124492D01*
Y112892D02*
Y114092D01*
Y101892D02*
Y103292D01*
X17365Y152492D02*
Y155892D01*
Y143092D02*
Y146092D01*
Y136692D02*
Y138092D01*
Y132092D02*
Y134692D01*
Y122292D02*
Y125292D01*
Y112092D02*
Y115092D01*
Y109292D02*
Y110492D01*
Y100892D02*
Y104092D01*
Y92292D02*
Y93692D01*
X17165Y151892D02*
Y156492D01*
Y142692D02*
Y146692D01*
Y136692D02*
Y138092D01*
Y131892D02*
Y134692D01*
Y121692D02*
Y125892D01*
Y111492D02*
Y115492D01*
Y109292D02*
Y110492D01*
Y100492D02*
Y104692D01*
Y92292D02*
Y93692D01*
X16965Y151492D02*
Y156892D01*
Y142292D02*
Y147092D01*
Y136692D02*
Y138092D01*
Y131692D02*
Y134692D01*
Y121292D02*
Y126292D01*
Y111292D02*
Y115692D01*
Y109292D02*
Y110492D01*
Y100092D02*
Y104892D01*
Y92292D02*
Y93692D01*
X16765Y151292D02*
Y157092D01*
Y142092D02*
Y147292D01*
Y136692D02*
Y138092D01*
Y131492D02*
Y134692D01*
Y121092D02*
Y126492D01*
Y110892D02*
Y116092D01*
Y109292D02*
Y110492D01*
Y99892D02*
Y105292D01*
Y92292D02*
Y93692D01*
X16565Y151092D02*
Y157292D01*
Y141692D02*
Y147492D01*
Y136692D02*
Y138092D01*
Y131292D02*
Y134692D01*
Y120892D02*
Y126692D01*
Y110692D02*
Y116292D01*
Y109292D02*
Y110492D01*
Y99492D02*
Y105492D01*
Y92292D02*
Y93692D01*
X16365Y155092D02*
Y157492D01*
Y150892D02*
Y153492D01*
Y145492D02*
Y147692D01*
Y141492D02*
Y143892D01*
Y136692D02*
Y138092D01*
Y134092D02*
Y134692D01*
Y131292D02*
Y133292D01*
Y124492D02*
Y126892D01*
Y120692D02*
Y123092D01*
Y113892D02*
Y116292D01*
Y109292D02*
Y112692D01*
Y103292D02*
Y105692D01*
Y99292D02*
Y101892D01*
Y92292D02*
Y93692D01*
X16165Y155692D02*
Y157692D01*
Y150692D02*
Y152692D01*
Y145892D02*
Y147892D01*
Y141492D02*
Y143492D01*
Y136692D02*
Y138092D01*
Y131292D02*
Y132892D01*
Y125092D02*
Y127092D01*
Y120492D02*
Y122492D01*
Y114492D02*
Y116492D01*
Y109292D02*
Y112092D01*
Y103892D02*
Y105892D01*
Y99092D02*
Y101292D01*
Y92292D02*
Y93692D01*
X15965Y155892D02*
Y157692D01*
Y150492D02*
Y152492D01*
Y146292D02*
Y148092D01*
Y141292D02*
Y143092D01*
Y136692D02*
Y138092D01*
Y131092D02*
Y132692D01*
Y125492D02*
Y127292D01*
Y120292D02*
Y122092D01*
Y114892D02*
Y116692D01*
Y109292D02*
Y111692D01*
Y104092D02*
Y106092D01*
Y99092D02*
Y100892D01*
Y92292D02*
Y93692D01*
X15765Y156292D02*
Y157892D01*
Y150492D02*
Y152092D01*
Y146492D02*
Y148292D01*
Y141092D02*
Y142892D01*
Y136692D02*
Y138092D01*
Y131092D02*
Y132492D01*
Y125692D02*
Y127492D01*
Y120092D02*
Y121892D01*
Y115092D02*
Y116892D01*
Y109292D02*
Y111492D01*
Y104492D02*
Y106292D01*
Y98892D02*
Y100692D01*
Y92292D02*
Y93692D01*
X15565Y156492D02*
Y157892D01*
Y150292D02*
Y151892D01*
Y146692D02*
Y148292D01*
Y141092D02*
Y142692D01*
Y136692D02*
Y138092D01*
Y131092D02*
Y132492D01*
Y125892D02*
Y127692D01*
Y119892D02*
Y121692D01*
Y115292D02*
Y116892D01*
Y109292D02*
Y111292D01*
Y104692D02*
Y106292D01*
Y98692D02*
Y100492D01*
Y92292D02*
Y93692D01*
X15365Y156492D02*
Y157892D01*
Y150292D02*
Y151892D01*
Y146892D02*
Y148492D01*
Y140892D02*
Y142492D01*
Y136692D02*
Y138092D01*
Y131092D02*
Y132492D01*
Y126092D02*
Y127692D01*
Y119892D02*
Y121492D01*
Y115492D02*
Y117092D01*
Y109292D02*
Y111092D01*
Y104892D02*
Y106492D01*
Y98692D02*
Y100292D01*
Y92292D02*
Y93692D01*
X15165Y156692D02*
Y158092D01*
Y150292D02*
Y151692D01*
Y147092D02*
Y148492D01*
Y140892D02*
Y142292D01*
Y136692D02*
Y138092D01*
Y131092D02*
Y132492D01*
Y126292D02*
Y127892D01*
Y119692D02*
Y121292D01*
Y115492D02*
Y117092D01*
Y109292D02*
Y110892D01*
Y105092D02*
Y106492D01*
Y98492D02*
Y100092D01*
Y92292D02*
Y93692D01*
X14965Y156692D02*
Y158092D01*
Y150292D02*
Y151692D01*
Y147092D02*
Y148492D01*
Y140692D02*
Y142092D01*
Y136692D02*
Y138092D01*
Y131092D02*
Y132492D01*
Y126292D02*
Y127892D01*
Y119692D02*
Y121292D01*
Y115692D02*
Y117092D01*
Y109292D02*
Y110692D01*
Y105092D02*
Y106692D01*
Y98492D02*
Y99892D01*
Y92292D02*
Y93692D01*
X14765Y156692D02*
Y158092D01*
Y150092D02*
Y151492D01*
Y147292D02*
Y148692D01*
Y140692D02*
Y142092D01*
Y136692D02*
Y138092D01*
Y131092D02*
Y132492D01*
Y126492D02*
Y127892D01*
Y119492D02*
Y121092D01*
Y115692D02*
Y117292D01*
Y109292D02*
Y110692D01*
Y105292D02*
Y106692D01*
Y98292D02*
Y99892D01*
Y92292D02*
Y93692D01*
X14565Y156692D02*
Y158092D01*
Y150092D02*
Y151492D01*
Y147292D02*
Y148692D01*
Y140492D02*
Y141892D01*
Y136692D02*
Y138092D01*
Y131092D02*
Y132492D01*
Y126692D02*
Y128092D01*
Y119492D02*
Y120892D01*
Y115892D02*
Y117292D01*
Y109292D02*
Y110492D01*
Y105292D02*
Y106892D01*
Y98292D02*
Y99692D01*
Y92292D02*
Y93692D01*
X14365Y156692D02*
Y158092D01*
Y147292D02*
Y148692D01*
Y140492D02*
Y141892D01*
Y136692D02*
Y138092D01*
Y131092D02*
Y132492D01*
Y126692D02*
Y128092D01*
Y119492D02*
Y120892D01*
Y115892D02*
Y117292D01*
Y109292D02*
Y110492D01*
Y105492D02*
Y106892D01*
Y98292D02*
Y99692D01*
Y92292D02*
Y93692D01*
X14165Y156492D02*
Y158092D01*
Y147292D02*
Y148692D01*
Y140492D02*
Y141892D01*
Y136692D02*
Y138092D01*
Y131092D02*
Y132492D01*
Y126692D02*
Y128092D01*
Y119292D02*
Y120892D01*
Y115892D02*
Y117292D01*
Y109292D02*
Y110492D01*
Y105492D02*
Y106892D01*
Y98092D02*
Y99492D01*
Y92292D02*
Y93692D01*
X13965Y156492D02*
Y157892D01*
Y140492D02*
Y141692D01*
Y136692D02*
Y138092D01*
Y131092D02*
Y132492D01*
Y126892D02*
Y128292D01*
Y119292D02*
Y120692D01*
Y116092D02*
Y117492D01*
Y109292D02*
Y110492D01*
Y105692D02*
Y106892D01*
Y98092D02*
Y99492D01*
Y92292D02*
Y93692D01*
X13765Y156292D02*
Y157892D01*
Y140292D02*
Y141692D01*
Y136692D02*
Y138092D01*
Y131092D02*
Y132492D01*
Y126892D02*
Y128292D01*
Y119292D02*
Y120692D01*
Y116092D02*
Y117492D01*
Y109292D02*
Y110492D01*
Y105692D02*
Y107092D01*
Y98092D02*
Y99492D01*
Y92292D02*
Y93692D01*
X13565Y156092D02*
Y157892D01*
Y140292D02*
Y141692D01*
Y136692D02*
Y138092D01*
Y131092D02*
Y132492D01*
Y126892D02*
Y128292D01*
Y119292D02*
Y120692D01*
Y116092D02*
Y117492D01*
Y109292D02*
Y110492D01*
Y105692D02*
Y107092D01*
Y98092D02*
Y99492D01*
Y92292D02*
Y93692D01*
X13365Y155892D02*
Y157692D01*
Y140292D02*
Y141692D01*
Y136692D02*
Y138092D01*
Y131092D02*
Y132492D01*
Y126892D02*
Y128292D01*
Y119292D02*
Y120492D01*
Y116092D02*
Y117492D01*
Y109292D02*
Y110492D01*
Y105692D02*
Y107092D01*
Y98092D02*
Y99292D01*
Y92292D02*
Y93692D01*
X13165Y155492D02*
Y157692D01*
Y140292D02*
Y141692D01*
Y136692D02*
Y138092D01*
Y131092D02*
Y132492D01*
Y127092D02*
Y128292D01*
Y119292D02*
Y120492D01*
Y116092D02*
Y117492D01*
Y109292D02*
Y110492D01*
Y105692D02*
Y107092D01*
Y97892D02*
Y99292D01*
Y92292D02*
Y93692D01*
X12965Y154892D02*
Y157492D01*
Y140292D02*
Y141692D01*
Y136692D02*
Y138092D01*
Y131092D02*
Y132492D01*
Y127092D02*
Y128292D01*
Y119292D02*
Y120492D01*
Y116292D02*
Y117492D01*
Y109292D02*
Y110492D01*
Y105892D02*
Y107092D01*
Y97892D02*
Y99292D01*
Y92292D02*
Y93692D01*
X12765Y154292D02*
Y157292D01*
Y140292D02*
Y141692D01*
Y136692D02*
Y138092D01*
Y131092D02*
Y132492D01*
Y127092D02*
Y128292D01*
Y119292D02*
Y120492D01*
Y116292D02*
Y117492D01*
Y109292D02*
Y110492D01*
Y105892D02*
Y107092D01*
Y97892D02*
Y99292D01*
Y92292D02*
Y93692D01*
X12565Y153292D02*
Y156892D01*
Y140292D02*
Y141692D01*
Y136692D02*
Y138092D01*
Y131092D02*
Y132492D01*
Y127092D02*
Y128292D01*
Y119092D02*
Y120492D01*
Y116292D02*
Y117492D01*
Y109292D02*
Y110492D01*
Y105892D02*
Y107092D01*
Y97892D02*
Y99292D01*
Y92292D02*
Y93692D01*
X12365Y152692D02*
Y156692D01*
Y140292D02*
Y141692D01*
Y136692D02*
Y138092D01*
Y131092D02*
Y132492D01*
Y127092D02*
Y128292D01*
Y119092D02*
Y120492D01*
Y116292D02*
Y117492D01*
Y109292D02*
Y110492D01*
Y105892D02*
Y107092D01*
Y97892D02*
Y99292D01*
Y92292D02*
Y93692D01*
X12165Y152092D02*
Y156292D01*
Y140292D02*
Y141692D01*
Y136692D02*
Y138092D01*
Y131092D02*
Y132492D01*
Y127092D02*
Y128292D01*
Y119092D02*
Y120492D01*
Y116292D02*
Y117492D01*
Y109292D02*
Y110492D01*
Y105892D02*
Y107092D01*
Y97892D02*
Y99292D01*
Y92292D02*
Y93692D01*
X11965Y151692D02*
Y155692D01*
Y140292D02*
Y141692D01*
Y136692D02*
Y138092D01*
Y131092D02*
Y132492D01*
Y127092D02*
Y128292D01*
Y119092D02*
Y120492D01*
Y116292D02*
Y117492D01*
Y109292D02*
Y110492D01*
Y105892D02*
Y107092D01*
Y97892D02*
Y99292D01*
Y92292D02*
Y93692D01*
X11765Y151492D02*
Y155092D01*
Y140292D02*
Y141692D01*
Y136692D02*
Y138092D01*
Y131092D02*
Y132492D01*
Y127092D02*
Y128292D01*
Y119292D02*
Y120492D01*
Y116292D02*
Y117492D01*
Y109292D02*
Y110492D01*
Y105892D02*
Y107092D01*
Y97892D02*
Y99292D01*
Y92292D02*
Y93692D01*
X11565Y151292D02*
Y154292D01*
Y140292D02*
Y141692D01*
Y136692D02*
Y138092D01*
Y131092D02*
Y132492D01*
Y127092D02*
Y128292D01*
Y119292D02*
Y120492D01*
Y116292D02*
Y117492D01*
Y109292D02*
Y110492D01*
Y105892D02*
Y107092D01*
Y97892D02*
Y99292D01*
Y92292D02*
Y93692D01*
X11365Y151092D02*
Y153492D01*
Y140292D02*
Y141692D01*
Y136692D02*
Y138092D01*
Y131092D02*
Y132492D01*
Y127092D02*
Y128292D01*
Y119292D02*
Y120492D01*
Y116092D02*
Y117492D01*
Y109292D02*
Y110492D01*
Y105692D02*
Y107092D01*
Y97892D02*
Y99292D01*
Y92292D02*
Y93692D01*
X11165Y150892D02*
Y153092D01*
Y140292D02*
Y141692D01*
Y136692D02*
Y138092D01*
Y131092D02*
Y132492D01*
Y126892D02*
Y128292D01*
Y119292D02*
Y120692D01*
Y116092D02*
Y117492D01*
Y109292D02*
Y110492D01*
Y105692D02*
Y107092D01*
Y98092D02*
Y99292D01*
Y92292D02*
Y93692D01*
X10965Y150692D02*
Y152492D01*
Y140292D02*
Y141692D01*
Y136692D02*
Y138092D01*
Y131092D02*
Y132492D01*
Y126892D02*
Y128292D01*
Y119292D02*
Y120692D01*
Y116092D02*
Y117492D01*
Y109292D02*
Y110492D01*
Y105692D02*
Y107092D01*
Y98092D02*
Y99492D01*
Y92292D02*
Y93692D01*
X10765Y150692D02*
Y152292D01*
Y140292D02*
Y141692D01*
Y136692D02*
Y138092D01*
Y131092D02*
Y132492D01*
Y126892D02*
Y128292D01*
Y119292D02*
Y120692D01*
Y116092D02*
Y117492D01*
Y109292D02*
Y110492D01*
Y105692D02*
Y107092D01*
Y98092D02*
Y99492D01*
Y92292D02*
Y93692D01*
X10565Y150492D02*
Y152092D01*
Y147292D02*
Y148692D01*
Y140492D02*
Y141892D01*
Y136692D02*
Y138092D01*
Y131092D02*
Y132492D01*
Y126892D02*
Y128292D01*
Y119292D02*
Y120692D01*
Y116092D02*
Y117492D01*
Y109292D02*
Y110492D01*
Y105492D02*
Y106892D01*
Y98092D02*
Y99492D01*
Y92292D02*
Y93692D01*
X10365Y150492D02*
Y151892D01*
Y147292D02*
Y148692D01*
Y140492D02*
Y141892D01*
Y136692D02*
Y138092D01*
Y131092D02*
Y132492D01*
Y126692D02*
Y128092D01*
Y119492D02*
Y120892D01*
Y116092D02*
Y117292D01*
Y109292D02*
Y110492D01*
Y105492D02*
Y106892D01*
Y98092D02*
Y99492D01*
Y92292D02*
Y93692D01*
X10165Y150492D02*
Y151892D01*
Y147292D02*
Y148692D01*
Y140492D02*
Y141892D01*
Y136692D02*
Y138092D01*
Y131092D02*
Y132492D01*
Y126692D02*
Y128092D01*
Y119492D02*
Y120892D01*
Y115892D02*
Y117292D01*
Y109292D02*
Y110492D01*
Y105492D02*
Y106892D01*
Y98292D02*
Y99692D01*
Y92292D02*
Y93692D01*
X9965Y156692D02*
Y157892D01*
Y150492D02*
Y151892D01*
Y147292D02*
Y148692D01*
Y140492D02*
Y142092D01*
Y136692D02*
Y138092D01*
Y131092D02*
Y132492D01*
Y126492D02*
Y128092D01*
Y119492D02*
Y121092D01*
Y115892D02*
Y117292D01*
Y109292D02*
Y110692D01*
Y105292D02*
Y106892D01*
Y98292D02*
Y99692D01*
Y92292D02*
Y93892D01*
X9765Y156692D02*
Y157892D01*
Y150492D02*
Y151892D01*
Y147092D02*
Y148492D01*
Y140692D02*
Y142092D01*
Y136692D02*
Y138092D01*
Y131092D02*
Y132492D01*
Y126492D02*
Y127892D01*
Y119692D02*
Y121092D01*
Y115692D02*
Y117292D01*
Y109292D02*
Y110692D01*
Y105292D02*
Y106692D01*
Y98292D02*
Y99892D01*
Y92292D02*
Y93892D01*
X9565Y156492D02*
Y157892D01*
Y150492D02*
Y151892D01*
Y147092D02*
Y148492D01*
Y140692D02*
Y142292D01*
Y136692D02*
Y138092D01*
Y131092D02*
Y132492D01*
Y126292D02*
Y127892D01*
Y119692D02*
Y121292D01*
Y115692D02*
Y117092D01*
Y109292D02*
Y110892D01*
Y105092D02*
Y106692D01*
Y98492D02*
Y100092D01*
Y92292D02*
Y94092D01*
X9365Y156492D02*
Y157892D01*
Y150492D02*
Y151892D01*
Y146892D02*
Y148492D01*
Y140892D02*
Y142292D01*
Y136692D02*
Y138092D01*
Y131092D02*
Y132492D01*
Y126292D02*
Y127892D01*
Y119692D02*
Y121292D01*
Y115492D02*
Y117092D01*
Y109292D02*
Y110892D01*
Y104892D02*
Y106492D01*
Y98492D02*
Y100092D01*
Y92292D02*
Y94092D01*
X9165Y156292D02*
Y157892D01*
Y150492D02*
Y151892D01*
Y146892D02*
Y148292D01*
Y140892D02*
Y142492D01*
Y136692D02*
Y138092D01*
Y131092D02*
Y132492D01*
Y126092D02*
Y127692D01*
Y119892D02*
Y121492D01*
Y115492D02*
Y117092D01*
Y109292D02*
Y111092D01*
Y104892D02*
Y106492D01*
Y98692D02*
Y100292D01*
Y92292D02*
Y94292D01*
X8965Y156292D02*
Y157892D01*
Y150692D02*
Y152092D01*
Y146692D02*
Y148292D01*
Y141092D02*
Y142692D01*
Y136692D02*
Y138092D01*
Y131092D02*
Y132492D01*
Y125892D02*
Y127492D01*
Y120092D02*
Y121692D01*
Y115292D02*
Y116892D01*
Y109292D02*
Y111292D01*
Y104692D02*
Y106292D01*
Y98692D02*
Y100492D01*
Y92292D02*
Y94492D01*
X8765Y156092D02*
Y157692D01*
Y150692D02*
Y152292D01*
Y146492D02*
Y148092D01*
Y141092D02*
Y142892D01*
Y136692D02*
Y138092D01*
Y131092D02*
Y132492D01*
Y125692D02*
Y127492D01*
Y120092D02*
Y121892D01*
Y115092D02*
Y116892D01*
Y109292D02*
Y111492D01*
Y104492D02*
Y106292D01*
Y98892D02*
Y100692D01*
Y92292D02*
Y94692D01*
X8565Y155692D02*
Y157692D01*
Y150692D02*
Y152492D01*
Y146292D02*
Y148092D01*
Y141292D02*
Y143092D01*
Y136692D02*
Y138092D01*
Y131092D02*
Y132492D01*
Y125292D02*
Y127292D01*
Y120292D02*
Y122292D01*
Y114892D02*
Y116692D01*
Y109292D02*
Y111692D01*
Y104092D02*
Y106092D01*
Y99092D02*
Y100892D01*
Y92292D02*
Y95092D01*
X8365Y155292D02*
Y157492D01*
Y150892D02*
Y152892D01*
Y145892D02*
Y147892D01*
Y141492D02*
Y143492D01*
Y136692D02*
Y138092D01*
Y131092D02*
Y132492D01*
Y124892D02*
Y127092D01*
Y120492D02*
Y122492D01*
Y114492D02*
Y116492D01*
Y109292D02*
Y112092D01*
Y103692D02*
Y105892D01*
Y99292D02*
Y101292D01*
Y92292D02*
Y95492D01*
X8165Y154692D02*
Y157292D01*
Y151092D02*
Y153492D01*
Y145292D02*
Y147692D01*
Y141692D02*
Y144092D01*
Y136692D02*
Y138092D01*
Y129292D02*
Y134492D01*
Y124292D02*
Y126892D01*
Y120692D02*
Y123292D01*
Y113892D02*
Y116292D01*
Y110692D02*
Y112892D01*
Y109292D02*
Y110492D01*
Y103092D02*
Y105692D01*
Y99492D02*
Y101892D01*
Y93892D02*
Y97292D01*
Y92292D02*
Y93692D01*
X7965Y151292D02*
Y157092D01*
Y141892D02*
Y147492D01*
Y136692D02*
Y138092D01*
Y129292D02*
Y134492D01*
Y120892D02*
Y126692D01*
Y110892D02*
Y116292D01*
Y109292D02*
Y110492D01*
Y99692D02*
Y105492D01*
Y93892D02*
Y97292D01*
Y92292D02*
Y93692D01*
X7765Y151492D02*
Y156892D01*
Y142092D02*
Y147292D01*
Y136692D02*
Y138092D01*
Y129292D02*
Y134492D01*
Y121092D02*
Y126492D01*
Y111092D02*
Y116092D01*
Y109292D02*
Y110492D01*
Y99892D02*
Y105292D01*
Y94092D02*
Y97292D01*
Y92292D02*
Y93692D01*
X7565Y151692D02*
Y156692D01*
Y142292D02*
Y147092D01*
Y136692D02*
Y138092D01*
Y129292D02*
Y134492D01*
Y121492D02*
Y126092D01*
Y111292D02*
Y115692D01*
Y109292D02*
Y110492D01*
Y100092D02*
Y104892D01*
Y94292D02*
Y97292D01*
Y92292D02*
Y93692D01*
X7365Y152092D02*
Y156292D01*
Y142692D02*
Y146692D01*
Y136692D02*
Y138092D01*
Y129292D02*
Y134492D01*
Y121692D02*
Y125892D01*
Y111692D02*
Y115492D01*
Y109292D02*
Y110492D01*
Y100492D02*
Y104492D01*
Y94692D02*
Y97292D01*
Y92292D02*
Y93692D01*
X7165Y152492D02*
Y155692D01*
Y143092D02*
Y146292D01*
Y136692D02*
Y138092D01*
Y129292D02*
Y134492D01*
Y122292D02*
Y125292D01*
Y112092D02*
Y114892D01*
Y109292D02*
Y110492D01*
Y101092D02*
Y104092D01*
Y95092D02*
Y97292D01*
Y92292D02*
Y93692D01*
X6965Y153692D02*
Y154692D01*
Y144292D02*
Y145092D01*
Y131092D02*
Y132492D01*
Y123292D02*
Y124292D01*
Y113092D02*
Y114092D01*
Y109292D02*
Y110492D01*
Y102092D02*
Y103092D01*
Y95892D02*
Y96692D01*
X6765Y131092D02*
Y132492D01*
Y109292D02*
Y110492D01*
X6565Y131092D02*
Y132492D01*
Y109292D02*
Y110492D01*
X6365Y131092D02*
Y132492D01*
Y109292D02*
Y110492D01*
X6165Y131092D02*
Y132492D01*
Y109292D02*
Y110492D01*
X5965Y131092D02*
Y132492D01*
Y109292D02*
Y110492D01*
X5765Y131092D02*
Y132492D01*
Y109292D02*
Y110492D01*
X5565Y131092D02*
Y132492D01*
Y109292D02*
Y110492D01*
X5365Y131092D02*
Y132492D01*
Y109292D02*
Y110492D01*
X5165Y137092D02*
Y137692D01*
Y131092D02*
Y132492D01*
Y109292D02*
Y110492D01*
X4965Y136692D02*
Y138092D01*
Y131092D02*
Y132492D01*
Y109292D02*
Y110492D01*
X4765Y136692D02*
Y138292D01*
Y131092D02*
Y132492D01*
Y109292D02*
Y110492D01*
X4565Y136492D02*
Y138292D01*
Y131092D02*
Y132492D01*
Y109292D02*
Y110492D01*
X4365Y136492D02*
Y138292D01*
Y109292D02*
Y110492D01*
X4165Y136492D02*
Y138292D01*
Y109292D02*
Y110492D01*
X3965Y136492D02*
Y138292D01*
Y109292D02*
Y110492D01*
X3765Y136692D02*
Y138092D01*
Y109292D02*
Y110492D01*
X3565Y136892D02*
Y137892D01*
Y109292D02*
Y110492D01*
X3365Y109292D02*
Y110492D01*
X3165Y109292D02*
Y110492D01*
X2965Y109292D02*
Y110492D01*
D26*
X118041Y43743D02*
D03*
X119433Y42351D02*
D03*
X120825Y40959D02*
D03*
X122217Y39567D02*
D03*
X123609Y38175D02*
D03*
X125001Y36784D02*
D03*
X126393Y35392D02*
D03*
X127785Y34000D02*
D03*
X129177Y32608D02*
D03*
X130569Y31216D02*
D03*
X131961Y29824D02*
D03*
X133353Y28432D02*
D03*
X134745Y27040D02*
D03*
X136137Y25648D02*
D03*
X137529Y24256D02*
D03*
X138920Y22864D02*
D03*
X170935Y54879D02*
D03*
X169543Y56271D02*
D03*
X168151Y57663D02*
D03*
X166759Y59055D02*
D03*
X165367Y60447D02*
D03*
X163975Y61839D02*
D03*
X162583Y63230D02*
D03*
X161191Y64622D02*
D03*
X159800Y66014D02*
D03*
X158408Y67406D02*
D03*
X157016Y68798D02*
D03*
X155624Y70190D02*
D03*
X154232Y71582D02*
D03*
X152840Y72974D02*
D03*
X151448Y74366D02*
D03*
X150056Y75758D02*
D03*
D27*
Y22864D02*
D03*
X151448Y24256D02*
D03*
X152840Y25648D02*
D03*
X154232Y27040D02*
D03*
X155624Y28432D02*
D03*
X157016Y29824D02*
D03*
X158408Y31216D02*
D03*
X159800Y32608D02*
D03*
X161191Y34000D02*
D03*
X162583Y35392D02*
D03*
X163975Y36783D02*
D03*
X165367Y38175D02*
D03*
X166759Y39567D02*
D03*
X168151Y40959D02*
D03*
X169543Y42351D02*
D03*
X170935Y43743D02*
D03*
X138920Y75758D02*
D03*
X137529Y74366D02*
D03*
X136137Y72974D02*
D03*
X134745Y71582D02*
D03*
X133353Y70190D02*
D03*
X131961Y68798D02*
D03*
X130569Y67406D02*
D03*
X129177Y66014D02*
D03*
X127785Y64622D02*
D03*
X126393Y63230D02*
D03*
X125001Y61839D02*
D03*
X123609Y60447D02*
D03*
X122217Y59055D02*
D03*
X120825Y57663D02*
D03*
X119433Y56271D02*
D03*
X118041Y54879D02*
D03*
D32*
X183868Y-27532D02*
D03*
D33*
X180128Y-33044D02*
D03*
X183868D02*
D03*
X187608D02*
D03*
Y-22020D02*
D03*
X183868D02*
D03*
X180128D02*
D03*
D34*
X180915Y-38950D02*
D03*
X186820D02*
D03*
Y-15918D02*
D03*
X180915D02*
D03*
X90453Y115354D02*
D03*
X96358D02*
D03*
X190157Y115157D02*
D03*
X196063D02*
D03*
D35*
X132087Y-45000D02*
D03*
X135236D02*
D03*
X154528D02*
D03*
X157677D02*
D03*
D36*
X143898D02*
D03*
X141929D02*
D03*
X139961D02*
D03*
X137992D02*
D03*
X145866D02*
D03*
X147835D02*
D03*
X149803D02*
D03*
X151772D02*
D03*
D37*
X163248Y-26181D02*
D03*
Y-32087D02*
D03*
X156653Y-26280D02*
D03*
Y-32185D02*
D03*
X117913Y-63583D02*
D03*
Y-57677D02*
D03*
Y-52756D02*
D03*
Y-46850D02*
D03*
X27165Y187795D02*
D03*
Y181890D02*
D03*
X268307Y198031D02*
D03*
Y192126D02*
D03*
X178445Y144587D02*
D03*
Y138681D02*
D03*
X78937Y144587D02*
D03*
Y138681D02*
D03*
X27165Y192717D02*
D03*
Y198622D02*
D03*
X21457Y192717D02*
D03*
Y198622D02*
D03*
X262598Y192126D02*
D03*
Y198031D02*
D03*
Y181299D02*
D03*
Y187205D02*
D03*
X268307Y181299D02*
D03*
Y187205D02*
D03*
X21457Y181890D02*
D03*
Y187795D02*
D03*
D38*
X148779Y-24094D02*
D03*
X145039D02*
D03*
X141299D02*
D03*
Y-33976D02*
D03*
X145039D02*
D03*
X148779D02*
D03*
D39*
X193623Y45845D02*
D03*
X189447Y50021D02*
D03*
X120493Y67597D02*
D03*
X116318Y71773D02*
D03*
D40*
X174093Y35454D02*
D03*
X178269Y31278D02*
D03*
X120058Y29155D02*
D03*
X124234Y24979D02*
D03*
X178445Y39764D02*
D03*
X182621Y35588D02*
D03*
X108542Y64391D02*
D03*
X112718Y60215D02*
D03*
X111769Y37345D02*
D03*
X115945Y33169D02*
D03*
X162718Y15825D02*
D03*
X158542Y20001D02*
D03*
D41*
X133289Y16360D02*
D03*
X129113Y12184D02*
D03*
X128782Y20711D02*
D03*
X124606Y16535D02*
D03*
X155631Y89588D02*
D03*
X151455Y85412D02*
D03*
X103325Y37676D02*
D03*
X107501Y41852D02*
D03*
X155786Y81081D02*
D03*
X159962Y85257D02*
D03*
D42*
X133542Y7853D02*
D03*
X137718Y12029D02*
D03*
D43*
X100807Y145866D02*
D03*
X95807D02*
D03*
X90807D02*
D03*
X85807D02*
D03*
X100807Y126575D02*
D03*
X95807D02*
D03*
X90807D02*
D03*
X85807D02*
D03*
X200807Y145866D02*
D03*
X195807D02*
D03*
X190807D02*
D03*
X185807D02*
D03*
X200807Y126575D02*
D03*
X195807D02*
D03*
X190807D02*
D03*
X185807D02*
D03*
D44*
X196949Y155173D02*
D03*
X189449D02*
D03*
X193199Y164173D02*
D03*
X97155Y155173D02*
D03*
X89656D02*
D03*
X93405Y164173D02*
D03*
D45*
X95965Y186319D02*
D03*
X101870D02*
D03*
X193898Y186024D02*
D03*
X187992D02*
D03*
D46*
X108477Y26858D02*
D03*
X113767Y21568D02*
D03*
D47*
X205512Y213878D02*
D03*
Y186319D02*
D03*
X236910D02*
D03*
Y213878D02*
D03*
X70472Y186319D02*
D03*
Y213878D02*
D03*
X39075Y186319D02*
D03*
Y213878D02*
D03*
D48*
X219291D02*
D03*
Y186319D02*
D03*
X250689D02*
D03*
Y213878D02*
D03*
X84252Y186319D02*
D03*
Y213878D02*
D03*
X52854Y186319D02*
D03*
Y213878D02*
D03*
D49*
X188287Y224606D02*
D03*
Y194606D02*
D03*
X101476Y224606D02*
D03*
Y194606D02*
D03*
D50*
X246307Y-25000D02*
D03*
X43457D02*
D03*
D51*
X127874Y-48602D02*
D03*
X161890D02*
D03*
X127874Y-65059D02*
D03*
X161890D02*
D03*
D52*
X133504Y-50689D02*
D03*
X156260D02*
D03*
D53*
X238130Y54035D02*
D03*
D54*
X248130D02*
D03*
X258130D02*
D03*
X268130D02*
D03*
X278130D02*
D03*
D55*
X182096Y-25761D02*
D03*
Y-29304D02*
D03*
X185738Y-25761D02*
D03*
Y-29304D02*
D03*
M02*
