G04*
G04 #@! TF.GenerationSoftware,Altium Limited,Altium Designer,24.4.1 (13)*
G04*
G04 Layer_Color=16711935*
%FSLAX25Y25*%
%MOIN*%
G70*
G04*
G04 #@! TF.SameCoordinates,9C3899AD-5D4C-4CBE-B472-155AE0BBF41E*
G04*
G04*
G04 #@! TF.FilePolarity,Negative*
G04*
G01*
G75*
%ADD47C,0.07887*%
%ADD48R,0.07887X0.07887*%
G04:AMPARAMS|DCode=49|XSize=70.87mil|YSize=70.87mil|CornerRadius=0mil|HoleSize=0mil|Usage=FLASHONLY|Rotation=0.000|XOffset=0mil|YOffset=0mil|HoleType=Round|Shape=Octagon|*
%AMOCTAGOND49*
4,1,8,0.03543,-0.01772,0.03543,0.01772,0.01772,0.03543,-0.01772,0.03543,-0.03543,0.01772,-0.03543,-0.01772,-0.01772,-0.03543,0.01772,-0.03543,0.03543,-0.01772,0.0*
%
%ADD49OCTAGOND49*%

%ADD50C,0.25800*%
%ADD51O,0.04934X0.09068*%
%ADD52C,0.03556*%
%ADD53R,0.06706X0.06706*%
%ADD54C,0.06706*%
%ADD55C,0.03162*%
D47*
X70472Y224508D02*
D03*
Y196949D02*
D03*
X38976Y224508D02*
D03*
Y196949D02*
D03*
X205512D02*
D03*
Y224508D02*
D03*
X237008D02*
D03*
Y196949D02*
D03*
D48*
X84252Y224508D02*
D03*
Y196949D02*
D03*
X52756Y224508D02*
D03*
Y196949D02*
D03*
X219291D02*
D03*
Y224508D02*
D03*
X250787D02*
D03*
Y196949D02*
D03*
D49*
X188268Y194606D02*
D03*
Y224606D02*
D03*
X101476Y194606D02*
D03*
Y224606D02*
D03*
D50*
X246307Y-25000D02*
D03*
X43457D02*
D03*
D51*
X127874Y-48602D02*
D03*
X161890D02*
D03*
X127874Y-65059D02*
D03*
X161890D02*
D03*
D52*
X133504Y-50689D02*
D03*
X156260D02*
D03*
D53*
X238130Y54035D02*
D03*
D54*
X248130D02*
D03*
X258130D02*
D03*
X268130D02*
D03*
X278130D02*
D03*
D55*
X182096Y-25761D02*
D03*
Y-29304D02*
D03*
X185738Y-25761D02*
D03*
Y-29304D02*
D03*
M02*
