G04*
G04 #@! TF.GenerationSoftware,Altium Limited,Altium Designer,24.4.1 (13)*
G04*
G04 Layer_Color=65535*
%FSLAX25Y25*%
%MOIN*%
G70*
G04*
G04 #@! TF.SameCoordinates,980C99FE-5B2E-4DAE-93CB-92CC450E73B7*
G04*
G04*
G04 #@! TF.FilePolarity,Positive*
G04*
G01*
G75*
%ADD10C,0.00787*%
%ADD11C,0.00000*%
%ADD12C,0.00600*%
%ADD13C,0.00984*%
%ADD14C,0.00500*%
%ADD15C,0.01000*%
%ADD16C,0.00200*%
%ADD17C,0.00394*%
G36*
X127670Y29377D02*
X126962Y28670D01*
X128023Y27610D01*
X128730Y28317D01*
X127670Y29377D01*
D02*
G37*
G36*
X157131Y25201D02*
X156070Y24141D01*
X156777Y23434D01*
X157838Y24494D01*
X157131Y25201D01*
D02*
G37*
G36*
X171050Y39121D02*
X169990Y38060D01*
X170697Y37353D01*
X171757Y38414D01*
X171050Y39121D01*
D02*
G37*
G36*
X121771Y63346D02*
X120710Y62285D01*
X120003Y62992D01*
X121063Y64053D01*
X121771Y63346D01*
D02*
G37*
G36*
X135690Y77265D02*
X134629Y76205D01*
X133922Y76912D01*
X134983Y77972D01*
X135690Y77265D01*
D02*
G37*
G36*
X163030Y67522D02*
X163737Y68229D01*
X164798Y67168D01*
X164091Y66461D01*
X163030Y67522D01*
D02*
G37*
G36*
X226681Y119501D02*
X226871Y119486D01*
X227075Y119472D01*
X227323Y119442D01*
X227600Y119413D01*
X227877Y119369D01*
X228198Y119326D01*
X228854Y119180D01*
X229189Y119092D01*
X229539Y118976D01*
X229874Y118859D01*
X230224Y118713D01*
X230239Y118699D01*
X230312Y118684D01*
X230399Y118626D01*
X230531Y118568D01*
X230691Y118495D01*
X230881Y118393D01*
X231085Y118276D01*
X231303Y118145D01*
X231551Y117999D01*
X231814Y117839D01*
X232076Y117664D01*
X232353Y117474D01*
X232616Y117270D01*
X232893Y117051D01*
X233432Y116570D01*
X233447Y116556D01*
X233490Y116512D01*
X233563Y116439D01*
X233665Y116337D01*
X233782Y116206D01*
X233913Y116045D01*
X234059Y115870D01*
X234219Y115666D01*
X234394Y115433D01*
X234569Y115185D01*
X234744Y114923D01*
X234919Y114646D01*
X235109Y114339D01*
X235269Y114033D01*
X235590Y113363D01*
X235605Y113348D01*
X235619Y113275D01*
X235663Y113173D01*
X235706Y113042D01*
X235765Y112867D01*
X235838Y112663D01*
X235911Y112444D01*
X235969Y112181D01*
X236042Y111905D01*
X236115Y111598D01*
X236188Y111278D01*
X236246Y110928D01*
X236333Y110213D01*
X236348Y109834D01*
X236363Y109455D01*
Y109251D01*
X236348Y109105D01*
X236333Y108916D01*
X236319Y108697D01*
X236304Y108449D01*
X236261Y108187D01*
X236231Y107895D01*
X236173Y107589D01*
X236042Y106933D01*
X235954Y106583D01*
X235838Y106233D01*
X235721Y105897D01*
X235590Y105548D01*
X235575Y105533D01*
X235561Y105460D01*
X235502Y105373D01*
X235444Y105241D01*
X235371Y105081D01*
X235269Y104892D01*
X235153Y104687D01*
X235036Y104469D01*
X234890Y104221D01*
X234730Y103958D01*
X234540Y103696D01*
X234351Y103419D01*
X234146Y103156D01*
X233928Y102880D01*
X233680Y102603D01*
X233432Y102340D01*
X233418Y102325D01*
X233374Y102282D01*
X233286Y102209D01*
X233184Y102121D01*
X233053Y102005D01*
X232893Y101859D01*
X232718Y101713D01*
X232513Y101553D01*
X232280Y101392D01*
X232047Y101217D01*
X231770Y101028D01*
X231493Y100853D01*
X231201Y100678D01*
X230881Y100503D01*
X230224Y100182D01*
X230210Y100168D01*
X230137Y100153D01*
X230035Y100109D01*
X229904Y100066D01*
X229729Y100007D01*
X229539Y99934D01*
X229306Y99861D01*
X229044Y99803D01*
X228766Y99730D01*
X228460Y99657D01*
X228139Y99584D01*
X227804Y99526D01*
X227454Y99482D01*
X227090Y99439D01*
X226711Y99424D01*
X226332Y99409D01*
X226302D01*
X226244D01*
X226128D01*
X225982Y99424D01*
X225792Y99439D01*
X225573Y99453D01*
X225326Y99468D01*
X225063Y99511D01*
X224771Y99541D01*
X224465Y99599D01*
X223809Y99730D01*
X223459Y99818D01*
X223109Y99934D01*
X222774Y100051D01*
X222424Y100182D01*
X222410Y100197D01*
X222337Y100226D01*
X222249Y100270D01*
X222118Y100328D01*
X221958Y100401D01*
X221768Y100503D01*
X221564Y100620D01*
X221345Y100751D01*
X221097Y100897D01*
X220849Y101057D01*
X220572Y101232D01*
X220310Y101421D01*
X220033Y101626D01*
X219756Y101859D01*
X219231Y102340D01*
X219217Y102355D01*
X219173Y102398D01*
X219100Y102486D01*
X218998Y102588D01*
X218896Y102719D01*
X218750Y102880D01*
X218604Y103054D01*
X218444Y103259D01*
X218283Y103492D01*
X218109Y103740D01*
X217919Y104002D01*
X217744Y104279D01*
X217569Y104585D01*
X217394Y104892D01*
X217073Y105562D01*
X217059Y105577D01*
X217044Y105650D01*
X217000Y105752D01*
X216942Y105883D01*
X216884Y106058D01*
X216825Y106247D01*
X216753Y106481D01*
X216665Y106743D01*
X216592Y107020D01*
X216519Y107326D01*
X216461Y107647D01*
X216403Y107983D01*
X216344Y108332D01*
X216301Y108697D01*
X216286Y109076D01*
X216271Y109455D01*
Y109659D01*
X216286Y109805D01*
X216301Y109994D01*
X216315Y110213D01*
X216344Y110461D01*
X216373Y110723D01*
X216417Y111015D01*
X216461Y111336D01*
X216534Y111657D01*
X216607Y111992D01*
X216694Y112327D01*
X216811Y112677D01*
X216928Y113027D01*
X217073Y113377D01*
X217088Y113392D01*
X217103Y113465D01*
X217161Y113552D01*
X217219Y113683D01*
X217292Y113844D01*
X217394Y114033D01*
X217511Y114237D01*
X217642Y114471D01*
X217788Y114704D01*
X217948Y114966D01*
X218123Y115229D01*
X218313Y115506D01*
X218517Y115768D01*
X218750Y116045D01*
X219231Y116570D01*
X219246Y116585D01*
X219289Y116628D01*
X219362Y116701D01*
X219479Y116789D01*
X219610Y116905D01*
X219756Y117037D01*
X219946Y117183D01*
X220150Y117343D01*
X220368Y117518D01*
X220616Y117693D01*
X220879Y117868D01*
X221156Y118043D01*
X221447Y118218D01*
X221768Y118393D01*
X222424Y118713D01*
X222439Y118728D01*
X222512Y118743D01*
X222599Y118786D01*
X222745Y118845D01*
X222905Y118903D01*
X223109Y118961D01*
X223343Y119034D01*
X223591Y119122D01*
X223882Y119194D01*
X224174Y119267D01*
X224495Y119326D01*
X224844Y119384D01*
X225194Y119442D01*
X225559Y119486D01*
X225938Y119501D01*
X226332Y119515D01*
X226361D01*
X226419D01*
X226536D01*
X226681Y119501D01*
D02*
G37*
G36*
X220109Y137558D02*
Y137596D01*
X221783D01*
Y136472D01*
X227978Y135885D01*
X232674Y140231D01*
X232937Y139907D01*
X229739Y136946D01*
X229901D01*
X229914D01*
X229926D01*
X230001D01*
X230101Y136921D01*
X230239Y136896D01*
X230401Y136846D01*
X230563Y136784D01*
X230726Y136684D01*
X230876Y136547D01*
X230888Y136534D01*
X230938Y136472D01*
X231000Y136397D01*
X231063Y136272D01*
X231138Y136135D01*
X231200Y135972D01*
X231250Y135785D01*
X231263Y135585D01*
Y135510D01*
X231250Y135460D01*
X231225Y135310D01*
X231175Y135135D01*
X231100Y134948D01*
X230988Y134748D01*
X230913Y134661D01*
X230813Y134573D01*
X230713Y134486D01*
X230601Y134411D01*
Y131026D01*
X231238D01*
Y130214D01*
X230601D01*
X230588Y130189D01*
X230576Y130152D01*
X230551Y130102D01*
X230538Y130089D01*
X230501Y130064D01*
X230438Y130039D01*
X230351Y130027D01*
X230339D01*
X230314Y130015D01*
X230276D01*
X230226Y130002D01*
X230151D01*
X230051Y129990D01*
X229926D01*
X229914D01*
X229864D01*
X229789D01*
X229677Y129977D01*
X229564Y129964D01*
X229414D01*
X229264Y129939D01*
X229102Y129927D01*
X227978Y129840D01*
X232874Y125043D01*
X232624Y124769D01*
X227478Y129790D01*
X221471Y129315D01*
X216387Y124606D01*
X215725D01*
X220771Y129265D01*
X219335Y129128D01*
Y128491D01*
X218823D01*
Y128990D01*
X218810Y129003D01*
X218785D01*
X218760Y129028D01*
X218710Y129053D01*
X218648Y129078D01*
X218573Y129128D01*
X218473Y129178D01*
X218461Y129190D01*
X218423Y129215D01*
X218361Y129265D01*
X218273Y129340D01*
X218186Y129440D01*
X218086Y129577D01*
X217973Y129740D01*
X217861Y129952D01*
X217536D01*
Y130801D01*
X217599D01*
Y130814D01*
X217586Y130851D01*
Y130901D01*
X217574Y130964D01*
X217561Y131051D01*
X217549Y131139D01*
X217511Y131363D01*
Y131376D01*
X217499Y131426D01*
Y131488D01*
X217486Y131576D01*
X217474Y131676D01*
X217461Y131788D01*
X217436Y132038D01*
X217299D01*
Y134311D01*
X217511D01*
Y134361D01*
X217524Y134411D01*
X217536Y134473D01*
X217549Y134561D01*
X217561Y134648D01*
X217599Y134861D01*
X217649Y135098D01*
X217724Y135348D01*
X217799Y135573D01*
X217899Y135772D01*
X217911Y135797D01*
X217949Y135847D01*
X217998Y135935D01*
X218061Y136047D01*
X218236Y136272D01*
X218323Y136384D01*
X218423Y136472D01*
X218411Y136484D01*
X218386Y136509D01*
X218336Y136547D01*
X218286Y136609D01*
X218236Y136684D01*
X218198Y136772D01*
X218161Y136872D01*
X218148Y136996D01*
Y137034D01*
X218161Y137084D01*
X218173Y137146D01*
X218198Y137221D01*
X218223Y137296D01*
X218273Y137371D01*
X218336Y137446D01*
X218348Y137459D01*
X218373Y137484D01*
X218411Y137508D01*
X218461Y137546D01*
X218598Y137621D01*
X218685Y137633D01*
X218773Y137646D01*
X218785D01*
X218810D01*
X218860Y137633D01*
X218923Y137621D01*
X218998Y137596D01*
X219073Y137571D01*
X219147Y137521D01*
X219222Y137459D01*
X219235Y137446D01*
X219247Y137421D01*
X219285Y137383D01*
X219310Y137334D01*
X219347Y137259D01*
X219385Y137184D01*
X219397Y137096D01*
X219410Y136996D01*
Y136971D01*
X219397Y136896D01*
X219372Y136796D01*
X219310Y136684D01*
X220109Y136622D01*
Y136971D01*
X215838Y141168D01*
X216425D01*
X220109Y137558D01*
D02*
G37*
G36*
X238707Y125181D02*
X236546D01*
Y139694D01*
X238707D01*
Y125181D01*
D02*
G37*
G36*
X275513Y84744D02*
X244455D01*
Y151272D01*
X275513D01*
Y84744D01*
D02*
G37*
%LPC*%
G36*
X223581Y107307D02*
X223561Y107297D01*
X223547Y107283D01*
X223518Y107254D01*
X223459Y107195D01*
X223419Y107144D01*
X223581Y107307D01*
D02*
G37*
G36*
X226667Y118086D02*
X226332D01*
X226317D01*
X226259D01*
X226157D01*
X226025Y118072D01*
X225865D01*
X225690Y118057D01*
X225471Y118028D01*
X225238Y117999D01*
X224990Y117970D01*
X224728Y117926D01*
X224159Y117795D01*
X223576Y117634D01*
X223270Y117518D01*
X222978Y117401D01*
X222964Y117387D01*
X222905Y117372D01*
X222818Y117328D01*
X222716Y117270D01*
X222570Y117212D01*
X222410Y117124D01*
X222235Y117022D01*
X222045Y116920D01*
X221608Y116658D01*
X221156Y116337D01*
X220689Y115972D01*
X220237Y115564D01*
X220223Y115550D01*
X220179Y115506D01*
X220121Y115447D01*
X220048Y115360D01*
X219946Y115243D01*
X219829Y115112D01*
X219698Y114966D01*
X219566Y114791D01*
X219421Y114602D01*
X219275Y114383D01*
X219114Y114164D01*
X218969Y113917D01*
X218663Y113392D01*
X218386Y112823D01*
X218371Y112809D01*
X218356Y112750D01*
X218327Y112663D01*
X218283Y112546D01*
X218225Y112400D01*
X218167Y112225D01*
X218109Y112021D01*
X218036Y111802D01*
X217977Y111569D01*
X217919Y111307D01*
X217861Y111030D01*
X217802Y110738D01*
X217729Y110111D01*
X217700Y109790D01*
Y109280D01*
X217715Y109149D01*
Y108988D01*
X217729Y108814D01*
X217759Y108595D01*
X217788Y108362D01*
X217817Y108114D01*
X217861Y107851D01*
X217992Y107283D01*
X218152Y106685D01*
X218269Y106393D01*
X218386Y106087D01*
X218400Y106072D01*
X218415Y106014D01*
X218458Y105927D01*
X218517Y105825D01*
X218575Y105679D01*
X218663Y105518D01*
X218765Y105343D01*
X218867Y105154D01*
X219144Y104717D01*
X219450Y104250D01*
X219829Y103783D01*
X219939Y103661D01*
X219319Y103040D01*
X219916Y102471D01*
X220520Y103073D01*
X220441Y103142D01*
X220354Y103215D01*
X220296Y103288D01*
X220252Y103317D01*
X220237Y103331D01*
X219939Y103661D01*
X221535Y105258D01*
Y106160D01*
X221549Y106466D01*
X221564Y106787D01*
X221593Y107093D01*
X221608Y107239D01*
X221622Y107355D01*
X221637Y107472D01*
X221666Y107560D01*
Y107574D01*
X221681Y107589D01*
X221710Y107676D01*
X221768Y107808D01*
X221855Y107968D01*
X221987Y108143D01*
X222133Y108332D01*
X222337Y108522D01*
X222570Y108682D01*
X222585D01*
X222599Y108697D01*
X222643Y108726D01*
X222701Y108755D01*
X222774Y108784D01*
X222862Y108828D01*
X223080Y108916D01*
X223343Y108988D01*
X223649Y109061D01*
X223999Y109120D01*
X224378Y109134D01*
X224393D01*
X224422D01*
X224465D01*
X224524D01*
X224684Y109120D01*
X224888Y109105D01*
X225121Y109076D01*
X225312Y109040D01*
X223581Y107307D01*
X223707Y107370D01*
X223868Y107428D01*
X224013Y107458D01*
X224130Y107487D01*
X224247Y107501D01*
X224334Y107516D01*
X224393D01*
X224407D01*
X224567D01*
X224699Y107487D01*
X224830Y107458D01*
X224895Y107439D01*
X223124Y105672D01*
Y104717D01*
X225719D01*
Y105723D01*
X225705Y105897D01*
Y106102D01*
X225690Y106320D01*
X225661Y106525D01*
X225632Y106699D01*
X225617Y106772D01*
X225588Y106831D01*
Y106845D01*
X225559Y106874D01*
X225530Y106933D01*
X225486Y107006D01*
X225413Y107079D01*
X225340Y107166D01*
X225238Y107254D01*
X225121Y107341D01*
X225107Y107355D01*
X225078Y107370D01*
X225005Y107399D01*
X224932Y107428D01*
X224895Y107439D01*
X226165Y108706D01*
X226157Y108712D01*
X226025Y108784D01*
X225923Y108843D01*
X225865Y108872D01*
X225836Y108886D01*
X225603Y108974D01*
X225355Y109032D01*
X225312Y109040D01*
X226470Y110199D01*
X227661D01*
X226165Y108706D01*
X226288Y108624D01*
X226448Y108507D01*
X226594Y108376D01*
X226740Y108230D01*
X226754Y108216D01*
X226784Y108172D01*
X226842Y108099D01*
X226915Y107997D01*
X226988Y107880D01*
X227046Y107735D01*
X227119Y107574D01*
X227177Y107399D01*
Y107370D01*
X227192Y107312D01*
X227206Y107195D01*
X227221Y107020D01*
X227236Y106904D01*
X227250Y106787D01*
Y106656D01*
X227265Y106495D01*
Y106335D01*
X227279Y106145D01*
Y104717D01*
X230822D01*
Y103127D01*
X221535D01*
Y104086D01*
X223124Y105672D01*
Y106189D01*
X223139Y106379D01*
X223153Y106510D01*
X223168Y106583D01*
X223182Y106612D01*
X223226Y106772D01*
X223270Y106904D01*
X223328Y107020D01*
X223401Y107122D01*
X223419Y107144D01*
X221535Y105258D01*
Y104086D01*
X220520Y103073D01*
X220558Y103040D01*
X220689Y102923D01*
X220835Y102807D01*
X221010Y102661D01*
X221199Y102515D01*
X221418Y102369D01*
X221637Y102223D01*
X221885Y102063D01*
X222410Y101771D01*
X222978Y101494D01*
X222993D01*
X223051Y101465D01*
X223139Y101436D01*
X223255Y101392D01*
X223401Y101334D01*
X223576Y101276D01*
X223765Y101217D01*
X223984Y101159D01*
X224232Y101101D01*
X224495Y101042D01*
X224771Y100984D01*
X225063Y100926D01*
X225676Y100853D01*
X225996Y100838D01*
X226332Y100824D01*
X226346D01*
X226405D01*
X226507D01*
X226638Y100838D01*
X226798D01*
X226973Y100853D01*
X227192Y100882D01*
X227425Y100911D01*
X227673Y100940D01*
X227935Y100984D01*
X228504Y101101D01*
X229102Y101276D01*
X229393Y101378D01*
X229700Y101494D01*
X229714Y101509D01*
X229772Y101523D01*
X229860Y101567D01*
X229962Y101611D01*
X230108Y101684D01*
X230268Y101771D01*
X230443Y101859D01*
X230633Y101976D01*
X231070Y102238D01*
X231537Y102559D01*
X232003Y102923D01*
X232455Y103331D01*
X232470Y103346D01*
X232499Y103390D01*
X232572Y103448D01*
X232645Y103536D01*
X232747Y103652D01*
X232849Y103783D01*
X232980Y103944D01*
X233111Y104119D01*
X233257Y104308D01*
X233403Y104512D01*
X233563Y104746D01*
X233709Y104994D01*
X234015Y105518D01*
X234292Y106087D01*
Y106102D01*
X234321Y106160D01*
X234351Y106247D01*
X234394Y106364D01*
X234453Y106510D01*
X234511Y106685D01*
X234569Y106889D01*
X234628Y107108D01*
X234686Y107341D01*
X234744Y107603D01*
X234803Y107880D01*
X234861Y108172D01*
X234934Y108799D01*
X234948Y109120D01*
X234963Y109455D01*
Y109630D01*
X234948Y109761D01*
Y109922D01*
X234934Y110097D01*
X234905Y110315D01*
X234875Y110549D01*
X234846Y110796D01*
X234803Y111059D01*
X234686Y111627D01*
X234511Y112225D01*
X234409Y112517D01*
X234292Y112823D01*
X234278Y112838D01*
X234263Y112896D01*
X234219Y112983D01*
X234161Y113085D01*
X234103Y113231D01*
X234015Y113392D01*
X233913Y113567D01*
X233811Y113756D01*
X233549Y114194D01*
X233228Y114646D01*
X232863Y115112D01*
X232731Y115258D01*
X233345Y115870D01*
X232732Y116468D01*
X232127Y115862D01*
X232134Y115856D01*
X232251Y115754D01*
X232339Y115681D01*
X232397Y115622D01*
X232441Y115579D01*
X232455Y115564D01*
X232731Y115258D01*
X230983Y113513D01*
Y113319D01*
X230968Y113217D01*
X230939Y113100D01*
X230910Y112940D01*
X230851Y112779D01*
X230779Y112604D01*
X230676Y112415D01*
X230662Y112400D01*
X230633Y112342D01*
X230560Y112254D01*
X230472Y112152D01*
X230356Y112021D01*
X230210Y111890D01*
X230035Y111744D01*
X229831Y111598D01*
X230822D01*
Y110199D01*
X227661D01*
X230983Y113513D01*
Y113581D01*
X230954Y113742D01*
X230910Y113902D01*
X230851Y114062D01*
X230706Y114339D01*
X230663Y114396D01*
X232127Y115862D01*
X232003Y115972D01*
X231843Y116089D01*
X231668Y116220D01*
X231478Y116366D01*
X231274Y116526D01*
X231041Y116672D01*
X230793Y116832D01*
X230268Y117124D01*
X229700Y117401D01*
X229685Y117416D01*
X229627Y117430D01*
X229539Y117459D01*
X229423Y117503D01*
X229277Y117561D01*
X229102Y117620D01*
X228898Y117678D01*
X228679Y117751D01*
X228446Y117809D01*
X228183Y117868D01*
X227906Y117926D01*
X227615Y117984D01*
X226988Y118057D01*
X226667Y118086D01*
D02*
G37*
%LPD*%
G36*
X227673Y115739D02*
X227819D01*
X227994Y115710D01*
X228169Y115695D01*
X228373Y115666D01*
X228796Y115579D01*
X229248Y115447D01*
X229452Y115375D01*
X229670Y115272D01*
X229860Y115170D01*
X230049Y115039D01*
X230064Y115025D01*
X230093Y115010D01*
X230137Y114966D01*
X230195Y114923D01*
X230356Y114762D01*
X230531Y114573D01*
X230663Y114396D01*
X229508Y113240D01*
X229525Y113173D01*
X229539Y113085D01*
X229554Y113027D01*
Y112881D01*
X229539Y112765D01*
X229466Y112546D01*
X229364Y112356D01*
X229233Y112211D01*
X229102Y112094D01*
X228985Y112021D01*
X228898Y111963D01*
X228883Y111948D01*
X228869D01*
X228650Y111846D01*
X228387Y111773D01*
X228125Y111715D01*
X227966Y111696D01*
X226470Y110199D01*
X221535D01*
Y111700D01*
X224874D01*
X224859Y111715D01*
X224830Y111730D01*
X224786Y111773D01*
X224728Y111832D01*
X224567Y111977D01*
X224393Y112181D01*
X224218Y112429D01*
X224072Y112706D01*
X224013Y112867D01*
X223970Y113027D01*
X223940Y113202D01*
Y113479D01*
X223955Y113552D01*
X223970Y113639D01*
X223984Y113742D01*
X224043Y113975D01*
X224159Y114252D01*
X224218Y114383D01*
X224305Y114529D01*
X224407Y114675D01*
X224524Y114806D01*
X224655Y114937D01*
X224815Y115068D01*
X224830Y115083D01*
X224859Y115097D01*
X224903Y115127D01*
X224976Y115170D01*
X225063Y115229D01*
X225180Y115287D01*
X225311Y115345D01*
X225471Y115418D01*
X225632Y115477D01*
X225836Y115535D01*
X226040Y115593D01*
X226273Y115652D01*
X226521Y115695D01*
X226798Y115725D01*
X227090Y115754D01*
X227396D01*
X227411D01*
X227469D01*
X227556D01*
X227673Y115739D01*
D02*
G37*
%LPC*%
G36*
X227483Y114223D02*
X227469D01*
X227425D01*
X227367D01*
X227294D01*
X227192Y114208D01*
X227090D01*
X226827Y114179D01*
X226550Y114135D01*
X226273Y114062D01*
X226025Y113975D01*
X225909Y113917D01*
X225807Y113844D01*
X225792Y113829D01*
X225734Y113785D01*
X225661Y113712D01*
X225573Y113625D01*
X225486Y113494D01*
X225413Y113348D01*
X225355Y113173D01*
X225340Y112969D01*
Y112867D01*
X225369Y112750D01*
X225398Y112619D01*
X225457Y112473D01*
X225530Y112313D01*
X225646Y112181D01*
X225807Y112065D01*
X225836Y112050D01*
X225894Y112007D01*
X226011Y111934D01*
X226171Y111861D01*
X226390Y111773D01*
X226638Y111715D01*
X226929Y111657D01*
X227279Y111642D01*
X227294D01*
X227323D01*
X227381D01*
X227454D01*
X227542Y111657D01*
X227644D01*
X227877Y111686D01*
X227966Y111696D01*
X229508Y113240D01*
X229496Y113290D01*
X229437Y113421D01*
X229350Y113567D01*
X229233Y113698D01*
X229073Y113844D01*
X229058Y113858D01*
X228985Y113902D01*
X228869Y113960D01*
X228708Y114019D01*
X228489Y114092D01*
X228358Y114121D01*
X228212Y114150D01*
X228052Y114179D01*
X227877Y114194D01*
X227688Y114208D01*
X227483Y114223D01*
D02*
G37*
G36*
X221408Y137184D02*
X220484D01*
X221171Y136522D01*
X221408D01*
Y137184D01*
D02*
G37*
G36*
X229901Y136309D02*
X229889D01*
X229851D01*
X229789Y136297D01*
X229714Y136284D01*
X229639Y136259D01*
X229552Y136222D01*
X229464Y136172D01*
X229377Y136097D01*
X229364Y136085D01*
X229339Y136060D01*
X229302Y136010D01*
X229264Y135960D01*
X229227Y135885D01*
X229189Y135797D01*
X229165Y135697D01*
X229152Y135585D01*
Y135535D01*
X229165Y135485D01*
X229177Y135410D01*
X229202Y135335D01*
X229252Y135248D01*
X229302Y135148D01*
X229377Y135060D01*
X229389Y135048D01*
X229414Y135023D01*
X229464Y134985D01*
X229527Y134948D01*
X229602Y134911D01*
X229689Y134873D01*
X229789Y134848D01*
X229901Y134836D01*
X229914D01*
X229951D01*
X230014Y134848D01*
X230076Y134861D01*
X230164Y134886D01*
X230251Y134923D01*
X230339Y134973D01*
X230426Y135048D01*
X230438Y135060D01*
X230463Y135085D01*
X230501Y135135D01*
X230538Y135198D01*
X230576Y135273D01*
X230613Y135373D01*
X230638Y135473D01*
X230651Y135585D01*
Y135635D01*
X230638Y135697D01*
X230626Y135760D01*
X230601Y135847D01*
X230551Y135922D01*
X230501Y136010D01*
X230426Y136097D01*
X230414Y136110D01*
X230388Y136135D01*
X230339Y136160D01*
X230276Y136209D01*
X230201Y136247D01*
X230114Y136272D01*
X230014Y136297D01*
X229901Y136309D01*
D02*
G37*
G36*
X221783Y136035D02*
Y135985D01*
X221708D01*
X224805Y132950D01*
X227578Y135535D01*
X221783Y136035D01*
D02*
G37*
G36*
X218023Y133911D02*
X217674D01*
Y132463D01*
X218023D01*
Y133911D01*
D02*
G37*
G36*
X218823Y136234D02*
X218810D01*
X218785Y136222D01*
X218735Y136197D01*
X218673Y136147D01*
X218648Y136135D01*
X218598Y136085D01*
X218523Y135997D01*
X218436Y135872D01*
Y135860D01*
X218411Y135835D01*
X218386Y135785D01*
X218361Y135722D01*
X218323Y135647D01*
X218273Y135547D01*
X218236Y135435D01*
X218186Y135298D01*
X218173Y135285D01*
X218161Y135235D01*
X218136Y135148D01*
X218111Y135035D01*
X218073Y134898D01*
X218036Y134723D01*
X217998Y134523D01*
X217961Y134311D01*
X218373D01*
Y132038D01*
X217911D01*
Y131913D01*
X217923Y131775D01*
X217936Y131601D01*
X217961Y131401D01*
X217986Y131201D01*
X218023Y130989D01*
X218073Y130801D01*
X218823D01*
Y136234D01*
D02*
G37*
G36*
X228140Y135485D02*
X225093Y132675D01*
X227578Y130277D01*
X230114Y130464D01*
Y134224D01*
X230101D01*
X230076D01*
X230014Y134211D01*
X230001D01*
X229976D01*
X229901Y134199D01*
X229889D01*
X229876D01*
X229802D01*
X229701Y134224D01*
X229577Y134249D01*
X229427Y134286D01*
X229277Y134348D01*
X229115Y134436D01*
X228977Y134548D01*
X228965Y134561D01*
X228915Y134611D01*
X228865Y134686D01*
X228790Y134798D01*
X228715Y134923D01*
X228652Y135073D01*
X228602Y135248D01*
X228565Y135448D01*
X228140Y135485D01*
D02*
G37*
G36*
X224805Y132413D02*
X221995Y129790D01*
X227041Y130214D01*
X224805Y132413D01*
D02*
G37*
G36*
X219335Y136259D02*
Y129577D01*
X221308Y129740D01*
X224531Y132700D01*
X222695Y134486D01*
Y131988D01*
X221758D01*
Y134836D01*
X222295D01*
X221146Y135985D01*
X220109D01*
Y136222D01*
X219335Y136259D01*
D02*
G37*
G36*
X218823Y129952D02*
X218373D01*
X218386Y129939D01*
X218398Y129914D01*
X218423Y129865D01*
X218461Y129815D01*
X218548Y129690D01*
X218598Y129640D01*
X218648Y129590D01*
X218673Y129577D01*
X218710Y129552D01*
X218773Y129515D01*
X218823Y129502D01*
Y129952D01*
D02*
G37*
%LPD*%
G36*
X229976Y136022D02*
X230051Y136010D01*
X230126Y135985D01*
X230214Y135922D01*
X230301Y135847D01*
X230351Y135735D01*
X230388Y135585D01*
Y135547D01*
X230376Y135522D01*
X230363Y135473D01*
X230326Y135360D01*
X230289Y135298D01*
X230239Y135235D01*
X230226D01*
X230214Y135210D01*
X230139Y135160D01*
X230039Y135110D01*
X229964Y135098D01*
X229901Y135085D01*
X229889D01*
X229864D01*
X229789Y135110D01*
X229689Y135148D01*
X229639Y135185D01*
X229589Y135235D01*
X229577Y135248D01*
X229564Y135260D01*
X229514Y135335D01*
X229477Y135448D01*
X229452Y135522D01*
Y135623D01*
X229464Y135697D01*
X229514Y135797D01*
X229539Y135847D01*
X229589Y135897D01*
Y135910D01*
X229614Y135922D01*
X229677Y135972D01*
X229777Y136010D01*
X229839Y136035D01*
X229901D01*
X229926D01*
X229976Y136022D01*
D02*
G37*
%LPC*%
G36*
X267323Y143398D02*
X257810D01*
D01*
X257750D01*
X257810D01*
X257310Y143381D01*
X256844Y143348D01*
X256411Y143281D01*
X255994Y143181D01*
X255627Y143065D01*
X255261Y142931D01*
X254944Y142781D01*
X254645Y142615D01*
X254361Y142415D01*
X254112Y142232D01*
X253878Y142015D01*
X253662Y141798D01*
X253478Y141565D01*
X253312Y141332D01*
X253145Y141099D01*
X253012Y140866D01*
X252795Y140399D01*
X252612Y139933D01*
X252495Y139516D01*
X252412Y139133D01*
X252379Y138950D01*
X252362Y138800D01*
X252345Y138666D01*
Y138550D01*
X252329Y138466D01*
Y138333D01*
X252345Y137883D01*
X252412Y137450D01*
X252529Y137050D01*
X252662Y136684D01*
X252812Y136334D01*
X252995Y136001D01*
X253179Y135717D01*
X253378Y135451D01*
X253578Y135201D01*
X253762Y135001D01*
X253945Y134818D01*
X254095Y134668D01*
X254228Y134551D01*
X254345Y134468D01*
X254411Y134418D01*
X254428Y134401D01*
X252645D01*
Y131319D01*
X252329D01*
D01*
X267323D01*
Y143398D01*
D02*
G37*
G36*
Y127837D02*
X257910D01*
X257327Y127821D01*
X256777Y127771D01*
X256277Y127687D01*
X255827Y127587D01*
X255428Y127471D01*
X255061Y127321D01*
X254745Y127188D01*
X254461Y127038D01*
X254228Y126871D01*
X254012Y126738D01*
X253845Y126604D01*
X253712Y126471D01*
X253612Y126371D01*
X253528Y126288D01*
X253495Y126238D01*
X253478Y126221D01*
X253278Y125905D01*
X253095Y125572D01*
X252945Y125222D01*
X252812Y124855D01*
X252695Y124489D01*
X252612Y124122D01*
X252529Y123756D01*
X252479Y123406D01*
X252429Y123073D01*
X252396Y122773D01*
X252362Y122506D01*
X252345Y122273D01*
X252329Y122073D01*
Y121806D01*
X252345Y121257D01*
X252379Y120723D01*
X252445Y120240D01*
X252545Y119774D01*
X252645Y119357D01*
X252779Y118958D01*
X252929Y118574D01*
X253095Y118241D01*
X253278Y117925D01*
X253462Y117625D01*
X253678Y117358D01*
X253878Y117108D01*
X254095Y116892D01*
X254328Y116675D01*
X254561Y116492D01*
X254778Y116325D01*
X255011Y116175D01*
X255244Y116059D01*
X255694Y115842D01*
X256111Y115675D01*
X256477Y115559D01*
X256644Y115526D01*
X256794Y115492D01*
X256927Y115476D01*
X257027Y115442D01*
X257127D01*
X257194Y115426D01*
X257227D01*
X257243D01*
Y118474D01*
X257027Y118491D01*
X256827Y118524D01*
X256444Y118641D01*
X256127Y118808D01*
X255861Y119024D01*
X255627Y119257D01*
X255428Y119524D01*
X255278Y119824D01*
X255144Y120107D01*
X255044Y120407D01*
X254978Y120690D01*
X254911Y120957D01*
X254878Y121190D01*
X254861Y121390D01*
X254844Y121540D01*
Y121940D01*
X254861Y122190D01*
X254878Y122423D01*
X254911Y122639D01*
X254944Y122839D01*
X254978Y123006D01*
X255011Y123173D01*
X255044Y123306D01*
X255078Y123439D01*
X255111Y123539D01*
X255144Y123622D01*
X255178Y123706D01*
X255228Y123789D01*
X255244Y123822D01*
X255394Y124039D01*
X255577Y124222D01*
X255744Y124355D01*
X255894Y124472D01*
X256044Y124539D01*
X256161Y124589D01*
X256227Y124622D01*
X256261D01*
X256510Y124672D01*
X256810Y124705D01*
X257110Y124739D01*
X257410Y124755D01*
X257677Y124772D01*
X257793D01*
X257893D01*
X257977D01*
X258043D01*
X258077D01*
X258093D01*
Y123822D01*
X258110Y123023D01*
X258143Y122273D01*
X258226Y121573D01*
X258310Y120907D01*
X258443Y120307D01*
X258576Y119741D01*
X258726Y119208D01*
X258910Y118724D01*
X259093Y118274D01*
X259309Y117875D01*
X259509Y117508D01*
X259742Y117158D01*
X259976Y116858D01*
X260209Y116575D01*
X260459Y116325D01*
X260692Y116109D01*
X260942Y115926D01*
X261192Y115742D01*
X261425Y115592D01*
X261658Y115476D01*
X261875Y115376D01*
X262092Y115276D01*
X262491Y115142D01*
X262675Y115109D01*
X262825Y115076D01*
X262958Y115042D01*
X263091Y115026D01*
X263175Y115009D01*
X252329D01*
D01*
X263308D01*
X263658Y115026D01*
X263991Y115076D01*
X264307Y115142D01*
X264607Y115226D01*
X264891Y115342D01*
X265140Y115459D01*
X265390Y115592D01*
X265590Y115726D01*
X265790Y115859D01*
X265957Y115992D01*
X266107Y116109D01*
X266223Y116225D01*
X266323Y116309D01*
X266390Y116375D01*
X266423Y116425D01*
X266440Y116442D01*
X266656Y116725D01*
X266840Y117008D01*
X266990Y117325D01*
X267140Y117625D01*
X267256Y117941D01*
X267339Y118241D01*
X267423Y118541D01*
X267489Y118824D01*
X267539Y119091D01*
X267573Y119324D01*
X267606Y119557D01*
X267623Y119741D01*
Y119890D01*
X267639Y120007D01*
Y120240D01*
Y120107D01*
X267623Y120674D01*
X267556Y121207D01*
X267473Y121706D01*
X267356Y122156D01*
X267223Y122573D01*
X267073Y122956D01*
X266923Y123306D01*
X266756Y123622D01*
X266590Y123889D01*
X266440Y124122D01*
X266290Y124322D01*
X266157Y124489D01*
X266040Y124605D01*
X265957Y124705D01*
X265890Y124755D01*
X265873Y124772D01*
X267323D01*
Y127837D01*
D02*
G37*
G36*
X267639Y113876D02*
Y107895D01*
X267623Y108345D01*
X267589Y108762D01*
X267523Y109161D01*
X267456Y109545D01*
X267356Y109911D01*
X267256Y110244D01*
X267140Y110544D01*
X267023Y110828D01*
X266923Y111077D01*
X266806Y111294D01*
X266706Y111494D01*
X266606Y111644D01*
X266540Y111777D01*
X266473Y111877D01*
X266440Y111927D01*
X266423Y111944D01*
X266173Y112227D01*
X265907Y112494D01*
X265607Y112727D01*
X265290Y112943D01*
X264974Y113110D01*
X264657Y113277D01*
X264341Y113410D01*
X264024Y113526D01*
X263724Y113626D01*
X263458Y113693D01*
X263208Y113760D01*
X262991Y113810D01*
X262808Y113843D01*
X262675Y113860D01*
X262591Y113876D01*
X262558D01*
Y110744D01*
X262808Y110728D01*
X263041Y110694D01*
X263258Y110644D01*
X263458Y110578D01*
X263624Y110511D01*
X263791Y110444D01*
X263941Y110361D01*
X264074Y110278D01*
X264274Y110128D01*
X264424Y109994D01*
X264507Y109895D01*
X264541Y109878D01*
Y109861D01*
X264740Y109545D01*
X264891Y109212D01*
X264990Y108895D01*
X265057Y108578D01*
X265107Y108312D01*
X265124Y108195D01*
Y108095D01*
X265140Y108012D01*
Y107895D01*
X265124Y107596D01*
X265090Y107312D01*
X265024Y107029D01*
X264941Y106779D01*
X264841Y106546D01*
X264740Y106313D01*
X264624Y106113D01*
X264507Y105929D01*
X264391Y105763D01*
X264274Y105613D01*
X264174Y105496D01*
X264074Y105380D01*
X263991Y105296D01*
X263924Y105246D01*
X263891Y105213D01*
X263874Y105196D01*
X263624Y105013D01*
X263341Y104847D01*
X263041Y104713D01*
X262725Y104597D01*
X262408Y104497D01*
X262075Y104397D01*
X261458Y104280D01*
X261159Y104230D01*
X260875Y104197D01*
X260642Y104180D01*
X260426Y104164D01*
X260242Y104147D01*
X260109D01*
X260026D01*
X259992D01*
X259526Y104164D01*
X259076Y104197D01*
X258676Y104247D01*
X258293Y104313D01*
X257943Y104380D01*
X257627Y104480D01*
X257344Y104563D01*
X257077Y104663D01*
X256860Y104763D01*
X256660Y104847D01*
X256494Y104946D01*
X256361Y105013D01*
X256261Y105080D01*
X256194Y105130D01*
X256144Y105163D01*
X256127Y105180D01*
X255894Y105380D01*
X255711Y105596D01*
X255528Y105813D01*
X255378Y106046D01*
X255261Y106279D01*
X255161Y106496D01*
X255078Y106712D01*
X255011Y106929D01*
X254944Y107129D01*
X254911Y107312D01*
X254878Y107479D01*
X254861Y107612D01*
X254844Y107729D01*
Y107895D01*
X254878Y108312D01*
X254944Y108695D01*
X255028Y109028D01*
X255144Y109328D01*
X255261Y109561D01*
X255344Y109728D01*
X255394Y109795D01*
X255411Y109845D01*
X255444Y109861D01*
Y109878D01*
X255561Y110028D01*
X255694Y110144D01*
X256011Y110361D01*
X256344Y110511D01*
X256660Y110611D01*
X256960Y110678D01*
X257094Y110711D01*
X257210Y110728D01*
X257310D01*
X257377Y110744D01*
X257427D01*
X257443D01*
Y113876D01*
X256960Y113810D01*
X256527Y113710D01*
X256111Y113593D01*
X255728Y113460D01*
X255378Y113310D01*
X255061Y113143D01*
X254778Y112977D01*
X254528Y112810D01*
X254295Y112643D01*
X254112Y112477D01*
X253945Y112344D01*
X253812Y112210D01*
X253712Y112094D01*
X253628Y112010D01*
X253595Y111960D01*
X253578Y111944D01*
X253362Y111627D01*
X253162Y111294D01*
X252995Y110961D01*
X252862Y110628D01*
X252729Y110278D01*
X252629Y109944D01*
X252545Y109611D01*
X252479Y109311D01*
X252429Y109012D01*
X252396Y108745D01*
X252362Y108512D01*
X252345Y108295D01*
X252329Y108129D01*
Y108195D01*
Y107895D01*
X252345Y107329D01*
X252412Y106779D01*
X252512Y106263D01*
X252645Y105796D01*
X252795Y105346D01*
X252962Y104930D01*
X253145Y104563D01*
X253328Y104214D01*
X253528Y103914D01*
X253712Y103647D01*
X253878Y103414D01*
X254028Y103231D01*
X254161Y103081D01*
X254261Y102964D01*
X254328Y102897D01*
X254345Y102881D01*
X254745Y102548D01*
X255161Y102264D01*
X255611Y102014D01*
X256077Y101798D01*
X256544Y101614D01*
X257010Y101465D01*
X257477Y101331D01*
X257927Y101231D01*
X258343Y101148D01*
X258743Y101098D01*
X259093Y101048D01*
X259393Y101031D01*
X259643Y101015D01*
X259742Y100998D01*
X259992D01*
X260659Y101015D01*
X261275Y101081D01*
X261858Y101165D01*
X262408Y101298D01*
X262908Y101431D01*
X263374Y101598D01*
X263791Y101764D01*
X264174Y101948D01*
X264507Y102114D01*
X264807Y102281D01*
X265057Y102447D01*
X265274Y102581D01*
X265424Y102714D01*
X265540Y102797D01*
X265623Y102864D01*
X265640Y102881D01*
X265990Y103247D01*
X266307Y103630D01*
X266573Y104047D01*
X266790Y104463D01*
X266990Y104880D01*
X267156Y105296D01*
X267289Y105696D01*
X267389Y106096D01*
X267473Y106463D01*
X267539Y106812D01*
X267573Y107112D01*
X267606Y107379D01*
X267623Y107596D01*
X267639Y107762D01*
Y113876D01*
D02*
G37*
G36*
X259742Y100998D02*
D01*
X252329D01*
X259742D01*
D02*
G37*
G36*
X267323Y100515D02*
Y95700D01*
X257144D01*
X256827Y95934D01*
X256544Y96183D01*
X256294Y96433D01*
X256094Y96683D01*
X255911Y96950D01*
X255777Y97200D01*
X255644Y97433D01*
X255561Y97666D01*
X255478Y97883D01*
X255428Y98083D01*
X255378Y98249D01*
X255361Y98399D01*
X255344Y98532D01*
X255328Y98616D01*
Y99049D01*
X255361Y99382D01*
X255378Y99699D01*
X255411Y99965D01*
X255444Y100198D01*
X255461Y100365D01*
X255478Y100432D01*
X255494Y100482D01*
Y100515D01*
X267323D01*
X252329D01*
X252479D01*
X252429Y100198D01*
X252396Y99915D01*
X252362Y99682D01*
X252345Y99465D01*
X252329Y99299D01*
Y99082D01*
X252362Y98682D01*
X252429Y98299D01*
X252545Y97949D01*
X252679Y97616D01*
X252862Y97316D01*
X253045Y97033D01*
X253262Y96783D01*
X253462Y96550D01*
X253678Y96350D01*
X253895Y96183D01*
X254078Y96033D01*
X254261Y95917D01*
X254395Y95817D01*
X254511Y95750D01*
X254578Y95717D01*
X254611Y95700D01*
X252645D01*
Y92618D01*
X267323D01*
Y100515D01*
D02*
G37*
%LPD*%
G36*
Y134401D02*
X257027D01*
X256660Y134735D01*
X256344Y135068D01*
X256061Y135384D01*
X255827Y135701D01*
X255627Y136001D01*
X255444Y136301D01*
X255311Y136584D01*
X255211Y136834D01*
X255111Y137084D01*
X255061Y137300D01*
X255011Y137484D01*
X254978Y137650D01*
X254961Y137767D01*
X254944Y137867D01*
Y138183D01*
X254978Y138400D01*
X255044Y138766D01*
X255161Y139083D01*
X255278Y139333D01*
X255411Y139533D01*
X255528Y139666D01*
X255594Y139733D01*
X255627Y139766D01*
X255761Y139866D01*
X255911Y139949D01*
X256261Y140082D01*
X256644Y140182D01*
X257010Y140249D01*
X257360Y140282D01*
X257510Y140299D01*
X257643Y140316D01*
X257760D01*
X257843D01*
X257893D01*
X257910D01*
X267323D01*
Y134401D01*
D02*
G37*
G36*
X263558Y124539D02*
X263824Y124255D01*
X264057Y123989D01*
X264257Y123706D01*
X264407Y123472D01*
X264524Y123273D01*
X264574Y123189D01*
X264591Y123139D01*
X264624Y123106D01*
Y123089D01*
X264791Y122689D01*
X264924Y122273D01*
X265007Y121890D01*
X265074Y121556D01*
X265107Y121257D01*
X265124Y121123D01*
Y121023D01*
X265140Y120940D01*
Y120824D01*
X265124Y120374D01*
X265057Y119991D01*
X264974Y119641D01*
X264891Y119374D01*
X264791Y119141D01*
X264724Y118991D01*
X264657Y118891D01*
X264641Y118858D01*
X264424Y118624D01*
X264191Y118458D01*
X263958Y118324D01*
X263708Y118241D01*
X263508Y118191D01*
X263324Y118175D01*
X263258Y118158D01*
X263208D01*
X263191D01*
X263175D01*
X262925Y118175D01*
X262708Y118225D01*
X262491Y118291D01*
X262292Y118375D01*
X262108Y118491D01*
X261925Y118641D01*
X261775Y118791D01*
X261625Y118974D01*
X261359Y119357D01*
X261142Y119791D01*
X260975Y120274D01*
X260825Y120757D01*
X260709Y121240D01*
X260626Y121706D01*
X260576Y122140D01*
X260526Y122523D01*
Y122706D01*
X260509Y122856D01*
Y123006D01*
X260492Y123123D01*
Y124772D01*
X263258D01*
X263558Y124539D01*
D02*
G37*
D10*
X219685Y175689D02*
G03*
X219685Y175689I-394J0D01*
G01*
X251083D02*
G03*
X251083Y175689I-394J0D01*
G01*
X131890Y-39862D02*
G03*
X131890Y-39862I-394J0D01*
G01*
X192579Y-8366D02*
G03*
X192579Y-8366I-394J0D01*
G01*
X149153Y-18976D02*
G03*
X149153Y-18976I-394J0D01*
G01*
X84646Y175689D02*
G03*
X84646Y175689I-394J0D01*
G01*
X53248D02*
G03*
X53248Y175689I-394J0D01*
G01*
X103150Y133071D02*
Y139370D01*
X83465Y133071D02*
Y139370D01*
X103150D01*
X83465Y133071D02*
X103150D01*
X283130Y49035D02*
Y59035D01*
X233130Y49035D02*
X283130D01*
X233130Y59035D02*
X283130D01*
X233130Y49035D02*
Y59035D01*
X203150Y133071D02*
Y139370D01*
X183465Y133071D02*
Y139370D01*
X203150D01*
X183465Y133071D02*
X203150D01*
X197280Y177526D02*
X196820Y177985D01*
X195902D01*
X195443Y177526D01*
Y175689D01*
X195902Y175230D01*
X196820D01*
X197280Y175689D01*
X198198Y175230D02*
Y177067D01*
X199116Y177985D01*
X200035Y177067D01*
Y175230D01*
Y176608D01*
X198198D01*
X200953Y175230D02*
Y177985D01*
X202790Y175230D01*
Y177985D01*
X205545Y175230D02*
X203708D01*
X205545Y177067D01*
Y177526D01*
X205086Y177985D01*
X204167D01*
X203708Y177526D01*
X206463Y174771D02*
X208300D01*
X210596Y177985D02*
X209677D01*
X209218Y177526D01*
Y175689D01*
X209677Y175230D01*
X210596D01*
X211055Y175689D01*
Y177526D01*
X210596Y177985D01*
X211973D02*
Y175689D01*
X212432Y175230D01*
X213351D01*
X213810Y175689D01*
Y177985D01*
X214728D02*
X216565D01*
X215647D01*
Y175230D01*
X230973Y177526D02*
X230514Y177985D01*
X229596D01*
X229137Y177526D01*
Y175689D01*
X229596Y175230D01*
X230514D01*
X230973Y175689D01*
X231892Y175230D02*
Y177067D01*
X232810Y177985D01*
X233728Y177067D01*
Y175230D01*
Y176608D01*
X231892D01*
X234647Y175230D02*
Y177985D01*
X236484Y175230D01*
Y177985D01*
X239239Y175230D02*
X237402D01*
X239239Y177067D01*
Y177526D01*
X238779Y177985D01*
X237861D01*
X237402Y177526D01*
X240157Y174771D02*
X241993D01*
X242912Y177985D02*
X243830D01*
X243371D01*
Y175230D01*
X242912D01*
X243830D01*
X245208D02*
Y177985D01*
X247044Y175230D01*
Y177985D01*
X204921Y171850D02*
Y169095D01*
X206758D01*
X218996Y171850D02*
Y169095D01*
Y170472D01*
X220833D01*
Y171850D01*
Y169095D01*
X250394Y171850D02*
Y169095D01*
Y170472D01*
X252230D01*
Y171850D01*
Y169095D01*
X236713Y171850D02*
Y169095D01*
X238549D01*
X69784Y171850D02*
Y169095D01*
X71620D01*
X83464Y171850D02*
Y169095D01*
Y170472D01*
X85301D01*
Y171850D01*
Y169095D01*
X52067Y171850D02*
Y169095D01*
Y170472D01*
X53904D01*
Y171850D01*
Y169095D01*
X37992Y171850D02*
Y169095D01*
X39829D01*
X121026Y127931D02*
X120027Y128931D01*
X118027D01*
X117028Y127931D01*
Y123933D01*
X118027Y122933D01*
X120027D01*
X121026Y123933D01*
X123026Y122933D02*
Y126932D01*
X125025Y128931D01*
X127024Y126932D01*
Y122933D01*
Y125932D01*
X123026D01*
X129024Y122933D02*
Y128931D01*
X133022Y122933D01*
Y128931D01*
X135022Y122933D02*
X137021D01*
X136021D01*
Y128931D01*
X135022Y127931D01*
X237369Y60728D02*
X236910Y61187D01*
Y62106D01*
X237369Y62565D01*
X237829D01*
X238288Y62106D01*
Y61647D01*
Y62106D01*
X238747Y62565D01*
X239206D01*
X239665Y62106D01*
Y61187D01*
X239206Y60728D01*
X239665Y63483D02*
X239206D01*
Y63942D01*
X239665D01*
Y63483D01*
X237369Y65779D02*
X236910Y66238D01*
Y67157D01*
X237369Y67616D01*
X237829D01*
X238288Y67157D01*
Y66698D01*
Y67157D01*
X238747Y67616D01*
X239206D01*
X239665Y67157D01*
Y66238D01*
X239206Y65779D01*
X236910Y68534D02*
X238747D01*
X239665Y69453D01*
X238747Y70371D01*
X236910D01*
X267340Y62565D02*
X266881Y62106D01*
Y61187D01*
X267340Y60728D01*
X267799D01*
X268258Y61187D01*
Y62106D01*
X268718Y62565D01*
X269177D01*
X269636Y62106D01*
Y61187D01*
X269177Y60728D01*
X266881Y63483D02*
X269636D01*
X268718Y64402D01*
X269636Y65320D01*
X266881D01*
Y67616D02*
Y66698D01*
X267340Y66238D01*
X269177D01*
X269636Y66698D01*
Y67616D01*
X269177Y68075D01*
X267340D01*
X266881Y67616D01*
X277330Y62565D02*
X276871Y62106D01*
Y61187D01*
X277330Y60728D01*
X279167D01*
X279626Y61187D01*
Y62106D01*
X279167Y62565D01*
X278249D01*
Y61647D01*
X279626Y63483D02*
X276871D01*
X279626Y65320D01*
X276871D01*
Y66238D02*
X279626D01*
Y67616D01*
X279167Y68075D01*
X277330D01*
X276871Y67616D01*
Y66238D01*
X247360Y62565D02*
X246901Y62106D01*
Y61187D01*
X247360Y60728D01*
X247819D01*
X248278Y61187D01*
Y62106D01*
X248737Y62565D01*
X249196D01*
X249656Y62106D01*
Y61187D01*
X249196Y60728D01*
X246901Y63483D02*
X249656D01*
X248737Y64402D01*
X249656Y65320D01*
X246901D01*
Y66238D02*
X249656D01*
Y67616D01*
X249196Y68075D01*
X247360D01*
X246901Y67616D01*
Y66238D01*
Y68993D02*
Y69912D01*
Y69453D01*
X249656D01*
Y68993D01*
Y69912D01*
X246901Y72667D02*
Y71748D01*
X247360Y71289D01*
X249196D01*
X249656Y71748D01*
Y72667D01*
X249196Y73126D01*
X247360D01*
X246901Y72667D01*
X257350Y62565D02*
X256891Y62106D01*
Y61187D01*
X257350Y60728D01*
X257809D01*
X258268Y61187D01*
Y62106D01*
X258727Y62565D01*
X259187D01*
X259646Y62106D01*
Y61187D01*
X259187Y60728D01*
X256891Y63483D02*
X259646D01*
X258727Y64402D01*
X259646Y65320D01*
X256891D01*
X257350Y68075D02*
X256891Y67616D01*
Y66698D01*
X257350Y66238D01*
X259187D01*
X259646Y66698D01*
Y67616D01*
X259187Y68075D01*
X256891Y68993D02*
X259646D01*
Y70830D01*
X256891Y71748D02*
X259646D01*
X258727D01*
X256891Y73585D01*
X258268Y72208D01*
X259646Y73585D01*
X157837Y127931D02*
X156838Y128931D01*
X154838D01*
X153839Y127931D01*
Y123933D01*
X154838Y122933D01*
X156838D01*
X157837Y123933D01*
X159837Y122933D02*
Y126932D01*
X161836Y128931D01*
X163835Y126932D01*
Y122933D01*
Y125932D01*
X159837D01*
X165835Y122933D02*
Y128931D01*
X169833Y122933D01*
Y128931D01*
X175831Y122933D02*
X171833D01*
X175831Y126932D01*
Y127931D01*
X174832Y128931D01*
X172832D01*
X171833Y127931D01*
X189535Y-37599D02*
Y-39895D01*
X189994Y-40354D01*
X190912D01*
X191372Y-39895D01*
Y-37599D01*
X193667Y-40354D02*
Y-37599D01*
X192290Y-38976D01*
X194127D01*
X177100Y208041D02*
X176641Y207582D01*
Y206663D01*
X177100Y206204D01*
X177559D01*
X178018Y206663D01*
Y207582D01*
X178478Y208041D01*
X178937D01*
X179396Y207582D01*
Y206663D01*
X178937Y206204D01*
X176641Y208959D02*
X179396D01*
X178478Y209877D01*
X179396Y210796D01*
X176641D01*
X179396Y211714D02*
Y212632D01*
Y212173D01*
X176641D01*
X177100Y211714D01*
X179855Y214010D02*
Y215847D01*
X177100Y218602D02*
X176641Y218143D01*
Y217224D01*
X177100Y216765D01*
X178937D01*
X179396Y217224D01*
Y218143D01*
X178937Y218602D01*
X179396Y219520D02*
X177559D01*
X176641Y220438D01*
X177559Y221357D01*
X179396D01*
X178018D01*
Y219520D01*
X179396Y222275D02*
X176641D01*
X179396Y224112D01*
X176641D01*
X179396Y226867D02*
Y225030D01*
X177559Y226867D01*
X177100D01*
X176641Y226408D01*
Y225489D01*
X177100Y225030D01*
X110761Y209189D02*
X110302Y208730D01*
Y207811D01*
X110761Y207352D01*
X111221D01*
X111680Y207811D01*
Y208730D01*
X112139Y209189D01*
X112598D01*
X113057Y208730D01*
Y207811D01*
X112598Y207352D01*
X110302Y210107D02*
X113057D01*
X112139Y211026D01*
X113057Y211944D01*
X110302D01*
X113057Y212862D02*
Y213781D01*
Y213321D01*
X110302D01*
X110761Y212862D01*
X113516Y215158D02*
Y216995D01*
X110761Y219750D02*
X110302Y219291D01*
Y218372D01*
X110761Y217913D01*
X112598D01*
X113057Y218372D01*
Y219291D01*
X112598Y219750D01*
X113057Y220668D02*
X111221D01*
X110302Y221586D01*
X111221Y222505D01*
X113057D01*
X111680D01*
Y220668D01*
X113057Y223423D02*
X110302D01*
X113057Y225260D01*
X110302D01*
X113057Y226178D02*
Y227097D01*
Y226637D01*
X110302D01*
X110761Y226178D01*
X174179Y137076D02*
X171424D01*
Y138454D01*
X171884Y138913D01*
X172802D01*
X173261Y138454D01*
Y137076D01*
Y137995D02*
X174179Y138913D01*
X173720Y139831D02*
X174179Y140291D01*
Y141209D01*
X173720Y141668D01*
X171884D01*
X171424Y141209D01*
Y140291D01*
X171884Y139831D01*
X172343D01*
X172802Y140291D01*
Y141668D01*
X174639Y142587D02*
Y144423D01*
X171884Y147178D02*
X171424Y146719D01*
Y145801D01*
X171884Y145342D01*
X173720D01*
X174179Y145801D01*
Y146719D01*
X173720Y147178D01*
X174179Y148097D02*
X172343D01*
X171424Y149015D01*
X172343Y149933D01*
X174179D01*
X172802D01*
Y148097D01*
X174179Y150852D02*
X171424D01*
X174179Y152688D01*
X171424D01*
X174179Y155443D02*
Y153607D01*
X172343Y155443D01*
X171884D01*
X171424Y154984D01*
Y154066D01*
X171884Y153607D01*
X74573Y136453D02*
X71818D01*
Y137830D01*
X72277Y138290D01*
X73196D01*
X73655Y137830D01*
Y136453D01*
Y137371D02*
X74573Y138290D01*
X74114Y139208D02*
X74573Y139667D01*
Y140585D01*
X74114Y141045D01*
X72277D01*
X71818Y140585D01*
Y139667D01*
X72277Y139208D01*
X72736D01*
X73196Y139667D01*
Y141045D01*
X75032Y141963D02*
Y143800D01*
X72277Y146555D02*
X71818Y146096D01*
Y145177D01*
X72277Y144718D01*
X74114D01*
X74573Y145177D01*
Y146096D01*
X74114Y146555D01*
X74573Y147473D02*
X72736D01*
X71818Y148391D01*
X72736Y149310D01*
X74573D01*
X73196D01*
Y147473D01*
X74573Y150228D02*
X71818D01*
X74573Y152065D01*
X71818D01*
X74573Y152983D02*
Y153901D01*
Y153442D01*
X71818D01*
X72277Y152983D01*
X185797Y51271D02*
X183849Y53219D01*
X184823Y54193D01*
X185473D01*
X186122Y53543D01*
Y52894D01*
X185148Y51920D01*
X185797Y52569D02*
X187096D01*
X187745Y53219D02*
X188395Y53868D01*
X188070Y53543D01*
X186122Y55491D01*
Y54842D01*
X157195Y11840D02*
X156546D01*
X155896Y11191D01*
Y10542D01*
X157195Y9243D01*
X157845D01*
X158494Y9892D01*
Y10542D01*
X158819Y14113D02*
X158494Y13139D01*
Y11840D01*
X159143Y11191D01*
X159793D01*
X160442Y11840D01*
Y12490D01*
X160117Y12814D01*
X159468D01*
X158494Y11840D01*
X165781Y-63878D02*
X167618Y-66633D01*
Y-63878D02*
X165781Y-66633D01*
X168536D02*
X169455D01*
X168996D01*
Y-63878D01*
X168536Y-64338D01*
X33139Y178018D02*
X32680Y178477D01*
X31762D01*
X31302Y178018D01*
Y176181D01*
X31762Y175722D01*
X32680D01*
X33139Y176181D01*
X34058Y175722D02*
Y177559D01*
X34976Y178477D01*
X35894Y177559D01*
Y175722D01*
Y177100D01*
X34058D01*
X36813Y175722D02*
Y178477D01*
X38649Y175722D01*
Y178477D01*
X39568Y175722D02*
X40486D01*
X40027D01*
Y178477D01*
X39568Y178018D01*
X41864Y175263D02*
X43700D01*
X45996Y178477D02*
X45078D01*
X44618Y178018D01*
Y176181D01*
X45078Y175722D01*
X45996D01*
X46455Y176181D01*
Y178018D01*
X45996Y178477D01*
X47374D02*
Y176181D01*
X47833Y175722D01*
X48751D01*
X49210Y176181D01*
Y178477D01*
X50129D02*
X51965D01*
X51047D01*
Y175722D01*
X65061Y178018D02*
X64602Y178477D01*
X63684D01*
X63225Y178018D01*
Y176181D01*
X63684Y175722D01*
X64602D01*
X65061Y176181D01*
X65980Y175722D02*
Y177559D01*
X66898Y178477D01*
X67816Y177559D01*
Y175722D01*
Y177100D01*
X65980D01*
X68735Y175722D02*
Y178477D01*
X70571Y175722D01*
Y178477D01*
X71490Y175722D02*
X72408D01*
X71949D01*
Y178477D01*
X71490Y178018D01*
X73786Y175263D02*
X75622D01*
X76540Y178477D02*
X77459D01*
X77000D01*
Y175722D01*
X76540D01*
X77459D01*
X78836D02*
Y178477D01*
X80673Y175722D01*
Y178477D01*
X225624Y54757D02*
X225165Y55216D01*
X224246D01*
X223787Y54757D01*
Y54298D01*
X224246Y53839D01*
X225165D01*
X225624Y53379D01*
Y52920D01*
X225165Y52461D01*
X224246D01*
X223787Y52920D01*
X226542Y55216D02*
Y52461D01*
X227461Y53379D01*
X228379Y52461D01*
Y55216D01*
X229297D02*
Y52461D01*
X230675D01*
X231134Y52920D01*
Y54757D01*
X230675Y55216D01*
X229297D01*
X132448Y-27264D02*
Y-29560D01*
X132907Y-30019D01*
X133826D01*
X134285Y-29560D01*
Y-27264D01*
X135203Y-27723D02*
X135662Y-27264D01*
X136581D01*
X137040Y-27723D01*
Y-28183D01*
X136581Y-28642D01*
X136122D01*
X136581D01*
X137040Y-29101D01*
Y-29560D01*
X136581Y-30019D01*
X135662D01*
X135203Y-29560D01*
X205184Y126348D02*
X207480D01*
X207939Y126807D01*
Y127726D01*
X207480Y128185D01*
X205184D01*
X207939Y130940D02*
Y129103D01*
X206103Y130940D01*
X205643D01*
X205184Y130481D01*
Y129562D01*
X205643Y129103D01*
X208398Y131858D02*
Y133695D01*
X205643Y136450D02*
X205184Y135991D01*
Y135072D01*
X205643Y134613D01*
X207480D01*
X207939Y135072D01*
Y135991D01*
X207480Y136450D01*
X207939Y137368D02*
X206103D01*
X205184Y138286D01*
X206103Y139205D01*
X207939D01*
X206562D01*
Y137368D01*
X207939Y140123D02*
X205184D01*
X207939Y141960D01*
X205184D01*
X207939Y144715D02*
Y142878D01*
X206103Y144715D01*
X205643D01*
X205184Y144256D01*
Y143337D01*
X205643Y142878D01*
X105086Y126709D02*
X107382D01*
X107841Y127168D01*
Y128086D01*
X107382Y128545D01*
X105086D01*
X107841Y131300D02*
Y129464D01*
X106004Y131300D01*
X105545D01*
X105086Y130841D01*
Y129923D01*
X105545Y129464D01*
X108300Y132219D02*
Y134056D01*
X105545Y136811D02*
X105086Y136351D01*
Y135433D01*
X105545Y134974D01*
X107382D01*
X107841Y135433D01*
Y136351D01*
X107382Y136811D01*
X107841Y137729D02*
X106004D01*
X105086Y138647D01*
X106004Y139566D01*
X107841D01*
X106463D01*
Y137729D01*
X107841Y140484D02*
X105086D01*
X107841Y142321D01*
X105086D01*
X107841Y143239D02*
Y144157D01*
Y143698D01*
X105086D01*
X105545Y143239D01*
X137393Y82845D02*
X139016Y81221D01*
X139665D01*
X140315Y81871D01*
Y82520D01*
X138691Y84143D01*
X141289Y82845D02*
X141938Y83494D01*
X141613Y83169D01*
X139665Y85117D01*
Y84468D01*
X151182Y-22736D02*
Y-19981D01*
X152560D01*
X153019Y-20440D01*
Y-21358D01*
X152560Y-21817D01*
X151182D01*
X152101D02*
X153019Y-22736D01*
X153937D02*
X154856D01*
X154396D01*
Y-19981D01*
X153937Y-20440D01*
X158070Y-22736D02*
X156233D01*
X158070Y-20899D01*
Y-20440D01*
X157611Y-19981D01*
X156692D01*
X156233Y-20440D01*
X162173Y-22637D02*
Y-19882D01*
X163550D01*
X164010Y-20342D01*
Y-21260D01*
X163550Y-21719D01*
X162173D01*
X163091D02*
X164010Y-22637D01*
X164928D02*
X165846D01*
X165387D01*
Y-19882D01*
X164928Y-20342D01*
X167224Y-22637D02*
X168142D01*
X167683D01*
Y-19882D01*
X167224Y-20342D01*
X175200Y179561D02*
Y182316D01*
X176578D01*
X177037Y181857D01*
Y180938D01*
X176578Y180479D01*
X175200D01*
X176119D02*
X177037Y179561D01*
X177955D02*
X178874D01*
X178414D01*
Y182316D01*
X177955Y181857D01*
X180251D02*
X180710Y182316D01*
X181629D01*
X182088Y181857D01*
Y180020D01*
X181629Y179561D01*
X180710D01*
X180251Y180020D01*
Y181857D01*
X183006Y179102D02*
X184843D01*
X187598Y181857D02*
X187139Y182316D01*
X186220D01*
X185761Y181857D01*
Y180020D01*
X186220Y179561D01*
X187139D01*
X187598Y180020D01*
X188516Y179561D02*
Y181397D01*
X189434Y182316D01*
X190353Y181397D01*
Y179561D01*
Y180938D01*
X188516D01*
X191271Y179561D02*
Y182316D01*
X193108Y179561D01*
Y182316D01*
X195863Y179561D02*
X194026D01*
X195863Y181397D01*
Y181857D01*
X195404Y182316D01*
X194485D01*
X194026Y181857D01*
X94655Y179462D02*
Y182217D01*
X96033D01*
X96492Y181758D01*
Y180840D01*
X96033Y180381D01*
X94655D01*
X95574D02*
X96492Y179462D01*
X97410D02*
X98329D01*
X97870D01*
Y182217D01*
X97410Y181758D01*
X99706D02*
X100165Y182217D01*
X101084D01*
X101543Y181758D01*
Y179921D01*
X101084Y179462D01*
X100165D01*
X99706Y179921D01*
Y181758D01*
X102461Y179003D02*
X104298D01*
X107053Y181758D02*
X106594Y182217D01*
X105675D01*
X105216Y181758D01*
Y179921D01*
X105675Y179462D01*
X106594D01*
X107053Y179921D01*
X107971Y179462D02*
Y181299D01*
X108890Y182217D01*
X109808Y181299D01*
Y179462D01*
Y180840D01*
X107971D01*
X110726Y179462D02*
Y182217D01*
X112563Y179462D01*
Y182217D01*
X113481Y179462D02*
X114400D01*
X113941D01*
Y182217D01*
X113481Y181758D01*
X112467Y72795D02*
X110519Y74743D01*
X111493Y75717D01*
X112142D01*
X112792Y75067D01*
Y74418D01*
X111817Y73444D01*
X112467Y74093D02*
X113766D01*
X115714Y76041D02*
X114415Y74743D01*
Y77340D01*
X114090Y77665D01*
X113441D01*
X112792Y77015D01*
Y76366D01*
X128780Y1143D02*
X126832Y3091D01*
X127806Y4065D01*
X128455D01*
X129104Y3416D01*
Y2766D01*
X128130Y1792D01*
X128780Y2441D02*
X130078D01*
X129104Y4714D02*
Y5364D01*
X129754Y6013D01*
X130403D01*
X130728Y5688D01*
Y5039D01*
X130403Y4714D01*
X130728Y5039D01*
X131377D01*
X131702Y4714D01*
Y4065D01*
X131052Y3416D01*
X130403D01*
X263976Y172507D02*
X261221D01*
Y173885D01*
X261680Y174344D01*
X262598D01*
X263058Y173885D01*
Y172507D01*
Y173426D02*
X263976Y174344D01*
X261680Y175262D02*
X261221Y175722D01*
Y176640D01*
X261680Y177099D01*
X262139D01*
X262598Y176640D01*
X263058Y177099D01*
X263517D01*
X263976Y176640D01*
Y175722D01*
X263517Y175262D01*
X263058D01*
X262598Y175722D01*
X262139Y175262D01*
X261680D01*
X262598Y175722D02*
Y176640D01*
X269783Y172507D02*
X267028D01*
Y173885D01*
X267487Y174344D01*
X268406D01*
X268865Y173885D01*
Y172507D01*
Y173426D02*
X269783Y174344D01*
X267028Y175262D02*
Y177099D01*
X267487D01*
X269324Y175262D01*
X269783D01*
X22933Y174082D02*
X20178D01*
Y175460D01*
X20637Y175919D01*
X21555D01*
X22014Y175460D01*
Y174082D01*
Y175001D02*
X22933Y175919D01*
X20178Y178674D02*
X20637Y177755D01*
X21555Y176837D01*
X22474D01*
X22933Y177296D01*
Y178215D01*
X22474Y178674D01*
X22014D01*
X21555Y178215D01*
Y176837D01*
X29035Y173984D02*
X26280D01*
Y175361D01*
X26739Y175820D01*
X27657D01*
X28117Y175361D01*
Y173984D01*
Y174902D02*
X29035Y175820D01*
X26280Y178575D02*
Y176739D01*
X27657D01*
X27198Y177657D01*
Y178116D01*
X27657Y178575D01*
X28576D01*
X29035Y178116D01*
Y177198D01*
X28576Y176739D01*
X115716Y-43700D02*
Y-40945D01*
X117094D01*
X117553Y-41405D01*
Y-42323D01*
X117094Y-42782D01*
X115716D01*
X116634D02*
X117553Y-43700D01*
X119849D02*
Y-40945D01*
X118471Y-42323D01*
X120308D01*
X103722Y18529D02*
X103072D01*
X102423Y17879D01*
Y17230D01*
X103722Y15931D01*
X104371D01*
X105020Y16580D01*
Y17230D01*
X104371Y17879D01*
X103722Y17230D01*
X105994Y17555D02*
X106644Y18204D01*
X106319Y17879D01*
X104371Y19827D01*
Y19178D01*
X201775Y161745D02*
Y158990D01*
X203152D01*
X203611Y159449D01*
Y161286D01*
X203152Y161745D01*
X201775D01*
X204530Y158990D02*
X205448D01*
X204989D01*
Y161745D01*
X204530Y161286D01*
X206825Y158531D02*
X208662D01*
X211417Y161286D02*
X210958Y161745D01*
X210040D01*
X209580Y161286D01*
Y159449D01*
X210040Y158990D01*
X210958D01*
X211417Y159449D01*
X212335Y158990D02*
Y160827D01*
X213254Y161745D01*
X214172Y160827D01*
Y158990D01*
Y160367D01*
X212335D01*
X215090Y158990D02*
Y161745D01*
X216927Y158990D01*
Y161745D01*
X219682Y158990D02*
X217846D01*
X219682Y160827D01*
Y161286D01*
X219223Y161745D01*
X218305D01*
X217846Y161286D01*
X101348Y160268D02*
Y157513D01*
X102725D01*
X103185Y157973D01*
Y159809D01*
X102725Y160268D01*
X101348D01*
X104103Y157513D02*
X105021D01*
X104562D01*
Y160268D01*
X104103Y159809D01*
X106399Y157054D02*
X108235D01*
X110991Y159809D02*
X110531Y160268D01*
X109613D01*
X109154Y159809D01*
Y157973D01*
X109613Y157513D01*
X110531D01*
X110991Y157973D01*
X111909Y157513D02*
Y159350D01*
X112827Y160268D01*
X113745Y159350D01*
Y157513D01*
Y158891D01*
X111909D01*
X114664Y157513D02*
Y160268D01*
X116500Y157513D01*
Y160268D01*
X117419Y157513D02*
X118337D01*
X117878D01*
Y160268D01*
X117419Y159809D01*
X261221Y201543D02*
Y203380D01*
Y202462D01*
X263976D01*
X261221Y204298D02*
X263976Y206135D01*
X261221D02*
X263976Y204298D01*
Y208890D02*
Y207053D01*
X262139Y208890D01*
X261680D01*
X261221Y208431D01*
Y207512D01*
X261680Y207053D01*
X269808Y201544D02*
X267053D01*
Y202921D01*
X267512Y203380D01*
X268430D01*
X268889Y202921D01*
Y201544D01*
Y202462D02*
X269808Y203380D01*
X267053Y204299D02*
X269808Y206135D01*
X267053D02*
X269808Y204299D01*
Y208890D02*
Y207054D01*
X267971Y208890D01*
X267512D01*
X267053Y208431D01*
Y207513D01*
X267512Y207054D01*
X19489Y202002D02*
Y203839D01*
Y202921D01*
X22244D01*
X19489Y204757D02*
X22244Y206594D01*
X19489D02*
X22244Y204757D01*
Y207512D02*
Y208431D01*
Y207972D01*
X19489D01*
X19948Y207512D01*
X28543Y201805D02*
X25788D01*
Y203183D01*
X26247Y203642D01*
X27165D01*
X27624Y203183D01*
Y201805D01*
Y202724D02*
X28543Y203642D01*
X25788Y204560D02*
X28543Y206397D01*
X25788D02*
X28543Y204560D01*
Y207315D02*
Y208234D01*
Y207775D01*
X25788D01*
X26247Y207315D01*
X102954Y-62664D02*
X102495Y-62205D01*
X101577D01*
X101117Y-62664D01*
Y-63124D01*
X101577Y-63583D01*
X102495D01*
X102954Y-64042D01*
Y-64501D01*
X102495Y-64960D01*
X101577D01*
X101117Y-64501D01*
X104332Y-62664D02*
Y-63124D01*
X103872D01*
X104791D01*
X104332D01*
Y-64501D01*
X104791Y-64960D01*
X106627Y-63124D02*
X107546D01*
X108005Y-63583D01*
Y-64960D01*
X106627D01*
X106168Y-64501D01*
X106627Y-64042D01*
X108005D01*
X109382Y-62664D02*
Y-63124D01*
X108923D01*
X109842D01*
X109382D01*
Y-64501D01*
X109842Y-64960D01*
X112597D02*
X111678D01*
X111219Y-64501D01*
Y-63583D01*
X111678Y-63124D01*
X112597D01*
X113056Y-63583D01*
Y-64042D01*
X111219D01*
X186190Y107546D02*
X185731Y108005D01*
X184813D01*
X184354Y107546D01*
Y105709D01*
X184813Y105250D01*
X185731D01*
X186190Y105709D01*
X187109Y105250D02*
X188027D01*
X187568D01*
Y108005D01*
X187109Y107546D01*
X191241Y105250D02*
X189405D01*
X191241Y107086D01*
Y107546D01*
X190782Y108005D01*
X189864D01*
X189405Y107546D01*
X192160Y104790D02*
X193996D01*
X196751Y107546D02*
X196292Y108005D01*
X195374D01*
X194915Y107546D01*
Y105709D01*
X195374Y105250D01*
X196292D01*
X196751Y105709D01*
X197670Y105250D02*
Y107086D01*
X198588Y108005D01*
X199506Y107086D01*
Y105250D01*
Y106627D01*
X197670D01*
X200425Y105250D02*
Y108005D01*
X202261Y105250D01*
Y108005D01*
X205016Y105250D02*
X203180D01*
X205016Y107086D01*
Y107546D01*
X204557Y108005D01*
X203639D01*
X203180Y107546D01*
X85764Y107152D02*
X85305Y107611D01*
X84386D01*
X83927Y107152D01*
Y105315D01*
X84386Y104856D01*
X85305D01*
X85764Y105315D01*
X86682Y104856D02*
X87600D01*
X87141D01*
Y107611D01*
X86682Y107152D01*
X90815Y104856D02*
X88978D01*
X90815Y106693D01*
Y107152D01*
X90355Y107611D01*
X89437D01*
X88978Y107152D01*
X91733Y104397D02*
X93570D01*
X96325Y107152D02*
X95865Y107611D01*
X94947D01*
X94488Y107152D01*
Y105315D01*
X94947Y104856D01*
X95865D01*
X96325Y105315D01*
X97243Y104856D02*
Y106693D01*
X98161Y107611D01*
X99080Y106693D01*
Y104856D01*
Y106234D01*
X97243D01*
X99998Y104856D02*
Y107611D01*
X101835Y104856D01*
Y107611D01*
X102753Y104856D02*
X103671D01*
X103212D01*
Y107611D01*
X102753Y107152D01*
X165617Y-7645D02*
X165158Y-7186D01*
X164240D01*
X163781Y-7645D01*
Y-9481D01*
X164240Y-9940D01*
X165158D01*
X165617Y-9481D01*
X166536Y-9940D02*
X167454D01*
X166995D01*
Y-7186D01*
X166536Y-7645D01*
X170668Y-7186D02*
X168832D01*
Y-8563D01*
X169750Y-8104D01*
X170209D01*
X170668Y-8563D01*
Y-9481D01*
X170209Y-9940D01*
X169291D01*
X168832Y-9481D01*
X192291Y-15027D02*
X191831Y-14567D01*
X190913D01*
X190454Y-15027D01*
Y-16863D01*
X190913Y-17322D01*
X191831D01*
X192291Y-16863D01*
X193209Y-17322D02*
X194127D01*
X193668D01*
Y-14567D01*
X193209Y-15027D01*
X196882Y-17322D02*
Y-14567D01*
X195505Y-15945D01*
X197341D01*
X119248Y12197D02*
X118598D01*
X117949Y11548D01*
Y10898D01*
X119248Y9600D01*
X119897D01*
X120546Y10249D01*
Y10898D01*
X121196Y11548D02*
X121845D01*
X122494Y12197D01*
Y12846D01*
X121196Y14145D01*
X120546D01*
X119897Y13496D01*
Y12846D01*
X120222Y12522D01*
X120871D01*
X121845Y13496D01*
X119794Y20108D02*
X119144D01*
X118495Y19459D01*
Y18809D01*
X119794Y17511D01*
X120443D01*
X121092Y18160D01*
Y18809D01*
X120443Y20757D02*
Y21407D01*
X121092Y22056D01*
X121742D01*
X122066Y21732D01*
Y21082D01*
X122716D01*
X123040Y20757D01*
Y20108D01*
X122391Y19459D01*
X121742D01*
X121417Y19783D01*
Y20433D01*
X120768D01*
X120443Y20757D01*
X121417Y20433D02*
X122066Y21082D01*
X105522Y33986D02*
X104873D01*
X104223Y33337D01*
Y32687D01*
X105522Y31389D01*
X106171D01*
X106821Y32038D01*
Y32687D01*
X105847Y34960D02*
X107145Y36259D01*
X107470Y35934D01*
Y33337D01*
X107795Y33012D01*
X171866Y26412D02*
X171216D01*
X170567Y25763D01*
Y25114D01*
X171866Y23815D01*
X172515D01*
X173164Y24464D01*
Y25114D01*
X174138Y25438D02*
X174788Y26088D01*
X174463Y25763D01*
X172515Y27711D01*
Y27062D01*
X175762D02*
X176411Y27711D01*
X176087Y27387D01*
X174138Y29335D01*
Y28685D01*
X123632Y7903D02*
X122983D01*
X122334Y7254D01*
Y6605D01*
X123632Y5306D01*
X124282D01*
X124931Y5955D01*
Y6605D01*
X125256Y10176D02*
X123957Y8878D01*
X124931Y7903D01*
X125256Y8878D01*
X125580Y9202D01*
X126230D01*
X126879Y8553D01*
Y7903D01*
X126230Y7254D01*
X125580D01*
X186949Y39823D02*
X186300D01*
X185650Y39173D01*
Y38524D01*
X186949Y37225D01*
X187598D01*
X188248Y37874D01*
Y38524D01*
X189222Y38849D02*
X189871Y39498D01*
X189547Y39173D01*
X187598Y41121D01*
Y40472D01*
X97758Y34242D02*
X97109D01*
X96459Y33593D01*
Y32944D01*
X97758Y31645D01*
X98407D01*
X99057Y32294D01*
Y32944D01*
X101330Y34567D02*
X100031Y33268D01*
Y35866D01*
X99706Y36190D01*
X99057D01*
X98407Y35541D01*
Y34892D01*
X148533Y91165D02*
X147883D01*
X147234Y90516D01*
Y89867D01*
X148533Y88568D01*
X149182D01*
X149831Y89217D01*
Y89867D01*
X151779Y91165D02*
X149831Y93113D01*
Y91165D01*
X151130Y92464D01*
X103665Y68327D02*
X103015D01*
X102366Y67677D01*
Y67028D01*
X103665Y65729D01*
X104314D01*
X104963Y66379D01*
Y67028D01*
X104314Y68976D02*
Y69626D01*
X104963Y70275D01*
X105613D01*
X105938Y69950D01*
Y69301D01*
X105613Y68976D01*
X105938Y69301D01*
X106587D01*
X106912Y68976D01*
Y68327D01*
X106262Y67677D01*
X105613D01*
X175558Y-44948D02*
X175099Y-44489D01*
X174181D01*
X173722Y-44948D01*
Y-46784D01*
X174181Y-47244D01*
X175099D01*
X175558Y-46784D01*
X176477Y-47244D02*
X177395D01*
X176936D01*
Y-44489D01*
X176477Y-44948D01*
X178772D02*
X179232Y-44489D01*
X180150D01*
X180609Y-44948D01*
Y-45407D01*
X180150Y-45866D01*
X179691D01*
X180150D01*
X180609Y-46325D01*
Y-46784D01*
X180150Y-47244D01*
X179232D01*
X178772Y-46784D01*
X160055Y78994D02*
X159406D01*
X158757Y78344D01*
Y77695D01*
X160055Y76396D01*
X160705D01*
X161354Y77046D01*
Y77695D01*
X162328Y78020D02*
X162978Y78669D01*
X162653Y78344D01*
X160705Y80292D01*
Y79643D01*
X162328Y81266D02*
Y81916D01*
X162978Y82565D01*
X163627D01*
X164926Y81266D01*
Y80617D01*
X164276Y79968D01*
X163627D01*
X162328Y81266D01*
D11*
X176723Y-22728D02*
G03*
X176723Y-23628I-667J-450D01*
G01*
D12*
X115277Y40679D02*
G03*
X115277Y40679I-300J0D01*
G01*
X194623Y-20928D02*
Y-20028D01*
X178823Y-35828D02*
Y-34928D01*
Y-35828D02*
X194623D01*
Y-34928D01*
X178823Y-20028D02*
X194623D01*
X178823Y-20928D02*
Y-20028D01*
X115921Y49311D02*
X118417Y51806D01*
X144488Y20744D02*
X146984Y23239D01*
X170560Y51806D02*
X173055Y49311D01*
X141993Y75383D02*
X144488Y77878D01*
X115921Y49311D02*
X118417Y46815D01*
X141993Y23239D02*
X144488Y20744D01*
X170560Y46815D02*
X173055Y49311D01*
X144488Y77878D02*
X146984Y75383D01*
D13*
X82756Y126575D02*
G03*
X82756Y126575I-492J0D01*
G01*
X182756D02*
G03*
X182756Y126575I-492J0D01*
G01*
D14*
X197244Y235531D02*
X227559D01*
X197244Y179626D02*
X227559D01*
X197244D02*
Y235531D01*
X227559Y179626D02*
Y235531D01*
X258957Y179626D02*
Y235531D01*
X228642Y179626D02*
Y235531D01*
Y179626D02*
X258957D01*
X228642Y235531D02*
X258957D01*
X127284Y-59665D02*
Y-53996D01*
X162480Y-59665D02*
Y-53996D01*
Y-75295D02*
Y-70453D01*
X127284Y-75295D02*
X162480D01*
X127284D02*
Y-70453D01*
X174862Y-4685D02*
X187461D01*
X174862Y-12047D02*
X187461D01*
X151201Y-32234D02*
Y-25837D01*
X138878Y-32234D02*
Y-25837D01*
X92520Y179626D02*
Y235531D01*
X62205Y179626D02*
Y235531D01*
Y179626D02*
X92520D01*
X62205Y235531D02*
X92520D01*
X61122Y179626D02*
Y235531D01*
X30807Y179626D02*
Y235531D01*
Y179626D02*
X61122D01*
X30807Y235531D02*
X61122D01*
D15*
X190787Y229606D02*
Y234606D01*
X185787D02*
X190787D01*
X185787Y229606D02*
Y234606D01*
X180787Y190106D02*
Y229106D01*
X195787D01*
Y190106D02*
Y229106D01*
X180787Y190106D02*
X195787D01*
X103976Y229606D02*
Y234606D01*
X98976D02*
X103976D01*
X98976Y229606D02*
Y234606D01*
X93976Y190106D02*
Y229106D01*
X108976D01*
Y190106D02*
Y229106D01*
X93976Y190106D02*
X108976D01*
X188268Y157929D02*
X198110D01*
Y161472D01*
X188268D02*
X198110D01*
X188268Y157929D02*
Y161472D01*
X88474Y157929D02*
X98317D01*
Y161472D01*
X88474D02*
X98317D01*
X88474Y157929D02*
Y161472D01*
D16*
X51165Y74892D02*
Y83292D01*
Y48092D02*
Y56692D01*
X50965Y74292D02*
Y83892D01*
Y47492D02*
Y57292D01*
X50765Y73892D02*
Y84292D01*
Y47092D02*
Y57692D01*
X50565Y73492D02*
Y84692D01*
Y46692D02*
Y58092D01*
X50365Y73292D02*
Y84892D01*
Y46492D02*
Y58292D01*
X50165Y73092D02*
Y85092D01*
Y46292D02*
Y58492D01*
X49965Y72892D02*
Y85292D01*
Y46092D02*
Y58692D01*
X49765Y72692D02*
Y85492D01*
Y45892D02*
Y58892D01*
X49565Y72492D02*
Y85692D01*
Y45692D02*
Y59092D01*
X49365Y72492D02*
Y85692D01*
Y45492D02*
Y59092D01*
X49165Y72292D02*
Y85892D01*
Y45492D02*
Y59292D01*
X48965Y72092D02*
Y85892D01*
Y45292D02*
Y59492D01*
X48765Y72092D02*
Y86092D01*
Y45292D02*
Y59492D01*
X48565Y72092D02*
Y86092D01*
Y45292D02*
Y59492D01*
X48365Y71892D02*
Y86292D01*
Y45092D02*
Y59692D01*
X48165Y71892D02*
Y86292D01*
Y45092D02*
Y59692D01*
X47965Y71692D02*
Y86292D01*
Y45092D02*
Y59692D01*
X47765Y71692D02*
Y86292D01*
Y45092D02*
Y59692D01*
X47565Y71492D02*
Y86292D01*
Y44892D02*
Y59692D01*
X47365Y71492D02*
Y86292D01*
Y44892D02*
Y59692D01*
X47165Y71292D02*
Y86292D01*
Y44892D02*
Y59692D01*
X46965Y71292D02*
Y86292D01*
Y44892D02*
Y59692D01*
X46765Y71092D02*
Y86292D01*
Y44892D02*
Y59692D01*
X46565Y71092D02*
Y86292D01*
Y44892D02*
Y59692D01*
X46365Y70892D02*
Y86292D01*
Y44892D02*
Y59692D01*
X46165Y70892D02*
Y86292D01*
Y44892D02*
Y59692D01*
X45965Y70692D02*
Y86292D01*
Y44892D02*
Y59692D01*
X45765Y70692D02*
Y86092D01*
Y44892D02*
Y59692D01*
X45565Y70492D02*
Y86092D01*
Y44892D02*
Y59692D01*
X45365Y70492D02*
Y86092D01*
Y44892D02*
Y59692D01*
X45165Y70292D02*
Y85892D01*
Y44892D02*
Y59692D01*
X44965Y70292D02*
Y85892D01*
Y44892D02*
Y59692D01*
X44765Y70092D02*
Y85692D01*
Y44892D02*
Y59692D01*
X44565Y70092D02*
Y85492D01*
Y44892D02*
Y59692D01*
X44365Y70092D02*
Y85492D01*
Y44892D02*
Y59692D01*
X44165Y69892D02*
Y85292D01*
Y44892D02*
Y59692D01*
X43965Y69892D02*
Y85292D01*
Y44892D02*
Y59692D01*
X43765Y69692D02*
Y85092D01*
Y44892D02*
Y59692D01*
X43565Y69692D02*
Y85092D01*
Y44892D02*
Y59692D01*
X43365Y69492D02*
Y84892D01*
Y44892D02*
Y59692D01*
X43165Y69492D02*
Y84892D01*
Y44892D02*
Y59692D01*
X42965Y69292D02*
Y84692D01*
Y44892D02*
Y59692D01*
X42765Y69292D02*
Y84692D01*
Y44892D02*
Y59692D01*
X42565Y69092D02*
Y84492D01*
Y44892D02*
Y59692D01*
X42365Y69092D02*
Y84292D01*
Y44892D02*
Y59692D01*
X42165Y68892D02*
Y84292D01*
Y44892D02*
Y59692D01*
X41965Y68892D02*
Y84092D01*
Y44892D02*
Y59692D01*
X41765Y68692D02*
Y84092D01*
Y44892D02*
Y59892D01*
X41565Y68692D02*
Y83892D01*
Y44892D02*
Y59892D01*
X41365Y68492D02*
Y83892D01*
Y44892D02*
Y59892D01*
X41165Y68492D02*
Y83692D01*
Y44892D02*
Y59892D01*
X40965Y68292D02*
Y83692D01*
Y44892D02*
Y59892D01*
X40765Y68292D02*
Y83492D01*
Y44892D02*
Y60092D01*
X40565Y68092D02*
Y83492D01*
Y44892D02*
Y60092D01*
X40365Y68092D02*
Y83292D01*
Y44892D02*
Y60092D01*
X40165Y67892D02*
Y83292D01*
Y44892D02*
Y60292D01*
X39965Y67892D02*
Y83092D01*
Y44892D02*
Y60492D01*
X39765Y67692D02*
Y82892D01*
Y44892D02*
Y60492D01*
X39565Y67492D02*
Y82892D01*
Y44892D02*
Y60692D01*
X39365Y67492D02*
Y82692D01*
Y44892D02*
Y60892D01*
X39165Y67292D02*
Y82692D01*
Y44892D02*
Y61092D01*
X38965Y66892D02*
Y82492D01*
Y44892D02*
Y61292D01*
X38765Y66692D02*
Y82492D01*
Y44892D02*
Y61492D01*
X38565Y66292D02*
Y82292D01*
Y44892D02*
Y61892D01*
X38365Y65892D02*
Y82292D01*
Y44892D02*
Y62292D01*
X38165Y65292D02*
Y82092D01*
Y44892D02*
Y63092D01*
X37965Y44892D02*
Y82092D01*
X37765Y44892D02*
Y81892D01*
X37565Y44892D02*
Y81892D01*
X37365Y44892D02*
Y81892D01*
X37165Y44892D02*
Y81892D01*
X36965Y44892D02*
Y81892D01*
X36765Y44892D02*
Y81892D01*
X36565Y44892D02*
Y81892D01*
X36365Y44892D02*
Y81892D01*
X36165Y44892D02*
Y81892D01*
X35965Y44892D02*
Y81892D01*
X35765Y44892D02*
Y81892D01*
X35565Y44892D02*
Y81892D01*
X35365Y44892D02*
Y82092D01*
X35165Y44892D02*
Y82092D01*
X34965Y44892D02*
Y82292D01*
X34765Y44892D02*
Y82292D01*
X34565Y44892D02*
Y82492D01*
X34365Y44892D02*
Y82492D01*
X34165Y44892D02*
Y82692D01*
X33965Y44892D02*
Y82892D01*
X33765Y44892D02*
Y83092D01*
X33565Y44892D02*
Y83292D01*
X33365Y44892D02*
Y83492D01*
X33165Y44892D02*
Y83692D01*
X32965Y44892D02*
Y83892D01*
X32765Y44892D02*
Y84092D01*
X32565Y44892D02*
Y84292D01*
X32365Y44892D02*
Y84492D01*
X32165Y44892D02*
Y84692D01*
X31965Y44892D02*
Y84892D01*
X31765Y44892D02*
Y85092D01*
X31565Y44892D02*
Y85292D01*
X31365Y44892D02*
Y85492D01*
X31165Y44892D02*
Y85692D01*
X30965Y44892D02*
Y85892D01*
X30765Y44892D02*
Y86092D01*
X30565Y44892D02*
Y86292D01*
X30365Y44892D02*
Y86492D01*
X30165Y44892D02*
Y86692D01*
X29965Y44892D02*
Y86892D01*
X29765Y44892D02*
Y86892D01*
X29565Y44892D02*
Y87092D01*
X29365Y44892D02*
Y87292D01*
X29165Y70292D02*
Y87292D01*
Y44892D02*
Y59692D01*
X28965Y70892D02*
Y87292D01*
Y44892D02*
Y59692D01*
X28765Y71292D02*
Y87492D01*
Y44892D02*
Y59692D01*
X28565Y71492D02*
Y87492D01*
Y44892D02*
Y59692D01*
X28365Y71692D02*
Y87492D01*
Y44892D02*
Y59692D01*
X28165Y71892D02*
Y87492D01*
Y44892D02*
Y59692D01*
X27965Y72092D02*
Y87492D01*
Y44892D02*
Y59692D01*
X27765Y72292D02*
Y87692D01*
Y44892D02*
Y59692D01*
X27565Y72292D02*
Y87692D01*
Y44892D02*
Y59692D01*
X27365Y72492D02*
Y87692D01*
Y44892D02*
Y59692D01*
X27165Y72492D02*
Y87692D01*
Y44892D02*
Y59692D01*
X26965Y72692D02*
Y87692D01*
Y44892D02*
Y59692D01*
X26765Y72692D02*
Y87692D01*
Y44892D02*
Y59692D01*
X26565Y72692D02*
Y87692D01*
Y44892D02*
Y59692D01*
X26365Y72692D02*
Y87692D01*
Y44892D02*
Y58092D01*
X26165Y72892D02*
Y87692D01*
Y44892D02*
Y57892D01*
X25965Y72892D02*
Y87692D01*
Y44892D02*
Y57692D01*
X25765Y72892D02*
Y87692D01*
Y44892D02*
Y57692D01*
X25565Y72892D02*
Y87692D01*
Y44892D02*
Y57692D01*
X25365Y72892D02*
Y87692D01*
Y44892D02*
Y57692D01*
X25165Y72892D02*
Y87692D01*
Y44892D02*
Y57692D01*
X24965Y72892D02*
Y87692D01*
Y44892D02*
Y57892D01*
X24765Y72892D02*
Y87692D01*
Y44892D02*
Y58092D01*
X24565Y72892D02*
Y87692D01*
Y44892D02*
Y59692D01*
X24365Y72892D02*
Y87692D01*
Y44892D02*
Y59692D01*
X24165Y72892D02*
Y87692D01*
Y44892D02*
Y59692D01*
X23965Y72892D02*
Y87692D01*
Y44892D02*
Y59692D01*
X23765Y72892D02*
Y87692D01*
Y44892D02*
Y59692D01*
X23565Y72892D02*
Y87692D01*
Y44892D02*
Y58092D01*
X23365Y72892D02*
Y87692D01*
Y44892D02*
Y57892D01*
X23165Y72892D02*
Y87692D01*
Y44892D02*
Y57692D01*
X22965Y72892D02*
Y87692D01*
Y44892D02*
Y57692D01*
X22765Y72892D02*
Y87692D01*
Y44892D02*
Y57692D01*
X22565Y72892D02*
Y87692D01*
Y44892D02*
Y57692D01*
X22365Y72892D02*
Y87692D01*
Y44892D02*
Y57692D01*
X22165Y72892D02*
Y87692D01*
Y44892D02*
Y57892D01*
X21965Y72892D02*
Y87692D01*
Y44892D02*
Y58092D01*
X21765Y72892D02*
Y87692D01*
Y44892D02*
Y59692D01*
X21565Y72892D02*
Y87692D01*
Y44892D02*
Y59692D01*
X21365Y72892D02*
Y87692D01*
Y44892D02*
Y59692D01*
X21165Y72892D02*
Y87692D01*
Y44892D02*
Y59692D01*
X20965Y72892D02*
Y87692D01*
Y44892D02*
Y59692D01*
X20765Y72892D02*
Y87692D01*
Y44892D02*
Y58092D01*
X20565Y72892D02*
Y87692D01*
Y44892D02*
Y57892D01*
X20365Y72892D02*
Y87692D01*
Y44892D02*
Y57692D01*
X20165Y72892D02*
Y87692D01*
Y44892D02*
Y57692D01*
X19965Y72892D02*
Y87692D01*
Y44892D02*
Y57692D01*
X19765Y72892D02*
Y87692D01*
Y44892D02*
Y57692D01*
X19565Y72892D02*
Y87692D01*
Y44892D02*
Y57692D01*
X19365Y72892D02*
Y87692D01*
Y44892D02*
Y57892D01*
X19165Y72892D02*
Y87692D01*
Y44892D02*
Y58092D01*
X18965Y72892D02*
Y87692D01*
Y44892D02*
Y59692D01*
X18765Y72892D02*
Y87692D01*
Y44892D02*
Y59692D01*
X18565Y72892D02*
Y87692D01*
Y44892D02*
Y59692D01*
X18365Y72892D02*
Y87692D01*
Y44892D02*
Y59692D01*
X18165Y72892D02*
Y87692D01*
Y44892D02*
Y59692D01*
X17965Y72892D02*
Y87692D01*
Y44892D02*
Y59692D01*
X17765Y72892D02*
Y87692D01*
Y44892D02*
Y59692D01*
X17565Y72892D02*
Y87692D01*
Y44892D02*
Y59692D01*
X17365Y72892D02*
Y87692D01*
Y44892D02*
Y59692D01*
X17165Y72892D02*
Y87492D01*
Y44892D02*
Y59692D01*
X16965Y72892D02*
Y87492D01*
Y44892D02*
Y59692D01*
X16765Y72892D02*
Y87492D01*
Y44892D02*
Y59692D01*
X16565Y72892D02*
Y87492D01*
Y44892D02*
Y59692D01*
X16365Y72892D02*
Y87492D01*
Y44892D02*
Y59692D01*
X16165Y72892D02*
Y87292D01*
Y44892D02*
Y59692D01*
X15965Y70092D02*
Y87292D01*
Y67292D02*
Y68092D01*
Y64492D02*
Y65292D01*
Y44892D02*
Y62492D01*
X15765Y70092D02*
Y87092D01*
Y67292D02*
Y68092D01*
Y64492D02*
Y65292D01*
Y44892D02*
Y62492D01*
X15565Y70092D02*
Y87092D01*
Y67292D02*
Y68092D01*
Y64492D02*
Y65292D01*
Y44892D02*
Y62492D01*
X15365Y70092D02*
Y86892D01*
Y67292D02*
Y68092D01*
Y64492D02*
Y65292D01*
Y44892D02*
Y62492D01*
X15165Y70092D02*
Y86692D01*
Y67292D02*
Y68092D01*
Y64492D02*
Y65292D01*
Y44892D02*
Y62492D01*
X14965Y70092D02*
Y86692D01*
Y67292D02*
Y68092D01*
Y64492D02*
Y65292D01*
Y44892D02*
Y62492D01*
X14765Y70092D02*
Y86492D01*
Y67292D02*
Y68092D01*
Y64492D02*
Y65492D01*
Y44892D02*
Y62692D01*
X14565Y69892D02*
Y86292D01*
Y67092D02*
Y68292D01*
Y64492D02*
Y65492D01*
Y44892D02*
Y62692D01*
X14365Y69892D02*
Y86092D01*
Y67092D02*
Y68492D01*
Y64292D02*
Y65692D01*
Y44892D02*
Y62892D01*
X14165Y69692D02*
Y85892D01*
Y66892D02*
Y68692D01*
Y64092D02*
Y65892D01*
Y44892D02*
Y63092D01*
X13965Y44892D02*
Y85692D01*
X13765Y44892D02*
Y85492D01*
X13565Y44892D02*
Y85292D01*
X13365Y44892D02*
Y85092D01*
X13165Y44892D02*
Y84892D01*
X12965Y44892D02*
Y84692D01*
X12765Y44892D02*
Y84492D01*
X12565Y44892D02*
Y84292D01*
X12365Y44892D02*
Y84092D01*
X12165Y44892D02*
Y83892D01*
X11965Y44892D02*
Y83692D01*
X11765Y44892D02*
Y83492D01*
X11565Y44892D02*
Y83292D01*
X11365Y44892D02*
Y83092D01*
X11165Y44892D02*
Y82892D01*
X10965Y44892D02*
Y82692D01*
X10765Y44892D02*
Y82492D01*
X10565Y45092D02*
Y82292D01*
X10365Y45092D02*
Y82092D01*
X10165Y45092D02*
Y81892D01*
X9965Y45092D02*
Y81692D01*
X9765Y45292D02*
Y81492D01*
X9565Y45292D02*
Y81292D01*
X9365Y45492D02*
Y81092D01*
X9165Y45492D02*
Y80892D01*
X8965Y45692D02*
Y80692D01*
X8765Y45692D02*
Y80492D01*
X8565Y45892D02*
Y80292D01*
X8365Y46092D02*
Y80092D01*
X8165Y46292D02*
Y79892D01*
X7965Y46492D02*
Y79492D01*
X7765Y46892D02*
Y79292D01*
X7565Y47292D02*
Y78892D01*
X7365Y47692D02*
Y78492D01*
X7165Y48892D02*
Y77292D01*
X112183Y14243D02*
X121092Y23152D01*
X101152Y25274D02*
X110062Y34183D01*
X101152Y25274D02*
X112183Y14243D01*
X110062Y34183D02*
X121092Y23152D01*
D17*
X178012Y-19094D02*
Y-13583D01*
Y-19094D02*
X189035D01*
Y-13583D01*
X178012D02*
X189035D01*
X184124Y-18039D02*
Y-14639D01*
X182924Y-18039D02*
Y-14639D01*
X171752Y-42913D02*
Y-37402D01*
Y-42913D02*
X182776D01*
Y-37402D01*
X171752D02*
X182776D01*
X177864Y-41857D02*
Y-38458D01*
X176664Y-41857D02*
Y-38458D01*
X161348Y-28534D02*
X165048D01*
X161348Y-29734D02*
Y-28534D01*
Y-29734D02*
X165048D01*
Y-28534D01*
X166004Y-34252D02*
Y-24016D01*
X160492Y-34252D02*
X166004D01*
X160492D02*
Y-24016D01*
X166004D01*
X154753Y-28632D02*
X158454D01*
X154753Y-29832D02*
Y-28632D01*
Y-29832D02*
X158454D01*
Y-28632D01*
X159409Y-34350D02*
Y-24114D01*
X153898Y-34350D02*
X159409D01*
X153898D02*
Y-24114D01*
X159409D01*
X190687Y46236D02*
X193303Y48852D01*
X192455Y49701D02*
X193303Y48852D01*
X189838Y47085D02*
X192455Y49701D01*
X189838Y47085D02*
X190687Y46236D01*
X185968Y49603D02*
X193206Y42365D01*
X185968Y49603D02*
X189865Y53501D01*
X197103Y46263D01*
X193206Y42365D02*
X197103Y46263D01*
X116339Y-61417D02*
X119488D01*
X117913D02*
X119488Y-59842D01*
X116339D02*
X117913Y-61417D01*
X116339Y-59842D02*
X119488D01*
X115157Y-55512D02*
X120669D01*
X115157Y-65748D02*
Y-55512D01*
Y-65748D02*
X120669D01*
Y-55512D01*
X116113Y-50403D02*
X119813D01*
Y-49203D01*
X116113D02*
X119813D01*
X116113Y-50403D02*
Y-49203D01*
X115157Y-54921D02*
Y-44685D01*
X120669D01*
Y-54921D02*
Y-44685D01*
X115157Y-54921D02*
X120669D01*
X178130Y27520D02*
X182027Y31417D01*
X174232Y39212D02*
X182027Y31417D01*
X170335Y35315D02*
X174232Y39212D01*
X170335Y35315D02*
X178130Y27520D01*
X174555Y32588D02*
X176959Y34993D01*
X175403Y31740D02*
X177807Y34144D01*
X124094Y21221D02*
X127992Y25118D01*
X120197Y32913D02*
X127992Y25118D01*
X116299Y29016D02*
X120197Y32913D01*
X116299Y29016D02*
X124094Y21221D01*
X120519Y26289D02*
X122924Y28693D01*
X121368Y25441D02*
X123772Y27845D01*
X125355Y12323D02*
X129252Y8426D01*
X137047Y16220D01*
X133150Y20118D02*
X137047Y16220D01*
X125355Y12323D02*
X133150Y20118D01*
X130423Y15898D02*
X132827Y13494D01*
X129575Y15049D02*
X131979Y12645D01*
X120848Y16675D02*
X124746Y12777D01*
X132540Y20572D01*
X128643Y24469D02*
X132540Y20572D01*
X120848Y16675D02*
X128643Y24469D01*
X125916Y20250D02*
X128321Y17845D01*
X125068Y19401D02*
X127472Y16997D01*
X133933Y10790D02*
X136549Y8173D01*
X137398Y9022D01*
X134781Y11638D02*
X137398Y9022D01*
X133933Y10790D02*
X134781Y11638D01*
X130062Y8271D02*
X137300Y15509D01*
X141198Y11611D01*
X133960Y4373D02*
X141198Y11611D01*
X130062Y8271D02*
X133960Y4373D01*
X182482Y31830D02*
X186379Y35727D01*
X178584Y43522D02*
X186379Y35727D01*
X174687Y39625D02*
X178584Y43522D01*
X174687Y39625D02*
X182482Y31830D01*
X178907Y36898D02*
X181311Y39302D01*
X179755Y36050D02*
X182159Y38454D01*
X25265Y185442D02*
X28965D01*
X25265Y184242D02*
Y185442D01*
Y184242D02*
X28965D01*
Y185442D01*
X29921Y179724D02*
Y189961D01*
X24409Y179724D02*
X29921D01*
X24409D02*
Y189961D01*
X29921D01*
X266732Y195866D02*
X269882D01*
X266732Y194291D02*
X268307Y195866D01*
X269882Y194291D01*
X266732D02*
X269882D01*
X265551Y189961D02*
X271063D01*
Y200197D01*
X265551D02*
X271063D01*
X265551Y189961D02*
Y200197D01*
X176545Y142234D02*
X180245D01*
X176545Y141034D02*
Y142234D01*
Y141034D02*
X180245D01*
Y142234D01*
X181201Y136516D02*
Y146752D01*
X175689Y136516D02*
X181201D01*
X175689D02*
Y146752D01*
X181201D01*
X77037Y142234D02*
X80737D01*
X77037Y141034D02*
Y142234D01*
Y141034D02*
X80737D01*
Y142234D01*
X81693Y136516D02*
Y146752D01*
X76181Y136516D02*
X81693D01*
X76181D02*
Y146752D01*
X81693D01*
X104035Y183563D02*
Y189075D01*
X93799D02*
X104035D01*
X93799Y183563D02*
Y189075D01*
Y183563D02*
X104035D01*
X98317Y184519D02*
X99517D01*
X98317D02*
Y188219D01*
X99517D01*
Y184519D02*
Y188219D01*
X185827Y183268D02*
Y188779D01*
Y183268D02*
X196063D01*
Y188779D01*
X185827D02*
X196063D01*
X190345Y187824D02*
X191545D01*
Y184124D02*
Y187824D01*
X190345Y184124D02*
X191545D01*
X190345D02*
Y187824D01*
X92805Y113654D02*
Y117054D01*
X94006Y113654D02*
Y117054D01*
X87894Y118110D02*
X98917D01*
Y112598D02*
Y118110D01*
X87894Y112598D02*
X98917D01*
X87894D02*
Y118110D01*
X192510Y113458D02*
Y116858D01*
X193710Y113458D02*
Y116858D01*
X187598Y117913D02*
X198622D01*
Y112402D02*
Y117913D01*
X187598Y112402D02*
X198622D01*
X187598D02*
Y117913D01*
X152766Y89126D02*
X155170Y86722D01*
X151917Y88278D02*
X154321Y85874D01*
X151595Y81654D02*
X159389Y89449D01*
X147697Y85551D02*
X151595Y81654D01*
X147697Y85551D02*
X155492Y93346D01*
X159389Y89449D01*
X112838Y71355D02*
X116735Y75253D01*
X112838Y71355D02*
X120076Y64117D01*
X123973Y68015D01*
X116735Y75253D02*
X123973Y68015D01*
X119254Y71382D02*
X120103Y70534D01*
X117486Y67917D02*
X120103Y70534D01*
X116638Y68766D02*
X117486Y67917D01*
X116638Y68766D02*
X119254Y71382D01*
X109004Y61525D02*
X111408Y63929D01*
X109852Y60677D02*
X112256Y63081D01*
X108681Y68149D02*
X116476Y60354D01*
X112579Y56457D02*
X116476Y60354D01*
X104784Y64252D02*
X112579Y56457D01*
X104784Y64252D02*
X108681Y68149D01*
X103787Y40542D02*
X106191Y38137D01*
X104636Y41390D02*
X107040Y38986D01*
X99567Y37815D02*
X107362Y45610D01*
X111259Y41712D01*
X103465Y33918D02*
X111259Y41712D01*
X99567Y37815D02*
X103465Y33918D01*
X112231Y34479D02*
X114635Y36884D01*
X113079Y33631D02*
X115483Y36035D01*
X111908Y41103D02*
X119703Y33309D01*
X115806Y29411D02*
X119703Y33309D01*
X108011Y37206D02*
X115806Y29411D01*
X108011Y37206D02*
X111908Y41103D01*
X24409Y190551D02*
Y200787D01*
X29921D01*
Y190551D02*
Y200787D01*
X24409Y190551D02*
X29921D01*
X25591Y194882D02*
X28740D01*
X27165Y196457D02*
X28740Y194882D01*
X25591D02*
X27165Y196457D01*
X25591D02*
X28740D01*
X18701Y190551D02*
Y200787D01*
X24213D01*
Y190551D02*
Y200787D01*
X18701Y190551D02*
X24213D01*
X19882Y194882D02*
X23031D01*
X21457Y196457D02*
X23031Y194882D01*
X19882D02*
X21457Y196457D01*
X19882D02*
X23031D01*
X259842Y189961D02*
Y200197D01*
X265354D01*
Y189961D02*
Y200197D01*
X259842Y189961D02*
X265354D01*
X261024Y194291D02*
X264173D01*
X262598Y195866D02*
X264173Y194291D01*
X261024D02*
X262598Y195866D01*
X261024D02*
X264173D01*
X259842Y189370D02*
X265354D01*
X259842Y179134D02*
Y189370D01*
Y179134D02*
X265354D01*
Y189370D01*
X264398Y183652D02*
Y184852D01*
X260698Y183652D02*
X264398D01*
X260698D02*
Y184852D01*
X264398D01*
X265551Y189370D02*
X271063D01*
X265551Y179134D02*
Y189370D01*
Y179134D02*
X271063D01*
Y189370D01*
X270107Y183652D02*
Y184852D01*
X266407Y183652D02*
X270107D01*
X266407D02*
Y184852D01*
X270107D01*
X18701Y189961D02*
X24213D01*
X18701Y179724D02*
Y189961D01*
Y179724D02*
X24213D01*
Y189961D01*
X23257Y184242D02*
Y185442D01*
X19557Y184242D02*
X23257D01*
X19557D02*
Y185442D01*
X23257D01*
X159852Y16287D02*
X162256Y18691D01*
X159004Y17136D02*
X161408Y19540D01*
X154784Y19862D02*
X162579Y12067D01*
X154784Y19862D02*
X158681Y23760D01*
X166476Y15965D01*
X162579Y12067D02*
X166476Y15965D01*
X159823Y89016D02*
X163720Y85118D01*
X152028Y81221D02*
X159823Y89016D01*
X152028Y81221D02*
X155925Y77323D01*
X163720Y85118D01*
X156248Y83947D02*
X158652Y81543D01*
X157096Y84796D02*
X159500Y82392D01*
M02*
