G04*
G04 #@! TF.GenerationSoftware,Altium Limited,Altium Designer,24.4.1 (13)*
G04*
G04 Layer_Color=16711935*
%FSLAX25Y25*%
%MOIN*%
G70*
G04*
G04 #@! TF.SameCoordinates,980C99FE-5B2E-4DAE-93CB-92CC450E73B7*
G04*
G04*
G04 #@! TF.FilePolarity,Negative*
G04*
G01*
G75*
%ADD52C,0.07887*%
%ADD53R,0.07887X0.07887*%
G04:AMPARAMS|DCode=54|XSize=70.87mil|YSize=70.87mil|CornerRadius=0mil|HoleSize=0mil|Usage=FLASHONLY|Rotation=0.000|XOffset=0mil|YOffset=0mil|HoleType=Round|Shape=Octagon|*
%AMOCTAGOND54*
4,1,8,0.03543,-0.01772,0.03543,0.01772,0.01772,0.03543,-0.01772,0.03543,-0.03543,0.01772,-0.03543,-0.01772,-0.01772,-0.03543,0.01772,-0.03543,0.03543,-0.01772,0.0*
%
%ADD54OCTAGOND54*%

%ADD55C,0.25800*%
%ADD56O,0.04934X0.09068*%
%ADD57C,0.03556*%
%ADD58R,0.06706X0.06706*%
%ADD59C,0.06706*%
D52*
X205512Y213878D02*
D03*
Y186319D02*
D03*
X236910D02*
D03*
Y213878D02*
D03*
X70472Y186319D02*
D03*
Y213878D02*
D03*
X39075Y186319D02*
D03*
Y213878D02*
D03*
D53*
X219291D02*
D03*
Y186319D02*
D03*
X250689D02*
D03*
Y213878D02*
D03*
X84252Y186319D02*
D03*
Y213878D02*
D03*
X52854Y186319D02*
D03*
Y213878D02*
D03*
D54*
X188287Y224606D02*
D03*
Y194606D02*
D03*
X101476Y224606D02*
D03*
Y194606D02*
D03*
D55*
X246307Y-25000D02*
D03*
X43457D02*
D03*
D56*
X127874Y-48602D02*
D03*
X161890D02*
D03*
X127874Y-65059D02*
D03*
X161890D02*
D03*
D57*
X133504Y-50689D02*
D03*
X156260D02*
D03*
D58*
X238130Y54035D02*
D03*
D59*
X248130D02*
D03*
X258130D02*
D03*
X268130D02*
D03*
X278130D02*
D03*
M02*
